M48
; DRILL file {KiCad 5.1.5-5.1.5} date Mon 01 Jun 2020 10:47:07 AEST
; FORMAT={3:3/ absolute / metric / suppress trailing zeros}
; #@! TF.CreationDate,2020-06-01T10:47:07+10:00
; #@! TF.GenerationSoftware,Kicad,Pcbnew,5.1.5-5.1.5
; #@! TF.FileFunction,Plated,1,2,PTH
FMAT,2
METRIC,LZ
T1C1.016
%
G90
G05
T1
X207516Y-152149
X207516Y-154689
X207516Y-157229
X207516Y-159769
X207516Y-101189
X207516Y-103729
X207516Y-106269
X207516Y-108809
X159816Y-113929
X159816Y-116469
X159816Y-119009
X159816Y-121549
X194816Y-101189
X194816Y-103729
X194816Y-106269
X194816Y-108809
X177316Y-126669
X177316Y-129209
X177316Y-131749
X177316Y-134289
X225016Y-126669
X225016Y-129209
X225016Y-131749
X225016Y-134289
X172516Y-139409
X172516Y-141949
X172516Y-144489
X172516Y-147029
X172516Y-164889
X172516Y-167429
X172516Y-169969
X172516Y-172509
X190016Y-177629
X190016Y-180169
X190016Y-182709
X190016Y-185249
X159816Y-101189
X159816Y-103729
X159816Y-106269
X159816Y-108809
X142316Y-126669
X142316Y-129209
X142316Y-131749
X142316Y-134289
X177316Y-113929
X177316Y-116469
X177316Y-119009
X177316Y-121549
X190016Y-101189
X190016Y-103729
X190016Y-106269
X190016Y-108809
X212316Y-139409
X212316Y-141949
X212316Y-144489
X212316Y-147029
X225016Y-152149
X225016Y-154689
X225016Y-157229
X225016Y-159769
X172516Y-101189
X172516Y-103729
X172516Y-106269
X172516Y-108809
X177316Y-177629
X177316Y-180169
X177316Y-182709
X177316Y-185249
X212316Y-126669
X212316Y-129209
X212316Y-131749
X212316Y-134289
X142316Y-177629
X142316Y-180169
X142316Y-182709
X142316Y-185249
X225016Y-139409
X225016Y-141949
X225016Y-144489
X225016Y-147029
X177316Y-164889
X177316Y-167429
X177316Y-169969
X177316Y-172509
X177316Y-101189
X177316Y-103729
X177316Y-106269
X177316Y-108809
X212316Y-113929
X212316Y-116469
X212316Y-119009
X212316Y-121549
X172516Y-177629
X172516Y-180169
X172516Y-182709
X172516Y-185249
X172516Y-113929
X172516Y-116469
X172516Y-119009
X172516Y-121549
X194816Y-152149
X194816Y-154689
X194816Y-157229
X194816Y-159769
X159816Y-177629
X159816Y-180169
X159816Y-182709
X159816Y-185249
X142316Y-113929
X142316Y-116469
X142316Y-119009
X142316Y-121549
X172516Y-152149
X172516Y-154689
X172516Y-157229
X172516Y-159769
X207516Y-177629
X207516Y-180169
X207516Y-182709
X207516Y-185249
X225016Y-177629
X225016Y-180169
X225016Y-182709
X225016Y-185249
X194816Y-139409
X194816Y-141949
X194816Y-144489
X194816Y-147029
X155016Y-152149
X155016Y-154689
X155016Y-157229
X155016Y-159769
X225016Y-101189
X225016Y-103729
X225016Y-106269
X225016Y-108809
X155016Y-113929
X155016Y-116469
X155016Y-119009
X155016Y-121549
X212316Y-101189
X212316Y-103729
X212316Y-106269
X212316Y-108809
X207516Y-126669
X207516Y-129209
X207516Y-131749
X207516Y-134289
X155016Y-101189
X155016Y-103729
X155016Y-106269
X155016Y-108809
X159816Y-164889
X159816Y-167429
X159816Y-169969
X159816Y-172509
X142316Y-164889
X142316Y-167429
X142316Y-169969
X142316Y-172509
X194816Y-177629
X194816Y-180169
X194816Y-182709
X194816Y-185249
X190016Y-113929
X190016Y-116469
X190016Y-119009
X190016Y-121549
X194816Y-126669
X194816Y-129209
X194816Y-131749
X194816Y-134289
X159816Y-152149
X159816Y-154689
X159816Y-157229
X159816Y-159769
X194816Y-164889
X194816Y-167429
X194816Y-169969
X194816Y-172509
X155016Y-139409
X155016Y-141949
X155016Y-144489
X155016Y-147029
X142316Y-139409
X142316Y-141949
X142316Y-144489
X142316Y-147029
X190016Y-152149
X190016Y-154689
X190016Y-157229
X190016Y-159769
X190016Y-126669
X190016Y-129209
X190016Y-131749
X190016Y-134289
X142316Y-152149
X142316Y-154689
X142316Y-157229
X142316Y-159769
X207516Y-113929
X207516Y-116469
X207516Y-119009
X207516Y-121549
X207516Y-164889
X207516Y-167429
X207516Y-169969
X207516Y-172509
X155016Y-164889
X155016Y-167429
X155016Y-169969
X155016Y-172509
X212316Y-177629
X212316Y-180169
X212316Y-182709
X212316Y-185249
X142316Y-101189
X142316Y-103729
X142316Y-106269
X142316Y-108809
X225016Y-113929
X225016Y-116469
X225016Y-119009
X225016Y-121549
X159816Y-139409
X159816Y-141949
X159816Y-144489
X159816Y-147029
X190016Y-164889
X190016Y-167429
X190016Y-169969
X190016Y-172509
X155016Y-126669
X155016Y-129209
X155016Y-131749
X155016Y-134289
X212316Y-164889
X212316Y-167429
X212316Y-169969
X212316Y-172509
X172516Y-126669
X172516Y-129209
X172516Y-131749
X172516Y-134289
X207516Y-139409
X207516Y-141949
X207516Y-144489
X207516Y-147029
X159816Y-126669
X159816Y-129209
X159816Y-131749
X159816Y-134289
X194816Y-113929
X194816Y-116469
X194816Y-119009
X194816Y-121549
X177316Y-139409
X177316Y-141949
X177316Y-144489
X177316Y-147029
X225016Y-164889
X225016Y-167429
X225016Y-169969
X225016Y-172509
X177316Y-152149
X177316Y-154689
X177316Y-157229
X177316Y-159769
X155016Y-177629
X155016Y-180169
X155016Y-182709
X155016Y-185249
X190016Y-139409
X190016Y-141949
X190016Y-144489
X190016Y-147029
X212316Y-152149
X212316Y-154689
X212316Y-157229
X212316Y-159769
T0
M30
