G04 #@! TF.GenerationSoftware,KiCad,Pcbnew,5.1.5-5.1.5*
G04 #@! TF.CreationDate,2020-06-01T10:48:51+10:00*
G04 #@! TF.ProjectId,SOIC12-TSSOP12_panelized,534f4943-3132-42d5-9453-534f5031325f,rev?*
G04 #@! TF.SameCoordinates,Original*
G04 #@! TF.FileFunction,Copper,L2,Bot*
G04 #@! TF.FilePolarity,Positive*
%FSLAX46Y46*%
G04 Gerber Fmt 4.6, Leading zero omitted, Abs format (unit mm)*
G04 Created by KiCad (PCBNEW 5.1.5-5.1.5) date 2020-06-01 10:48:51*
%MOMM*%
%LPD*%
G04 APERTURE LIST*
%ADD10C,1.879600*%
%ADD11R,0.990600X0.304800*%
%ADD12C,0.254000*%
G04 APERTURE END LIST*
D10*
X225016108Y-182628608D03*
X225016108Y-180088608D03*
X225016108Y-177548608D03*
X225016108Y-175008608D03*
X225016108Y-172468608D03*
X225016108Y-169928608D03*
X225016108Y-164808606D03*
X225016108Y-162268606D03*
X225016108Y-159728606D03*
X225016108Y-157188606D03*
X225016108Y-154648606D03*
X225016108Y-152108606D03*
X225016108Y-146988604D03*
X225016108Y-144448604D03*
X225016108Y-141908604D03*
X225016108Y-139368604D03*
X225016108Y-136828604D03*
X225016108Y-134288604D03*
X225016108Y-129168602D03*
X225016108Y-126628602D03*
X225016108Y-124088602D03*
X225016108Y-121548602D03*
X225016108Y-119008602D03*
X225016108Y-116468602D03*
X225016108Y-111348600D03*
X225016108Y-108808600D03*
X225016108Y-106268600D03*
X225016108Y-103728600D03*
X225016108Y-101188600D03*
X225016108Y-98648600D03*
X207516106Y-182628608D03*
X207516106Y-180088608D03*
X207516106Y-177548608D03*
X207516106Y-175008608D03*
X207516106Y-172468608D03*
X207516106Y-169928608D03*
X207516106Y-164808606D03*
X207516106Y-162268606D03*
X207516106Y-159728606D03*
X207516106Y-157188606D03*
X207516106Y-154648606D03*
X207516106Y-152108606D03*
X207516106Y-146988604D03*
X207516106Y-144448604D03*
X207516106Y-141908604D03*
X207516106Y-139368604D03*
X207516106Y-136828604D03*
X207516106Y-134288604D03*
X207516106Y-129168602D03*
X207516106Y-126628602D03*
X207516106Y-124088602D03*
X207516106Y-121548602D03*
X207516106Y-119008602D03*
X207516106Y-116468602D03*
X207516106Y-111348600D03*
X207516106Y-108808600D03*
X207516106Y-106268600D03*
X207516106Y-103728600D03*
X207516106Y-101188600D03*
X207516106Y-98648600D03*
X190016104Y-182628608D03*
X190016104Y-180088608D03*
X190016104Y-177548608D03*
X190016104Y-175008608D03*
X190016104Y-172468608D03*
X190016104Y-169928608D03*
X190016104Y-164808606D03*
X190016104Y-162268606D03*
X190016104Y-159728606D03*
X190016104Y-157188606D03*
X190016104Y-154648606D03*
X190016104Y-152108606D03*
X190016104Y-146988604D03*
X190016104Y-144448604D03*
X190016104Y-141908604D03*
X190016104Y-139368604D03*
X190016104Y-136828604D03*
X190016104Y-134288604D03*
X190016104Y-129168602D03*
X190016104Y-126628602D03*
X190016104Y-124088602D03*
X190016104Y-121548602D03*
X190016104Y-119008602D03*
X190016104Y-116468602D03*
X190016104Y-111348600D03*
X190016104Y-108808600D03*
X190016104Y-106268600D03*
X190016104Y-103728600D03*
X190016104Y-101188600D03*
X190016104Y-98648600D03*
X172516102Y-182628608D03*
X172516102Y-180088608D03*
X172516102Y-177548608D03*
X172516102Y-175008608D03*
X172516102Y-172468608D03*
X172516102Y-169928608D03*
X172516102Y-164808606D03*
X172516102Y-162268606D03*
X172516102Y-159728606D03*
X172516102Y-157188606D03*
X172516102Y-154648606D03*
X172516102Y-152108606D03*
X172516102Y-146988604D03*
X172516102Y-144448604D03*
X172516102Y-141908604D03*
X172516102Y-139368604D03*
X172516102Y-136828604D03*
X172516102Y-134288604D03*
X172516102Y-129168602D03*
X172516102Y-126628602D03*
X172516102Y-124088602D03*
X172516102Y-121548602D03*
X172516102Y-119008602D03*
X172516102Y-116468602D03*
X172516102Y-111348600D03*
X172516102Y-108808600D03*
X172516102Y-106268600D03*
X172516102Y-103728600D03*
X172516102Y-101188600D03*
X172516102Y-98648600D03*
X155016100Y-182628608D03*
X155016100Y-180088608D03*
X155016100Y-177548608D03*
X155016100Y-175008608D03*
X155016100Y-172468608D03*
X155016100Y-169928608D03*
X155016100Y-164808606D03*
X155016100Y-162268606D03*
X155016100Y-159728606D03*
X155016100Y-157188606D03*
X155016100Y-154648606D03*
X155016100Y-152108606D03*
X155016100Y-146988604D03*
X155016100Y-144448604D03*
X155016100Y-141908604D03*
X155016100Y-139368604D03*
X155016100Y-136828604D03*
X155016100Y-134288604D03*
X155016100Y-129168602D03*
X155016100Y-126628602D03*
X155016100Y-124088602D03*
X155016100Y-121548602D03*
X155016100Y-119008602D03*
X155016100Y-116468602D03*
X212316108Y-182628608D03*
X212316108Y-180088608D03*
X212316108Y-177548608D03*
X212316108Y-175008608D03*
X212316108Y-172468608D03*
X212316108Y-169928608D03*
X212316108Y-164808606D03*
X212316108Y-162268606D03*
X212316108Y-159728606D03*
X212316108Y-157188606D03*
X212316108Y-154648606D03*
X212316108Y-152108606D03*
X212316108Y-146988604D03*
X212316108Y-144448604D03*
X212316108Y-141908604D03*
X212316108Y-139368604D03*
X212316108Y-136828604D03*
X212316108Y-134288604D03*
X212316108Y-129168602D03*
X212316108Y-126628602D03*
X212316108Y-124088602D03*
X212316108Y-121548602D03*
X212316108Y-119008602D03*
X212316108Y-116468602D03*
X212316108Y-111348600D03*
X212316108Y-108808600D03*
X212316108Y-106268600D03*
X212316108Y-103728600D03*
X212316108Y-101188600D03*
X212316108Y-98648600D03*
X194816106Y-182628608D03*
X194816106Y-180088608D03*
X194816106Y-177548608D03*
X194816106Y-175008608D03*
X194816106Y-172468608D03*
X194816106Y-169928608D03*
X194816106Y-164808606D03*
X194816106Y-162268606D03*
X194816106Y-159728606D03*
X194816106Y-157188606D03*
X194816106Y-154648606D03*
X194816106Y-152108606D03*
X194816106Y-146988604D03*
X194816106Y-144448604D03*
X194816106Y-141908604D03*
X194816106Y-139368604D03*
X194816106Y-136828604D03*
X194816106Y-134288604D03*
X194816106Y-129168602D03*
X194816106Y-126628602D03*
X194816106Y-124088602D03*
X194816106Y-121548602D03*
X194816106Y-119008602D03*
X194816106Y-116468602D03*
X194816106Y-111348600D03*
X194816106Y-108808600D03*
X194816106Y-106268600D03*
X194816106Y-103728600D03*
X194816106Y-101188600D03*
X194816106Y-98648600D03*
X177316104Y-182628608D03*
X177316104Y-180088608D03*
X177316104Y-177548608D03*
X177316104Y-175008608D03*
X177316104Y-172468608D03*
X177316104Y-169928608D03*
X177316104Y-164808606D03*
X177316104Y-162268606D03*
X177316104Y-159728606D03*
X177316104Y-157188606D03*
X177316104Y-154648606D03*
X177316104Y-152108606D03*
X177316104Y-146988604D03*
X177316104Y-144448604D03*
X177316104Y-141908604D03*
X177316104Y-139368604D03*
X177316104Y-136828604D03*
X177316104Y-134288604D03*
X177316104Y-129168602D03*
X177316104Y-126628602D03*
X177316104Y-124088602D03*
X177316104Y-121548602D03*
X177316104Y-119008602D03*
X177316104Y-116468602D03*
X177316104Y-111348600D03*
X177316104Y-108808600D03*
X177316104Y-106268600D03*
X177316104Y-103728600D03*
X177316104Y-101188600D03*
X177316104Y-98648600D03*
X159816102Y-182628608D03*
X159816102Y-180088608D03*
X159816102Y-177548608D03*
X159816102Y-175008608D03*
X159816102Y-172468608D03*
X159816102Y-169928608D03*
X159816102Y-164808606D03*
X159816102Y-162268606D03*
X159816102Y-159728606D03*
X159816102Y-157188606D03*
X159816102Y-154648606D03*
X159816102Y-152108606D03*
X159816102Y-146988604D03*
X159816102Y-144448604D03*
X159816102Y-141908604D03*
X159816102Y-139368604D03*
X159816102Y-136828604D03*
X159816102Y-134288604D03*
X159816102Y-129168602D03*
X159816102Y-126628602D03*
X159816102Y-124088602D03*
X159816102Y-121548602D03*
X159816102Y-119008602D03*
X159816102Y-116468602D03*
X159816102Y-111348600D03*
X159816102Y-108808600D03*
X159816102Y-106268600D03*
X159816102Y-103728600D03*
X159816102Y-101188600D03*
X159816102Y-98648600D03*
X142316100Y-182628608D03*
X142316100Y-180088608D03*
X142316100Y-177548608D03*
X142316100Y-175008608D03*
X142316100Y-172468608D03*
X142316100Y-169928608D03*
X142316100Y-164808606D03*
X142316100Y-162268606D03*
X142316100Y-159728606D03*
X142316100Y-157188606D03*
X142316100Y-154648606D03*
X142316100Y-152108606D03*
X142316100Y-146988604D03*
X142316100Y-144448604D03*
X142316100Y-141908604D03*
X142316100Y-139368604D03*
X142316100Y-136828604D03*
X142316100Y-134288604D03*
X142316100Y-129168602D03*
X142316100Y-126628602D03*
X142316100Y-124088602D03*
X142316100Y-121548602D03*
X142316100Y-119008602D03*
X142316100Y-116468602D03*
D11*
X221583908Y-174328608D03*
X221583908Y-174978608D03*
X221583908Y-175628608D03*
X221583908Y-176278608D03*
X221583908Y-176928608D03*
X221583908Y-177578608D03*
X215748308Y-177578608D03*
X215748308Y-176928608D03*
X215748308Y-176278608D03*
X215748308Y-175628608D03*
X215748308Y-174978608D03*
X215748308Y-174328608D03*
X221583908Y-156508606D03*
X221583908Y-157158606D03*
X221583908Y-157808606D03*
X221583908Y-158458606D03*
X221583908Y-159108606D03*
X221583908Y-159758606D03*
X215748308Y-159758606D03*
X215748308Y-159108606D03*
X215748308Y-158458606D03*
X215748308Y-157808606D03*
X215748308Y-157158606D03*
X215748308Y-156508606D03*
X221583908Y-138688604D03*
X221583908Y-139338604D03*
X221583908Y-139988604D03*
X221583908Y-140638604D03*
X221583908Y-141288604D03*
X221583908Y-141938604D03*
X215748308Y-141938604D03*
X215748308Y-141288604D03*
X215748308Y-140638604D03*
X215748308Y-139988604D03*
X215748308Y-139338604D03*
X215748308Y-138688604D03*
X221583908Y-120868602D03*
X221583908Y-121518602D03*
X221583908Y-122168602D03*
X221583908Y-122818602D03*
X221583908Y-123468602D03*
X221583908Y-124118602D03*
X215748308Y-124118602D03*
X215748308Y-123468602D03*
X215748308Y-122818602D03*
X215748308Y-122168602D03*
X215748308Y-121518602D03*
X215748308Y-120868602D03*
X221583908Y-103048600D03*
X221583908Y-103698600D03*
X221583908Y-104348600D03*
X221583908Y-104998600D03*
X221583908Y-105648600D03*
X221583908Y-106298600D03*
X215748308Y-106298600D03*
X215748308Y-105648600D03*
X215748308Y-104998600D03*
X215748308Y-104348600D03*
X215748308Y-103698600D03*
X215748308Y-103048600D03*
X204083906Y-174328608D03*
X204083906Y-174978608D03*
X204083906Y-175628608D03*
X204083906Y-176278608D03*
X204083906Y-176928608D03*
X204083906Y-177578608D03*
X198248306Y-177578608D03*
X198248306Y-176928608D03*
X198248306Y-176278608D03*
X198248306Y-175628608D03*
X198248306Y-174978608D03*
X198248306Y-174328608D03*
X204083906Y-156508606D03*
X204083906Y-157158606D03*
X204083906Y-157808606D03*
X204083906Y-158458606D03*
X204083906Y-159108606D03*
X204083906Y-159758606D03*
X198248306Y-159758606D03*
X198248306Y-159108606D03*
X198248306Y-158458606D03*
X198248306Y-157808606D03*
X198248306Y-157158606D03*
X198248306Y-156508606D03*
X204083906Y-138688604D03*
X204083906Y-139338604D03*
X204083906Y-139988604D03*
X204083906Y-140638604D03*
X204083906Y-141288604D03*
X204083906Y-141938604D03*
X198248306Y-141938604D03*
X198248306Y-141288604D03*
X198248306Y-140638604D03*
X198248306Y-139988604D03*
X198248306Y-139338604D03*
X198248306Y-138688604D03*
X204083906Y-120868602D03*
X204083906Y-121518602D03*
X204083906Y-122168602D03*
X204083906Y-122818602D03*
X204083906Y-123468602D03*
X204083906Y-124118602D03*
X198248306Y-124118602D03*
X198248306Y-123468602D03*
X198248306Y-122818602D03*
X198248306Y-122168602D03*
X198248306Y-121518602D03*
X198248306Y-120868602D03*
X204083906Y-103048600D03*
X204083906Y-103698600D03*
X204083906Y-104348600D03*
X204083906Y-104998600D03*
X204083906Y-105648600D03*
X204083906Y-106298600D03*
X198248306Y-106298600D03*
X198248306Y-105648600D03*
X198248306Y-104998600D03*
X198248306Y-104348600D03*
X198248306Y-103698600D03*
X198248306Y-103048600D03*
X186583904Y-174328608D03*
X186583904Y-174978608D03*
X186583904Y-175628608D03*
X186583904Y-176278608D03*
X186583904Y-176928608D03*
X186583904Y-177578608D03*
X180748304Y-177578608D03*
X180748304Y-176928608D03*
X180748304Y-176278608D03*
X180748304Y-175628608D03*
X180748304Y-174978608D03*
X180748304Y-174328608D03*
X186583904Y-156508606D03*
X186583904Y-157158606D03*
X186583904Y-157808606D03*
X186583904Y-158458606D03*
X186583904Y-159108606D03*
X186583904Y-159758606D03*
X180748304Y-159758606D03*
X180748304Y-159108606D03*
X180748304Y-158458606D03*
X180748304Y-157808606D03*
X180748304Y-157158606D03*
X180748304Y-156508606D03*
X186583904Y-138688604D03*
X186583904Y-139338604D03*
X186583904Y-139988604D03*
X186583904Y-140638604D03*
X186583904Y-141288604D03*
X186583904Y-141938604D03*
X180748304Y-141938604D03*
X180748304Y-141288604D03*
X180748304Y-140638604D03*
X180748304Y-139988604D03*
X180748304Y-139338604D03*
X180748304Y-138688604D03*
X186583904Y-120868602D03*
X186583904Y-121518602D03*
X186583904Y-122168602D03*
X186583904Y-122818602D03*
X186583904Y-123468602D03*
X186583904Y-124118602D03*
X180748304Y-124118602D03*
X180748304Y-123468602D03*
X180748304Y-122818602D03*
X180748304Y-122168602D03*
X180748304Y-121518602D03*
X180748304Y-120868602D03*
X186583904Y-103048600D03*
X186583904Y-103698600D03*
X186583904Y-104348600D03*
X186583904Y-104998600D03*
X186583904Y-105648600D03*
X186583904Y-106298600D03*
X180748304Y-106298600D03*
X180748304Y-105648600D03*
X180748304Y-104998600D03*
X180748304Y-104348600D03*
X180748304Y-103698600D03*
X180748304Y-103048600D03*
X169083902Y-174328608D03*
X169083902Y-174978608D03*
X169083902Y-175628608D03*
X169083902Y-176278608D03*
X169083902Y-176928608D03*
X169083902Y-177578608D03*
X163248302Y-177578608D03*
X163248302Y-176928608D03*
X163248302Y-176278608D03*
X163248302Y-175628608D03*
X163248302Y-174978608D03*
X163248302Y-174328608D03*
X169083902Y-156508606D03*
X169083902Y-157158606D03*
X169083902Y-157808606D03*
X169083902Y-158458606D03*
X169083902Y-159108606D03*
X169083902Y-159758606D03*
X163248302Y-159758606D03*
X163248302Y-159108606D03*
X163248302Y-158458606D03*
X163248302Y-157808606D03*
X163248302Y-157158606D03*
X163248302Y-156508606D03*
X169083902Y-138688604D03*
X169083902Y-139338604D03*
X169083902Y-139988604D03*
X169083902Y-140638604D03*
X169083902Y-141288604D03*
X169083902Y-141938604D03*
X163248302Y-141938604D03*
X163248302Y-141288604D03*
X163248302Y-140638604D03*
X163248302Y-139988604D03*
X163248302Y-139338604D03*
X163248302Y-138688604D03*
X169083902Y-120868602D03*
X169083902Y-121518602D03*
X169083902Y-122168602D03*
X169083902Y-122818602D03*
X169083902Y-123468602D03*
X169083902Y-124118602D03*
X163248302Y-124118602D03*
X163248302Y-123468602D03*
X163248302Y-122818602D03*
X163248302Y-122168602D03*
X163248302Y-121518602D03*
X163248302Y-120868602D03*
X169083902Y-103048600D03*
X169083902Y-103698600D03*
X169083902Y-104348600D03*
X169083902Y-104998600D03*
X169083902Y-105648600D03*
X169083902Y-106298600D03*
X163248302Y-106298600D03*
X163248302Y-105648600D03*
X163248302Y-104998600D03*
X163248302Y-104348600D03*
X163248302Y-103698600D03*
X163248302Y-103048600D03*
X151583900Y-174328608D03*
X151583900Y-174978608D03*
X151583900Y-175628608D03*
X151583900Y-176278608D03*
X151583900Y-176928608D03*
X151583900Y-177578608D03*
X145748300Y-177578608D03*
X145748300Y-176928608D03*
X145748300Y-176278608D03*
X145748300Y-175628608D03*
X145748300Y-174978608D03*
X145748300Y-174328608D03*
X151583900Y-156508606D03*
X151583900Y-157158606D03*
X151583900Y-157808606D03*
X151583900Y-158458606D03*
X151583900Y-159108606D03*
X151583900Y-159758606D03*
X145748300Y-159758606D03*
X145748300Y-159108606D03*
X145748300Y-158458606D03*
X145748300Y-157808606D03*
X145748300Y-157158606D03*
X145748300Y-156508606D03*
X151583900Y-138688604D03*
X151583900Y-139338604D03*
X151583900Y-139988604D03*
X151583900Y-140638604D03*
X151583900Y-141288604D03*
X151583900Y-141938604D03*
X145748300Y-141938604D03*
X145748300Y-141288604D03*
X145748300Y-140638604D03*
X145748300Y-139988604D03*
X145748300Y-139338604D03*
X145748300Y-138688604D03*
X151583900Y-120868602D03*
X151583900Y-121518602D03*
X151583900Y-122168602D03*
X151583900Y-122818602D03*
X151583900Y-123468602D03*
X151583900Y-124118602D03*
X145748300Y-124118602D03*
X145748300Y-123468602D03*
X145748300Y-122818602D03*
X145748300Y-122168602D03*
X145748300Y-121518602D03*
X145748300Y-120868602D03*
X145748300Y-103048600D03*
X145748300Y-103698600D03*
X145748300Y-104348600D03*
X145748300Y-104998600D03*
X145748300Y-105648600D03*
X145748300Y-106298600D03*
X151583900Y-106298600D03*
X151583900Y-105648600D03*
X151583900Y-104998600D03*
X151583900Y-104348600D03*
X151583900Y-103698600D03*
X151583900Y-103048600D03*
D10*
X142316100Y-98648600D03*
X142316100Y-101188600D03*
X142316100Y-103728600D03*
X142316100Y-106268600D03*
X142316100Y-108808600D03*
X142316100Y-111348600D03*
X155016100Y-98648600D03*
X155016100Y-101188600D03*
X155016100Y-103728600D03*
X155016100Y-106268600D03*
X155016100Y-108808600D03*
X155016100Y-111348600D03*
D12*
X151583900Y-103048600D02*
X151583900Y-102080800D01*
X151583900Y-102080800D02*
X155016100Y-98648600D01*
X151583900Y-120868602D02*
X151583900Y-119900802D01*
X151583900Y-138688604D02*
X151583900Y-137720804D01*
X151583900Y-156508606D02*
X151583900Y-155540806D01*
X151583900Y-174328608D02*
X151583900Y-173360808D01*
X169083902Y-103048600D02*
X169083902Y-102080800D01*
X169083902Y-120868602D02*
X169083902Y-119900802D01*
X169083902Y-138688604D02*
X169083902Y-137720804D01*
X169083902Y-156508606D02*
X169083902Y-155540806D01*
X169083902Y-174328608D02*
X169083902Y-173360808D01*
X186583904Y-103048600D02*
X186583904Y-102080800D01*
X186583904Y-120868602D02*
X186583904Y-119900802D01*
X186583904Y-138688604D02*
X186583904Y-137720804D01*
X186583904Y-156508606D02*
X186583904Y-155540806D01*
X186583904Y-174328608D02*
X186583904Y-173360808D01*
X204083906Y-103048600D02*
X204083906Y-102080800D01*
X204083906Y-120868602D02*
X204083906Y-119900802D01*
X204083906Y-138688604D02*
X204083906Y-137720804D01*
X204083906Y-156508606D02*
X204083906Y-155540806D01*
X204083906Y-174328608D02*
X204083906Y-173360808D01*
X221583908Y-103048600D02*
X221583908Y-102080800D01*
X221583908Y-120868602D02*
X221583908Y-119900802D01*
X221583908Y-138688604D02*
X221583908Y-137720804D01*
X221583908Y-156508606D02*
X221583908Y-155540806D01*
X221583908Y-174328608D02*
X221583908Y-173360808D01*
X151583900Y-119900802D02*
X155016100Y-116468602D01*
X151583900Y-137720804D02*
X155016100Y-134288604D01*
X151583900Y-155540806D02*
X155016100Y-152108606D01*
X151583900Y-173360808D02*
X155016100Y-169928608D01*
X169083902Y-102080800D02*
X172516102Y-98648600D01*
X169083902Y-119900802D02*
X172516102Y-116468602D01*
X169083902Y-137720804D02*
X172516102Y-134288604D01*
X169083902Y-155540806D02*
X172516102Y-152108606D01*
X169083902Y-173360808D02*
X172516102Y-169928608D01*
X186583904Y-102080800D02*
X190016104Y-98648600D01*
X186583904Y-119900802D02*
X190016104Y-116468602D01*
X186583904Y-137720804D02*
X190016104Y-134288604D01*
X186583904Y-155540806D02*
X190016104Y-152108606D01*
X186583904Y-173360808D02*
X190016104Y-169928608D01*
X204083906Y-102080800D02*
X207516106Y-98648600D01*
X204083906Y-119900802D02*
X207516106Y-116468602D01*
X204083906Y-137720804D02*
X207516106Y-134288604D01*
X204083906Y-155540806D02*
X207516106Y-152108606D01*
X204083906Y-173360808D02*
X207516106Y-169928608D01*
X221583908Y-102080800D02*
X225016108Y-98648600D01*
X221583908Y-119900802D02*
X225016108Y-116468602D01*
X221583908Y-137720804D02*
X225016108Y-134288604D01*
X221583908Y-155540806D02*
X225016108Y-152108606D01*
X221583908Y-173360808D02*
X225016108Y-169928608D01*
X151583900Y-103698600D02*
X152506100Y-103698600D01*
X152506100Y-103698600D02*
X155016100Y-101188600D01*
X151583900Y-121518602D02*
X152506100Y-121518602D01*
X151583900Y-139338604D02*
X152506100Y-139338604D01*
X151583900Y-157158606D02*
X152506100Y-157158606D01*
X151583900Y-174978608D02*
X152506100Y-174978608D01*
X169083902Y-103698600D02*
X170006102Y-103698600D01*
X169083902Y-121518602D02*
X170006102Y-121518602D01*
X169083902Y-139338604D02*
X170006102Y-139338604D01*
X169083902Y-157158606D02*
X170006102Y-157158606D01*
X169083902Y-174978608D02*
X170006102Y-174978608D01*
X186583904Y-103698600D02*
X187506104Y-103698600D01*
X186583904Y-121518602D02*
X187506104Y-121518602D01*
X186583904Y-139338604D02*
X187506104Y-139338604D01*
X186583904Y-157158606D02*
X187506104Y-157158606D01*
X186583904Y-174978608D02*
X187506104Y-174978608D01*
X204083906Y-103698600D02*
X205006106Y-103698600D01*
X204083906Y-121518602D02*
X205006106Y-121518602D01*
X204083906Y-139338604D02*
X205006106Y-139338604D01*
X204083906Y-157158606D02*
X205006106Y-157158606D01*
X204083906Y-174978608D02*
X205006106Y-174978608D01*
X221583908Y-103698600D02*
X222506108Y-103698600D01*
X221583908Y-121518602D02*
X222506108Y-121518602D01*
X221583908Y-139338604D02*
X222506108Y-139338604D01*
X221583908Y-157158606D02*
X222506108Y-157158606D01*
X221583908Y-174978608D02*
X222506108Y-174978608D01*
X152506100Y-121518602D02*
X155016100Y-119008602D01*
X152506100Y-139338604D02*
X155016100Y-136828604D01*
X152506100Y-157158606D02*
X155016100Y-154648606D01*
X152506100Y-174978608D02*
X155016100Y-172468608D01*
X170006102Y-103698600D02*
X172516102Y-101188600D01*
X170006102Y-121518602D02*
X172516102Y-119008602D01*
X170006102Y-139338604D02*
X172516102Y-136828604D01*
X170006102Y-157158606D02*
X172516102Y-154648606D01*
X170006102Y-174978608D02*
X172516102Y-172468608D01*
X187506104Y-103698600D02*
X190016104Y-101188600D01*
X187506104Y-121518602D02*
X190016104Y-119008602D01*
X187506104Y-139338604D02*
X190016104Y-136828604D01*
X187506104Y-157158606D02*
X190016104Y-154648606D01*
X187506104Y-174978608D02*
X190016104Y-172468608D01*
X205006106Y-103698600D02*
X207516106Y-101188600D01*
X205006106Y-121518602D02*
X207516106Y-119008602D01*
X205006106Y-139338604D02*
X207516106Y-136828604D01*
X205006106Y-157158606D02*
X207516106Y-154648606D01*
X205006106Y-174978608D02*
X207516106Y-172468608D01*
X222506108Y-103698600D02*
X225016108Y-101188600D01*
X222506108Y-121518602D02*
X225016108Y-119008602D01*
X222506108Y-139338604D02*
X225016108Y-136828604D01*
X222506108Y-157158606D02*
X225016108Y-154648606D01*
X222506108Y-174978608D02*
X225016108Y-172468608D01*
X151583900Y-104348600D02*
X154396100Y-104348600D01*
X154396100Y-104348600D02*
X155016100Y-103728600D01*
X151583900Y-122168602D02*
X154396100Y-122168602D01*
X151583900Y-139988604D02*
X154396100Y-139988604D01*
X151583900Y-157808606D02*
X154396100Y-157808606D01*
X151583900Y-175628608D02*
X154396100Y-175628608D01*
X169083902Y-104348600D02*
X171896102Y-104348600D01*
X169083902Y-122168602D02*
X171896102Y-122168602D01*
X169083902Y-139988604D02*
X171896102Y-139988604D01*
X169083902Y-157808606D02*
X171896102Y-157808606D01*
X169083902Y-175628608D02*
X171896102Y-175628608D01*
X186583904Y-104348600D02*
X189396104Y-104348600D01*
X186583904Y-122168602D02*
X189396104Y-122168602D01*
X186583904Y-139988604D02*
X189396104Y-139988604D01*
X186583904Y-157808606D02*
X189396104Y-157808606D01*
X186583904Y-175628608D02*
X189396104Y-175628608D01*
X204083906Y-104348600D02*
X206896106Y-104348600D01*
X204083906Y-122168602D02*
X206896106Y-122168602D01*
X204083906Y-139988604D02*
X206896106Y-139988604D01*
X204083906Y-157808606D02*
X206896106Y-157808606D01*
X204083906Y-175628608D02*
X206896106Y-175628608D01*
X221583908Y-104348600D02*
X224396108Y-104348600D01*
X221583908Y-122168602D02*
X224396108Y-122168602D01*
X221583908Y-139988604D02*
X224396108Y-139988604D01*
X221583908Y-157808606D02*
X224396108Y-157808606D01*
X221583908Y-175628608D02*
X224396108Y-175628608D01*
X154396100Y-122168602D02*
X155016100Y-121548602D01*
X154396100Y-139988604D02*
X155016100Y-139368604D01*
X154396100Y-157808606D02*
X155016100Y-157188606D01*
X154396100Y-175628608D02*
X155016100Y-175008608D01*
X171896102Y-104348600D02*
X172516102Y-103728600D01*
X171896102Y-122168602D02*
X172516102Y-121548602D01*
X171896102Y-139988604D02*
X172516102Y-139368604D01*
X171896102Y-157808606D02*
X172516102Y-157188606D01*
X171896102Y-175628608D02*
X172516102Y-175008608D01*
X189396104Y-104348600D02*
X190016104Y-103728600D01*
X189396104Y-122168602D02*
X190016104Y-121548602D01*
X189396104Y-139988604D02*
X190016104Y-139368604D01*
X189396104Y-157808606D02*
X190016104Y-157188606D01*
X189396104Y-175628608D02*
X190016104Y-175008608D01*
X206896106Y-104348600D02*
X207516106Y-103728600D01*
X206896106Y-122168602D02*
X207516106Y-121548602D01*
X206896106Y-139988604D02*
X207516106Y-139368604D01*
X206896106Y-157808606D02*
X207516106Y-157188606D01*
X206896106Y-175628608D02*
X207516106Y-175008608D01*
X224396108Y-104348600D02*
X225016108Y-103728600D01*
X224396108Y-122168602D02*
X225016108Y-121548602D01*
X224396108Y-139988604D02*
X225016108Y-139368604D01*
X224396108Y-157808606D02*
X225016108Y-157188606D01*
X224396108Y-175628608D02*
X225016108Y-175008608D01*
X151583900Y-104998600D02*
X153746100Y-104998600D01*
X153746100Y-104998600D02*
X155016100Y-106268600D01*
X151583900Y-122818602D02*
X153746100Y-122818602D01*
X151583900Y-140638604D02*
X153746100Y-140638604D01*
X151583900Y-158458606D02*
X153746100Y-158458606D01*
X151583900Y-176278608D02*
X153746100Y-176278608D01*
X169083902Y-104998600D02*
X171246102Y-104998600D01*
X169083902Y-122818602D02*
X171246102Y-122818602D01*
X169083902Y-140638604D02*
X171246102Y-140638604D01*
X169083902Y-158458606D02*
X171246102Y-158458606D01*
X169083902Y-176278608D02*
X171246102Y-176278608D01*
X186583904Y-104998600D02*
X188746104Y-104998600D01*
X186583904Y-122818602D02*
X188746104Y-122818602D01*
X186583904Y-140638604D02*
X188746104Y-140638604D01*
X186583904Y-158458606D02*
X188746104Y-158458606D01*
X186583904Y-176278608D02*
X188746104Y-176278608D01*
X204083906Y-104998600D02*
X206246106Y-104998600D01*
X204083906Y-122818602D02*
X206246106Y-122818602D01*
X204083906Y-140638604D02*
X206246106Y-140638604D01*
X204083906Y-158458606D02*
X206246106Y-158458606D01*
X204083906Y-176278608D02*
X206246106Y-176278608D01*
X221583908Y-104998600D02*
X223746108Y-104998600D01*
X221583908Y-122818602D02*
X223746108Y-122818602D01*
X221583908Y-140638604D02*
X223746108Y-140638604D01*
X221583908Y-158458606D02*
X223746108Y-158458606D01*
X221583908Y-176278608D02*
X223746108Y-176278608D01*
X153746100Y-122818602D02*
X155016100Y-124088602D01*
X153746100Y-140638604D02*
X155016100Y-141908604D01*
X153746100Y-158458606D02*
X155016100Y-159728606D01*
X153746100Y-176278608D02*
X155016100Y-177548608D01*
X171246102Y-104998600D02*
X172516102Y-106268600D01*
X171246102Y-122818602D02*
X172516102Y-124088602D01*
X171246102Y-140638604D02*
X172516102Y-141908604D01*
X171246102Y-158458606D02*
X172516102Y-159728606D01*
X171246102Y-176278608D02*
X172516102Y-177548608D01*
X188746104Y-104998600D02*
X190016104Y-106268600D01*
X188746104Y-122818602D02*
X190016104Y-124088602D01*
X188746104Y-140638604D02*
X190016104Y-141908604D01*
X188746104Y-158458606D02*
X190016104Y-159728606D01*
X188746104Y-176278608D02*
X190016104Y-177548608D01*
X206246106Y-104998600D02*
X207516106Y-106268600D01*
X206246106Y-122818602D02*
X207516106Y-124088602D01*
X206246106Y-140638604D02*
X207516106Y-141908604D01*
X206246106Y-158458606D02*
X207516106Y-159728606D01*
X206246106Y-176278608D02*
X207516106Y-177548608D01*
X223746108Y-104998600D02*
X225016108Y-106268600D01*
X223746108Y-122818602D02*
X225016108Y-124088602D01*
X223746108Y-140638604D02*
X225016108Y-141908604D01*
X223746108Y-158458606D02*
X225016108Y-159728606D01*
X223746108Y-176278608D02*
X225016108Y-177548608D01*
X151583900Y-105648600D02*
X152110100Y-105648600D01*
X152110100Y-105648600D02*
X154000100Y-107538600D01*
X154000100Y-107538600D02*
X154000100Y-107792600D01*
X154000100Y-107792600D02*
X155016100Y-108808600D01*
X151583900Y-123468602D02*
X152110100Y-123468602D01*
X151583900Y-141288604D02*
X152110100Y-141288604D01*
X151583900Y-159108606D02*
X152110100Y-159108606D01*
X151583900Y-176928608D02*
X152110100Y-176928608D01*
X169083902Y-105648600D02*
X169610102Y-105648600D01*
X169083902Y-123468602D02*
X169610102Y-123468602D01*
X169083902Y-141288604D02*
X169610102Y-141288604D01*
X169083902Y-159108606D02*
X169610102Y-159108606D01*
X169083902Y-176928608D02*
X169610102Y-176928608D01*
X186583904Y-105648600D02*
X187110104Y-105648600D01*
X186583904Y-123468602D02*
X187110104Y-123468602D01*
X186583904Y-141288604D02*
X187110104Y-141288604D01*
X186583904Y-159108606D02*
X187110104Y-159108606D01*
X186583904Y-176928608D02*
X187110104Y-176928608D01*
X204083906Y-105648600D02*
X204610106Y-105648600D01*
X204083906Y-123468602D02*
X204610106Y-123468602D01*
X204083906Y-141288604D02*
X204610106Y-141288604D01*
X204083906Y-159108606D02*
X204610106Y-159108606D01*
X204083906Y-176928608D02*
X204610106Y-176928608D01*
X221583908Y-105648600D02*
X222110108Y-105648600D01*
X221583908Y-123468602D02*
X222110108Y-123468602D01*
X221583908Y-141288604D02*
X222110108Y-141288604D01*
X221583908Y-159108606D02*
X222110108Y-159108606D01*
X221583908Y-176928608D02*
X222110108Y-176928608D01*
X152110100Y-123468602D02*
X154000100Y-125358602D01*
X152110100Y-141288604D02*
X154000100Y-143178604D01*
X152110100Y-159108606D02*
X154000100Y-160998606D01*
X152110100Y-176928608D02*
X154000100Y-178818608D01*
X169610102Y-105648600D02*
X171500102Y-107538600D01*
X169610102Y-123468602D02*
X171500102Y-125358602D01*
X169610102Y-141288604D02*
X171500102Y-143178604D01*
X169610102Y-159108606D02*
X171500102Y-160998606D01*
X169610102Y-176928608D02*
X171500102Y-178818608D01*
X187110104Y-105648600D02*
X189000104Y-107538600D01*
X187110104Y-123468602D02*
X189000104Y-125358602D01*
X187110104Y-141288604D02*
X189000104Y-143178604D01*
X187110104Y-159108606D02*
X189000104Y-160998606D01*
X187110104Y-176928608D02*
X189000104Y-178818608D01*
X204610106Y-105648600D02*
X206500106Y-107538600D01*
X204610106Y-123468602D02*
X206500106Y-125358602D01*
X204610106Y-141288604D02*
X206500106Y-143178604D01*
X204610106Y-159108606D02*
X206500106Y-160998606D01*
X204610106Y-176928608D02*
X206500106Y-178818608D01*
X222110108Y-105648600D02*
X224000108Y-107538600D01*
X222110108Y-123468602D02*
X224000108Y-125358602D01*
X222110108Y-141288604D02*
X224000108Y-143178604D01*
X222110108Y-159108606D02*
X224000108Y-160998606D01*
X222110108Y-176928608D02*
X224000108Y-178818608D01*
X154000100Y-125358602D02*
X154000100Y-125612602D01*
X154000100Y-143178604D02*
X154000100Y-143432604D01*
X154000100Y-160998606D02*
X154000100Y-161252606D01*
X154000100Y-178818608D02*
X154000100Y-179072608D01*
X171500102Y-107538600D02*
X171500102Y-107792600D01*
X171500102Y-125358602D02*
X171500102Y-125612602D01*
X171500102Y-143178604D02*
X171500102Y-143432604D01*
X171500102Y-160998606D02*
X171500102Y-161252606D01*
X171500102Y-178818608D02*
X171500102Y-179072608D01*
X189000104Y-107538600D02*
X189000104Y-107792600D01*
X189000104Y-125358602D02*
X189000104Y-125612602D01*
X189000104Y-143178604D02*
X189000104Y-143432604D01*
X189000104Y-160998606D02*
X189000104Y-161252606D01*
X189000104Y-178818608D02*
X189000104Y-179072608D01*
X206500106Y-107538600D02*
X206500106Y-107792600D01*
X206500106Y-125358602D02*
X206500106Y-125612602D01*
X206500106Y-143178604D02*
X206500106Y-143432604D01*
X206500106Y-160998606D02*
X206500106Y-161252606D01*
X206500106Y-178818608D02*
X206500106Y-179072608D01*
X224000108Y-107538600D02*
X224000108Y-107792600D01*
X224000108Y-125358602D02*
X224000108Y-125612602D01*
X224000108Y-143178604D02*
X224000108Y-143432604D01*
X224000108Y-160998606D02*
X224000108Y-161252606D01*
X224000108Y-178818608D02*
X224000108Y-179072608D01*
X154000100Y-125612602D02*
X155016100Y-126628602D01*
X154000100Y-143432604D02*
X155016100Y-144448604D01*
X154000100Y-161252606D02*
X155016100Y-162268606D01*
X154000100Y-179072608D02*
X155016100Y-180088608D01*
X171500102Y-107792600D02*
X172516102Y-108808600D01*
X171500102Y-125612602D02*
X172516102Y-126628602D01*
X171500102Y-143432604D02*
X172516102Y-144448604D01*
X171500102Y-161252606D02*
X172516102Y-162268606D01*
X171500102Y-179072608D02*
X172516102Y-180088608D01*
X189000104Y-107792600D02*
X190016104Y-108808600D01*
X189000104Y-125612602D02*
X190016104Y-126628602D01*
X189000104Y-143432604D02*
X190016104Y-144448604D01*
X189000104Y-161252606D02*
X190016104Y-162268606D01*
X189000104Y-179072608D02*
X190016104Y-180088608D01*
X206500106Y-107792600D02*
X207516106Y-108808600D01*
X206500106Y-125612602D02*
X207516106Y-126628602D01*
X206500106Y-143432604D02*
X207516106Y-144448604D01*
X206500106Y-161252606D02*
X207516106Y-162268606D01*
X206500106Y-179072608D02*
X207516106Y-180088608D01*
X224000108Y-107792600D02*
X225016108Y-108808600D01*
X224000108Y-125612602D02*
X225016108Y-126628602D01*
X224000108Y-143432604D02*
X225016108Y-144448604D01*
X224000108Y-161252606D02*
X225016108Y-162268606D01*
X224000108Y-179072608D02*
X225016108Y-180088608D01*
X151583900Y-106298600D02*
X151583900Y-107916400D01*
X151583900Y-107916400D02*
X155016100Y-111348600D01*
X151583900Y-124118602D02*
X151583900Y-125736402D01*
X151583900Y-141938604D02*
X151583900Y-143556404D01*
X151583900Y-159758606D02*
X151583900Y-161376406D01*
X151583900Y-177578608D02*
X151583900Y-179196408D01*
X169083902Y-106298600D02*
X169083902Y-107916400D01*
X169083902Y-124118602D02*
X169083902Y-125736402D01*
X169083902Y-141938604D02*
X169083902Y-143556404D01*
X169083902Y-159758606D02*
X169083902Y-161376406D01*
X169083902Y-177578608D02*
X169083902Y-179196408D01*
X186583904Y-106298600D02*
X186583904Y-107916400D01*
X186583904Y-124118602D02*
X186583904Y-125736402D01*
X186583904Y-141938604D02*
X186583904Y-143556404D01*
X186583904Y-159758606D02*
X186583904Y-161376406D01*
X186583904Y-177578608D02*
X186583904Y-179196408D01*
X204083906Y-106298600D02*
X204083906Y-107916400D01*
X204083906Y-124118602D02*
X204083906Y-125736402D01*
X204083906Y-141938604D02*
X204083906Y-143556404D01*
X204083906Y-159758606D02*
X204083906Y-161376406D01*
X204083906Y-177578608D02*
X204083906Y-179196408D01*
X221583908Y-106298600D02*
X221583908Y-107916400D01*
X221583908Y-124118602D02*
X221583908Y-125736402D01*
X221583908Y-141938604D02*
X221583908Y-143556404D01*
X221583908Y-159758606D02*
X221583908Y-161376406D01*
X221583908Y-177578608D02*
X221583908Y-179196408D01*
X151583900Y-125736402D02*
X155016100Y-129168602D01*
X151583900Y-143556404D02*
X155016100Y-146988604D01*
X151583900Y-161376406D02*
X155016100Y-164808606D01*
X151583900Y-179196408D02*
X155016100Y-182628608D01*
X169083902Y-107916400D02*
X172516102Y-111348600D01*
X169083902Y-125736402D02*
X172516102Y-129168602D01*
X169083902Y-143556404D02*
X172516102Y-146988604D01*
X169083902Y-161376406D02*
X172516102Y-164808606D01*
X169083902Y-179196408D02*
X172516102Y-182628608D01*
X186583904Y-107916400D02*
X190016104Y-111348600D01*
X186583904Y-125736402D02*
X190016104Y-129168602D01*
X186583904Y-143556404D02*
X190016104Y-146988604D01*
X186583904Y-161376406D02*
X190016104Y-164808606D01*
X186583904Y-179196408D02*
X190016104Y-182628608D01*
X204083906Y-107916400D02*
X207516106Y-111348600D01*
X204083906Y-125736402D02*
X207516106Y-129168602D01*
X204083906Y-143556404D02*
X207516106Y-146988604D01*
X204083906Y-161376406D02*
X207516106Y-164808606D01*
X204083906Y-179196408D02*
X207516106Y-182628608D01*
X221583908Y-107916400D02*
X225016108Y-111348600D01*
X221583908Y-125736402D02*
X225016108Y-129168602D01*
X221583908Y-143556404D02*
X225016108Y-146988604D01*
X221583908Y-161376406D02*
X225016108Y-164808606D01*
X221583908Y-179196408D02*
X225016108Y-182628608D01*
X145748300Y-106298600D02*
X145748300Y-107916400D01*
X145748300Y-107916400D02*
X142316100Y-111348600D01*
X145748300Y-124118602D02*
X145748300Y-125736402D01*
X145748300Y-141938604D02*
X145748300Y-143556404D01*
X145748300Y-159758606D02*
X145748300Y-161376406D01*
X145748300Y-177578608D02*
X145748300Y-179196408D01*
X163248302Y-106298600D02*
X163248302Y-107916400D01*
X163248302Y-124118602D02*
X163248302Y-125736402D01*
X163248302Y-141938604D02*
X163248302Y-143556404D01*
X163248302Y-159758606D02*
X163248302Y-161376406D01*
X163248302Y-177578608D02*
X163248302Y-179196408D01*
X180748304Y-106298600D02*
X180748304Y-107916400D01*
X180748304Y-124118602D02*
X180748304Y-125736402D01*
X180748304Y-141938604D02*
X180748304Y-143556404D01*
X180748304Y-159758606D02*
X180748304Y-161376406D01*
X180748304Y-177578608D02*
X180748304Y-179196408D01*
X198248306Y-106298600D02*
X198248306Y-107916400D01*
X198248306Y-124118602D02*
X198248306Y-125736402D01*
X198248306Y-141938604D02*
X198248306Y-143556404D01*
X198248306Y-159758606D02*
X198248306Y-161376406D01*
X198248306Y-177578608D02*
X198248306Y-179196408D01*
X215748308Y-106298600D02*
X215748308Y-107916400D01*
X215748308Y-124118602D02*
X215748308Y-125736402D01*
X215748308Y-141938604D02*
X215748308Y-143556404D01*
X215748308Y-159758606D02*
X215748308Y-161376406D01*
X215748308Y-177578608D02*
X215748308Y-179196408D01*
X145748300Y-125736402D02*
X142316100Y-129168602D01*
X145748300Y-143556404D02*
X142316100Y-146988604D01*
X145748300Y-161376406D02*
X142316100Y-164808606D01*
X145748300Y-179196408D02*
X142316100Y-182628608D01*
X163248302Y-107916400D02*
X159816102Y-111348600D01*
X163248302Y-125736402D02*
X159816102Y-129168602D01*
X163248302Y-143556404D02*
X159816102Y-146988604D01*
X163248302Y-161376406D02*
X159816102Y-164808606D01*
X163248302Y-179196408D02*
X159816102Y-182628608D01*
X180748304Y-107916400D02*
X177316104Y-111348600D01*
X180748304Y-125736402D02*
X177316104Y-129168602D01*
X180748304Y-143556404D02*
X177316104Y-146988604D01*
X180748304Y-161376406D02*
X177316104Y-164808606D01*
X180748304Y-179196408D02*
X177316104Y-182628608D01*
X198248306Y-107916400D02*
X194816106Y-111348600D01*
X198248306Y-125736402D02*
X194816106Y-129168602D01*
X198248306Y-143556404D02*
X194816106Y-146988604D01*
X198248306Y-161376406D02*
X194816106Y-164808606D01*
X198248306Y-179196408D02*
X194816106Y-182628608D01*
X215748308Y-107916400D02*
X212316108Y-111348600D01*
X215748308Y-125736402D02*
X212316108Y-129168602D01*
X215748308Y-143556404D02*
X212316108Y-146988604D01*
X215748308Y-161376406D02*
X212316108Y-164808606D01*
X215748308Y-179196408D02*
X212316108Y-182628608D01*
X145748300Y-105648600D02*
X145222100Y-105648600D01*
X145222100Y-105648600D02*
X143078100Y-107792600D01*
X143078100Y-107792600D02*
X143078100Y-108046600D01*
X143078100Y-108046600D02*
X142316100Y-108808600D01*
X145748300Y-123468602D02*
X145222100Y-123468602D01*
X145748300Y-141288604D02*
X145222100Y-141288604D01*
X145748300Y-159108606D02*
X145222100Y-159108606D01*
X145748300Y-176928608D02*
X145222100Y-176928608D01*
X163248302Y-105648600D02*
X162722102Y-105648600D01*
X163248302Y-123468602D02*
X162722102Y-123468602D01*
X163248302Y-141288604D02*
X162722102Y-141288604D01*
X163248302Y-159108606D02*
X162722102Y-159108606D01*
X163248302Y-176928608D02*
X162722102Y-176928608D01*
X180748304Y-105648600D02*
X180222104Y-105648600D01*
X180748304Y-123468602D02*
X180222104Y-123468602D01*
X180748304Y-141288604D02*
X180222104Y-141288604D01*
X180748304Y-159108606D02*
X180222104Y-159108606D01*
X180748304Y-176928608D02*
X180222104Y-176928608D01*
X198248306Y-105648600D02*
X197722106Y-105648600D01*
X198248306Y-123468602D02*
X197722106Y-123468602D01*
X198248306Y-141288604D02*
X197722106Y-141288604D01*
X198248306Y-159108606D02*
X197722106Y-159108606D01*
X198248306Y-176928608D02*
X197722106Y-176928608D01*
X215748308Y-105648600D02*
X215222108Y-105648600D01*
X215748308Y-123468602D02*
X215222108Y-123468602D01*
X215748308Y-141288604D02*
X215222108Y-141288604D01*
X215748308Y-159108606D02*
X215222108Y-159108606D01*
X215748308Y-176928608D02*
X215222108Y-176928608D01*
X145222100Y-123468602D02*
X143078100Y-125612602D01*
X145222100Y-141288604D02*
X143078100Y-143432604D01*
X145222100Y-159108606D02*
X143078100Y-161252606D01*
X145222100Y-176928608D02*
X143078100Y-179072608D01*
X162722102Y-105648600D02*
X160578102Y-107792600D01*
X162722102Y-123468602D02*
X160578102Y-125612602D01*
X162722102Y-141288604D02*
X160578102Y-143432604D01*
X162722102Y-159108606D02*
X160578102Y-161252606D01*
X162722102Y-176928608D02*
X160578102Y-179072608D01*
X180222104Y-105648600D02*
X178078104Y-107792600D01*
X180222104Y-123468602D02*
X178078104Y-125612602D01*
X180222104Y-141288604D02*
X178078104Y-143432604D01*
X180222104Y-159108606D02*
X178078104Y-161252606D01*
X180222104Y-176928608D02*
X178078104Y-179072608D01*
X197722106Y-105648600D02*
X195578106Y-107792600D01*
X197722106Y-123468602D02*
X195578106Y-125612602D01*
X197722106Y-141288604D02*
X195578106Y-143432604D01*
X197722106Y-159108606D02*
X195578106Y-161252606D01*
X197722106Y-176928608D02*
X195578106Y-179072608D01*
X215222108Y-105648600D02*
X213078108Y-107792600D01*
X215222108Y-123468602D02*
X213078108Y-125612602D01*
X215222108Y-141288604D02*
X213078108Y-143432604D01*
X215222108Y-159108606D02*
X213078108Y-161252606D01*
X215222108Y-176928608D02*
X213078108Y-179072608D01*
X143078100Y-125612602D02*
X143078100Y-125866602D01*
X143078100Y-143432604D02*
X143078100Y-143686604D01*
X143078100Y-161252606D02*
X143078100Y-161506606D01*
X143078100Y-179072608D02*
X143078100Y-179326608D01*
X160578102Y-107792600D02*
X160578102Y-108046600D01*
X160578102Y-125612602D02*
X160578102Y-125866602D01*
X160578102Y-143432604D02*
X160578102Y-143686604D01*
X160578102Y-161252606D02*
X160578102Y-161506606D01*
X160578102Y-179072608D02*
X160578102Y-179326608D01*
X178078104Y-107792600D02*
X178078104Y-108046600D01*
X178078104Y-125612602D02*
X178078104Y-125866602D01*
X178078104Y-143432604D02*
X178078104Y-143686604D01*
X178078104Y-161252606D02*
X178078104Y-161506606D01*
X178078104Y-179072608D02*
X178078104Y-179326608D01*
X195578106Y-107792600D02*
X195578106Y-108046600D01*
X195578106Y-125612602D02*
X195578106Y-125866602D01*
X195578106Y-143432604D02*
X195578106Y-143686604D01*
X195578106Y-161252606D02*
X195578106Y-161506606D01*
X195578106Y-179072608D02*
X195578106Y-179326608D01*
X213078108Y-107792600D02*
X213078108Y-108046600D01*
X213078108Y-125612602D02*
X213078108Y-125866602D01*
X213078108Y-143432604D02*
X213078108Y-143686604D01*
X213078108Y-161252606D02*
X213078108Y-161506606D01*
X213078108Y-179072608D02*
X213078108Y-179326608D01*
X143078100Y-125866602D02*
X142316100Y-126628602D01*
X143078100Y-143686604D02*
X142316100Y-144448604D01*
X143078100Y-161506606D02*
X142316100Y-162268606D01*
X143078100Y-179326608D02*
X142316100Y-180088608D01*
X160578102Y-108046600D02*
X159816102Y-108808600D01*
X160578102Y-125866602D02*
X159816102Y-126628602D01*
X160578102Y-143686604D02*
X159816102Y-144448604D01*
X160578102Y-161506606D02*
X159816102Y-162268606D01*
X160578102Y-179326608D02*
X159816102Y-180088608D01*
X178078104Y-108046600D02*
X177316104Y-108808600D01*
X178078104Y-125866602D02*
X177316104Y-126628602D01*
X178078104Y-143686604D02*
X177316104Y-144448604D01*
X178078104Y-161506606D02*
X177316104Y-162268606D01*
X178078104Y-179326608D02*
X177316104Y-180088608D01*
X195578106Y-108046600D02*
X194816106Y-108808600D01*
X195578106Y-125866602D02*
X194816106Y-126628602D01*
X195578106Y-143686604D02*
X194816106Y-144448604D01*
X195578106Y-161506606D02*
X194816106Y-162268606D01*
X195578106Y-179326608D02*
X194816106Y-180088608D01*
X213078108Y-108046600D02*
X212316108Y-108808600D01*
X213078108Y-125866602D02*
X212316108Y-126628602D01*
X213078108Y-143686604D02*
X212316108Y-144448604D01*
X213078108Y-161506606D02*
X212316108Y-162268606D01*
X213078108Y-179326608D02*
X212316108Y-180088608D01*
X145748300Y-104998600D02*
X143586100Y-104998600D01*
X143586100Y-104998600D02*
X142316100Y-106268600D01*
X145748300Y-122818602D02*
X143586100Y-122818602D01*
X145748300Y-140638604D02*
X143586100Y-140638604D01*
X145748300Y-158458606D02*
X143586100Y-158458606D01*
X145748300Y-176278608D02*
X143586100Y-176278608D01*
X163248302Y-104998600D02*
X161086102Y-104998600D01*
X163248302Y-122818602D02*
X161086102Y-122818602D01*
X163248302Y-140638604D02*
X161086102Y-140638604D01*
X163248302Y-158458606D02*
X161086102Y-158458606D01*
X163248302Y-176278608D02*
X161086102Y-176278608D01*
X180748304Y-104998600D02*
X178586104Y-104998600D01*
X180748304Y-122818602D02*
X178586104Y-122818602D01*
X180748304Y-140638604D02*
X178586104Y-140638604D01*
X180748304Y-158458606D02*
X178586104Y-158458606D01*
X180748304Y-176278608D02*
X178586104Y-176278608D01*
X198248306Y-104998600D02*
X196086106Y-104998600D01*
X198248306Y-122818602D02*
X196086106Y-122818602D01*
X198248306Y-140638604D02*
X196086106Y-140638604D01*
X198248306Y-158458606D02*
X196086106Y-158458606D01*
X198248306Y-176278608D02*
X196086106Y-176278608D01*
X215748308Y-104998600D02*
X213586108Y-104998600D01*
X215748308Y-122818602D02*
X213586108Y-122818602D01*
X215748308Y-140638604D02*
X213586108Y-140638604D01*
X215748308Y-158458606D02*
X213586108Y-158458606D01*
X215748308Y-176278608D02*
X213586108Y-176278608D01*
X143586100Y-122818602D02*
X142316100Y-124088602D01*
X143586100Y-140638604D02*
X142316100Y-141908604D01*
X143586100Y-158458606D02*
X142316100Y-159728606D01*
X143586100Y-176278608D02*
X142316100Y-177548608D01*
X161086102Y-104998600D02*
X159816102Y-106268600D01*
X161086102Y-122818602D02*
X159816102Y-124088602D01*
X161086102Y-140638604D02*
X159816102Y-141908604D01*
X161086102Y-158458606D02*
X159816102Y-159728606D01*
X161086102Y-176278608D02*
X159816102Y-177548608D01*
X178586104Y-104998600D02*
X177316104Y-106268600D01*
X178586104Y-122818602D02*
X177316104Y-124088602D01*
X178586104Y-140638604D02*
X177316104Y-141908604D01*
X178586104Y-158458606D02*
X177316104Y-159728606D01*
X178586104Y-176278608D02*
X177316104Y-177548608D01*
X196086106Y-104998600D02*
X194816106Y-106268600D01*
X196086106Y-122818602D02*
X194816106Y-124088602D01*
X196086106Y-140638604D02*
X194816106Y-141908604D01*
X196086106Y-158458606D02*
X194816106Y-159728606D01*
X196086106Y-176278608D02*
X194816106Y-177548608D01*
X213586108Y-104998600D02*
X212316108Y-106268600D01*
X213586108Y-122818602D02*
X212316108Y-124088602D01*
X213586108Y-140638604D02*
X212316108Y-141908604D01*
X213586108Y-158458606D02*
X212316108Y-159728606D01*
X213586108Y-176278608D02*
X212316108Y-177548608D01*
X145748300Y-104348600D02*
X142936100Y-104348600D01*
X142936100Y-104348600D02*
X142316100Y-103728600D01*
X145748300Y-122168602D02*
X142936100Y-122168602D01*
X145748300Y-139988604D02*
X142936100Y-139988604D01*
X145748300Y-157808606D02*
X142936100Y-157808606D01*
X145748300Y-175628608D02*
X142936100Y-175628608D01*
X163248302Y-104348600D02*
X160436102Y-104348600D01*
X163248302Y-122168602D02*
X160436102Y-122168602D01*
X163248302Y-139988604D02*
X160436102Y-139988604D01*
X163248302Y-157808606D02*
X160436102Y-157808606D01*
X163248302Y-175628608D02*
X160436102Y-175628608D01*
X180748304Y-104348600D02*
X177936104Y-104348600D01*
X180748304Y-122168602D02*
X177936104Y-122168602D01*
X180748304Y-139988604D02*
X177936104Y-139988604D01*
X180748304Y-157808606D02*
X177936104Y-157808606D01*
X180748304Y-175628608D02*
X177936104Y-175628608D01*
X198248306Y-104348600D02*
X195436106Y-104348600D01*
X198248306Y-122168602D02*
X195436106Y-122168602D01*
X198248306Y-139988604D02*
X195436106Y-139988604D01*
X198248306Y-157808606D02*
X195436106Y-157808606D01*
X198248306Y-175628608D02*
X195436106Y-175628608D01*
X215748308Y-104348600D02*
X212936108Y-104348600D01*
X215748308Y-122168602D02*
X212936108Y-122168602D01*
X215748308Y-139988604D02*
X212936108Y-139988604D01*
X215748308Y-157808606D02*
X212936108Y-157808606D01*
X215748308Y-175628608D02*
X212936108Y-175628608D01*
X142936100Y-122168602D02*
X142316100Y-121548602D01*
X142936100Y-139988604D02*
X142316100Y-139368604D01*
X142936100Y-157808606D02*
X142316100Y-157188606D01*
X142936100Y-175628608D02*
X142316100Y-175008608D01*
X160436102Y-104348600D02*
X159816102Y-103728600D01*
X160436102Y-122168602D02*
X159816102Y-121548602D01*
X160436102Y-139988604D02*
X159816102Y-139368604D01*
X160436102Y-157808606D02*
X159816102Y-157188606D01*
X160436102Y-175628608D02*
X159816102Y-175008608D01*
X177936104Y-104348600D02*
X177316104Y-103728600D01*
X177936104Y-122168602D02*
X177316104Y-121548602D01*
X177936104Y-139988604D02*
X177316104Y-139368604D01*
X177936104Y-157808606D02*
X177316104Y-157188606D01*
X177936104Y-175628608D02*
X177316104Y-175008608D01*
X195436106Y-104348600D02*
X194816106Y-103728600D01*
X195436106Y-122168602D02*
X194816106Y-121548602D01*
X195436106Y-139988604D02*
X194816106Y-139368604D01*
X195436106Y-157808606D02*
X194816106Y-157188606D01*
X195436106Y-175628608D02*
X194816106Y-175008608D01*
X212936108Y-104348600D02*
X212316108Y-103728600D01*
X212936108Y-122168602D02*
X212316108Y-121548602D01*
X212936108Y-139988604D02*
X212316108Y-139368604D01*
X212936108Y-157808606D02*
X212316108Y-157188606D01*
X212936108Y-175628608D02*
X212316108Y-175008608D01*
X145748300Y-103698600D02*
X144826100Y-103698600D01*
X144826100Y-103698600D02*
X142316100Y-101188600D01*
X145748300Y-121518602D02*
X144826100Y-121518602D01*
X145748300Y-139338604D02*
X144826100Y-139338604D01*
X145748300Y-157158606D02*
X144826100Y-157158606D01*
X145748300Y-174978608D02*
X144826100Y-174978608D01*
X163248302Y-103698600D02*
X162326102Y-103698600D01*
X163248302Y-121518602D02*
X162326102Y-121518602D01*
X163248302Y-139338604D02*
X162326102Y-139338604D01*
X163248302Y-157158606D02*
X162326102Y-157158606D01*
X163248302Y-174978608D02*
X162326102Y-174978608D01*
X180748304Y-103698600D02*
X179826104Y-103698600D01*
X180748304Y-121518602D02*
X179826104Y-121518602D01*
X180748304Y-139338604D02*
X179826104Y-139338604D01*
X180748304Y-157158606D02*
X179826104Y-157158606D01*
X180748304Y-174978608D02*
X179826104Y-174978608D01*
X198248306Y-103698600D02*
X197326106Y-103698600D01*
X198248306Y-121518602D02*
X197326106Y-121518602D01*
X198248306Y-139338604D02*
X197326106Y-139338604D01*
X198248306Y-157158606D02*
X197326106Y-157158606D01*
X198248306Y-174978608D02*
X197326106Y-174978608D01*
X215748308Y-103698600D02*
X214826108Y-103698600D01*
X215748308Y-121518602D02*
X214826108Y-121518602D01*
X215748308Y-139338604D02*
X214826108Y-139338604D01*
X215748308Y-157158606D02*
X214826108Y-157158606D01*
X215748308Y-174978608D02*
X214826108Y-174978608D01*
X144826100Y-121518602D02*
X142316100Y-119008602D01*
X144826100Y-139338604D02*
X142316100Y-136828604D01*
X144826100Y-157158606D02*
X142316100Y-154648606D01*
X144826100Y-174978608D02*
X142316100Y-172468608D01*
X162326102Y-103698600D02*
X159816102Y-101188600D01*
X162326102Y-121518602D02*
X159816102Y-119008602D01*
X162326102Y-139338604D02*
X159816102Y-136828604D01*
X162326102Y-157158606D02*
X159816102Y-154648606D01*
X162326102Y-174978608D02*
X159816102Y-172468608D01*
X179826104Y-103698600D02*
X177316104Y-101188600D01*
X179826104Y-121518602D02*
X177316104Y-119008602D01*
X179826104Y-139338604D02*
X177316104Y-136828604D01*
X179826104Y-157158606D02*
X177316104Y-154648606D01*
X179826104Y-174978608D02*
X177316104Y-172468608D01*
X197326106Y-103698600D02*
X194816106Y-101188600D01*
X197326106Y-121518602D02*
X194816106Y-119008602D01*
X197326106Y-139338604D02*
X194816106Y-136828604D01*
X197326106Y-157158606D02*
X194816106Y-154648606D01*
X197326106Y-174978608D02*
X194816106Y-172468608D01*
X214826108Y-103698600D02*
X212316108Y-101188600D01*
X214826108Y-121518602D02*
X212316108Y-119008602D01*
X214826108Y-139338604D02*
X212316108Y-136828604D01*
X214826108Y-157158606D02*
X212316108Y-154648606D01*
X214826108Y-174978608D02*
X212316108Y-172468608D01*
X145748300Y-103048600D02*
X145748300Y-102080800D01*
X145748300Y-102080800D02*
X142316100Y-98648600D01*
X145748300Y-120868602D02*
X145748300Y-119900802D01*
X145748300Y-138688604D02*
X145748300Y-137720804D01*
X145748300Y-156508606D02*
X145748300Y-155540806D01*
X145748300Y-174328608D02*
X145748300Y-173360808D01*
X163248302Y-103048600D02*
X163248302Y-102080800D01*
X163248302Y-120868602D02*
X163248302Y-119900802D01*
X163248302Y-138688604D02*
X163248302Y-137720804D01*
X163248302Y-156508606D02*
X163248302Y-155540806D01*
X163248302Y-174328608D02*
X163248302Y-173360808D01*
X180748304Y-103048600D02*
X180748304Y-102080800D01*
X180748304Y-120868602D02*
X180748304Y-119900802D01*
X180748304Y-138688604D02*
X180748304Y-137720804D01*
X180748304Y-156508606D02*
X180748304Y-155540806D01*
X180748304Y-174328608D02*
X180748304Y-173360808D01*
X198248306Y-103048600D02*
X198248306Y-102080800D01*
X198248306Y-120868602D02*
X198248306Y-119900802D01*
X198248306Y-138688604D02*
X198248306Y-137720804D01*
X198248306Y-156508606D02*
X198248306Y-155540806D01*
X198248306Y-174328608D02*
X198248306Y-173360808D01*
X215748308Y-103048600D02*
X215748308Y-102080800D01*
X215748308Y-120868602D02*
X215748308Y-119900802D01*
X215748308Y-138688604D02*
X215748308Y-137720804D01*
X215748308Y-156508606D02*
X215748308Y-155540806D01*
X215748308Y-174328608D02*
X215748308Y-173360808D01*
X145748300Y-119900802D02*
X142316100Y-116468602D01*
X145748300Y-137720804D02*
X142316100Y-134288604D01*
X145748300Y-155540806D02*
X142316100Y-152108606D01*
X145748300Y-173360808D02*
X142316100Y-169928608D01*
X163248302Y-102080800D02*
X159816102Y-98648600D01*
X163248302Y-119900802D02*
X159816102Y-116468602D01*
X163248302Y-137720804D02*
X159816102Y-134288604D01*
X163248302Y-155540806D02*
X159816102Y-152108606D01*
X163248302Y-173360808D02*
X159816102Y-169928608D01*
X180748304Y-102080800D02*
X177316104Y-98648600D01*
X180748304Y-119900802D02*
X177316104Y-116468602D01*
X180748304Y-137720804D02*
X177316104Y-134288604D01*
X180748304Y-155540806D02*
X177316104Y-152108606D01*
X180748304Y-173360808D02*
X177316104Y-169928608D01*
X198248306Y-102080800D02*
X194816106Y-98648600D01*
X198248306Y-119900802D02*
X194816106Y-116468602D01*
X198248306Y-137720804D02*
X194816106Y-134288604D01*
X198248306Y-155540806D02*
X194816106Y-152108606D01*
X198248306Y-173360808D02*
X194816106Y-169928608D01*
X215748308Y-102080800D02*
X212316108Y-98648600D01*
X215748308Y-119900802D02*
X212316108Y-116468602D01*
X215748308Y-137720804D02*
X212316108Y-134288604D01*
X215748308Y-155540806D02*
X212316108Y-152108606D01*
X215748308Y-173360808D02*
X212316108Y-169928608D01*
M02*
