G04 #@! TF.GenerationSoftware,KiCad,Pcbnew,5.1.5-5.1.5*
G04 #@! TF.CreationDate,2020-06-01T10:48:51+10:00*
G04 #@! TF.ProjectId,SOIC12-TSSOP12_panelized,534f4943-3132-42d5-9453-534f5031325f,rev?*
G04 #@! TF.SameCoordinates,Original*
G04 #@! TF.FileFunction,Legend,Bot*
G04 #@! TF.FilePolarity,Positive*
%FSLAX46Y46*%
G04 Gerber Fmt 4.6, Leading zero omitted, Abs format (unit mm)*
G04 Created by KiCad (PCBNEW 5.1.5-5.1.5) date 2020-06-01 10:48:51*
%MOMM*%
%LPD*%
G04 APERTURE LIST*
%ADD10C,0.101600*%
%ADD11C,0.152400*%
%ADD12C,0.100000*%
G04 APERTURE END LIST*
D10*
X214505829Y-170506155D02*
X215195258Y-170506155D01*
X214850544Y-170506155D02*
X214850544Y-169299655D01*
X214965448Y-169472012D01*
X215080353Y-169586917D01*
X215195258Y-169644369D01*
X214046210Y-169414560D02*
X213988758Y-169357108D01*
X213873853Y-169299655D01*
X213586591Y-169299655D01*
X213471687Y-169357108D01*
X213414234Y-169414560D01*
X213356782Y-169529465D01*
X213356782Y-169644369D01*
X213414234Y-169816727D01*
X214103663Y-170506155D01*
X213356782Y-170506155D01*
X214505829Y-152686153D02*
X215195258Y-152686153D01*
X214850544Y-152686153D02*
X214850544Y-151479653D01*
X214965448Y-151652010D01*
X215080353Y-151766915D01*
X215195258Y-151824367D01*
X214046210Y-151594558D02*
X213988758Y-151537106D01*
X213873853Y-151479653D01*
X213586591Y-151479653D01*
X213471687Y-151537106D01*
X213414234Y-151594558D01*
X213356782Y-151709463D01*
X213356782Y-151824367D01*
X213414234Y-151996725D01*
X214103663Y-152686153D01*
X213356782Y-152686153D01*
X214505829Y-134866151D02*
X215195258Y-134866151D01*
X214850544Y-134866151D02*
X214850544Y-133659651D01*
X214965448Y-133832008D01*
X215080353Y-133946913D01*
X215195258Y-134004365D01*
X214046210Y-133774556D02*
X213988758Y-133717104D01*
X213873853Y-133659651D01*
X213586591Y-133659651D01*
X213471687Y-133717104D01*
X213414234Y-133774556D01*
X213356782Y-133889461D01*
X213356782Y-134004365D01*
X213414234Y-134176723D01*
X214103663Y-134866151D01*
X213356782Y-134866151D01*
X214505829Y-117046149D02*
X215195258Y-117046149D01*
X214850544Y-117046149D02*
X214850544Y-115839649D01*
X214965448Y-116012006D01*
X215080353Y-116126911D01*
X215195258Y-116184363D01*
X214046210Y-115954554D02*
X213988758Y-115897102D01*
X213873853Y-115839649D01*
X213586591Y-115839649D01*
X213471687Y-115897102D01*
X213414234Y-115954554D01*
X213356782Y-116069459D01*
X213356782Y-116184363D01*
X213414234Y-116356721D01*
X214103663Y-117046149D01*
X213356782Y-117046149D01*
X214505829Y-99226147D02*
X215195258Y-99226147D01*
X214850544Y-99226147D02*
X214850544Y-98019647D01*
X214965448Y-98192004D01*
X215080353Y-98306909D01*
X215195258Y-98364361D01*
X214046210Y-98134552D02*
X213988758Y-98077100D01*
X213873853Y-98019647D01*
X213586591Y-98019647D01*
X213471687Y-98077100D01*
X213414234Y-98134552D01*
X213356782Y-98249457D01*
X213356782Y-98364361D01*
X213414234Y-98536719D01*
X214103663Y-99226147D01*
X213356782Y-99226147D01*
X197005827Y-170506155D02*
X197695256Y-170506155D01*
X197350542Y-170506155D02*
X197350542Y-169299655D01*
X197465446Y-169472012D01*
X197580351Y-169586917D01*
X197695256Y-169644369D01*
X196546208Y-169414560D02*
X196488756Y-169357108D01*
X196373851Y-169299655D01*
X196086589Y-169299655D01*
X195971685Y-169357108D01*
X195914232Y-169414560D01*
X195856780Y-169529465D01*
X195856780Y-169644369D01*
X195914232Y-169816727D01*
X196603661Y-170506155D01*
X195856780Y-170506155D01*
X197005827Y-152686153D02*
X197695256Y-152686153D01*
X197350542Y-152686153D02*
X197350542Y-151479653D01*
X197465446Y-151652010D01*
X197580351Y-151766915D01*
X197695256Y-151824367D01*
X196546208Y-151594558D02*
X196488756Y-151537106D01*
X196373851Y-151479653D01*
X196086589Y-151479653D01*
X195971685Y-151537106D01*
X195914232Y-151594558D01*
X195856780Y-151709463D01*
X195856780Y-151824367D01*
X195914232Y-151996725D01*
X196603661Y-152686153D01*
X195856780Y-152686153D01*
X197005827Y-134866151D02*
X197695256Y-134866151D01*
X197350542Y-134866151D02*
X197350542Y-133659651D01*
X197465446Y-133832008D01*
X197580351Y-133946913D01*
X197695256Y-134004365D01*
X196546208Y-133774556D02*
X196488756Y-133717104D01*
X196373851Y-133659651D01*
X196086589Y-133659651D01*
X195971685Y-133717104D01*
X195914232Y-133774556D01*
X195856780Y-133889461D01*
X195856780Y-134004365D01*
X195914232Y-134176723D01*
X196603661Y-134866151D01*
X195856780Y-134866151D01*
X197005827Y-117046149D02*
X197695256Y-117046149D01*
X197350542Y-117046149D02*
X197350542Y-115839649D01*
X197465446Y-116012006D01*
X197580351Y-116126911D01*
X197695256Y-116184363D01*
X196546208Y-115954554D02*
X196488756Y-115897102D01*
X196373851Y-115839649D01*
X196086589Y-115839649D01*
X195971685Y-115897102D01*
X195914232Y-115954554D01*
X195856780Y-116069459D01*
X195856780Y-116184363D01*
X195914232Y-116356721D01*
X196603661Y-117046149D01*
X195856780Y-117046149D01*
X197005827Y-99226147D02*
X197695256Y-99226147D01*
X197350542Y-99226147D02*
X197350542Y-98019647D01*
X197465446Y-98192004D01*
X197580351Y-98306909D01*
X197695256Y-98364361D01*
X196546208Y-98134552D02*
X196488756Y-98077100D01*
X196373851Y-98019647D01*
X196086589Y-98019647D01*
X195971685Y-98077100D01*
X195914232Y-98134552D01*
X195856780Y-98249457D01*
X195856780Y-98364361D01*
X195914232Y-98536719D01*
X196603661Y-99226147D01*
X195856780Y-99226147D01*
X179505825Y-170506155D02*
X180195254Y-170506155D01*
X179850540Y-170506155D02*
X179850540Y-169299655D01*
X179965444Y-169472012D01*
X180080349Y-169586917D01*
X180195254Y-169644369D01*
X179046206Y-169414560D02*
X178988754Y-169357108D01*
X178873849Y-169299655D01*
X178586587Y-169299655D01*
X178471683Y-169357108D01*
X178414230Y-169414560D01*
X178356778Y-169529465D01*
X178356778Y-169644369D01*
X178414230Y-169816727D01*
X179103659Y-170506155D01*
X178356778Y-170506155D01*
X179505825Y-152686153D02*
X180195254Y-152686153D01*
X179850540Y-152686153D02*
X179850540Y-151479653D01*
X179965444Y-151652010D01*
X180080349Y-151766915D01*
X180195254Y-151824367D01*
X179046206Y-151594558D02*
X178988754Y-151537106D01*
X178873849Y-151479653D01*
X178586587Y-151479653D01*
X178471683Y-151537106D01*
X178414230Y-151594558D01*
X178356778Y-151709463D01*
X178356778Y-151824367D01*
X178414230Y-151996725D01*
X179103659Y-152686153D01*
X178356778Y-152686153D01*
X179505825Y-134866151D02*
X180195254Y-134866151D01*
X179850540Y-134866151D02*
X179850540Y-133659651D01*
X179965444Y-133832008D01*
X180080349Y-133946913D01*
X180195254Y-134004365D01*
X179046206Y-133774556D02*
X178988754Y-133717104D01*
X178873849Y-133659651D01*
X178586587Y-133659651D01*
X178471683Y-133717104D01*
X178414230Y-133774556D01*
X178356778Y-133889461D01*
X178356778Y-134004365D01*
X178414230Y-134176723D01*
X179103659Y-134866151D01*
X178356778Y-134866151D01*
X179505825Y-117046149D02*
X180195254Y-117046149D01*
X179850540Y-117046149D02*
X179850540Y-115839649D01*
X179965444Y-116012006D01*
X180080349Y-116126911D01*
X180195254Y-116184363D01*
X179046206Y-115954554D02*
X178988754Y-115897102D01*
X178873849Y-115839649D01*
X178586587Y-115839649D01*
X178471683Y-115897102D01*
X178414230Y-115954554D01*
X178356778Y-116069459D01*
X178356778Y-116184363D01*
X178414230Y-116356721D01*
X179103659Y-117046149D01*
X178356778Y-117046149D01*
X179505825Y-99226147D02*
X180195254Y-99226147D01*
X179850540Y-99226147D02*
X179850540Y-98019647D01*
X179965444Y-98192004D01*
X180080349Y-98306909D01*
X180195254Y-98364361D01*
X179046206Y-98134552D02*
X178988754Y-98077100D01*
X178873849Y-98019647D01*
X178586587Y-98019647D01*
X178471683Y-98077100D01*
X178414230Y-98134552D01*
X178356778Y-98249457D01*
X178356778Y-98364361D01*
X178414230Y-98536719D01*
X179103659Y-99226147D01*
X178356778Y-99226147D01*
X162005823Y-170506155D02*
X162695252Y-170506155D01*
X162350538Y-170506155D02*
X162350538Y-169299655D01*
X162465442Y-169472012D01*
X162580347Y-169586917D01*
X162695252Y-169644369D01*
X161546204Y-169414560D02*
X161488752Y-169357108D01*
X161373847Y-169299655D01*
X161086585Y-169299655D01*
X160971681Y-169357108D01*
X160914228Y-169414560D01*
X160856776Y-169529465D01*
X160856776Y-169644369D01*
X160914228Y-169816727D01*
X161603657Y-170506155D01*
X160856776Y-170506155D01*
X162005823Y-152686153D02*
X162695252Y-152686153D01*
X162350538Y-152686153D02*
X162350538Y-151479653D01*
X162465442Y-151652010D01*
X162580347Y-151766915D01*
X162695252Y-151824367D01*
X161546204Y-151594558D02*
X161488752Y-151537106D01*
X161373847Y-151479653D01*
X161086585Y-151479653D01*
X160971681Y-151537106D01*
X160914228Y-151594558D01*
X160856776Y-151709463D01*
X160856776Y-151824367D01*
X160914228Y-151996725D01*
X161603657Y-152686153D01*
X160856776Y-152686153D01*
X162005823Y-134866151D02*
X162695252Y-134866151D01*
X162350538Y-134866151D02*
X162350538Y-133659651D01*
X162465442Y-133832008D01*
X162580347Y-133946913D01*
X162695252Y-134004365D01*
X161546204Y-133774556D02*
X161488752Y-133717104D01*
X161373847Y-133659651D01*
X161086585Y-133659651D01*
X160971681Y-133717104D01*
X160914228Y-133774556D01*
X160856776Y-133889461D01*
X160856776Y-134004365D01*
X160914228Y-134176723D01*
X161603657Y-134866151D01*
X160856776Y-134866151D01*
X162005823Y-117046149D02*
X162695252Y-117046149D01*
X162350538Y-117046149D02*
X162350538Y-115839649D01*
X162465442Y-116012006D01*
X162580347Y-116126911D01*
X162695252Y-116184363D01*
X161546204Y-115954554D02*
X161488752Y-115897102D01*
X161373847Y-115839649D01*
X161086585Y-115839649D01*
X160971681Y-115897102D01*
X160914228Y-115954554D01*
X160856776Y-116069459D01*
X160856776Y-116184363D01*
X160914228Y-116356721D01*
X161603657Y-117046149D01*
X160856776Y-117046149D01*
X162005823Y-99226147D02*
X162695252Y-99226147D01*
X162350538Y-99226147D02*
X162350538Y-98019647D01*
X162465442Y-98192004D01*
X162580347Y-98306909D01*
X162695252Y-98364361D01*
X161546204Y-98134552D02*
X161488752Y-98077100D01*
X161373847Y-98019647D01*
X161086585Y-98019647D01*
X160971681Y-98077100D01*
X160914228Y-98134552D01*
X160856776Y-98249457D01*
X160856776Y-98364361D01*
X160914228Y-98536719D01*
X161603657Y-99226147D01*
X160856776Y-99226147D01*
X144505821Y-170506155D02*
X145195250Y-170506155D01*
X144850536Y-170506155D02*
X144850536Y-169299655D01*
X144965440Y-169472012D01*
X145080345Y-169586917D01*
X145195250Y-169644369D01*
X144046202Y-169414560D02*
X143988750Y-169357108D01*
X143873845Y-169299655D01*
X143586583Y-169299655D01*
X143471679Y-169357108D01*
X143414226Y-169414560D01*
X143356774Y-169529465D01*
X143356774Y-169644369D01*
X143414226Y-169816727D01*
X144103655Y-170506155D01*
X143356774Y-170506155D01*
X144505821Y-152686153D02*
X145195250Y-152686153D01*
X144850536Y-152686153D02*
X144850536Y-151479653D01*
X144965440Y-151652010D01*
X145080345Y-151766915D01*
X145195250Y-151824367D01*
X144046202Y-151594558D02*
X143988750Y-151537106D01*
X143873845Y-151479653D01*
X143586583Y-151479653D01*
X143471679Y-151537106D01*
X143414226Y-151594558D01*
X143356774Y-151709463D01*
X143356774Y-151824367D01*
X143414226Y-151996725D01*
X144103655Y-152686153D01*
X143356774Y-152686153D01*
X144505821Y-134866151D02*
X145195250Y-134866151D01*
X144850536Y-134866151D02*
X144850536Y-133659651D01*
X144965440Y-133832008D01*
X145080345Y-133946913D01*
X145195250Y-134004365D01*
X144046202Y-133774556D02*
X143988750Y-133717104D01*
X143873845Y-133659651D01*
X143586583Y-133659651D01*
X143471679Y-133717104D01*
X143414226Y-133774556D01*
X143356774Y-133889461D01*
X143356774Y-134004365D01*
X143414226Y-134176723D01*
X144103655Y-134866151D01*
X143356774Y-134866151D01*
X144505821Y-117046149D02*
X145195250Y-117046149D01*
X144850536Y-117046149D02*
X144850536Y-115839649D01*
X144965440Y-116012006D01*
X145080345Y-116126911D01*
X145195250Y-116184363D01*
X144046202Y-115954554D02*
X143988750Y-115897102D01*
X143873845Y-115839649D01*
X143586583Y-115839649D01*
X143471679Y-115897102D01*
X143414226Y-115954554D01*
X143356774Y-116069459D01*
X143356774Y-116184363D01*
X143414226Y-116356721D01*
X144103655Y-117046149D01*
X143356774Y-117046149D01*
X214505829Y-173046155D02*
X215195258Y-173046155D01*
X214850544Y-173046155D02*
X214850544Y-171839655D01*
X214965448Y-172012012D01*
X215080353Y-172126917D01*
X215195258Y-172184369D01*
X213356782Y-173046155D02*
X214046210Y-173046155D01*
X213701496Y-173046155D02*
X213701496Y-171839655D01*
X213816401Y-172012012D01*
X213931306Y-172126917D01*
X214046210Y-172184369D01*
X214505829Y-155226153D02*
X215195258Y-155226153D01*
X214850544Y-155226153D02*
X214850544Y-154019653D01*
X214965448Y-154192010D01*
X215080353Y-154306915D01*
X215195258Y-154364367D01*
X213356782Y-155226153D02*
X214046210Y-155226153D01*
X213701496Y-155226153D02*
X213701496Y-154019653D01*
X213816401Y-154192010D01*
X213931306Y-154306915D01*
X214046210Y-154364367D01*
X214505829Y-137406151D02*
X215195258Y-137406151D01*
X214850544Y-137406151D02*
X214850544Y-136199651D01*
X214965448Y-136372008D01*
X215080353Y-136486913D01*
X215195258Y-136544365D01*
X213356782Y-137406151D02*
X214046210Y-137406151D01*
X213701496Y-137406151D02*
X213701496Y-136199651D01*
X213816401Y-136372008D01*
X213931306Y-136486913D01*
X214046210Y-136544365D01*
X214505829Y-119586149D02*
X215195258Y-119586149D01*
X214850544Y-119586149D02*
X214850544Y-118379649D01*
X214965448Y-118552006D01*
X215080353Y-118666911D01*
X215195258Y-118724363D01*
X213356782Y-119586149D02*
X214046210Y-119586149D01*
X213701496Y-119586149D02*
X213701496Y-118379649D01*
X213816401Y-118552006D01*
X213931306Y-118666911D01*
X214046210Y-118724363D01*
X214505829Y-101766147D02*
X215195258Y-101766147D01*
X214850544Y-101766147D02*
X214850544Y-100559647D01*
X214965448Y-100732004D01*
X215080353Y-100846909D01*
X215195258Y-100904361D01*
X213356782Y-101766147D02*
X214046210Y-101766147D01*
X213701496Y-101766147D02*
X213701496Y-100559647D01*
X213816401Y-100732004D01*
X213931306Y-100846909D01*
X214046210Y-100904361D01*
X197005827Y-173046155D02*
X197695256Y-173046155D01*
X197350542Y-173046155D02*
X197350542Y-171839655D01*
X197465446Y-172012012D01*
X197580351Y-172126917D01*
X197695256Y-172184369D01*
X195856780Y-173046155D02*
X196546208Y-173046155D01*
X196201494Y-173046155D02*
X196201494Y-171839655D01*
X196316399Y-172012012D01*
X196431304Y-172126917D01*
X196546208Y-172184369D01*
X197005827Y-155226153D02*
X197695256Y-155226153D01*
X197350542Y-155226153D02*
X197350542Y-154019653D01*
X197465446Y-154192010D01*
X197580351Y-154306915D01*
X197695256Y-154364367D01*
X195856780Y-155226153D02*
X196546208Y-155226153D01*
X196201494Y-155226153D02*
X196201494Y-154019653D01*
X196316399Y-154192010D01*
X196431304Y-154306915D01*
X196546208Y-154364367D01*
X197005827Y-137406151D02*
X197695256Y-137406151D01*
X197350542Y-137406151D02*
X197350542Y-136199651D01*
X197465446Y-136372008D01*
X197580351Y-136486913D01*
X197695256Y-136544365D01*
X195856780Y-137406151D02*
X196546208Y-137406151D01*
X196201494Y-137406151D02*
X196201494Y-136199651D01*
X196316399Y-136372008D01*
X196431304Y-136486913D01*
X196546208Y-136544365D01*
X197005827Y-119586149D02*
X197695256Y-119586149D01*
X197350542Y-119586149D02*
X197350542Y-118379649D01*
X197465446Y-118552006D01*
X197580351Y-118666911D01*
X197695256Y-118724363D01*
X195856780Y-119586149D02*
X196546208Y-119586149D01*
X196201494Y-119586149D02*
X196201494Y-118379649D01*
X196316399Y-118552006D01*
X196431304Y-118666911D01*
X196546208Y-118724363D01*
X197005827Y-101766147D02*
X197695256Y-101766147D01*
X197350542Y-101766147D02*
X197350542Y-100559647D01*
X197465446Y-100732004D01*
X197580351Y-100846909D01*
X197695256Y-100904361D01*
X195856780Y-101766147D02*
X196546208Y-101766147D01*
X196201494Y-101766147D02*
X196201494Y-100559647D01*
X196316399Y-100732004D01*
X196431304Y-100846909D01*
X196546208Y-100904361D01*
X179505825Y-173046155D02*
X180195254Y-173046155D01*
X179850540Y-173046155D02*
X179850540Y-171839655D01*
X179965444Y-172012012D01*
X180080349Y-172126917D01*
X180195254Y-172184369D01*
X178356778Y-173046155D02*
X179046206Y-173046155D01*
X178701492Y-173046155D02*
X178701492Y-171839655D01*
X178816397Y-172012012D01*
X178931302Y-172126917D01*
X179046206Y-172184369D01*
X179505825Y-155226153D02*
X180195254Y-155226153D01*
X179850540Y-155226153D02*
X179850540Y-154019653D01*
X179965444Y-154192010D01*
X180080349Y-154306915D01*
X180195254Y-154364367D01*
X178356778Y-155226153D02*
X179046206Y-155226153D01*
X178701492Y-155226153D02*
X178701492Y-154019653D01*
X178816397Y-154192010D01*
X178931302Y-154306915D01*
X179046206Y-154364367D01*
X179505825Y-137406151D02*
X180195254Y-137406151D01*
X179850540Y-137406151D02*
X179850540Y-136199651D01*
X179965444Y-136372008D01*
X180080349Y-136486913D01*
X180195254Y-136544365D01*
X178356778Y-137406151D02*
X179046206Y-137406151D01*
X178701492Y-137406151D02*
X178701492Y-136199651D01*
X178816397Y-136372008D01*
X178931302Y-136486913D01*
X179046206Y-136544365D01*
X179505825Y-119586149D02*
X180195254Y-119586149D01*
X179850540Y-119586149D02*
X179850540Y-118379649D01*
X179965444Y-118552006D01*
X180080349Y-118666911D01*
X180195254Y-118724363D01*
X178356778Y-119586149D02*
X179046206Y-119586149D01*
X178701492Y-119586149D02*
X178701492Y-118379649D01*
X178816397Y-118552006D01*
X178931302Y-118666911D01*
X179046206Y-118724363D01*
X179505825Y-101766147D02*
X180195254Y-101766147D01*
X179850540Y-101766147D02*
X179850540Y-100559647D01*
X179965444Y-100732004D01*
X180080349Y-100846909D01*
X180195254Y-100904361D01*
X178356778Y-101766147D02*
X179046206Y-101766147D01*
X178701492Y-101766147D02*
X178701492Y-100559647D01*
X178816397Y-100732004D01*
X178931302Y-100846909D01*
X179046206Y-100904361D01*
X162005823Y-173046155D02*
X162695252Y-173046155D01*
X162350538Y-173046155D02*
X162350538Y-171839655D01*
X162465442Y-172012012D01*
X162580347Y-172126917D01*
X162695252Y-172184369D01*
X160856776Y-173046155D02*
X161546204Y-173046155D01*
X161201490Y-173046155D02*
X161201490Y-171839655D01*
X161316395Y-172012012D01*
X161431300Y-172126917D01*
X161546204Y-172184369D01*
X162005823Y-155226153D02*
X162695252Y-155226153D01*
X162350538Y-155226153D02*
X162350538Y-154019653D01*
X162465442Y-154192010D01*
X162580347Y-154306915D01*
X162695252Y-154364367D01*
X160856776Y-155226153D02*
X161546204Y-155226153D01*
X161201490Y-155226153D02*
X161201490Y-154019653D01*
X161316395Y-154192010D01*
X161431300Y-154306915D01*
X161546204Y-154364367D01*
X162005823Y-137406151D02*
X162695252Y-137406151D01*
X162350538Y-137406151D02*
X162350538Y-136199651D01*
X162465442Y-136372008D01*
X162580347Y-136486913D01*
X162695252Y-136544365D01*
X160856776Y-137406151D02*
X161546204Y-137406151D01*
X161201490Y-137406151D02*
X161201490Y-136199651D01*
X161316395Y-136372008D01*
X161431300Y-136486913D01*
X161546204Y-136544365D01*
X162005823Y-119586149D02*
X162695252Y-119586149D01*
X162350538Y-119586149D02*
X162350538Y-118379649D01*
X162465442Y-118552006D01*
X162580347Y-118666911D01*
X162695252Y-118724363D01*
X160856776Y-119586149D02*
X161546204Y-119586149D01*
X161201490Y-119586149D02*
X161201490Y-118379649D01*
X161316395Y-118552006D01*
X161431300Y-118666911D01*
X161546204Y-118724363D01*
X162005823Y-101766147D02*
X162695252Y-101766147D01*
X162350538Y-101766147D02*
X162350538Y-100559647D01*
X162465442Y-100732004D01*
X162580347Y-100846909D01*
X162695252Y-100904361D01*
X160856776Y-101766147D02*
X161546204Y-101766147D01*
X161201490Y-101766147D02*
X161201490Y-100559647D01*
X161316395Y-100732004D01*
X161431300Y-100846909D01*
X161546204Y-100904361D01*
X144505821Y-173046155D02*
X145195250Y-173046155D01*
X144850536Y-173046155D02*
X144850536Y-171839655D01*
X144965440Y-172012012D01*
X145080345Y-172126917D01*
X145195250Y-172184369D01*
X143356774Y-173046155D02*
X144046202Y-173046155D01*
X143701488Y-173046155D02*
X143701488Y-171839655D01*
X143816393Y-172012012D01*
X143931298Y-172126917D01*
X144046202Y-172184369D01*
X144505821Y-155226153D02*
X145195250Y-155226153D01*
X144850536Y-155226153D02*
X144850536Y-154019653D01*
X144965440Y-154192010D01*
X145080345Y-154306915D01*
X145195250Y-154364367D01*
X143356774Y-155226153D02*
X144046202Y-155226153D01*
X143701488Y-155226153D02*
X143701488Y-154019653D01*
X143816393Y-154192010D01*
X143931298Y-154306915D01*
X144046202Y-154364367D01*
X144505821Y-137406151D02*
X145195250Y-137406151D01*
X144850536Y-137406151D02*
X144850536Y-136199651D01*
X144965440Y-136372008D01*
X145080345Y-136486913D01*
X145195250Y-136544365D01*
X143356774Y-137406151D02*
X144046202Y-137406151D01*
X143701488Y-137406151D02*
X143701488Y-136199651D01*
X143816393Y-136372008D01*
X143931298Y-136486913D01*
X144046202Y-136544365D01*
X144505821Y-119586149D02*
X145195250Y-119586149D01*
X144850536Y-119586149D02*
X144850536Y-118379649D01*
X144965440Y-118552006D01*
X145080345Y-118666911D01*
X145195250Y-118724363D01*
X143356774Y-119586149D02*
X144046202Y-119586149D01*
X143701488Y-119586149D02*
X143701488Y-118379649D01*
X143816393Y-118552006D01*
X143931298Y-118666911D01*
X144046202Y-118724363D01*
X214236710Y-182126655D02*
X213432377Y-182126655D01*
X213949448Y-183333155D01*
X214236710Y-164306653D02*
X213432377Y-164306653D01*
X213949448Y-165513153D01*
X214236710Y-146486651D02*
X213432377Y-146486651D01*
X213949448Y-147693151D01*
X214236710Y-128666649D02*
X213432377Y-128666649D01*
X213949448Y-129873149D01*
X214236710Y-110846647D02*
X213432377Y-110846647D01*
X213949448Y-112053147D01*
X196736708Y-182126655D02*
X195932375Y-182126655D01*
X196449446Y-183333155D01*
X196736708Y-164306653D02*
X195932375Y-164306653D01*
X196449446Y-165513153D01*
X196736708Y-146486651D02*
X195932375Y-146486651D01*
X196449446Y-147693151D01*
X196736708Y-128666649D02*
X195932375Y-128666649D01*
X196449446Y-129873149D01*
X196736708Y-110846647D02*
X195932375Y-110846647D01*
X196449446Y-112053147D01*
X179236706Y-182126655D02*
X178432373Y-182126655D01*
X178949444Y-183333155D01*
X179236706Y-164306653D02*
X178432373Y-164306653D01*
X178949444Y-165513153D01*
X179236706Y-146486651D02*
X178432373Y-146486651D01*
X178949444Y-147693151D01*
X179236706Y-128666649D02*
X178432373Y-128666649D01*
X178949444Y-129873149D01*
X179236706Y-110846647D02*
X178432373Y-110846647D01*
X178949444Y-112053147D01*
X161736704Y-182126655D02*
X160932371Y-182126655D01*
X161449442Y-183333155D01*
X161736704Y-164306653D02*
X160932371Y-164306653D01*
X161449442Y-165513153D01*
X161736704Y-146486651D02*
X160932371Y-146486651D01*
X161449442Y-147693151D01*
X161736704Y-128666649D02*
X160932371Y-128666649D01*
X161449442Y-129873149D01*
X161736704Y-110846647D02*
X160932371Y-110846647D01*
X161449442Y-112053147D01*
X144236702Y-182126655D02*
X143432369Y-182126655D01*
X143949440Y-183333155D01*
X144236702Y-164306653D02*
X143432369Y-164306653D01*
X143949440Y-165513153D01*
X144236702Y-146486651D02*
X143432369Y-146486651D01*
X143949440Y-147693151D01*
X144236702Y-128666649D02*
X143432369Y-128666649D01*
X143949440Y-129873149D01*
X222748734Y-182126655D02*
X222978544Y-182126655D01*
X223093448Y-182184108D01*
X223150901Y-182241560D01*
X223265806Y-182413917D01*
X223323258Y-182643727D01*
X223323258Y-183103346D01*
X223265806Y-183218250D01*
X223208353Y-183275703D01*
X223093448Y-183333155D01*
X222863639Y-183333155D01*
X222748734Y-183275703D01*
X222691282Y-183218250D01*
X222633829Y-183103346D01*
X222633829Y-182816084D01*
X222691282Y-182701179D01*
X222748734Y-182643727D01*
X222863639Y-182586274D01*
X223093448Y-182586274D01*
X223208353Y-182643727D01*
X223265806Y-182701179D01*
X223323258Y-182816084D01*
X222748734Y-164306653D02*
X222978544Y-164306653D01*
X223093448Y-164364106D01*
X223150901Y-164421558D01*
X223265806Y-164593915D01*
X223323258Y-164823725D01*
X223323258Y-165283344D01*
X223265806Y-165398248D01*
X223208353Y-165455701D01*
X223093448Y-165513153D01*
X222863639Y-165513153D01*
X222748734Y-165455701D01*
X222691282Y-165398248D01*
X222633829Y-165283344D01*
X222633829Y-164996082D01*
X222691282Y-164881177D01*
X222748734Y-164823725D01*
X222863639Y-164766272D01*
X223093448Y-164766272D01*
X223208353Y-164823725D01*
X223265806Y-164881177D01*
X223323258Y-164996082D01*
X222748734Y-146486651D02*
X222978544Y-146486651D01*
X223093448Y-146544104D01*
X223150901Y-146601556D01*
X223265806Y-146773913D01*
X223323258Y-147003723D01*
X223323258Y-147463342D01*
X223265806Y-147578246D01*
X223208353Y-147635699D01*
X223093448Y-147693151D01*
X222863639Y-147693151D01*
X222748734Y-147635699D01*
X222691282Y-147578246D01*
X222633829Y-147463342D01*
X222633829Y-147176080D01*
X222691282Y-147061175D01*
X222748734Y-147003723D01*
X222863639Y-146946270D01*
X223093448Y-146946270D01*
X223208353Y-147003723D01*
X223265806Y-147061175D01*
X223323258Y-147176080D01*
X222748734Y-128666649D02*
X222978544Y-128666649D01*
X223093448Y-128724102D01*
X223150901Y-128781554D01*
X223265806Y-128953911D01*
X223323258Y-129183721D01*
X223323258Y-129643340D01*
X223265806Y-129758244D01*
X223208353Y-129815697D01*
X223093448Y-129873149D01*
X222863639Y-129873149D01*
X222748734Y-129815697D01*
X222691282Y-129758244D01*
X222633829Y-129643340D01*
X222633829Y-129356078D01*
X222691282Y-129241173D01*
X222748734Y-129183721D01*
X222863639Y-129126268D01*
X223093448Y-129126268D01*
X223208353Y-129183721D01*
X223265806Y-129241173D01*
X223323258Y-129356078D01*
X222748734Y-110846647D02*
X222978544Y-110846647D01*
X223093448Y-110904100D01*
X223150901Y-110961552D01*
X223265806Y-111133909D01*
X223323258Y-111363719D01*
X223323258Y-111823338D01*
X223265806Y-111938242D01*
X223208353Y-111995695D01*
X223093448Y-112053147D01*
X222863639Y-112053147D01*
X222748734Y-111995695D01*
X222691282Y-111938242D01*
X222633829Y-111823338D01*
X222633829Y-111536076D01*
X222691282Y-111421171D01*
X222748734Y-111363719D01*
X222863639Y-111306266D01*
X223093448Y-111306266D01*
X223208353Y-111363719D01*
X223265806Y-111421171D01*
X223323258Y-111536076D01*
X205248732Y-182126655D02*
X205478542Y-182126655D01*
X205593446Y-182184108D01*
X205650899Y-182241560D01*
X205765804Y-182413917D01*
X205823256Y-182643727D01*
X205823256Y-183103346D01*
X205765804Y-183218250D01*
X205708351Y-183275703D01*
X205593446Y-183333155D01*
X205363637Y-183333155D01*
X205248732Y-183275703D01*
X205191280Y-183218250D01*
X205133827Y-183103346D01*
X205133827Y-182816084D01*
X205191280Y-182701179D01*
X205248732Y-182643727D01*
X205363637Y-182586274D01*
X205593446Y-182586274D01*
X205708351Y-182643727D01*
X205765804Y-182701179D01*
X205823256Y-182816084D01*
X205248732Y-164306653D02*
X205478542Y-164306653D01*
X205593446Y-164364106D01*
X205650899Y-164421558D01*
X205765804Y-164593915D01*
X205823256Y-164823725D01*
X205823256Y-165283344D01*
X205765804Y-165398248D01*
X205708351Y-165455701D01*
X205593446Y-165513153D01*
X205363637Y-165513153D01*
X205248732Y-165455701D01*
X205191280Y-165398248D01*
X205133827Y-165283344D01*
X205133827Y-164996082D01*
X205191280Y-164881177D01*
X205248732Y-164823725D01*
X205363637Y-164766272D01*
X205593446Y-164766272D01*
X205708351Y-164823725D01*
X205765804Y-164881177D01*
X205823256Y-164996082D01*
X205248732Y-146486651D02*
X205478542Y-146486651D01*
X205593446Y-146544104D01*
X205650899Y-146601556D01*
X205765804Y-146773913D01*
X205823256Y-147003723D01*
X205823256Y-147463342D01*
X205765804Y-147578246D01*
X205708351Y-147635699D01*
X205593446Y-147693151D01*
X205363637Y-147693151D01*
X205248732Y-147635699D01*
X205191280Y-147578246D01*
X205133827Y-147463342D01*
X205133827Y-147176080D01*
X205191280Y-147061175D01*
X205248732Y-147003723D01*
X205363637Y-146946270D01*
X205593446Y-146946270D01*
X205708351Y-147003723D01*
X205765804Y-147061175D01*
X205823256Y-147176080D01*
X205248732Y-128666649D02*
X205478542Y-128666649D01*
X205593446Y-128724102D01*
X205650899Y-128781554D01*
X205765804Y-128953911D01*
X205823256Y-129183721D01*
X205823256Y-129643340D01*
X205765804Y-129758244D01*
X205708351Y-129815697D01*
X205593446Y-129873149D01*
X205363637Y-129873149D01*
X205248732Y-129815697D01*
X205191280Y-129758244D01*
X205133827Y-129643340D01*
X205133827Y-129356078D01*
X205191280Y-129241173D01*
X205248732Y-129183721D01*
X205363637Y-129126268D01*
X205593446Y-129126268D01*
X205708351Y-129183721D01*
X205765804Y-129241173D01*
X205823256Y-129356078D01*
X205248732Y-110846647D02*
X205478542Y-110846647D01*
X205593446Y-110904100D01*
X205650899Y-110961552D01*
X205765804Y-111133909D01*
X205823256Y-111363719D01*
X205823256Y-111823338D01*
X205765804Y-111938242D01*
X205708351Y-111995695D01*
X205593446Y-112053147D01*
X205363637Y-112053147D01*
X205248732Y-111995695D01*
X205191280Y-111938242D01*
X205133827Y-111823338D01*
X205133827Y-111536076D01*
X205191280Y-111421171D01*
X205248732Y-111363719D01*
X205363637Y-111306266D01*
X205593446Y-111306266D01*
X205708351Y-111363719D01*
X205765804Y-111421171D01*
X205823256Y-111536076D01*
X187748730Y-182126655D02*
X187978540Y-182126655D01*
X188093444Y-182184108D01*
X188150897Y-182241560D01*
X188265802Y-182413917D01*
X188323254Y-182643727D01*
X188323254Y-183103346D01*
X188265802Y-183218250D01*
X188208349Y-183275703D01*
X188093444Y-183333155D01*
X187863635Y-183333155D01*
X187748730Y-183275703D01*
X187691278Y-183218250D01*
X187633825Y-183103346D01*
X187633825Y-182816084D01*
X187691278Y-182701179D01*
X187748730Y-182643727D01*
X187863635Y-182586274D01*
X188093444Y-182586274D01*
X188208349Y-182643727D01*
X188265802Y-182701179D01*
X188323254Y-182816084D01*
X187748730Y-164306653D02*
X187978540Y-164306653D01*
X188093444Y-164364106D01*
X188150897Y-164421558D01*
X188265802Y-164593915D01*
X188323254Y-164823725D01*
X188323254Y-165283344D01*
X188265802Y-165398248D01*
X188208349Y-165455701D01*
X188093444Y-165513153D01*
X187863635Y-165513153D01*
X187748730Y-165455701D01*
X187691278Y-165398248D01*
X187633825Y-165283344D01*
X187633825Y-164996082D01*
X187691278Y-164881177D01*
X187748730Y-164823725D01*
X187863635Y-164766272D01*
X188093444Y-164766272D01*
X188208349Y-164823725D01*
X188265802Y-164881177D01*
X188323254Y-164996082D01*
X187748730Y-146486651D02*
X187978540Y-146486651D01*
X188093444Y-146544104D01*
X188150897Y-146601556D01*
X188265802Y-146773913D01*
X188323254Y-147003723D01*
X188323254Y-147463342D01*
X188265802Y-147578246D01*
X188208349Y-147635699D01*
X188093444Y-147693151D01*
X187863635Y-147693151D01*
X187748730Y-147635699D01*
X187691278Y-147578246D01*
X187633825Y-147463342D01*
X187633825Y-147176080D01*
X187691278Y-147061175D01*
X187748730Y-147003723D01*
X187863635Y-146946270D01*
X188093444Y-146946270D01*
X188208349Y-147003723D01*
X188265802Y-147061175D01*
X188323254Y-147176080D01*
X187748730Y-128666649D02*
X187978540Y-128666649D01*
X188093444Y-128724102D01*
X188150897Y-128781554D01*
X188265802Y-128953911D01*
X188323254Y-129183721D01*
X188323254Y-129643340D01*
X188265802Y-129758244D01*
X188208349Y-129815697D01*
X188093444Y-129873149D01*
X187863635Y-129873149D01*
X187748730Y-129815697D01*
X187691278Y-129758244D01*
X187633825Y-129643340D01*
X187633825Y-129356078D01*
X187691278Y-129241173D01*
X187748730Y-129183721D01*
X187863635Y-129126268D01*
X188093444Y-129126268D01*
X188208349Y-129183721D01*
X188265802Y-129241173D01*
X188323254Y-129356078D01*
X187748730Y-110846647D02*
X187978540Y-110846647D01*
X188093444Y-110904100D01*
X188150897Y-110961552D01*
X188265802Y-111133909D01*
X188323254Y-111363719D01*
X188323254Y-111823338D01*
X188265802Y-111938242D01*
X188208349Y-111995695D01*
X188093444Y-112053147D01*
X187863635Y-112053147D01*
X187748730Y-111995695D01*
X187691278Y-111938242D01*
X187633825Y-111823338D01*
X187633825Y-111536076D01*
X187691278Y-111421171D01*
X187748730Y-111363719D01*
X187863635Y-111306266D01*
X188093444Y-111306266D01*
X188208349Y-111363719D01*
X188265802Y-111421171D01*
X188323254Y-111536076D01*
X170248728Y-182126655D02*
X170478538Y-182126655D01*
X170593442Y-182184108D01*
X170650895Y-182241560D01*
X170765800Y-182413917D01*
X170823252Y-182643727D01*
X170823252Y-183103346D01*
X170765800Y-183218250D01*
X170708347Y-183275703D01*
X170593442Y-183333155D01*
X170363633Y-183333155D01*
X170248728Y-183275703D01*
X170191276Y-183218250D01*
X170133823Y-183103346D01*
X170133823Y-182816084D01*
X170191276Y-182701179D01*
X170248728Y-182643727D01*
X170363633Y-182586274D01*
X170593442Y-182586274D01*
X170708347Y-182643727D01*
X170765800Y-182701179D01*
X170823252Y-182816084D01*
X170248728Y-164306653D02*
X170478538Y-164306653D01*
X170593442Y-164364106D01*
X170650895Y-164421558D01*
X170765800Y-164593915D01*
X170823252Y-164823725D01*
X170823252Y-165283344D01*
X170765800Y-165398248D01*
X170708347Y-165455701D01*
X170593442Y-165513153D01*
X170363633Y-165513153D01*
X170248728Y-165455701D01*
X170191276Y-165398248D01*
X170133823Y-165283344D01*
X170133823Y-164996082D01*
X170191276Y-164881177D01*
X170248728Y-164823725D01*
X170363633Y-164766272D01*
X170593442Y-164766272D01*
X170708347Y-164823725D01*
X170765800Y-164881177D01*
X170823252Y-164996082D01*
X170248728Y-146486651D02*
X170478538Y-146486651D01*
X170593442Y-146544104D01*
X170650895Y-146601556D01*
X170765800Y-146773913D01*
X170823252Y-147003723D01*
X170823252Y-147463342D01*
X170765800Y-147578246D01*
X170708347Y-147635699D01*
X170593442Y-147693151D01*
X170363633Y-147693151D01*
X170248728Y-147635699D01*
X170191276Y-147578246D01*
X170133823Y-147463342D01*
X170133823Y-147176080D01*
X170191276Y-147061175D01*
X170248728Y-147003723D01*
X170363633Y-146946270D01*
X170593442Y-146946270D01*
X170708347Y-147003723D01*
X170765800Y-147061175D01*
X170823252Y-147176080D01*
X170248728Y-128666649D02*
X170478538Y-128666649D01*
X170593442Y-128724102D01*
X170650895Y-128781554D01*
X170765800Y-128953911D01*
X170823252Y-129183721D01*
X170823252Y-129643340D01*
X170765800Y-129758244D01*
X170708347Y-129815697D01*
X170593442Y-129873149D01*
X170363633Y-129873149D01*
X170248728Y-129815697D01*
X170191276Y-129758244D01*
X170133823Y-129643340D01*
X170133823Y-129356078D01*
X170191276Y-129241173D01*
X170248728Y-129183721D01*
X170363633Y-129126268D01*
X170593442Y-129126268D01*
X170708347Y-129183721D01*
X170765800Y-129241173D01*
X170823252Y-129356078D01*
X170248728Y-110846647D02*
X170478538Y-110846647D01*
X170593442Y-110904100D01*
X170650895Y-110961552D01*
X170765800Y-111133909D01*
X170823252Y-111363719D01*
X170823252Y-111823338D01*
X170765800Y-111938242D01*
X170708347Y-111995695D01*
X170593442Y-112053147D01*
X170363633Y-112053147D01*
X170248728Y-111995695D01*
X170191276Y-111938242D01*
X170133823Y-111823338D01*
X170133823Y-111536076D01*
X170191276Y-111421171D01*
X170248728Y-111363719D01*
X170363633Y-111306266D01*
X170593442Y-111306266D01*
X170708347Y-111363719D01*
X170765800Y-111421171D01*
X170823252Y-111536076D01*
X152748726Y-182126655D02*
X152978536Y-182126655D01*
X153093440Y-182184108D01*
X153150893Y-182241560D01*
X153265798Y-182413917D01*
X153323250Y-182643727D01*
X153323250Y-183103346D01*
X153265798Y-183218250D01*
X153208345Y-183275703D01*
X153093440Y-183333155D01*
X152863631Y-183333155D01*
X152748726Y-183275703D01*
X152691274Y-183218250D01*
X152633821Y-183103346D01*
X152633821Y-182816084D01*
X152691274Y-182701179D01*
X152748726Y-182643727D01*
X152863631Y-182586274D01*
X153093440Y-182586274D01*
X153208345Y-182643727D01*
X153265798Y-182701179D01*
X153323250Y-182816084D01*
X152748726Y-164306653D02*
X152978536Y-164306653D01*
X153093440Y-164364106D01*
X153150893Y-164421558D01*
X153265798Y-164593915D01*
X153323250Y-164823725D01*
X153323250Y-165283344D01*
X153265798Y-165398248D01*
X153208345Y-165455701D01*
X153093440Y-165513153D01*
X152863631Y-165513153D01*
X152748726Y-165455701D01*
X152691274Y-165398248D01*
X152633821Y-165283344D01*
X152633821Y-164996082D01*
X152691274Y-164881177D01*
X152748726Y-164823725D01*
X152863631Y-164766272D01*
X153093440Y-164766272D01*
X153208345Y-164823725D01*
X153265798Y-164881177D01*
X153323250Y-164996082D01*
X152748726Y-146486651D02*
X152978536Y-146486651D01*
X153093440Y-146544104D01*
X153150893Y-146601556D01*
X153265798Y-146773913D01*
X153323250Y-147003723D01*
X153323250Y-147463342D01*
X153265798Y-147578246D01*
X153208345Y-147635699D01*
X153093440Y-147693151D01*
X152863631Y-147693151D01*
X152748726Y-147635699D01*
X152691274Y-147578246D01*
X152633821Y-147463342D01*
X152633821Y-147176080D01*
X152691274Y-147061175D01*
X152748726Y-147003723D01*
X152863631Y-146946270D01*
X153093440Y-146946270D01*
X153208345Y-147003723D01*
X153265798Y-147061175D01*
X153323250Y-147176080D01*
X152748726Y-128666649D02*
X152978536Y-128666649D01*
X153093440Y-128724102D01*
X153150893Y-128781554D01*
X153265798Y-128953911D01*
X153323250Y-129183721D01*
X153323250Y-129643340D01*
X153265798Y-129758244D01*
X153208345Y-129815697D01*
X153093440Y-129873149D01*
X152863631Y-129873149D01*
X152748726Y-129815697D01*
X152691274Y-129758244D01*
X152633821Y-129643340D01*
X152633821Y-129356078D01*
X152691274Y-129241173D01*
X152748726Y-129183721D01*
X152863631Y-129126268D01*
X153093440Y-129126268D01*
X153208345Y-129183721D01*
X153265798Y-129241173D01*
X153323250Y-129356078D01*
X223323258Y-171827560D02*
X223265806Y-171770108D01*
X223150901Y-171712655D01*
X222863639Y-171712655D01*
X222748734Y-171770108D01*
X222691282Y-171827560D01*
X222633829Y-171942465D01*
X222633829Y-172057369D01*
X222691282Y-172229727D01*
X223380710Y-172919155D01*
X222633829Y-172919155D01*
X223323258Y-154007558D02*
X223265806Y-153950106D01*
X223150901Y-153892653D01*
X222863639Y-153892653D01*
X222748734Y-153950106D01*
X222691282Y-154007558D01*
X222633829Y-154122463D01*
X222633829Y-154237367D01*
X222691282Y-154409725D01*
X223380710Y-155099153D01*
X222633829Y-155099153D01*
X223323258Y-136187556D02*
X223265806Y-136130104D01*
X223150901Y-136072651D01*
X222863639Y-136072651D01*
X222748734Y-136130104D01*
X222691282Y-136187556D01*
X222633829Y-136302461D01*
X222633829Y-136417365D01*
X222691282Y-136589723D01*
X223380710Y-137279151D01*
X222633829Y-137279151D01*
X223323258Y-118367554D02*
X223265806Y-118310102D01*
X223150901Y-118252649D01*
X222863639Y-118252649D01*
X222748734Y-118310102D01*
X222691282Y-118367554D01*
X222633829Y-118482459D01*
X222633829Y-118597363D01*
X222691282Y-118769721D01*
X223380710Y-119459149D01*
X222633829Y-119459149D01*
X223323258Y-100547552D02*
X223265806Y-100490100D01*
X223150901Y-100432647D01*
X222863639Y-100432647D01*
X222748734Y-100490100D01*
X222691282Y-100547552D01*
X222633829Y-100662457D01*
X222633829Y-100777361D01*
X222691282Y-100949719D01*
X223380710Y-101639147D01*
X222633829Y-101639147D01*
X205823256Y-171827560D02*
X205765804Y-171770108D01*
X205650899Y-171712655D01*
X205363637Y-171712655D01*
X205248732Y-171770108D01*
X205191280Y-171827560D01*
X205133827Y-171942465D01*
X205133827Y-172057369D01*
X205191280Y-172229727D01*
X205880708Y-172919155D01*
X205133827Y-172919155D01*
X205823256Y-154007558D02*
X205765804Y-153950106D01*
X205650899Y-153892653D01*
X205363637Y-153892653D01*
X205248732Y-153950106D01*
X205191280Y-154007558D01*
X205133827Y-154122463D01*
X205133827Y-154237367D01*
X205191280Y-154409725D01*
X205880708Y-155099153D01*
X205133827Y-155099153D01*
X205823256Y-136187556D02*
X205765804Y-136130104D01*
X205650899Y-136072651D01*
X205363637Y-136072651D01*
X205248732Y-136130104D01*
X205191280Y-136187556D01*
X205133827Y-136302461D01*
X205133827Y-136417365D01*
X205191280Y-136589723D01*
X205880708Y-137279151D01*
X205133827Y-137279151D01*
X205823256Y-118367554D02*
X205765804Y-118310102D01*
X205650899Y-118252649D01*
X205363637Y-118252649D01*
X205248732Y-118310102D01*
X205191280Y-118367554D01*
X205133827Y-118482459D01*
X205133827Y-118597363D01*
X205191280Y-118769721D01*
X205880708Y-119459149D01*
X205133827Y-119459149D01*
X205823256Y-100547552D02*
X205765804Y-100490100D01*
X205650899Y-100432647D01*
X205363637Y-100432647D01*
X205248732Y-100490100D01*
X205191280Y-100547552D01*
X205133827Y-100662457D01*
X205133827Y-100777361D01*
X205191280Y-100949719D01*
X205880708Y-101639147D01*
X205133827Y-101639147D01*
X188323254Y-171827560D02*
X188265802Y-171770108D01*
X188150897Y-171712655D01*
X187863635Y-171712655D01*
X187748730Y-171770108D01*
X187691278Y-171827560D01*
X187633825Y-171942465D01*
X187633825Y-172057369D01*
X187691278Y-172229727D01*
X188380706Y-172919155D01*
X187633825Y-172919155D01*
X188323254Y-154007558D02*
X188265802Y-153950106D01*
X188150897Y-153892653D01*
X187863635Y-153892653D01*
X187748730Y-153950106D01*
X187691278Y-154007558D01*
X187633825Y-154122463D01*
X187633825Y-154237367D01*
X187691278Y-154409725D01*
X188380706Y-155099153D01*
X187633825Y-155099153D01*
X188323254Y-136187556D02*
X188265802Y-136130104D01*
X188150897Y-136072651D01*
X187863635Y-136072651D01*
X187748730Y-136130104D01*
X187691278Y-136187556D01*
X187633825Y-136302461D01*
X187633825Y-136417365D01*
X187691278Y-136589723D01*
X188380706Y-137279151D01*
X187633825Y-137279151D01*
X188323254Y-118367554D02*
X188265802Y-118310102D01*
X188150897Y-118252649D01*
X187863635Y-118252649D01*
X187748730Y-118310102D01*
X187691278Y-118367554D01*
X187633825Y-118482459D01*
X187633825Y-118597363D01*
X187691278Y-118769721D01*
X188380706Y-119459149D01*
X187633825Y-119459149D01*
X188323254Y-100547552D02*
X188265802Y-100490100D01*
X188150897Y-100432647D01*
X187863635Y-100432647D01*
X187748730Y-100490100D01*
X187691278Y-100547552D01*
X187633825Y-100662457D01*
X187633825Y-100777361D01*
X187691278Y-100949719D01*
X188380706Y-101639147D01*
X187633825Y-101639147D01*
X170823252Y-171827560D02*
X170765800Y-171770108D01*
X170650895Y-171712655D01*
X170363633Y-171712655D01*
X170248728Y-171770108D01*
X170191276Y-171827560D01*
X170133823Y-171942465D01*
X170133823Y-172057369D01*
X170191276Y-172229727D01*
X170880704Y-172919155D01*
X170133823Y-172919155D01*
X170823252Y-154007558D02*
X170765800Y-153950106D01*
X170650895Y-153892653D01*
X170363633Y-153892653D01*
X170248728Y-153950106D01*
X170191276Y-154007558D01*
X170133823Y-154122463D01*
X170133823Y-154237367D01*
X170191276Y-154409725D01*
X170880704Y-155099153D01*
X170133823Y-155099153D01*
X170823252Y-136187556D02*
X170765800Y-136130104D01*
X170650895Y-136072651D01*
X170363633Y-136072651D01*
X170248728Y-136130104D01*
X170191276Y-136187556D01*
X170133823Y-136302461D01*
X170133823Y-136417365D01*
X170191276Y-136589723D01*
X170880704Y-137279151D01*
X170133823Y-137279151D01*
X170823252Y-118367554D02*
X170765800Y-118310102D01*
X170650895Y-118252649D01*
X170363633Y-118252649D01*
X170248728Y-118310102D01*
X170191276Y-118367554D01*
X170133823Y-118482459D01*
X170133823Y-118597363D01*
X170191276Y-118769721D01*
X170880704Y-119459149D01*
X170133823Y-119459149D01*
X170823252Y-100547552D02*
X170765800Y-100490100D01*
X170650895Y-100432647D01*
X170363633Y-100432647D01*
X170248728Y-100490100D01*
X170191276Y-100547552D01*
X170133823Y-100662457D01*
X170133823Y-100777361D01*
X170191276Y-100949719D01*
X170880704Y-101639147D01*
X170133823Y-101639147D01*
X153323250Y-171827560D02*
X153265798Y-171770108D01*
X153150893Y-171712655D01*
X152863631Y-171712655D01*
X152748726Y-171770108D01*
X152691274Y-171827560D01*
X152633821Y-171942465D01*
X152633821Y-172057369D01*
X152691274Y-172229727D01*
X153380702Y-172919155D01*
X152633821Y-172919155D01*
X153323250Y-154007558D02*
X153265798Y-153950106D01*
X153150893Y-153892653D01*
X152863631Y-153892653D01*
X152748726Y-153950106D01*
X152691274Y-154007558D01*
X152633821Y-154122463D01*
X152633821Y-154237367D01*
X152691274Y-154409725D01*
X153380702Y-155099153D01*
X152633821Y-155099153D01*
X153323250Y-136187556D02*
X153265798Y-136130104D01*
X153150893Y-136072651D01*
X152863631Y-136072651D01*
X152748726Y-136130104D01*
X152691274Y-136187556D01*
X152633821Y-136302461D01*
X152633821Y-136417365D01*
X152691274Y-136589723D01*
X153380702Y-137279151D01*
X152633821Y-137279151D01*
X153323250Y-118367554D02*
X153265798Y-118310102D01*
X153150893Y-118252649D01*
X152863631Y-118252649D01*
X152748726Y-118310102D01*
X152691274Y-118367554D01*
X152633821Y-118482459D01*
X152633821Y-118597363D01*
X152691274Y-118769721D01*
X153380702Y-119459149D01*
X152633821Y-119459149D01*
X222633829Y-170379155D02*
X223323258Y-170379155D01*
X222978544Y-170379155D02*
X222978544Y-169172655D01*
X223093448Y-169345012D01*
X223208353Y-169459917D01*
X223323258Y-169517369D01*
X222633829Y-152559153D02*
X223323258Y-152559153D01*
X222978544Y-152559153D02*
X222978544Y-151352653D01*
X223093448Y-151525010D01*
X223208353Y-151639915D01*
X223323258Y-151697367D01*
X222633829Y-134739151D02*
X223323258Y-134739151D01*
X222978544Y-134739151D02*
X222978544Y-133532651D01*
X223093448Y-133705008D01*
X223208353Y-133819913D01*
X223323258Y-133877365D01*
X222633829Y-116919149D02*
X223323258Y-116919149D01*
X222978544Y-116919149D02*
X222978544Y-115712649D01*
X223093448Y-115885006D01*
X223208353Y-115999911D01*
X223323258Y-116057363D01*
X222633829Y-99099147D02*
X223323258Y-99099147D01*
X222978544Y-99099147D02*
X222978544Y-97892647D01*
X223093448Y-98065004D01*
X223208353Y-98179909D01*
X223323258Y-98237361D01*
X205133827Y-170379155D02*
X205823256Y-170379155D01*
X205478542Y-170379155D02*
X205478542Y-169172655D01*
X205593446Y-169345012D01*
X205708351Y-169459917D01*
X205823256Y-169517369D01*
X205133827Y-152559153D02*
X205823256Y-152559153D01*
X205478542Y-152559153D02*
X205478542Y-151352653D01*
X205593446Y-151525010D01*
X205708351Y-151639915D01*
X205823256Y-151697367D01*
X205133827Y-134739151D02*
X205823256Y-134739151D01*
X205478542Y-134739151D02*
X205478542Y-133532651D01*
X205593446Y-133705008D01*
X205708351Y-133819913D01*
X205823256Y-133877365D01*
X205133827Y-116919149D02*
X205823256Y-116919149D01*
X205478542Y-116919149D02*
X205478542Y-115712649D01*
X205593446Y-115885006D01*
X205708351Y-115999911D01*
X205823256Y-116057363D01*
X205133827Y-99099147D02*
X205823256Y-99099147D01*
X205478542Y-99099147D02*
X205478542Y-97892647D01*
X205593446Y-98065004D01*
X205708351Y-98179909D01*
X205823256Y-98237361D01*
X187633825Y-170379155D02*
X188323254Y-170379155D01*
X187978540Y-170379155D02*
X187978540Y-169172655D01*
X188093444Y-169345012D01*
X188208349Y-169459917D01*
X188323254Y-169517369D01*
X187633825Y-152559153D02*
X188323254Y-152559153D01*
X187978540Y-152559153D02*
X187978540Y-151352653D01*
X188093444Y-151525010D01*
X188208349Y-151639915D01*
X188323254Y-151697367D01*
X187633825Y-134739151D02*
X188323254Y-134739151D01*
X187978540Y-134739151D02*
X187978540Y-133532651D01*
X188093444Y-133705008D01*
X188208349Y-133819913D01*
X188323254Y-133877365D01*
X187633825Y-116919149D02*
X188323254Y-116919149D01*
X187978540Y-116919149D02*
X187978540Y-115712649D01*
X188093444Y-115885006D01*
X188208349Y-115999911D01*
X188323254Y-116057363D01*
X187633825Y-99099147D02*
X188323254Y-99099147D01*
X187978540Y-99099147D02*
X187978540Y-97892647D01*
X188093444Y-98065004D01*
X188208349Y-98179909D01*
X188323254Y-98237361D01*
X170133823Y-170379155D02*
X170823252Y-170379155D01*
X170478538Y-170379155D02*
X170478538Y-169172655D01*
X170593442Y-169345012D01*
X170708347Y-169459917D01*
X170823252Y-169517369D01*
X170133823Y-152559153D02*
X170823252Y-152559153D01*
X170478538Y-152559153D02*
X170478538Y-151352653D01*
X170593442Y-151525010D01*
X170708347Y-151639915D01*
X170823252Y-151697367D01*
X170133823Y-134739151D02*
X170823252Y-134739151D01*
X170478538Y-134739151D02*
X170478538Y-133532651D01*
X170593442Y-133705008D01*
X170708347Y-133819913D01*
X170823252Y-133877365D01*
X170133823Y-116919149D02*
X170823252Y-116919149D01*
X170478538Y-116919149D02*
X170478538Y-115712649D01*
X170593442Y-115885006D01*
X170708347Y-115999911D01*
X170823252Y-116057363D01*
X170133823Y-99099147D02*
X170823252Y-99099147D01*
X170478538Y-99099147D02*
X170478538Y-97892647D01*
X170593442Y-98065004D01*
X170708347Y-98179909D01*
X170823252Y-98237361D01*
X152633821Y-170379155D02*
X153323250Y-170379155D01*
X152978536Y-170379155D02*
X152978536Y-169172655D01*
X153093440Y-169345012D01*
X153208345Y-169459917D01*
X153323250Y-169517369D01*
X152633821Y-152559153D02*
X153323250Y-152559153D01*
X152978536Y-152559153D02*
X152978536Y-151352653D01*
X153093440Y-151525010D01*
X153208345Y-151639915D01*
X153323250Y-151697367D01*
X152633821Y-134739151D02*
X153323250Y-134739151D01*
X152978536Y-134739151D02*
X152978536Y-133532651D01*
X153093440Y-133705008D01*
X153208345Y-133819913D01*
X153323250Y-133877365D01*
X152633821Y-116919149D02*
X153323250Y-116919149D01*
X152978536Y-116919149D02*
X152978536Y-115712649D01*
X153093440Y-115885006D01*
X153208345Y-115999911D01*
X153323250Y-116057363D01*
X222980963Y-179281855D02*
X222291534Y-179281855D01*
X222636248Y-180488355D02*
X222636248Y-179281855D01*
X221946820Y-180430903D02*
X221774463Y-180488355D01*
X221487201Y-180488355D01*
X221372296Y-180430903D01*
X221314844Y-180373450D01*
X221257391Y-180258546D01*
X221257391Y-180143641D01*
X221314844Y-180028736D01*
X221372296Y-179971284D01*
X221487201Y-179913831D01*
X221717010Y-179856379D01*
X221831915Y-179798927D01*
X221889368Y-179741474D01*
X221946820Y-179626569D01*
X221946820Y-179511665D01*
X221889368Y-179396760D01*
X221831915Y-179339308D01*
X221717010Y-179281855D01*
X221429748Y-179281855D01*
X221257391Y-179339308D01*
X220797772Y-180430903D02*
X220625415Y-180488355D01*
X220338153Y-180488355D01*
X220223248Y-180430903D01*
X220165796Y-180373450D01*
X220108344Y-180258546D01*
X220108344Y-180143641D01*
X220165796Y-180028736D01*
X220223248Y-179971284D01*
X220338153Y-179913831D01*
X220567963Y-179856379D01*
X220682868Y-179798927D01*
X220740320Y-179741474D01*
X220797772Y-179626569D01*
X220797772Y-179511665D01*
X220740320Y-179396760D01*
X220682868Y-179339308D01*
X220567963Y-179281855D01*
X220280701Y-179281855D01*
X220108344Y-179339308D01*
X219361463Y-179281855D02*
X219131653Y-179281855D01*
X219016748Y-179339308D01*
X218901844Y-179454212D01*
X218844391Y-179684022D01*
X218844391Y-180086188D01*
X218901844Y-180315998D01*
X219016748Y-180430903D01*
X219131653Y-180488355D01*
X219361463Y-180488355D01*
X219476368Y-180430903D01*
X219591272Y-180315998D01*
X219648725Y-180086188D01*
X219648725Y-179684022D01*
X219591272Y-179454212D01*
X219476368Y-179339308D01*
X219361463Y-179281855D01*
X218327320Y-180488355D02*
X218327320Y-179281855D01*
X217867701Y-179281855D01*
X217752796Y-179339308D01*
X217695344Y-179396760D01*
X217637891Y-179511665D01*
X217637891Y-179684022D01*
X217695344Y-179798927D01*
X217752796Y-179856379D01*
X217867701Y-179913831D01*
X218327320Y-179913831D01*
X217120820Y-180028736D02*
X216201582Y-180028736D01*
X214995082Y-180488355D02*
X215684510Y-180488355D01*
X215339796Y-180488355D02*
X215339796Y-179281855D01*
X215454701Y-179454212D01*
X215569606Y-179569117D01*
X215684510Y-179626569D01*
X214535463Y-179396760D02*
X214478010Y-179339308D01*
X214363106Y-179281855D01*
X214075844Y-179281855D01*
X213960939Y-179339308D01*
X213903487Y-179396760D01*
X213846034Y-179511665D01*
X213846034Y-179626569D01*
X213903487Y-179798927D01*
X214592915Y-180488355D01*
X213846034Y-180488355D01*
X222980963Y-161461853D02*
X222291534Y-161461853D01*
X222636248Y-162668353D02*
X222636248Y-161461853D01*
X221946820Y-162610901D02*
X221774463Y-162668353D01*
X221487201Y-162668353D01*
X221372296Y-162610901D01*
X221314844Y-162553448D01*
X221257391Y-162438544D01*
X221257391Y-162323639D01*
X221314844Y-162208734D01*
X221372296Y-162151282D01*
X221487201Y-162093829D01*
X221717010Y-162036377D01*
X221831915Y-161978925D01*
X221889368Y-161921472D01*
X221946820Y-161806567D01*
X221946820Y-161691663D01*
X221889368Y-161576758D01*
X221831915Y-161519306D01*
X221717010Y-161461853D01*
X221429748Y-161461853D01*
X221257391Y-161519306D01*
X220797772Y-162610901D02*
X220625415Y-162668353D01*
X220338153Y-162668353D01*
X220223248Y-162610901D01*
X220165796Y-162553448D01*
X220108344Y-162438544D01*
X220108344Y-162323639D01*
X220165796Y-162208734D01*
X220223248Y-162151282D01*
X220338153Y-162093829D01*
X220567963Y-162036377D01*
X220682868Y-161978925D01*
X220740320Y-161921472D01*
X220797772Y-161806567D01*
X220797772Y-161691663D01*
X220740320Y-161576758D01*
X220682868Y-161519306D01*
X220567963Y-161461853D01*
X220280701Y-161461853D01*
X220108344Y-161519306D01*
X219361463Y-161461853D02*
X219131653Y-161461853D01*
X219016748Y-161519306D01*
X218901844Y-161634210D01*
X218844391Y-161864020D01*
X218844391Y-162266186D01*
X218901844Y-162495996D01*
X219016748Y-162610901D01*
X219131653Y-162668353D01*
X219361463Y-162668353D01*
X219476368Y-162610901D01*
X219591272Y-162495996D01*
X219648725Y-162266186D01*
X219648725Y-161864020D01*
X219591272Y-161634210D01*
X219476368Y-161519306D01*
X219361463Y-161461853D01*
X218327320Y-162668353D02*
X218327320Y-161461853D01*
X217867701Y-161461853D01*
X217752796Y-161519306D01*
X217695344Y-161576758D01*
X217637891Y-161691663D01*
X217637891Y-161864020D01*
X217695344Y-161978925D01*
X217752796Y-162036377D01*
X217867701Y-162093829D01*
X218327320Y-162093829D01*
X217120820Y-162208734D02*
X216201582Y-162208734D01*
X214995082Y-162668353D02*
X215684510Y-162668353D01*
X215339796Y-162668353D02*
X215339796Y-161461853D01*
X215454701Y-161634210D01*
X215569606Y-161749115D01*
X215684510Y-161806567D01*
X214535463Y-161576758D02*
X214478010Y-161519306D01*
X214363106Y-161461853D01*
X214075844Y-161461853D01*
X213960939Y-161519306D01*
X213903487Y-161576758D01*
X213846034Y-161691663D01*
X213846034Y-161806567D01*
X213903487Y-161978925D01*
X214592915Y-162668353D01*
X213846034Y-162668353D01*
X222980963Y-143641851D02*
X222291534Y-143641851D01*
X222636248Y-144848351D02*
X222636248Y-143641851D01*
X221946820Y-144790899D02*
X221774463Y-144848351D01*
X221487201Y-144848351D01*
X221372296Y-144790899D01*
X221314844Y-144733446D01*
X221257391Y-144618542D01*
X221257391Y-144503637D01*
X221314844Y-144388732D01*
X221372296Y-144331280D01*
X221487201Y-144273827D01*
X221717010Y-144216375D01*
X221831915Y-144158923D01*
X221889368Y-144101470D01*
X221946820Y-143986565D01*
X221946820Y-143871661D01*
X221889368Y-143756756D01*
X221831915Y-143699304D01*
X221717010Y-143641851D01*
X221429748Y-143641851D01*
X221257391Y-143699304D01*
X220797772Y-144790899D02*
X220625415Y-144848351D01*
X220338153Y-144848351D01*
X220223248Y-144790899D01*
X220165796Y-144733446D01*
X220108344Y-144618542D01*
X220108344Y-144503637D01*
X220165796Y-144388732D01*
X220223248Y-144331280D01*
X220338153Y-144273827D01*
X220567963Y-144216375D01*
X220682868Y-144158923D01*
X220740320Y-144101470D01*
X220797772Y-143986565D01*
X220797772Y-143871661D01*
X220740320Y-143756756D01*
X220682868Y-143699304D01*
X220567963Y-143641851D01*
X220280701Y-143641851D01*
X220108344Y-143699304D01*
X219361463Y-143641851D02*
X219131653Y-143641851D01*
X219016748Y-143699304D01*
X218901844Y-143814208D01*
X218844391Y-144044018D01*
X218844391Y-144446184D01*
X218901844Y-144675994D01*
X219016748Y-144790899D01*
X219131653Y-144848351D01*
X219361463Y-144848351D01*
X219476368Y-144790899D01*
X219591272Y-144675994D01*
X219648725Y-144446184D01*
X219648725Y-144044018D01*
X219591272Y-143814208D01*
X219476368Y-143699304D01*
X219361463Y-143641851D01*
X218327320Y-144848351D02*
X218327320Y-143641851D01*
X217867701Y-143641851D01*
X217752796Y-143699304D01*
X217695344Y-143756756D01*
X217637891Y-143871661D01*
X217637891Y-144044018D01*
X217695344Y-144158923D01*
X217752796Y-144216375D01*
X217867701Y-144273827D01*
X218327320Y-144273827D01*
X217120820Y-144388732D02*
X216201582Y-144388732D01*
X214995082Y-144848351D02*
X215684510Y-144848351D01*
X215339796Y-144848351D02*
X215339796Y-143641851D01*
X215454701Y-143814208D01*
X215569606Y-143929113D01*
X215684510Y-143986565D01*
X214535463Y-143756756D02*
X214478010Y-143699304D01*
X214363106Y-143641851D01*
X214075844Y-143641851D01*
X213960939Y-143699304D01*
X213903487Y-143756756D01*
X213846034Y-143871661D01*
X213846034Y-143986565D01*
X213903487Y-144158923D01*
X214592915Y-144848351D01*
X213846034Y-144848351D01*
X222980963Y-125821849D02*
X222291534Y-125821849D01*
X222636248Y-127028349D02*
X222636248Y-125821849D01*
X221946820Y-126970897D02*
X221774463Y-127028349D01*
X221487201Y-127028349D01*
X221372296Y-126970897D01*
X221314844Y-126913444D01*
X221257391Y-126798540D01*
X221257391Y-126683635D01*
X221314844Y-126568730D01*
X221372296Y-126511278D01*
X221487201Y-126453825D01*
X221717010Y-126396373D01*
X221831915Y-126338921D01*
X221889368Y-126281468D01*
X221946820Y-126166563D01*
X221946820Y-126051659D01*
X221889368Y-125936754D01*
X221831915Y-125879302D01*
X221717010Y-125821849D01*
X221429748Y-125821849D01*
X221257391Y-125879302D01*
X220797772Y-126970897D02*
X220625415Y-127028349D01*
X220338153Y-127028349D01*
X220223248Y-126970897D01*
X220165796Y-126913444D01*
X220108344Y-126798540D01*
X220108344Y-126683635D01*
X220165796Y-126568730D01*
X220223248Y-126511278D01*
X220338153Y-126453825D01*
X220567963Y-126396373D01*
X220682868Y-126338921D01*
X220740320Y-126281468D01*
X220797772Y-126166563D01*
X220797772Y-126051659D01*
X220740320Y-125936754D01*
X220682868Y-125879302D01*
X220567963Y-125821849D01*
X220280701Y-125821849D01*
X220108344Y-125879302D01*
X219361463Y-125821849D02*
X219131653Y-125821849D01*
X219016748Y-125879302D01*
X218901844Y-125994206D01*
X218844391Y-126224016D01*
X218844391Y-126626182D01*
X218901844Y-126855992D01*
X219016748Y-126970897D01*
X219131653Y-127028349D01*
X219361463Y-127028349D01*
X219476368Y-126970897D01*
X219591272Y-126855992D01*
X219648725Y-126626182D01*
X219648725Y-126224016D01*
X219591272Y-125994206D01*
X219476368Y-125879302D01*
X219361463Y-125821849D01*
X218327320Y-127028349D02*
X218327320Y-125821849D01*
X217867701Y-125821849D01*
X217752796Y-125879302D01*
X217695344Y-125936754D01*
X217637891Y-126051659D01*
X217637891Y-126224016D01*
X217695344Y-126338921D01*
X217752796Y-126396373D01*
X217867701Y-126453825D01*
X218327320Y-126453825D01*
X217120820Y-126568730D02*
X216201582Y-126568730D01*
X214995082Y-127028349D02*
X215684510Y-127028349D01*
X215339796Y-127028349D02*
X215339796Y-125821849D01*
X215454701Y-125994206D01*
X215569606Y-126109111D01*
X215684510Y-126166563D01*
X214535463Y-125936754D02*
X214478010Y-125879302D01*
X214363106Y-125821849D01*
X214075844Y-125821849D01*
X213960939Y-125879302D01*
X213903487Y-125936754D01*
X213846034Y-126051659D01*
X213846034Y-126166563D01*
X213903487Y-126338921D01*
X214592915Y-127028349D01*
X213846034Y-127028349D01*
X222980963Y-108001847D02*
X222291534Y-108001847D01*
X222636248Y-109208347D02*
X222636248Y-108001847D01*
X221946820Y-109150895D02*
X221774463Y-109208347D01*
X221487201Y-109208347D01*
X221372296Y-109150895D01*
X221314844Y-109093442D01*
X221257391Y-108978538D01*
X221257391Y-108863633D01*
X221314844Y-108748728D01*
X221372296Y-108691276D01*
X221487201Y-108633823D01*
X221717010Y-108576371D01*
X221831915Y-108518919D01*
X221889368Y-108461466D01*
X221946820Y-108346561D01*
X221946820Y-108231657D01*
X221889368Y-108116752D01*
X221831915Y-108059300D01*
X221717010Y-108001847D01*
X221429748Y-108001847D01*
X221257391Y-108059300D01*
X220797772Y-109150895D02*
X220625415Y-109208347D01*
X220338153Y-109208347D01*
X220223248Y-109150895D01*
X220165796Y-109093442D01*
X220108344Y-108978538D01*
X220108344Y-108863633D01*
X220165796Y-108748728D01*
X220223248Y-108691276D01*
X220338153Y-108633823D01*
X220567963Y-108576371D01*
X220682868Y-108518919D01*
X220740320Y-108461466D01*
X220797772Y-108346561D01*
X220797772Y-108231657D01*
X220740320Y-108116752D01*
X220682868Y-108059300D01*
X220567963Y-108001847D01*
X220280701Y-108001847D01*
X220108344Y-108059300D01*
X219361463Y-108001847D02*
X219131653Y-108001847D01*
X219016748Y-108059300D01*
X218901844Y-108174204D01*
X218844391Y-108404014D01*
X218844391Y-108806180D01*
X218901844Y-109035990D01*
X219016748Y-109150895D01*
X219131653Y-109208347D01*
X219361463Y-109208347D01*
X219476368Y-109150895D01*
X219591272Y-109035990D01*
X219648725Y-108806180D01*
X219648725Y-108404014D01*
X219591272Y-108174204D01*
X219476368Y-108059300D01*
X219361463Y-108001847D01*
X218327320Y-109208347D02*
X218327320Y-108001847D01*
X217867701Y-108001847D01*
X217752796Y-108059300D01*
X217695344Y-108116752D01*
X217637891Y-108231657D01*
X217637891Y-108404014D01*
X217695344Y-108518919D01*
X217752796Y-108576371D01*
X217867701Y-108633823D01*
X218327320Y-108633823D01*
X217120820Y-108748728D02*
X216201582Y-108748728D01*
X214995082Y-109208347D02*
X215684510Y-109208347D01*
X215339796Y-109208347D02*
X215339796Y-108001847D01*
X215454701Y-108174204D01*
X215569606Y-108289109D01*
X215684510Y-108346561D01*
X214535463Y-108116752D02*
X214478010Y-108059300D01*
X214363106Y-108001847D01*
X214075844Y-108001847D01*
X213960939Y-108059300D01*
X213903487Y-108116752D01*
X213846034Y-108231657D01*
X213846034Y-108346561D01*
X213903487Y-108518919D01*
X214592915Y-109208347D01*
X213846034Y-109208347D01*
X205480961Y-179281855D02*
X204791532Y-179281855D01*
X205136246Y-180488355D02*
X205136246Y-179281855D01*
X204446818Y-180430903D02*
X204274461Y-180488355D01*
X203987199Y-180488355D01*
X203872294Y-180430903D01*
X203814842Y-180373450D01*
X203757389Y-180258546D01*
X203757389Y-180143641D01*
X203814842Y-180028736D01*
X203872294Y-179971284D01*
X203987199Y-179913831D01*
X204217008Y-179856379D01*
X204331913Y-179798927D01*
X204389366Y-179741474D01*
X204446818Y-179626569D01*
X204446818Y-179511665D01*
X204389366Y-179396760D01*
X204331913Y-179339308D01*
X204217008Y-179281855D01*
X203929746Y-179281855D01*
X203757389Y-179339308D01*
X203297770Y-180430903D02*
X203125413Y-180488355D01*
X202838151Y-180488355D01*
X202723246Y-180430903D01*
X202665794Y-180373450D01*
X202608342Y-180258546D01*
X202608342Y-180143641D01*
X202665794Y-180028736D01*
X202723246Y-179971284D01*
X202838151Y-179913831D01*
X203067961Y-179856379D01*
X203182866Y-179798927D01*
X203240318Y-179741474D01*
X203297770Y-179626569D01*
X203297770Y-179511665D01*
X203240318Y-179396760D01*
X203182866Y-179339308D01*
X203067961Y-179281855D01*
X202780699Y-179281855D01*
X202608342Y-179339308D01*
X201861461Y-179281855D02*
X201631651Y-179281855D01*
X201516746Y-179339308D01*
X201401842Y-179454212D01*
X201344389Y-179684022D01*
X201344389Y-180086188D01*
X201401842Y-180315998D01*
X201516746Y-180430903D01*
X201631651Y-180488355D01*
X201861461Y-180488355D01*
X201976366Y-180430903D01*
X202091270Y-180315998D01*
X202148723Y-180086188D01*
X202148723Y-179684022D01*
X202091270Y-179454212D01*
X201976366Y-179339308D01*
X201861461Y-179281855D01*
X200827318Y-180488355D02*
X200827318Y-179281855D01*
X200367699Y-179281855D01*
X200252794Y-179339308D01*
X200195342Y-179396760D01*
X200137889Y-179511665D01*
X200137889Y-179684022D01*
X200195342Y-179798927D01*
X200252794Y-179856379D01*
X200367699Y-179913831D01*
X200827318Y-179913831D01*
X199620818Y-180028736D02*
X198701580Y-180028736D01*
X197495080Y-180488355D02*
X198184508Y-180488355D01*
X197839794Y-180488355D02*
X197839794Y-179281855D01*
X197954699Y-179454212D01*
X198069604Y-179569117D01*
X198184508Y-179626569D01*
X197035461Y-179396760D02*
X196978008Y-179339308D01*
X196863104Y-179281855D01*
X196575842Y-179281855D01*
X196460937Y-179339308D01*
X196403485Y-179396760D01*
X196346032Y-179511665D01*
X196346032Y-179626569D01*
X196403485Y-179798927D01*
X197092913Y-180488355D01*
X196346032Y-180488355D01*
X205480961Y-161461853D02*
X204791532Y-161461853D01*
X205136246Y-162668353D02*
X205136246Y-161461853D01*
X204446818Y-162610901D02*
X204274461Y-162668353D01*
X203987199Y-162668353D01*
X203872294Y-162610901D01*
X203814842Y-162553448D01*
X203757389Y-162438544D01*
X203757389Y-162323639D01*
X203814842Y-162208734D01*
X203872294Y-162151282D01*
X203987199Y-162093829D01*
X204217008Y-162036377D01*
X204331913Y-161978925D01*
X204389366Y-161921472D01*
X204446818Y-161806567D01*
X204446818Y-161691663D01*
X204389366Y-161576758D01*
X204331913Y-161519306D01*
X204217008Y-161461853D01*
X203929746Y-161461853D01*
X203757389Y-161519306D01*
X203297770Y-162610901D02*
X203125413Y-162668353D01*
X202838151Y-162668353D01*
X202723246Y-162610901D01*
X202665794Y-162553448D01*
X202608342Y-162438544D01*
X202608342Y-162323639D01*
X202665794Y-162208734D01*
X202723246Y-162151282D01*
X202838151Y-162093829D01*
X203067961Y-162036377D01*
X203182866Y-161978925D01*
X203240318Y-161921472D01*
X203297770Y-161806567D01*
X203297770Y-161691663D01*
X203240318Y-161576758D01*
X203182866Y-161519306D01*
X203067961Y-161461853D01*
X202780699Y-161461853D01*
X202608342Y-161519306D01*
X201861461Y-161461853D02*
X201631651Y-161461853D01*
X201516746Y-161519306D01*
X201401842Y-161634210D01*
X201344389Y-161864020D01*
X201344389Y-162266186D01*
X201401842Y-162495996D01*
X201516746Y-162610901D01*
X201631651Y-162668353D01*
X201861461Y-162668353D01*
X201976366Y-162610901D01*
X202091270Y-162495996D01*
X202148723Y-162266186D01*
X202148723Y-161864020D01*
X202091270Y-161634210D01*
X201976366Y-161519306D01*
X201861461Y-161461853D01*
X200827318Y-162668353D02*
X200827318Y-161461853D01*
X200367699Y-161461853D01*
X200252794Y-161519306D01*
X200195342Y-161576758D01*
X200137889Y-161691663D01*
X200137889Y-161864020D01*
X200195342Y-161978925D01*
X200252794Y-162036377D01*
X200367699Y-162093829D01*
X200827318Y-162093829D01*
X199620818Y-162208734D02*
X198701580Y-162208734D01*
X197495080Y-162668353D02*
X198184508Y-162668353D01*
X197839794Y-162668353D02*
X197839794Y-161461853D01*
X197954699Y-161634210D01*
X198069604Y-161749115D01*
X198184508Y-161806567D01*
X197035461Y-161576758D02*
X196978008Y-161519306D01*
X196863104Y-161461853D01*
X196575842Y-161461853D01*
X196460937Y-161519306D01*
X196403485Y-161576758D01*
X196346032Y-161691663D01*
X196346032Y-161806567D01*
X196403485Y-161978925D01*
X197092913Y-162668353D01*
X196346032Y-162668353D01*
X205480961Y-143641851D02*
X204791532Y-143641851D01*
X205136246Y-144848351D02*
X205136246Y-143641851D01*
X204446818Y-144790899D02*
X204274461Y-144848351D01*
X203987199Y-144848351D01*
X203872294Y-144790899D01*
X203814842Y-144733446D01*
X203757389Y-144618542D01*
X203757389Y-144503637D01*
X203814842Y-144388732D01*
X203872294Y-144331280D01*
X203987199Y-144273827D01*
X204217008Y-144216375D01*
X204331913Y-144158923D01*
X204389366Y-144101470D01*
X204446818Y-143986565D01*
X204446818Y-143871661D01*
X204389366Y-143756756D01*
X204331913Y-143699304D01*
X204217008Y-143641851D01*
X203929746Y-143641851D01*
X203757389Y-143699304D01*
X203297770Y-144790899D02*
X203125413Y-144848351D01*
X202838151Y-144848351D01*
X202723246Y-144790899D01*
X202665794Y-144733446D01*
X202608342Y-144618542D01*
X202608342Y-144503637D01*
X202665794Y-144388732D01*
X202723246Y-144331280D01*
X202838151Y-144273827D01*
X203067961Y-144216375D01*
X203182866Y-144158923D01*
X203240318Y-144101470D01*
X203297770Y-143986565D01*
X203297770Y-143871661D01*
X203240318Y-143756756D01*
X203182866Y-143699304D01*
X203067961Y-143641851D01*
X202780699Y-143641851D01*
X202608342Y-143699304D01*
X201861461Y-143641851D02*
X201631651Y-143641851D01*
X201516746Y-143699304D01*
X201401842Y-143814208D01*
X201344389Y-144044018D01*
X201344389Y-144446184D01*
X201401842Y-144675994D01*
X201516746Y-144790899D01*
X201631651Y-144848351D01*
X201861461Y-144848351D01*
X201976366Y-144790899D01*
X202091270Y-144675994D01*
X202148723Y-144446184D01*
X202148723Y-144044018D01*
X202091270Y-143814208D01*
X201976366Y-143699304D01*
X201861461Y-143641851D01*
X200827318Y-144848351D02*
X200827318Y-143641851D01*
X200367699Y-143641851D01*
X200252794Y-143699304D01*
X200195342Y-143756756D01*
X200137889Y-143871661D01*
X200137889Y-144044018D01*
X200195342Y-144158923D01*
X200252794Y-144216375D01*
X200367699Y-144273827D01*
X200827318Y-144273827D01*
X199620818Y-144388732D02*
X198701580Y-144388732D01*
X197495080Y-144848351D02*
X198184508Y-144848351D01*
X197839794Y-144848351D02*
X197839794Y-143641851D01*
X197954699Y-143814208D01*
X198069604Y-143929113D01*
X198184508Y-143986565D01*
X197035461Y-143756756D02*
X196978008Y-143699304D01*
X196863104Y-143641851D01*
X196575842Y-143641851D01*
X196460937Y-143699304D01*
X196403485Y-143756756D01*
X196346032Y-143871661D01*
X196346032Y-143986565D01*
X196403485Y-144158923D01*
X197092913Y-144848351D01*
X196346032Y-144848351D01*
X205480961Y-125821849D02*
X204791532Y-125821849D01*
X205136246Y-127028349D02*
X205136246Y-125821849D01*
X204446818Y-126970897D02*
X204274461Y-127028349D01*
X203987199Y-127028349D01*
X203872294Y-126970897D01*
X203814842Y-126913444D01*
X203757389Y-126798540D01*
X203757389Y-126683635D01*
X203814842Y-126568730D01*
X203872294Y-126511278D01*
X203987199Y-126453825D01*
X204217008Y-126396373D01*
X204331913Y-126338921D01*
X204389366Y-126281468D01*
X204446818Y-126166563D01*
X204446818Y-126051659D01*
X204389366Y-125936754D01*
X204331913Y-125879302D01*
X204217008Y-125821849D01*
X203929746Y-125821849D01*
X203757389Y-125879302D01*
X203297770Y-126970897D02*
X203125413Y-127028349D01*
X202838151Y-127028349D01*
X202723246Y-126970897D01*
X202665794Y-126913444D01*
X202608342Y-126798540D01*
X202608342Y-126683635D01*
X202665794Y-126568730D01*
X202723246Y-126511278D01*
X202838151Y-126453825D01*
X203067961Y-126396373D01*
X203182866Y-126338921D01*
X203240318Y-126281468D01*
X203297770Y-126166563D01*
X203297770Y-126051659D01*
X203240318Y-125936754D01*
X203182866Y-125879302D01*
X203067961Y-125821849D01*
X202780699Y-125821849D01*
X202608342Y-125879302D01*
X201861461Y-125821849D02*
X201631651Y-125821849D01*
X201516746Y-125879302D01*
X201401842Y-125994206D01*
X201344389Y-126224016D01*
X201344389Y-126626182D01*
X201401842Y-126855992D01*
X201516746Y-126970897D01*
X201631651Y-127028349D01*
X201861461Y-127028349D01*
X201976366Y-126970897D01*
X202091270Y-126855992D01*
X202148723Y-126626182D01*
X202148723Y-126224016D01*
X202091270Y-125994206D01*
X201976366Y-125879302D01*
X201861461Y-125821849D01*
X200827318Y-127028349D02*
X200827318Y-125821849D01*
X200367699Y-125821849D01*
X200252794Y-125879302D01*
X200195342Y-125936754D01*
X200137889Y-126051659D01*
X200137889Y-126224016D01*
X200195342Y-126338921D01*
X200252794Y-126396373D01*
X200367699Y-126453825D01*
X200827318Y-126453825D01*
X199620818Y-126568730D02*
X198701580Y-126568730D01*
X197495080Y-127028349D02*
X198184508Y-127028349D01*
X197839794Y-127028349D02*
X197839794Y-125821849D01*
X197954699Y-125994206D01*
X198069604Y-126109111D01*
X198184508Y-126166563D01*
X197035461Y-125936754D02*
X196978008Y-125879302D01*
X196863104Y-125821849D01*
X196575842Y-125821849D01*
X196460937Y-125879302D01*
X196403485Y-125936754D01*
X196346032Y-126051659D01*
X196346032Y-126166563D01*
X196403485Y-126338921D01*
X197092913Y-127028349D01*
X196346032Y-127028349D01*
X205480961Y-108001847D02*
X204791532Y-108001847D01*
X205136246Y-109208347D02*
X205136246Y-108001847D01*
X204446818Y-109150895D02*
X204274461Y-109208347D01*
X203987199Y-109208347D01*
X203872294Y-109150895D01*
X203814842Y-109093442D01*
X203757389Y-108978538D01*
X203757389Y-108863633D01*
X203814842Y-108748728D01*
X203872294Y-108691276D01*
X203987199Y-108633823D01*
X204217008Y-108576371D01*
X204331913Y-108518919D01*
X204389366Y-108461466D01*
X204446818Y-108346561D01*
X204446818Y-108231657D01*
X204389366Y-108116752D01*
X204331913Y-108059300D01*
X204217008Y-108001847D01*
X203929746Y-108001847D01*
X203757389Y-108059300D01*
X203297770Y-109150895D02*
X203125413Y-109208347D01*
X202838151Y-109208347D01*
X202723246Y-109150895D01*
X202665794Y-109093442D01*
X202608342Y-108978538D01*
X202608342Y-108863633D01*
X202665794Y-108748728D01*
X202723246Y-108691276D01*
X202838151Y-108633823D01*
X203067961Y-108576371D01*
X203182866Y-108518919D01*
X203240318Y-108461466D01*
X203297770Y-108346561D01*
X203297770Y-108231657D01*
X203240318Y-108116752D01*
X203182866Y-108059300D01*
X203067961Y-108001847D01*
X202780699Y-108001847D01*
X202608342Y-108059300D01*
X201861461Y-108001847D02*
X201631651Y-108001847D01*
X201516746Y-108059300D01*
X201401842Y-108174204D01*
X201344389Y-108404014D01*
X201344389Y-108806180D01*
X201401842Y-109035990D01*
X201516746Y-109150895D01*
X201631651Y-109208347D01*
X201861461Y-109208347D01*
X201976366Y-109150895D01*
X202091270Y-109035990D01*
X202148723Y-108806180D01*
X202148723Y-108404014D01*
X202091270Y-108174204D01*
X201976366Y-108059300D01*
X201861461Y-108001847D01*
X200827318Y-109208347D02*
X200827318Y-108001847D01*
X200367699Y-108001847D01*
X200252794Y-108059300D01*
X200195342Y-108116752D01*
X200137889Y-108231657D01*
X200137889Y-108404014D01*
X200195342Y-108518919D01*
X200252794Y-108576371D01*
X200367699Y-108633823D01*
X200827318Y-108633823D01*
X199620818Y-108748728D02*
X198701580Y-108748728D01*
X197495080Y-109208347D02*
X198184508Y-109208347D01*
X197839794Y-109208347D02*
X197839794Y-108001847D01*
X197954699Y-108174204D01*
X198069604Y-108289109D01*
X198184508Y-108346561D01*
X197035461Y-108116752D02*
X196978008Y-108059300D01*
X196863104Y-108001847D01*
X196575842Y-108001847D01*
X196460937Y-108059300D01*
X196403485Y-108116752D01*
X196346032Y-108231657D01*
X196346032Y-108346561D01*
X196403485Y-108518919D01*
X197092913Y-109208347D01*
X196346032Y-109208347D01*
X187980959Y-179281855D02*
X187291530Y-179281855D01*
X187636244Y-180488355D02*
X187636244Y-179281855D01*
X186946816Y-180430903D02*
X186774459Y-180488355D01*
X186487197Y-180488355D01*
X186372292Y-180430903D01*
X186314840Y-180373450D01*
X186257387Y-180258546D01*
X186257387Y-180143641D01*
X186314840Y-180028736D01*
X186372292Y-179971284D01*
X186487197Y-179913831D01*
X186717006Y-179856379D01*
X186831911Y-179798927D01*
X186889364Y-179741474D01*
X186946816Y-179626569D01*
X186946816Y-179511665D01*
X186889364Y-179396760D01*
X186831911Y-179339308D01*
X186717006Y-179281855D01*
X186429744Y-179281855D01*
X186257387Y-179339308D01*
X185797768Y-180430903D02*
X185625411Y-180488355D01*
X185338149Y-180488355D01*
X185223244Y-180430903D01*
X185165792Y-180373450D01*
X185108340Y-180258546D01*
X185108340Y-180143641D01*
X185165792Y-180028736D01*
X185223244Y-179971284D01*
X185338149Y-179913831D01*
X185567959Y-179856379D01*
X185682864Y-179798927D01*
X185740316Y-179741474D01*
X185797768Y-179626569D01*
X185797768Y-179511665D01*
X185740316Y-179396760D01*
X185682864Y-179339308D01*
X185567959Y-179281855D01*
X185280697Y-179281855D01*
X185108340Y-179339308D01*
X184361459Y-179281855D02*
X184131649Y-179281855D01*
X184016744Y-179339308D01*
X183901840Y-179454212D01*
X183844387Y-179684022D01*
X183844387Y-180086188D01*
X183901840Y-180315998D01*
X184016744Y-180430903D01*
X184131649Y-180488355D01*
X184361459Y-180488355D01*
X184476364Y-180430903D01*
X184591268Y-180315998D01*
X184648721Y-180086188D01*
X184648721Y-179684022D01*
X184591268Y-179454212D01*
X184476364Y-179339308D01*
X184361459Y-179281855D01*
X183327316Y-180488355D02*
X183327316Y-179281855D01*
X182867697Y-179281855D01*
X182752792Y-179339308D01*
X182695340Y-179396760D01*
X182637887Y-179511665D01*
X182637887Y-179684022D01*
X182695340Y-179798927D01*
X182752792Y-179856379D01*
X182867697Y-179913831D01*
X183327316Y-179913831D01*
X182120816Y-180028736D02*
X181201578Y-180028736D01*
X179995078Y-180488355D02*
X180684506Y-180488355D01*
X180339792Y-180488355D02*
X180339792Y-179281855D01*
X180454697Y-179454212D01*
X180569602Y-179569117D01*
X180684506Y-179626569D01*
X179535459Y-179396760D02*
X179478006Y-179339308D01*
X179363102Y-179281855D01*
X179075840Y-179281855D01*
X178960935Y-179339308D01*
X178903483Y-179396760D01*
X178846030Y-179511665D01*
X178846030Y-179626569D01*
X178903483Y-179798927D01*
X179592911Y-180488355D01*
X178846030Y-180488355D01*
X187980959Y-161461853D02*
X187291530Y-161461853D01*
X187636244Y-162668353D02*
X187636244Y-161461853D01*
X186946816Y-162610901D02*
X186774459Y-162668353D01*
X186487197Y-162668353D01*
X186372292Y-162610901D01*
X186314840Y-162553448D01*
X186257387Y-162438544D01*
X186257387Y-162323639D01*
X186314840Y-162208734D01*
X186372292Y-162151282D01*
X186487197Y-162093829D01*
X186717006Y-162036377D01*
X186831911Y-161978925D01*
X186889364Y-161921472D01*
X186946816Y-161806567D01*
X186946816Y-161691663D01*
X186889364Y-161576758D01*
X186831911Y-161519306D01*
X186717006Y-161461853D01*
X186429744Y-161461853D01*
X186257387Y-161519306D01*
X185797768Y-162610901D02*
X185625411Y-162668353D01*
X185338149Y-162668353D01*
X185223244Y-162610901D01*
X185165792Y-162553448D01*
X185108340Y-162438544D01*
X185108340Y-162323639D01*
X185165792Y-162208734D01*
X185223244Y-162151282D01*
X185338149Y-162093829D01*
X185567959Y-162036377D01*
X185682864Y-161978925D01*
X185740316Y-161921472D01*
X185797768Y-161806567D01*
X185797768Y-161691663D01*
X185740316Y-161576758D01*
X185682864Y-161519306D01*
X185567959Y-161461853D01*
X185280697Y-161461853D01*
X185108340Y-161519306D01*
X184361459Y-161461853D02*
X184131649Y-161461853D01*
X184016744Y-161519306D01*
X183901840Y-161634210D01*
X183844387Y-161864020D01*
X183844387Y-162266186D01*
X183901840Y-162495996D01*
X184016744Y-162610901D01*
X184131649Y-162668353D01*
X184361459Y-162668353D01*
X184476364Y-162610901D01*
X184591268Y-162495996D01*
X184648721Y-162266186D01*
X184648721Y-161864020D01*
X184591268Y-161634210D01*
X184476364Y-161519306D01*
X184361459Y-161461853D01*
X183327316Y-162668353D02*
X183327316Y-161461853D01*
X182867697Y-161461853D01*
X182752792Y-161519306D01*
X182695340Y-161576758D01*
X182637887Y-161691663D01*
X182637887Y-161864020D01*
X182695340Y-161978925D01*
X182752792Y-162036377D01*
X182867697Y-162093829D01*
X183327316Y-162093829D01*
X182120816Y-162208734D02*
X181201578Y-162208734D01*
X179995078Y-162668353D02*
X180684506Y-162668353D01*
X180339792Y-162668353D02*
X180339792Y-161461853D01*
X180454697Y-161634210D01*
X180569602Y-161749115D01*
X180684506Y-161806567D01*
X179535459Y-161576758D02*
X179478006Y-161519306D01*
X179363102Y-161461853D01*
X179075840Y-161461853D01*
X178960935Y-161519306D01*
X178903483Y-161576758D01*
X178846030Y-161691663D01*
X178846030Y-161806567D01*
X178903483Y-161978925D01*
X179592911Y-162668353D01*
X178846030Y-162668353D01*
X187980959Y-143641851D02*
X187291530Y-143641851D01*
X187636244Y-144848351D02*
X187636244Y-143641851D01*
X186946816Y-144790899D02*
X186774459Y-144848351D01*
X186487197Y-144848351D01*
X186372292Y-144790899D01*
X186314840Y-144733446D01*
X186257387Y-144618542D01*
X186257387Y-144503637D01*
X186314840Y-144388732D01*
X186372292Y-144331280D01*
X186487197Y-144273827D01*
X186717006Y-144216375D01*
X186831911Y-144158923D01*
X186889364Y-144101470D01*
X186946816Y-143986565D01*
X186946816Y-143871661D01*
X186889364Y-143756756D01*
X186831911Y-143699304D01*
X186717006Y-143641851D01*
X186429744Y-143641851D01*
X186257387Y-143699304D01*
X185797768Y-144790899D02*
X185625411Y-144848351D01*
X185338149Y-144848351D01*
X185223244Y-144790899D01*
X185165792Y-144733446D01*
X185108340Y-144618542D01*
X185108340Y-144503637D01*
X185165792Y-144388732D01*
X185223244Y-144331280D01*
X185338149Y-144273827D01*
X185567959Y-144216375D01*
X185682864Y-144158923D01*
X185740316Y-144101470D01*
X185797768Y-143986565D01*
X185797768Y-143871661D01*
X185740316Y-143756756D01*
X185682864Y-143699304D01*
X185567959Y-143641851D01*
X185280697Y-143641851D01*
X185108340Y-143699304D01*
X184361459Y-143641851D02*
X184131649Y-143641851D01*
X184016744Y-143699304D01*
X183901840Y-143814208D01*
X183844387Y-144044018D01*
X183844387Y-144446184D01*
X183901840Y-144675994D01*
X184016744Y-144790899D01*
X184131649Y-144848351D01*
X184361459Y-144848351D01*
X184476364Y-144790899D01*
X184591268Y-144675994D01*
X184648721Y-144446184D01*
X184648721Y-144044018D01*
X184591268Y-143814208D01*
X184476364Y-143699304D01*
X184361459Y-143641851D01*
X183327316Y-144848351D02*
X183327316Y-143641851D01*
X182867697Y-143641851D01*
X182752792Y-143699304D01*
X182695340Y-143756756D01*
X182637887Y-143871661D01*
X182637887Y-144044018D01*
X182695340Y-144158923D01*
X182752792Y-144216375D01*
X182867697Y-144273827D01*
X183327316Y-144273827D01*
X182120816Y-144388732D02*
X181201578Y-144388732D01*
X179995078Y-144848351D02*
X180684506Y-144848351D01*
X180339792Y-144848351D02*
X180339792Y-143641851D01*
X180454697Y-143814208D01*
X180569602Y-143929113D01*
X180684506Y-143986565D01*
X179535459Y-143756756D02*
X179478006Y-143699304D01*
X179363102Y-143641851D01*
X179075840Y-143641851D01*
X178960935Y-143699304D01*
X178903483Y-143756756D01*
X178846030Y-143871661D01*
X178846030Y-143986565D01*
X178903483Y-144158923D01*
X179592911Y-144848351D01*
X178846030Y-144848351D01*
X187980959Y-125821849D02*
X187291530Y-125821849D01*
X187636244Y-127028349D02*
X187636244Y-125821849D01*
X186946816Y-126970897D02*
X186774459Y-127028349D01*
X186487197Y-127028349D01*
X186372292Y-126970897D01*
X186314840Y-126913444D01*
X186257387Y-126798540D01*
X186257387Y-126683635D01*
X186314840Y-126568730D01*
X186372292Y-126511278D01*
X186487197Y-126453825D01*
X186717006Y-126396373D01*
X186831911Y-126338921D01*
X186889364Y-126281468D01*
X186946816Y-126166563D01*
X186946816Y-126051659D01*
X186889364Y-125936754D01*
X186831911Y-125879302D01*
X186717006Y-125821849D01*
X186429744Y-125821849D01*
X186257387Y-125879302D01*
X185797768Y-126970897D02*
X185625411Y-127028349D01*
X185338149Y-127028349D01*
X185223244Y-126970897D01*
X185165792Y-126913444D01*
X185108340Y-126798540D01*
X185108340Y-126683635D01*
X185165792Y-126568730D01*
X185223244Y-126511278D01*
X185338149Y-126453825D01*
X185567959Y-126396373D01*
X185682864Y-126338921D01*
X185740316Y-126281468D01*
X185797768Y-126166563D01*
X185797768Y-126051659D01*
X185740316Y-125936754D01*
X185682864Y-125879302D01*
X185567959Y-125821849D01*
X185280697Y-125821849D01*
X185108340Y-125879302D01*
X184361459Y-125821849D02*
X184131649Y-125821849D01*
X184016744Y-125879302D01*
X183901840Y-125994206D01*
X183844387Y-126224016D01*
X183844387Y-126626182D01*
X183901840Y-126855992D01*
X184016744Y-126970897D01*
X184131649Y-127028349D01*
X184361459Y-127028349D01*
X184476364Y-126970897D01*
X184591268Y-126855992D01*
X184648721Y-126626182D01*
X184648721Y-126224016D01*
X184591268Y-125994206D01*
X184476364Y-125879302D01*
X184361459Y-125821849D01*
X183327316Y-127028349D02*
X183327316Y-125821849D01*
X182867697Y-125821849D01*
X182752792Y-125879302D01*
X182695340Y-125936754D01*
X182637887Y-126051659D01*
X182637887Y-126224016D01*
X182695340Y-126338921D01*
X182752792Y-126396373D01*
X182867697Y-126453825D01*
X183327316Y-126453825D01*
X182120816Y-126568730D02*
X181201578Y-126568730D01*
X179995078Y-127028349D02*
X180684506Y-127028349D01*
X180339792Y-127028349D02*
X180339792Y-125821849D01*
X180454697Y-125994206D01*
X180569602Y-126109111D01*
X180684506Y-126166563D01*
X179535459Y-125936754D02*
X179478006Y-125879302D01*
X179363102Y-125821849D01*
X179075840Y-125821849D01*
X178960935Y-125879302D01*
X178903483Y-125936754D01*
X178846030Y-126051659D01*
X178846030Y-126166563D01*
X178903483Y-126338921D01*
X179592911Y-127028349D01*
X178846030Y-127028349D01*
X187980959Y-108001847D02*
X187291530Y-108001847D01*
X187636244Y-109208347D02*
X187636244Y-108001847D01*
X186946816Y-109150895D02*
X186774459Y-109208347D01*
X186487197Y-109208347D01*
X186372292Y-109150895D01*
X186314840Y-109093442D01*
X186257387Y-108978538D01*
X186257387Y-108863633D01*
X186314840Y-108748728D01*
X186372292Y-108691276D01*
X186487197Y-108633823D01*
X186717006Y-108576371D01*
X186831911Y-108518919D01*
X186889364Y-108461466D01*
X186946816Y-108346561D01*
X186946816Y-108231657D01*
X186889364Y-108116752D01*
X186831911Y-108059300D01*
X186717006Y-108001847D01*
X186429744Y-108001847D01*
X186257387Y-108059300D01*
X185797768Y-109150895D02*
X185625411Y-109208347D01*
X185338149Y-109208347D01*
X185223244Y-109150895D01*
X185165792Y-109093442D01*
X185108340Y-108978538D01*
X185108340Y-108863633D01*
X185165792Y-108748728D01*
X185223244Y-108691276D01*
X185338149Y-108633823D01*
X185567959Y-108576371D01*
X185682864Y-108518919D01*
X185740316Y-108461466D01*
X185797768Y-108346561D01*
X185797768Y-108231657D01*
X185740316Y-108116752D01*
X185682864Y-108059300D01*
X185567959Y-108001847D01*
X185280697Y-108001847D01*
X185108340Y-108059300D01*
X184361459Y-108001847D02*
X184131649Y-108001847D01*
X184016744Y-108059300D01*
X183901840Y-108174204D01*
X183844387Y-108404014D01*
X183844387Y-108806180D01*
X183901840Y-109035990D01*
X184016744Y-109150895D01*
X184131649Y-109208347D01*
X184361459Y-109208347D01*
X184476364Y-109150895D01*
X184591268Y-109035990D01*
X184648721Y-108806180D01*
X184648721Y-108404014D01*
X184591268Y-108174204D01*
X184476364Y-108059300D01*
X184361459Y-108001847D01*
X183327316Y-109208347D02*
X183327316Y-108001847D01*
X182867697Y-108001847D01*
X182752792Y-108059300D01*
X182695340Y-108116752D01*
X182637887Y-108231657D01*
X182637887Y-108404014D01*
X182695340Y-108518919D01*
X182752792Y-108576371D01*
X182867697Y-108633823D01*
X183327316Y-108633823D01*
X182120816Y-108748728D02*
X181201578Y-108748728D01*
X179995078Y-109208347D02*
X180684506Y-109208347D01*
X180339792Y-109208347D02*
X180339792Y-108001847D01*
X180454697Y-108174204D01*
X180569602Y-108289109D01*
X180684506Y-108346561D01*
X179535459Y-108116752D02*
X179478006Y-108059300D01*
X179363102Y-108001847D01*
X179075840Y-108001847D01*
X178960935Y-108059300D01*
X178903483Y-108116752D01*
X178846030Y-108231657D01*
X178846030Y-108346561D01*
X178903483Y-108518919D01*
X179592911Y-109208347D01*
X178846030Y-109208347D01*
X170480957Y-179281855D02*
X169791528Y-179281855D01*
X170136242Y-180488355D02*
X170136242Y-179281855D01*
X169446814Y-180430903D02*
X169274457Y-180488355D01*
X168987195Y-180488355D01*
X168872290Y-180430903D01*
X168814838Y-180373450D01*
X168757385Y-180258546D01*
X168757385Y-180143641D01*
X168814838Y-180028736D01*
X168872290Y-179971284D01*
X168987195Y-179913831D01*
X169217004Y-179856379D01*
X169331909Y-179798927D01*
X169389362Y-179741474D01*
X169446814Y-179626569D01*
X169446814Y-179511665D01*
X169389362Y-179396760D01*
X169331909Y-179339308D01*
X169217004Y-179281855D01*
X168929742Y-179281855D01*
X168757385Y-179339308D01*
X168297766Y-180430903D02*
X168125409Y-180488355D01*
X167838147Y-180488355D01*
X167723242Y-180430903D01*
X167665790Y-180373450D01*
X167608338Y-180258546D01*
X167608338Y-180143641D01*
X167665790Y-180028736D01*
X167723242Y-179971284D01*
X167838147Y-179913831D01*
X168067957Y-179856379D01*
X168182862Y-179798927D01*
X168240314Y-179741474D01*
X168297766Y-179626569D01*
X168297766Y-179511665D01*
X168240314Y-179396760D01*
X168182862Y-179339308D01*
X168067957Y-179281855D01*
X167780695Y-179281855D01*
X167608338Y-179339308D01*
X166861457Y-179281855D02*
X166631647Y-179281855D01*
X166516742Y-179339308D01*
X166401838Y-179454212D01*
X166344385Y-179684022D01*
X166344385Y-180086188D01*
X166401838Y-180315998D01*
X166516742Y-180430903D01*
X166631647Y-180488355D01*
X166861457Y-180488355D01*
X166976362Y-180430903D01*
X167091266Y-180315998D01*
X167148719Y-180086188D01*
X167148719Y-179684022D01*
X167091266Y-179454212D01*
X166976362Y-179339308D01*
X166861457Y-179281855D01*
X165827314Y-180488355D02*
X165827314Y-179281855D01*
X165367695Y-179281855D01*
X165252790Y-179339308D01*
X165195338Y-179396760D01*
X165137885Y-179511665D01*
X165137885Y-179684022D01*
X165195338Y-179798927D01*
X165252790Y-179856379D01*
X165367695Y-179913831D01*
X165827314Y-179913831D01*
X164620814Y-180028736D02*
X163701576Y-180028736D01*
X162495076Y-180488355D02*
X163184504Y-180488355D01*
X162839790Y-180488355D02*
X162839790Y-179281855D01*
X162954695Y-179454212D01*
X163069600Y-179569117D01*
X163184504Y-179626569D01*
X162035457Y-179396760D02*
X161978004Y-179339308D01*
X161863100Y-179281855D01*
X161575838Y-179281855D01*
X161460933Y-179339308D01*
X161403481Y-179396760D01*
X161346028Y-179511665D01*
X161346028Y-179626569D01*
X161403481Y-179798927D01*
X162092909Y-180488355D01*
X161346028Y-180488355D01*
X170480957Y-161461853D02*
X169791528Y-161461853D01*
X170136242Y-162668353D02*
X170136242Y-161461853D01*
X169446814Y-162610901D02*
X169274457Y-162668353D01*
X168987195Y-162668353D01*
X168872290Y-162610901D01*
X168814838Y-162553448D01*
X168757385Y-162438544D01*
X168757385Y-162323639D01*
X168814838Y-162208734D01*
X168872290Y-162151282D01*
X168987195Y-162093829D01*
X169217004Y-162036377D01*
X169331909Y-161978925D01*
X169389362Y-161921472D01*
X169446814Y-161806567D01*
X169446814Y-161691663D01*
X169389362Y-161576758D01*
X169331909Y-161519306D01*
X169217004Y-161461853D01*
X168929742Y-161461853D01*
X168757385Y-161519306D01*
X168297766Y-162610901D02*
X168125409Y-162668353D01*
X167838147Y-162668353D01*
X167723242Y-162610901D01*
X167665790Y-162553448D01*
X167608338Y-162438544D01*
X167608338Y-162323639D01*
X167665790Y-162208734D01*
X167723242Y-162151282D01*
X167838147Y-162093829D01*
X168067957Y-162036377D01*
X168182862Y-161978925D01*
X168240314Y-161921472D01*
X168297766Y-161806567D01*
X168297766Y-161691663D01*
X168240314Y-161576758D01*
X168182862Y-161519306D01*
X168067957Y-161461853D01*
X167780695Y-161461853D01*
X167608338Y-161519306D01*
X166861457Y-161461853D02*
X166631647Y-161461853D01*
X166516742Y-161519306D01*
X166401838Y-161634210D01*
X166344385Y-161864020D01*
X166344385Y-162266186D01*
X166401838Y-162495996D01*
X166516742Y-162610901D01*
X166631647Y-162668353D01*
X166861457Y-162668353D01*
X166976362Y-162610901D01*
X167091266Y-162495996D01*
X167148719Y-162266186D01*
X167148719Y-161864020D01*
X167091266Y-161634210D01*
X166976362Y-161519306D01*
X166861457Y-161461853D01*
X165827314Y-162668353D02*
X165827314Y-161461853D01*
X165367695Y-161461853D01*
X165252790Y-161519306D01*
X165195338Y-161576758D01*
X165137885Y-161691663D01*
X165137885Y-161864020D01*
X165195338Y-161978925D01*
X165252790Y-162036377D01*
X165367695Y-162093829D01*
X165827314Y-162093829D01*
X164620814Y-162208734D02*
X163701576Y-162208734D01*
X162495076Y-162668353D02*
X163184504Y-162668353D01*
X162839790Y-162668353D02*
X162839790Y-161461853D01*
X162954695Y-161634210D01*
X163069600Y-161749115D01*
X163184504Y-161806567D01*
X162035457Y-161576758D02*
X161978004Y-161519306D01*
X161863100Y-161461853D01*
X161575838Y-161461853D01*
X161460933Y-161519306D01*
X161403481Y-161576758D01*
X161346028Y-161691663D01*
X161346028Y-161806567D01*
X161403481Y-161978925D01*
X162092909Y-162668353D01*
X161346028Y-162668353D01*
X170480957Y-143641851D02*
X169791528Y-143641851D01*
X170136242Y-144848351D02*
X170136242Y-143641851D01*
X169446814Y-144790899D02*
X169274457Y-144848351D01*
X168987195Y-144848351D01*
X168872290Y-144790899D01*
X168814838Y-144733446D01*
X168757385Y-144618542D01*
X168757385Y-144503637D01*
X168814838Y-144388732D01*
X168872290Y-144331280D01*
X168987195Y-144273827D01*
X169217004Y-144216375D01*
X169331909Y-144158923D01*
X169389362Y-144101470D01*
X169446814Y-143986565D01*
X169446814Y-143871661D01*
X169389362Y-143756756D01*
X169331909Y-143699304D01*
X169217004Y-143641851D01*
X168929742Y-143641851D01*
X168757385Y-143699304D01*
X168297766Y-144790899D02*
X168125409Y-144848351D01*
X167838147Y-144848351D01*
X167723242Y-144790899D01*
X167665790Y-144733446D01*
X167608338Y-144618542D01*
X167608338Y-144503637D01*
X167665790Y-144388732D01*
X167723242Y-144331280D01*
X167838147Y-144273827D01*
X168067957Y-144216375D01*
X168182862Y-144158923D01*
X168240314Y-144101470D01*
X168297766Y-143986565D01*
X168297766Y-143871661D01*
X168240314Y-143756756D01*
X168182862Y-143699304D01*
X168067957Y-143641851D01*
X167780695Y-143641851D01*
X167608338Y-143699304D01*
X166861457Y-143641851D02*
X166631647Y-143641851D01*
X166516742Y-143699304D01*
X166401838Y-143814208D01*
X166344385Y-144044018D01*
X166344385Y-144446184D01*
X166401838Y-144675994D01*
X166516742Y-144790899D01*
X166631647Y-144848351D01*
X166861457Y-144848351D01*
X166976362Y-144790899D01*
X167091266Y-144675994D01*
X167148719Y-144446184D01*
X167148719Y-144044018D01*
X167091266Y-143814208D01*
X166976362Y-143699304D01*
X166861457Y-143641851D01*
X165827314Y-144848351D02*
X165827314Y-143641851D01*
X165367695Y-143641851D01*
X165252790Y-143699304D01*
X165195338Y-143756756D01*
X165137885Y-143871661D01*
X165137885Y-144044018D01*
X165195338Y-144158923D01*
X165252790Y-144216375D01*
X165367695Y-144273827D01*
X165827314Y-144273827D01*
X164620814Y-144388732D02*
X163701576Y-144388732D01*
X162495076Y-144848351D02*
X163184504Y-144848351D01*
X162839790Y-144848351D02*
X162839790Y-143641851D01*
X162954695Y-143814208D01*
X163069600Y-143929113D01*
X163184504Y-143986565D01*
X162035457Y-143756756D02*
X161978004Y-143699304D01*
X161863100Y-143641851D01*
X161575838Y-143641851D01*
X161460933Y-143699304D01*
X161403481Y-143756756D01*
X161346028Y-143871661D01*
X161346028Y-143986565D01*
X161403481Y-144158923D01*
X162092909Y-144848351D01*
X161346028Y-144848351D01*
X170480957Y-125821849D02*
X169791528Y-125821849D01*
X170136242Y-127028349D02*
X170136242Y-125821849D01*
X169446814Y-126970897D02*
X169274457Y-127028349D01*
X168987195Y-127028349D01*
X168872290Y-126970897D01*
X168814838Y-126913444D01*
X168757385Y-126798540D01*
X168757385Y-126683635D01*
X168814838Y-126568730D01*
X168872290Y-126511278D01*
X168987195Y-126453825D01*
X169217004Y-126396373D01*
X169331909Y-126338921D01*
X169389362Y-126281468D01*
X169446814Y-126166563D01*
X169446814Y-126051659D01*
X169389362Y-125936754D01*
X169331909Y-125879302D01*
X169217004Y-125821849D01*
X168929742Y-125821849D01*
X168757385Y-125879302D01*
X168297766Y-126970897D02*
X168125409Y-127028349D01*
X167838147Y-127028349D01*
X167723242Y-126970897D01*
X167665790Y-126913444D01*
X167608338Y-126798540D01*
X167608338Y-126683635D01*
X167665790Y-126568730D01*
X167723242Y-126511278D01*
X167838147Y-126453825D01*
X168067957Y-126396373D01*
X168182862Y-126338921D01*
X168240314Y-126281468D01*
X168297766Y-126166563D01*
X168297766Y-126051659D01*
X168240314Y-125936754D01*
X168182862Y-125879302D01*
X168067957Y-125821849D01*
X167780695Y-125821849D01*
X167608338Y-125879302D01*
X166861457Y-125821849D02*
X166631647Y-125821849D01*
X166516742Y-125879302D01*
X166401838Y-125994206D01*
X166344385Y-126224016D01*
X166344385Y-126626182D01*
X166401838Y-126855992D01*
X166516742Y-126970897D01*
X166631647Y-127028349D01*
X166861457Y-127028349D01*
X166976362Y-126970897D01*
X167091266Y-126855992D01*
X167148719Y-126626182D01*
X167148719Y-126224016D01*
X167091266Y-125994206D01*
X166976362Y-125879302D01*
X166861457Y-125821849D01*
X165827314Y-127028349D02*
X165827314Y-125821849D01*
X165367695Y-125821849D01*
X165252790Y-125879302D01*
X165195338Y-125936754D01*
X165137885Y-126051659D01*
X165137885Y-126224016D01*
X165195338Y-126338921D01*
X165252790Y-126396373D01*
X165367695Y-126453825D01*
X165827314Y-126453825D01*
X164620814Y-126568730D02*
X163701576Y-126568730D01*
X162495076Y-127028349D02*
X163184504Y-127028349D01*
X162839790Y-127028349D02*
X162839790Y-125821849D01*
X162954695Y-125994206D01*
X163069600Y-126109111D01*
X163184504Y-126166563D01*
X162035457Y-125936754D02*
X161978004Y-125879302D01*
X161863100Y-125821849D01*
X161575838Y-125821849D01*
X161460933Y-125879302D01*
X161403481Y-125936754D01*
X161346028Y-126051659D01*
X161346028Y-126166563D01*
X161403481Y-126338921D01*
X162092909Y-127028349D01*
X161346028Y-127028349D01*
X170480957Y-108001847D02*
X169791528Y-108001847D01*
X170136242Y-109208347D02*
X170136242Y-108001847D01*
X169446814Y-109150895D02*
X169274457Y-109208347D01*
X168987195Y-109208347D01*
X168872290Y-109150895D01*
X168814838Y-109093442D01*
X168757385Y-108978538D01*
X168757385Y-108863633D01*
X168814838Y-108748728D01*
X168872290Y-108691276D01*
X168987195Y-108633823D01*
X169217004Y-108576371D01*
X169331909Y-108518919D01*
X169389362Y-108461466D01*
X169446814Y-108346561D01*
X169446814Y-108231657D01*
X169389362Y-108116752D01*
X169331909Y-108059300D01*
X169217004Y-108001847D01*
X168929742Y-108001847D01*
X168757385Y-108059300D01*
X168297766Y-109150895D02*
X168125409Y-109208347D01*
X167838147Y-109208347D01*
X167723242Y-109150895D01*
X167665790Y-109093442D01*
X167608338Y-108978538D01*
X167608338Y-108863633D01*
X167665790Y-108748728D01*
X167723242Y-108691276D01*
X167838147Y-108633823D01*
X168067957Y-108576371D01*
X168182862Y-108518919D01*
X168240314Y-108461466D01*
X168297766Y-108346561D01*
X168297766Y-108231657D01*
X168240314Y-108116752D01*
X168182862Y-108059300D01*
X168067957Y-108001847D01*
X167780695Y-108001847D01*
X167608338Y-108059300D01*
X166861457Y-108001847D02*
X166631647Y-108001847D01*
X166516742Y-108059300D01*
X166401838Y-108174204D01*
X166344385Y-108404014D01*
X166344385Y-108806180D01*
X166401838Y-109035990D01*
X166516742Y-109150895D01*
X166631647Y-109208347D01*
X166861457Y-109208347D01*
X166976362Y-109150895D01*
X167091266Y-109035990D01*
X167148719Y-108806180D01*
X167148719Y-108404014D01*
X167091266Y-108174204D01*
X166976362Y-108059300D01*
X166861457Y-108001847D01*
X165827314Y-109208347D02*
X165827314Y-108001847D01*
X165367695Y-108001847D01*
X165252790Y-108059300D01*
X165195338Y-108116752D01*
X165137885Y-108231657D01*
X165137885Y-108404014D01*
X165195338Y-108518919D01*
X165252790Y-108576371D01*
X165367695Y-108633823D01*
X165827314Y-108633823D01*
X164620814Y-108748728D02*
X163701576Y-108748728D01*
X162495076Y-109208347D02*
X163184504Y-109208347D01*
X162839790Y-109208347D02*
X162839790Y-108001847D01*
X162954695Y-108174204D01*
X163069600Y-108289109D01*
X163184504Y-108346561D01*
X162035457Y-108116752D02*
X161978004Y-108059300D01*
X161863100Y-108001847D01*
X161575838Y-108001847D01*
X161460933Y-108059300D01*
X161403481Y-108116752D01*
X161346028Y-108231657D01*
X161346028Y-108346561D01*
X161403481Y-108518919D01*
X162092909Y-109208347D01*
X161346028Y-109208347D01*
X152980955Y-179281855D02*
X152291526Y-179281855D01*
X152636240Y-180488355D02*
X152636240Y-179281855D01*
X151946812Y-180430903D02*
X151774455Y-180488355D01*
X151487193Y-180488355D01*
X151372288Y-180430903D01*
X151314836Y-180373450D01*
X151257383Y-180258546D01*
X151257383Y-180143641D01*
X151314836Y-180028736D01*
X151372288Y-179971284D01*
X151487193Y-179913831D01*
X151717002Y-179856379D01*
X151831907Y-179798927D01*
X151889360Y-179741474D01*
X151946812Y-179626569D01*
X151946812Y-179511665D01*
X151889360Y-179396760D01*
X151831907Y-179339308D01*
X151717002Y-179281855D01*
X151429740Y-179281855D01*
X151257383Y-179339308D01*
X150797764Y-180430903D02*
X150625407Y-180488355D01*
X150338145Y-180488355D01*
X150223240Y-180430903D01*
X150165788Y-180373450D01*
X150108336Y-180258546D01*
X150108336Y-180143641D01*
X150165788Y-180028736D01*
X150223240Y-179971284D01*
X150338145Y-179913831D01*
X150567955Y-179856379D01*
X150682860Y-179798927D01*
X150740312Y-179741474D01*
X150797764Y-179626569D01*
X150797764Y-179511665D01*
X150740312Y-179396760D01*
X150682860Y-179339308D01*
X150567955Y-179281855D01*
X150280693Y-179281855D01*
X150108336Y-179339308D01*
X149361455Y-179281855D02*
X149131645Y-179281855D01*
X149016740Y-179339308D01*
X148901836Y-179454212D01*
X148844383Y-179684022D01*
X148844383Y-180086188D01*
X148901836Y-180315998D01*
X149016740Y-180430903D01*
X149131645Y-180488355D01*
X149361455Y-180488355D01*
X149476360Y-180430903D01*
X149591264Y-180315998D01*
X149648717Y-180086188D01*
X149648717Y-179684022D01*
X149591264Y-179454212D01*
X149476360Y-179339308D01*
X149361455Y-179281855D01*
X148327312Y-180488355D02*
X148327312Y-179281855D01*
X147867693Y-179281855D01*
X147752788Y-179339308D01*
X147695336Y-179396760D01*
X147637883Y-179511665D01*
X147637883Y-179684022D01*
X147695336Y-179798927D01*
X147752788Y-179856379D01*
X147867693Y-179913831D01*
X148327312Y-179913831D01*
X147120812Y-180028736D02*
X146201574Y-180028736D01*
X144995074Y-180488355D02*
X145684502Y-180488355D01*
X145339788Y-180488355D02*
X145339788Y-179281855D01*
X145454693Y-179454212D01*
X145569598Y-179569117D01*
X145684502Y-179626569D01*
X144535455Y-179396760D02*
X144478002Y-179339308D01*
X144363098Y-179281855D01*
X144075836Y-179281855D01*
X143960931Y-179339308D01*
X143903479Y-179396760D01*
X143846026Y-179511665D01*
X143846026Y-179626569D01*
X143903479Y-179798927D01*
X144592907Y-180488355D01*
X143846026Y-180488355D01*
X152980955Y-161461853D02*
X152291526Y-161461853D01*
X152636240Y-162668353D02*
X152636240Y-161461853D01*
X151946812Y-162610901D02*
X151774455Y-162668353D01*
X151487193Y-162668353D01*
X151372288Y-162610901D01*
X151314836Y-162553448D01*
X151257383Y-162438544D01*
X151257383Y-162323639D01*
X151314836Y-162208734D01*
X151372288Y-162151282D01*
X151487193Y-162093829D01*
X151717002Y-162036377D01*
X151831907Y-161978925D01*
X151889360Y-161921472D01*
X151946812Y-161806567D01*
X151946812Y-161691663D01*
X151889360Y-161576758D01*
X151831907Y-161519306D01*
X151717002Y-161461853D01*
X151429740Y-161461853D01*
X151257383Y-161519306D01*
X150797764Y-162610901D02*
X150625407Y-162668353D01*
X150338145Y-162668353D01*
X150223240Y-162610901D01*
X150165788Y-162553448D01*
X150108336Y-162438544D01*
X150108336Y-162323639D01*
X150165788Y-162208734D01*
X150223240Y-162151282D01*
X150338145Y-162093829D01*
X150567955Y-162036377D01*
X150682860Y-161978925D01*
X150740312Y-161921472D01*
X150797764Y-161806567D01*
X150797764Y-161691663D01*
X150740312Y-161576758D01*
X150682860Y-161519306D01*
X150567955Y-161461853D01*
X150280693Y-161461853D01*
X150108336Y-161519306D01*
X149361455Y-161461853D02*
X149131645Y-161461853D01*
X149016740Y-161519306D01*
X148901836Y-161634210D01*
X148844383Y-161864020D01*
X148844383Y-162266186D01*
X148901836Y-162495996D01*
X149016740Y-162610901D01*
X149131645Y-162668353D01*
X149361455Y-162668353D01*
X149476360Y-162610901D01*
X149591264Y-162495996D01*
X149648717Y-162266186D01*
X149648717Y-161864020D01*
X149591264Y-161634210D01*
X149476360Y-161519306D01*
X149361455Y-161461853D01*
X148327312Y-162668353D02*
X148327312Y-161461853D01*
X147867693Y-161461853D01*
X147752788Y-161519306D01*
X147695336Y-161576758D01*
X147637883Y-161691663D01*
X147637883Y-161864020D01*
X147695336Y-161978925D01*
X147752788Y-162036377D01*
X147867693Y-162093829D01*
X148327312Y-162093829D01*
X147120812Y-162208734D02*
X146201574Y-162208734D01*
X144995074Y-162668353D02*
X145684502Y-162668353D01*
X145339788Y-162668353D02*
X145339788Y-161461853D01*
X145454693Y-161634210D01*
X145569598Y-161749115D01*
X145684502Y-161806567D01*
X144535455Y-161576758D02*
X144478002Y-161519306D01*
X144363098Y-161461853D01*
X144075836Y-161461853D01*
X143960931Y-161519306D01*
X143903479Y-161576758D01*
X143846026Y-161691663D01*
X143846026Y-161806567D01*
X143903479Y-161978925D01*
X144592907Y-162668353D01*
X143846026Y-162668353D01*
X152980955Y-143641851D02*
X152291526Y-143641851D01*
X152636240Y-144848351D02*
X152636240Y-143641851D01*
X151946812Y-144790899D02*
X151774455Y-144848351D01*
X151487193Y-144848351D01*
X151372288Y-144790899D01*
X151314836Y-144733446D01*
X151257383Y-144618542D01*
X151257383Y-144503637D01*
X151314836Y-144388732D01*
X151372288Y-144331280D01*
X151487193Y-144273827D01*
X151717002Y-144216375D01*
X151831907Y-144158923D01*
X151889360Y-144101470D01*
X151946812Y-143986565D01*
X151946812Y-143871661D01*
X151889360Y-143756756D01*
X151831907Y-143699304D01*
X151717002Y-143641851D01*
X151429740Y-143641851D01*
X151257383Y-143699304D01*
X150797764Y-144790899D02*
X150625407Y-144848351D01*
X150338145Y-144848351D01*
X150223240Y-144790899D01*
X150165788Y-144733446D01*
X150108336Y-144618542D01*
X150108336Y-144503637D01*
X150165788Y-144388732D01*
X150223240Y-144331280D01*
X150338145Y-144273827D01*
X150567955Y-144216375D01*
X150682860Y-144158923D01*
X150740312Y-144101470D01*
X150797764Y-143986565D01*
X150797764Y-143871661D01*
X150740312Y-143756756D01*
X150682860Y-143699304D01*
X150567955Y-143641851D01*
X150280693Y-143641851D01*
X150108336Y-143699304D01*
X149361455Y-143641851D02*
X149131645Y-143641851D01*
X149016740Y-143699304D01*
X148901836Y-143814208D01*
X148844383Y-144044018D01*
X148844383Y-144446184D01*
X148901836Y-144675994D01*
X149016740Y-144790899D01*
X149131645Y-144848351D01*
X149361455Y-144848351D01*
X149476360Y-144790899D01*
X149591264Y-144675994D01*
X149648717Y-144446184D01*
X149648717Y-144044018D01*
X149591264Y-143814208D01*
X149476360Y-143699304D01*
X149361455Y-143641851D01*
X148327312Y-144848351D02*
X148327312Y-143641851D01*
X147867693Y-143641851D01*
X147752788Y-143699304D01*
X147695336Y-143756756D01*
X147637883Y-143871661D01*
X147637883Y-144044018D01*
X147695336Y-144158923D01*
X147752788Y-144216375D01*
X147867693Y-144273827D01*
X148327312Y-144273827D01*
X147120812Y-144388732D02*
X146201574Y-144388732D01*
X144995074Y-144848351D02*
X145684502Y-144848351D01*
X145339788Y-144848351D02*
X145339788Y-143641851D01*
X145454693Y-143814208D01*
X145569598Y-143929113D01*
X145684502Y-143986565D01*
X144535455Y-143756756D02*
X144478002Y-143699304D01*
X144363098Y-143641851D01*
X144075836Y-143641851D01*
X143960931Y-143699304D01*
X143903479Y-143756756D01*
X143846026Y-143871661D01*
X143846026Y-143986565D01*
X143903479Y-144158923D01*
X144592907Y-144848351D01*
X143846026Y-144848351D01*
X152980955Y-125821849D02*
X152291526Y-125821849D01*
X152636240Y-127028349D02*
X152636240Y-125821849D01*
X151946812Y-126970897D02*
X151774455Y-127028349D01*
X151487193Y-127028349D01*
X151372288Y-126970897D01*
X151314836Y-126913444D01*
X151257383Y-126798540D01*
X151257383Y-126683635D01*
X151314836Y-126568730D01*
X151372288Y-126511278D01*
X151487193Y-126453825D01*
X151717002Y-126396373D01*
X151831907Y-126338921D01*
X151889360Y-126281468D01*
X151946812Y-126166563D01*
X151946812Y-126051659D01*
X151889360Y-125936754D01*
X151831907Y-125879302D01*
X151717002Y-125821849D01*
X151429740Y-125821849D01*
X151257383Y-125879302D01*
X150797764Y-126970897D02*
X150625407Y-127028349D01*
X150338145Y-127028349D01*
X150223240Y-126970897D01*
X150165788Y-126913444D01*
X150108336Y-126798540D01*
X150108336Y-126683635D01*
X150165788Y-126568730D01*
X150223240Y-126511278D01*
X150338145Y-126453825D01*
X150567955Y-126396373D01*
X150682860Y-126338921D01*
X150740312Y-126281468D01*
X150797764Y-126166563D01*
X150797764Y-126051659D01*
X150740312Y-125936754D01*
X150682860Y-125879302D01*
X150567955Y-125821849D01*
X150280693Y-125821849D01*
X150108336Y-125879302D01*
X149361455Y-125821849D02*
X149131645Y-125821849D01*
X149016740Y-125879302D01*
X148901836Y-125994206D01*
X148844383Y-126224016D01*
X148844383Y-126626182D01*
X148901836Y-126855992D01*
X149016740Y-126970897D01*
X149131645Y-127028349D01*
X149361455Y-127028349D01*
X149476360Y-126970897D01*
X149591264Y-126855992D01*
X149648717Y-126626182D01*
X149648717Y-126224016D01*
X149591264Y-125994206D01*
X149476360Y-125879302D01*
X149361455Y-125821849D01*
X148327312Y-127028349D02*
X148327312Y-125821849D01*
X147867693Y-125821849D01*
X147752788Y-125879302D01*
X147695336Y-125936754D01*
X147637883Y-126051659D01*
X147637883Y-126224016D01*
X147695336Y-126338921D01*
X147752788Y-126396373D01*
X147867693Y-126453825D01*
X148327312Y-126453825D01*
X147120812Y-126568730D02*
X146201574Y-126568730D01*
X144995074Y-127028349D02*
X145684502Y-127028349D01*
X145339788Y-127028349D02*
X145339788Y-125821849D01*
X145454693Y-125994206D01*
X145569598Y-126109111D01*
X145684502Y-126166563D01*
X144535455Y-125936754D02*
X144478002Y-125879302D01*
X144363098Y-125821849D01*
X144075836Y-125821849D01*
X143960931Y-125879302D01*
X143903479Y-125936754D01*
X143846026Y-126051659D01*
X143846026Y-126166563D01*
X143903479Y-126338921D01*
X144592907Y-127028349D01*
X143846026Y-127028349D01*
X152980955Y-108001847D02*
X152291526Y-108001847D01*
X152636240Y-109208347D02*
X152636240Y-108001847D01*
X151946812Y-109150895D02*
X151774455Y-109208347D01*
X151487193Y-109208347D01*
X151372288Y-109150895D01*
X151314836Y-109093442D01*
X151257383Y-108978538D01*
X151257383Y-108863633D01*
X151314836Y-108748728D01*
X151372288Y-108691276D01*
X151487193Y-108633823D01*
X151717002Y-108576371D01*
X151831907Y-108518919D01*
X151889360Y-108461466D01*
X151946812Y-108346561D01*
X151946812Y-108231657D01*
X151889360Y-108116752D01*
X151831907Y-108059300D01*
X151717002Y-108001847D01*
X151429740Y-108001847D01*
X151257383Y-108059300D01*
X150797764Y-109150895D02*
X150625407Y-109208347D01*
X150338145Y-109208347D01*
X150223240Y-109150895D01*
X150165788Y-109093442D01*
X150108336Y-108978538D01*
X150108336Y-108863633D01*
X150165788Y-108748728D01*
X150223240Y-108691276D01*
X150338145Y-108633823D01*
X150567955Y-108576371D01*
X150682860Y-108518919D01*
X150740312Y-108461466D01*
X150797764Y-108346561D01*
X150797764Y-108231657D01*
X150740312Y-108116752D01*
X150682860Y-108059300D01*
X150567955Y-108001847D01*
X150280693Y-108001847D01*
X150108336Y-108059300D01*
X149361455Y-108001847D02*
X149131645Y-108001847D01*
X149016740Y-108059300D01*
X148901836Y-108174204D01*
X148844383Y-108404014D01*
X148844383Y-108806180D01*
X148901836Y-109035990D01*
X149016740Y-109150895D01*
X149131645Y-109208347D01*
X149361455Y-109208347D01*
X149476360Y-109150895D01*
X149591264Y-109035990D01*
X149648717Y-108806180D01*
X149648717Y-108404014D01*
X149591264Y-108174204D01*
X149476360Y-108059300D01*
X149361455Y-108001847D01*
X148327312Y-109208347D02*
X148327312Y-108001847D01*
X147867693Y-108001847D01*
X147752788Y-108059300D01*
X147695336Y-108116752D01*
X147637883Y-108231657D01*
X147637883Y-108404014D01*
X147695336Y-108518919D01*
X147752788Y-108576371D01*
X147867693Y-108633823D01*
X148327312Y-108633823D01*
X147120812Y-108748728D02*
X146201574Y-108748728D01*
X144995074Y-109208347D02*
X145684502Y-109208347D01*
X145339788Y-109208347D02*
X145339788Y-108001847D01*
X145454693Y-108174204D01*
X145569598Y-108289109D01*
X145684502Y-108346561D01*
X144535455Y-108116752D02*
X144478002Y-108059300D01*
X144363098Y-108001847D01*
X144075836Y-108001847D01*
X143960931Y-108059300D01*
X143903479Y-108116752D01*
X143846026Y-108231657D01*
X143846026Y-108346561D01*
X143903479Y-108518919D01*
X144592907Y-109208347D01*
X143846026Y-109208347D01*
X152633821Y-99099147D02*
X153323250Y-99099147D01*
X152978536Y-99099147D02*
X152978536Y-97892647D01*
X153093440Y-98065004D01*
X153208345Y-98179909D01*
X153323250Y-98237361D01*
X153323250Y-100547552D02*
X153265798Y-100490100D01*
X153150893Y-100432647D01*
X152863631Y-100432647D01*
X152748726Y-100490100D01*
X152691274Y-100547552D01*
X152633821Y-100662457D01*
X152633821Y-100777361D01*
X152691274Y-100949719D01*
X153380702Y-101639147D01*
X152633821Y-101639147D01*
X152748726Y-110846647D02*
X152978536Y-110846647D01*
X153093440Y-110904100D01*
X153150893Y-110961552D01*
X153265798Y-111133909D01*
X153323250Y-111363719D01*
X153323250Y-111823338D01*
X153265798Y-111938242D01*
X153208345Y-111995695D01*
X153093440Y-112053147D01*
X152863631Y-112053147D01*
X152748726Y-111995695D01*
X152691274Y-111938242D01*
X152633821Y-111823338D01*
X152633821Y-111536076D01*
X152691274Y-111421171D01*
X152748726Y-111363719D01*
X152863631Y-111306266D01*
X153093440Y-111306266D01*
X153208345Y-111363719D01*
X153265798Y-111421171D01*
X153323250Y-111536076D01*
X144236702Y-110846647D02*
X143432369Y-110846647D01*
X143949440Y-112053147D01*
X144505821Y-101766147D02*
X145195250Y-101766147D01*
X144850536Y-101766147D02*
X144850536Y-100559647D01*
X144965440Y-100732004D01*
X145080345Y-100846909D01*
X145195250Y-100904361D01*
X143356774Y-101766147D02*
X144046202Y-101766147D01*
X143701488Y-101766147D02*
X143701488Y-100559647D01*
X143816393Y-100732004D01*
X143931298Y-100846909D01*
X144046202Y-100904361D01*
X144505821Y-99226147D02*
X145195250Y-99226147D01*
X144850536Y-99226147D02*
X144850536Y-98019647D01*
X144965440Y-98192004D01*
X145080345Y-98306909D01*
X145195250Y-98364361D01*
X144046202Y-98134552D02*
X143988750Y-98077100D01*
X143873845Y-98019647D01*
X143586583Y-98019647D01*
X143471679Y-98077100D01*
X143414226Y-98134552D01*
X143356774Y-98249457D01*
X143356774Y-98364361D01*
X143414226Y-98536719D01*
X144103655Y-99226147D01*
X143356774Y-99226147D01*
D11*
X216383308Y-178031208D02*
X220948908Y-178031208D01*
X220948908Y-173764008D02*
X216383308Y-173764008D01*
X220342508Y-174653008D02*
G75*
G03X220342508Y-174653008I-457200J0D01*
G01*
X216383308Y-160211206D02*
X220948908Y-160211206D01*
X220948908Y-155944006D02*
X216383308Y-155944006D01*
X220342508Y-156833006D02*
G75*
G03X220342508Y-156833006I-457200J0D01*
G01*
X216383308Y-142391204D02*
X220948908Y-142391204D01*
X220948908Y-138124004D02*
X216383308Y-138124004D01*
X220342508Y-139013004D02*
G75*
G03X220342508Y-139013004I-457200J0D01*
G01*
X216383308Y-124571202D02*
X220948908Y-124571202D01*
X220948908Y-120304002D02*
X216383308Y-120304002D01*
X220342508Y-121193002D02*
G75*
G03X220342508Y-121193002I-457200J0D01*
G01*
X216383308Y-106751200D02*
X220948908Y-106751200D01*
X220948908Y-102484000D02*
X216383308Y-102484000D01*
X220342508Y-103373000D02*
G75*
G03X220342508Y-103373000I-457200J0D01*
G01*
X198883306Y-178031208D02*
X203448906Y-178031208D01*
X203448906Y-173764008D02*
X198883306Y-173764008D01*
X202842506Y-174653008D02*
G75*
G03X202842506Y-174653008I-457200J0D01*
G01*
X198883306Y-160211206D02*
X203448906Y-160211206D01*
X203448906Y-155944006D02*
X198883306Y-155944006D01*
X202842506Y-156833006D02*
G75*
G03X202842506Y-156833006I-457200J0D01*
G01*
X198883306Y-142391204D02*
X203448906Y-142391204D01*
X203448906Y-138124004D02*
X198883306Y-138124004D01*
X202842506Y-139013004D02*
G75*
G03X202842506Y-139013004I-457200J0D01*
G01*
X198883306Y-124571202D02*
X203448906Y-124571202D01*
X203448906Y-120304002D02*
X198883306Y-120304002D01*
X202842506Y-121193002D02*
G75*
G03X202842506Y-121193002I-457200J0D01*
G01*
X198883306Y-106751200D02*
X203448906Y-106751200D01*
X203448906Y-102484000D02*
X198883306Y-102484000D01*
X202842506Y-103373000D02*
G75*
G03X202842506Y-103373000I-457200J0D01*
G01*
X181383304Y-178031208D02*
X185948904Y-178031208D01*
X185948904Y-173764008D02*
X181383304Y-173764008D01*
X185342504Y-174653008D02*
G75*
G03X185342504Y-174653008I-457200J0D01*
G01*
X181383304Y-160211206D02*
X185948904Y-160211206D01*
X185948904Y-155944006D02*
X181383304Y-155944006D01*
X185342504Y-156833006D02*
G75*
G03X185342504Y-156833006I-457200J0D01*
G01*
X181383304Y-142391204D02*
X185948904Y-142391204D01*
X185948904Y-138124004D02*
X181383304Y-138124004D01*
X185342504Y-139013004D02*
G75*
G03X185342504Y-139013004I-457200J0D01*
G01*
X181383304Y-124571202D02*
X185948904Y-124571202D01*
X185948904Y-120304002D02*
X181383304Y-120304002D01*
X185342504Y-121193002D02*
G75*
G03X185342504Y-121193002I-457200J0D01*
G01*
X181383304Y-106751200D02*
X185948904Y-106751200D01*
X185948904Y-102484000D02*
X181383304Y-102484000D01*
X185342504Y-103373000D02*
G75*
G03X185342504Y-103373000I-457200J0D01*
G01*
X163883302Y-178031208D02*
X168448902Y-178031208D01*
X168448902Y-173764008D02*
X163883302Y-173764008D01*
X167842502Y-174653008D02*
G75*
G03X167842502Y-174653008I-457200J0D01*
G01*
X163883302Y-160211206D02*
X168448902Y-160211206D01*
X168448902Y-155944006D02*
X163883302Y-155944006D01*
X167842502Y-156833006D02*
G75*
G03X167842502Y-156833006I-457200J0D01*
G01*
X163883302Y-142391204D02*
X168448902Y-142391204D01*
X168448902Y-138124004D02*
X163883302Y-138124004D01*
X167842502Y-139013004D02*
G75*
G03X167842502Y-139013004I-457200J0D01*
G01*
X163883302Y-124571202D02*
X168448902Y-124571202D01*
X168448902Y-120304002D02*
X163883302Y-120304002D01*
X167842502Y-121193002D02*
G75*
G03X167842502Y-121193002I-457200J0D01*
G01*
X163883302Y-106751200D02*
X168448902Y-106751200D01*
X168448902Y-102484000D02*
X163883302Y-102484000D01*
X167842502Y-103373000D02*
G75*
G03X167842502Y-103373000I-457200J0D01*
G01*
X146383300Y-178031208D02*
X150948900Y-178031208D01*
X150948900Y-173764008D02*
X146383300Y-173764008D01*
X150342500Y-174653008D02*
G75*
G03X150342500Y-174653008I-457200J0D01*
G01*
X146383300Y-160211206D02*
X150948900Y-160211206D01*
X150948900Y-155944006D02*
X146383300Y-155944006D01*
X150342500Y-156833006D02*
G75*
G03X150342500Y-156833006I-457200J0D01*
G01*
X146383300Y-142391204D02*
X150948900Y-142391204D01*
X150948900Y-138124004D02*
X146383300Y-138124004D01*
X150342500Y-139013004D02*
G75*
G03X150342500Y-139013004I-457200J0D01*
G01*
X146383300Y-124571202D02*
X150948900Y-124571202D01*
X150948900Y-120304002D02*
X146383300Y-120304002D01*
X150342500Y-121193002D02*
G75*
G03X150342500Y-121193002I-457200J0D01*
G01*
D12*
G36*
X218220608Y-170881408D02*
G01*
X218068808Y-170803208D01*
X217691808Y-171110608D01*
X217433308Y-170852108D01*
X217740708Y-170475108D01*
X217610408Y-170160608D01*
X217126508Y-170111408D01*
X217126508Y-169745808D01*
X217610408Y-169696608D01*
X217740708Y-169382108D01*
X217433308Y-169005108D01*
X217691808Y-168746608D01*
X218068808Y-169054008D01*
X218220644Y-168975791D01*
X218383308Y-168923708D01*
X218432508Y-168439808D01*
X218798108Y-168439808D01*
X218847308Y-168923708D01*
X219161808Y-169054008D01*
X219538808Y-168746608D01*
X219797308Y-169005108D01*
X219489908Y-169382108D01*
X219620208Y-169696608D01*
X220104108Y-169745808D01*
X220104108Y-170111408D01*
X219620208Y-170160608D01*
X219489908Y-170475108D01*
X219797308Y-170852108D01*
X219538808Y-171110608D01*
X219161808Y-170803208D01*
X219087529Y-170845455D01*
X219010008Y-170881408D01*
X218794708Y-170361708D01*
X218794707Y-170361708D01*
X218946808Y-170260101D01*
X219084108Y-169928608D01*
X219061947Y-169786287D01*
X218997617Y-169657415D01*
X218897193Y-169554161D01*
X218770157Y-169486275D01*
X218628507Y-169460169D01*
X218485617Y-169478306D01*
X218354982Y-169538975D01*
X218248936Y-169636447D01*
X218177494Y-169761517D01*
X218147402Y-169902374D01*
X218161502Y-170045719D01*
X218218462Y-170178014D01*
X218312903Y-170286767D01*
X218435908Y-170361708D01*
X218220608Y-170881408D01*
G37*
G36*
X218220608Y-153061406D02*
G01*
X218068808Y-152983206D01*
X217691808Y-153290606D01*
X217433308Y-153032106D01*
X217740708Y-152655106D01*
X217610408Y-152340606D01*
X217126508Y-152291406D01*
X217126508Y-151925806D01*
X217610408Y-151876606D01*
X217740708Y-151562106D01*
X217433308Y-151185106D01*
X217691808Y-150926606D01*
X218068808Y-151234006D01*
X218220644Y-151155789D01*
X218383308Y-151103706D01*
X218432508Y-150619806D01*
X218798108Y-150619806D01*
X218847308Y-151103706D01*
X219161808Y-151234006D01*
X219538808Y-150926606D01*
X219797308Y-151185106D01*
X219489908Y-151562106D01*
X219620208Y-151876606D01*
X220104108Y-151925806D01*
X220104108Y-152291406D01*
X219620208Y-152340606D01*
X219489908Y-152655106D01*
X219797308Y-153032106D01*
X219538808Y-153290606D01*
X219161808Y-152983206D01*
X219087529Y-153025453D01*
X219010008Y-153061406D01*
X218794708Y-152541706D01*
X218794707Y-152541706D01*
X218946808Y-152440099D01*
X219084108Y-152108606D01*
X219061947Y-151966285D01*
X218997617Y-151837413D01*
X218897193Y-151734159D01*
X218770157Y-151666273D01*
X218628507Y-151640167D01*
X218485617Y-151658304D01*
X218354982Y-151718973D01*
X218248936Y-151816445D01*
X218177494Y-151941515D01*
X218147402Y-152082372D01*
X218161502Y-152225717D01*
X218218462Y-152358012D01*
X218312903Y-152466765D01*
X218435908Y-152541706D01*
X218220608Y-153061406D01*
G37*
G36*
X218220608Y-135241404D02*
G01*
X218068808Y-135163204D01*
X217691808Y-135470604D01*
X217433308Y-135212104D01*
X217740708Y-134835104D01*
X217610408Y-134520604D01*
X217126508Y-134471404D01*
X217126508Y-134105804D01*
X217610408Y-134056604D01*
X217740708Y-133742104D01*
X217433308Y-133365104D01*
X217691808Y-133106604D01*
X218068808Y-133414004D01*
X218220644Y-133335787D01*
X218383308Y-133283704D01*
X218432508Y-132799804D01*
X218798108Y-132799804D01*
X218847308Y-133283704D01*
X219161808Y-133414004D01*
X219538808Y-133106604D01*
X219797308Y-133365104D01*
X219489908Y-133742104D01*
X219620208Y-134056604D01*
X220104108Y-134105804D01*
X220104108Y-134471404D01*
X219620208Y-134520604D01*
X219489908Y-134835104D01*
X219797308Y-135212104D01*
X219538808Y-135470604D01*
X219161808Y-135163204D01*
X219087529Y-135205451D01*
X219010008Y-135241404D01*
X218794708Y-134721704D01*
X218794707Y-134721704D01*
X218946808Y-134620097D01*
X219084108Y-134288604D01*
X219061947Y-134146283D01*
X218997617Y-134017411D01*
X218897193Y-133914157D01*
X218770157Y-133846271D01*
X218628507Y-133820165D01*
X218485617Y-133838302D01*
X218354982Y-133898971D01*
X218248936Y-133996443D01*
X218177494Y-134121513D01*
X218147402Y-134262370D01*
X218161502Y-134405715D01*
X218218462Y-134538010D01*
X218312903Y-134646763D01*
X218435908Y-134721704D01*
X218220608Y-135241404D01*
G37*
G36*
X218220608Y-117421402D02*
G01*
X218068808Y-117343202D01*
X217691808Y-117650602D01*
X217433308Y-117392102D01*
X217740708Y-117015102D01*
X217610408Y-116700602D01*
X217126508Y-116651402D01*
X217126508Y-116285802D01*
X217610408Y-116236602D01*
X217740708Y-115922102D01*
X217433308Y-115545102D01*
X217691808Y-115286602D01*
X218068808Y-115594002D01*
X218220644Y-115515785D01*
X218383308Y-115463702D01*
X218432508Y-114979802D01*
X218798108Y-114979802D01*
X218847308Y-115463702D01*
X219161808Y-115594002D01*
X219538808Y-115286602D01*
X219797308Y-115545102D01*
X219489908Y-115922102D01*
X219620208Y-116236602D01*
X220104108Y-116285802D01*
X220104108Y-116651402D01*
X219620208Y-116700602D01*
X219489908Y-117015102D01*
X219797308Y-117392102D01*
X219538808Y-117650602D01*
X219161808Y-117343202D01*
X219087529Y-117385449D01*
X219010008Y-117421402D01*
X218794708Y-116901702D01*
X218794707Y-116901702D01*
X218946808Y-116800095D01*
X219084108Y-116468602D01*
X219061947Y-116326281D01*
X218997617Y-116197409D01*
X218897193Y-116094155D01*
X218770157Y-116026269D01*
X218628507Y-116000163D01*
X218485617Y-116018300D01*
X218354982Y-116078969D01*
X218248936Y-116176441D01*
X218177494Y-116301511D01*
X218147402Y-116442368D01*
X218161502Y-116585713D01*
X218218462Y-116718008D01*
X218312903Y-116826761D01*
X218435908Y-116901702D01*
X218220608Y-117421402D01*
G37*
G36*
X218220608Y-99601400D02*
G01*
X218068808Y-99523200D01*
X217691808Y-99830600D01*
X217433308Y-99572100D01*
X217740708Y-99195100D01*
X217610408Y-98880600D01*
X217126508Y-98831400D01*
X217126508Y-98465800D01*
X217610408Y-98416600D01*
X217740708Y-98102100D01*
X217433308Y-97725100D01*
X217691808Y-97466600D01*
X218068808Y-97774000D01*
X218220644Y-97695783D01*
X218383308Y-97643700D01*
X218432508Y-97159800D01*
X218798108Y-97159800D01*
X218847308Y-97643700D01*
X219161808Y-97774000D01*
X219538808Y-97466600D01*
X219797308Y-97725100D01*
X219489908Y-98102100D01*
X219620208Y-98416600D01*
X220104108Y-98465800D01*
X220104108Y-98831400D01*
X219620208Y-98880600D01*
X219489908Y-99195100D01*
X219797308Y-99572100D01*
X219538808Y-99830600D01*
X219161808Y-99523200D01*
X219087529Y-99565447D01*
X219010008Y-99601400D01*
X218794708Y-99081700D01*
X218794707Y-99081700D01*
X218946808Y-98980093D01*
X219084108Y-98648600D01*
X219061947Y-98506279D01*
X218997617Y-98377407D01*
X218897193Y-98274153D01*
X218770157Y-98206267D01*
X218628507Y-98180161D01*
X218485617Y-98198298D01*
X218354982Y-98258967D01*
X218248936Y-98356439D01*
X218177494Y-98481509D01*
X218147402Y-98622366D01*
X218161502Y-98765711D01*
X218218462Y-98898006D01*
X218312903Y-99006759D01*
X218435908Y-99081700D01*
X218220608Y-99601400D01*
G37*
G36*
X200720606Y-170881408D02*
G01*
X200568806Y-170803208D01*
X200191806Y-171110608D01*
X199933306Y-170852108D01*
X200240706Y-170475108D01*
X200110406Y-170160608D01*
X199626506Y-170111408D01*
X199626506Y-169745808D01*
X200110406Y-169696608D01*
X200240706Y-169382108D01*
X199933306Y-169005108D01*
X200191806Y-168746608D01*
X200568806Y-169054008D01*
X200720642Y-168975791D01*
X200883306Y-168923708D01*
X200932506Y-168439808D01*
X201298106Y-168439808D01*
X201347306Y-168923708D01*
X201661806Y-169054008D01*
X202038806Y-168746608D01*
X202297306Y-169005108D01*
X201989906Y-169382108D01*
X202120206Y-169696608D01*
X202604106Y-169745808D01*
X202604106Y-170111408D01*
X202120206Y-170160608D01*
X201989906Y-170475108D01*
X202297306Y-170852108D01*
X202038806Y-171110608D01*
X201661806Y-170803208D01*
X201587527Y-170845455D01*
X201510006Y-170881408D01*
X201294706Y-170361708D01*
X201294705Y-170361708D01*
X201446806Y-170260101D01*
X201584106Y-169928608D01*
X201561945Y-169786287D01*
X201497615Y-169657415D01*
X201397191Y-169554161D01*
X201270155Y-169486275D01*
X201128505Y-169460169D01*
X200985615Y-169478306D01*
X200854980Y-169538975D01*
X200748934Y-169636447D01*
X200677492Y-169761517D01*
X200647400Y-169902374D01*
X200661500Y-170045719D01*
X200718460Y-170178014D01*
X200812901Y-170286767D01*
X200935906Y-170361708D01*
X200720606Y-170881408D01*
G37*
G36*
X200720606Y-153061406D02*
G01*
X200568806Y-152983206D01*
X200191806Y-153290606D01*
X199933306Y-153032106D01*
X200240706Y-152655106D01*
X200110406Y-152340606D01*
X199626506Y-152291406D01*
X199626506Y-151925806D01*
X200110406Y-151876606D01*
X200240706Y-151562106D01*
X199933306Y-151185106D01*
X200191806Y-150926606D01*
X200568806Y-151234006D01*
X200720642Y-151155789D01*
X200883306Y-151103706D01*
X200932506Y-150619806D01*
X201298106Y-150619806D01*
X201347306Y-151103706D01*
X201661806Y-151234006D01*
X202038806Y-150926606D01*
X202297306Y-151185106D01*
X201989906Y-151562106D01*
X202120206Y-151876606D01*
X202604106Y-151925806D01*
X202604106Y-152291406D01*
X202120206Y-152340606D01*
X201989906Y-152655106D01*
X202297306Y-153032106D01*
X202038806Y-153290606D01*
X201661806Y-152983206D01*
X201587527Y-153025453D01*
X201510006Y-153061406D01*
X201294706Y-152541706D01*
X201294705Y-152541706D01*
X201446806Y-152440099D01*
X201584106Y-152108606D01*
X201561945Y-151966285D01*
X201497615Y-151837413D01*
X201397191Y-151734159D01*
X201270155Y-151666273D01*
X201128505Y-151640167D01*
X200985615Y-151658304D01*
X200854980Y-151718973D01*
X200748934Y-151816445D01*
X200677492Y-151941515D01*
X200647400Y-152082372D01*
X200661500Y-152225717D01*
X200718460Y-152358012D01*
X200812901Y-152466765D01*
X200935906Y-152541706D01*
X200720606Y-153061406D01*
G37*
G36*
X200720606Y-135241404D02*
G01*
X200568806Y-135163204D01*
X200191806Y-135470604D01*
X199933306Y-135212104D01*
X200240706Y-134835104D01*
X200110406Y-134520604D01*
X199626506Y-134471404D01*
X199626506Y-134105804D01*
X200110406Y-134056604D01*
X200240706Y-133742104D01*
X199933306Y-133365104D01*
X200191806Y-133106604D01*
X200568806Y-133414004D01*
X200720642Y-133335787D01*
X200883306Y-133283704D01*
X200932506Y-132799804D01*
X201298106Y-132799804D01*
X201347306Y-133283704D01*
X201661806Y-133414004D01*
X202038806Y-133106604D01*
X202297306Y-133365104D01*
X201989906Y-133742104D01*
X202120206Y-134056604D01*
X202604106Y-134105804D01*
X202604106Y-134471404D01*
X202120206Y-134520604D01*
X201989906Y-134835104D01*
X202297306Y-135212104D01*
X202038806Y-135470604D01*
X201661806Y-135163204D01*
X201587527Y-135205451D01*
X201510006Y-135241404D01*
X201294706Y-134721704D01*
X201294705Y-134721704D01*
X201446806Y-134620097D01*
X201584106Y-134288604D01*
X201561945Y-134146283D01*
X201497615Y-134017411D01*
X201397191Y-133914157D01*
X201270155Y-133846271D01*
X201128505Y-133820165D01*
X200985615Y-133838302D01*
X200854980Y-133898971D01*
X200748934Y-133996443D01*
X200677492Y-134121513D01*
X200647400Y-134262370D01*
X200661500Y-134405715D01*
X200718460Y-134538010D01*
X200812901Y-134646763D01*
X200935906Y-134721704D01*
X200720606Y-135241404D01*
G37*
G36*
X200720606Y-117421402D02*
G01*
X200568806Y-117343202D01*
X200191806Y-117650602D01*
X199933306Y-117392102D01*
X200240706Y-117015102D01*
X200110406Y-116700602D01*
X199626506Y-116651402D01*
X199626506Y-116285802D01*
X200110406Y-116236602D01*
X200240706Y-115922102D01*
X199933306Y-115545102D01*
X200191806Y-115286602D01*
X200568806Y-115594002D01*
X200720642Y-115515785D01*
X200883306Y-115463702D01*
X200932506Y-114979802D01*
X201298106Y-114979802D01*
X201347306Y-115463702D01*
X201661806Y-115594002D01*
X202038806Y-115286602D01*
X202297306Y-115545102D01*
X201989906Y-115922102D01*
X202120206Y-116236602D01*
X202604106Y-116285802D01*
X202604106Y-116651402D01*
X202120206Y-116700602D01*
X201989906Y-117015102D01*
X202297306Y-117392102D01*
X202038806Y-117650602D01*
X201661806Y-117343202D01*
X201587527Y-117385449D01*
X201510006Y-117421402D01*
X201294706Y-116901702D01*
X201294705Y-116901702D01*
X201446806Y-116800095D01*
X201584106Y-116468602D01*
X201561945Y-116326281D01*
X201497615Y-116197409D01*
X201397191Y-116094155D01*
X201270155Y-116026269D01*
X201128505Y-116000163D01*
X200985615Y-116018300D01*
X200854980Y-116078969D01*
X200748934Y-116176441D01*
X200677492Y-116301511D01*
X200647400Y-116442368D01*
X200661500Y-116585713D01*
X200718460Y-116718008D01*
X200812901Y-116826761D01*
X200935906Y-116901702D01*
X200720606Y-117421402D01*
G37*
G36*
X200720606Y-99601400D02*
G01*
X200568806Y-99523200D01*
X200191806Y-99830600D01*
X199933306Y-99572100D01*
X200240706Y-99195100D01*
X200110406Y-98880600D01*
X199626506Y-98831400D01*
X199626506Y-98465800D01*
X200110406Y-98416600D01*
X200240706Y-98102100D01*
X199933306Y-97725100D01*
X200191806Y-97466600D01*
X200568806Y-97774000D01*
X200720642Y-97695783D01*
X200883306Y-97643700D01*
X200932506Y-97159800D01*
X201298106Y-97159800D01*
X201347306Y-97643700D01*
X201661806Y-97774000D01*
X202038806Y-97466600D01*
X202297306Y-97725100D01*
X201989906Y-98102100D01*
X202120206Y-98416600D01*
X202604106Y-98465800D01*
X202604106Y-98831400D01*
X202120206Y-98880600D01*
X201989906Y-99195100D01*
X202297306Y-99572100D01*
X202038806Y-99830600D01*
X201661806Y-99523200D01*
X201587527Y-99565447D01*
X201510006Y-99601400D01*
X201294706Y-99081700D01*
X201294705Y-99081700D01*
X201446806Y-98980093D01*
X201584106Y-98648600D01*
X201561945Y-98506279D01*
X201497615Y-98377407D01*
X201397191Y-98274153D01*
X201270155Y-98206267D01*
X201128505Y-98180161D01*
X200985615Y-98198298D01*
X200854980Y-98258967D01*
X200748934Y-98356439D01*
X200677492Y-98481509D01*
X200647400Y-98622366D01*
X200661500Y-98765711D01*
X200718460Y-98898006D01*
X200812901Y-99006759D01*
X200935906Y-99081700D01*
X200720606Y-99601400D01*
G37*
G36*
X183220604Y-170881408D02*
G01*
X183068804Y-170803208D01*
X182691804Y-171110608D01*
X182433304Y-170852108D01*
X182740704Y-170475108D01*
X182610404Y-170160608D01*
X182126504Y-170111408D01*
X182126504Y-169745808D01*
X182610404Y-169696608D01*
X182740704Y-169382108D01*
X182433304Y-169005108D01*
X182691804Y-168746608D01*
X183068804Y-169054008D01*
X183220640Y-168975791D01*
X183383304Y-168923708D01*
X183432504Y-168439808D01*
X183798104Y-168439808D01*
X183847304Y-168923708D01*
X184161804Y-169054008D01*
X184538804Y-168746608D01*
X184797304Y-169005108D01*
X184489904Y-169382108D01*
X184620204Y-169696608D01*
X185104104Y-169745808D01*
X185104104Y-170111408D01*
X184620204Y-170160608D01*
X184489904Y-170475108D01*
X184797304Y-170852108D01*
X184538804Y-171110608D01*
X184161804Y-170803208D01*
X184087525Y-170845455D01*
X184010004Y-170881408D01*
X183794704Y-170361708D01*
X183794703Y-170361708D01*
X183946804Y-170260101D01*
X184084104Y-169928608D01*
X184061943Y-169786287D01*
X183997613Y-169657415D01*
X183897189Y-169554161D01*
X183770153Y-169486275D01*
X183628503Y-169460169D01*
X183485613Y-169478306D01*
X183354978Y-169538975D01*
X183248932Y-169636447D01*
X183177490Y-169761517D01*
X183147398Y-169902374D01*
X183161498Y-170045719D01*
X183218458Y-170178014D01*
X183312899Y-170286767D01*
X183435904Y-170361708D01*
X183220604Y-170881408D01*
G37*
G36*
X183220604Y-153061406D02*
G01*
X183068804Y-152983206D01*
X182691804Y-153290606D01*
X182433304Y-153032106D01*
X182740704Y-152655106D01*
X182610404Y-152340606D01*
X182126504Y-152291406D01*
X182126504Y-151925806D01*
X182610404Y-151876606D01*
X182740704Y-151562106D01*
X182433304Y-151185106D01*
X182691804Y-150926606D01*
X183068804Y-151234006D01*
X183220640Y-151155789D01*
X183383304Y-151103706D01*
X183432504Y-150619806D01*
X183798104Y-150619806D01*
X183847304Y-151103706D01*
X184161804Y-151234006D01*
X184538804Y-150926606D01*
X184797304Y-151185106D01*
X184489904Y-151562106D01*
X184620204Y-151876606D01*
X185104104Y-151925806D01*
X185104104Y-152291406D01*
X184620204Y-152340606D01*
X184489904Y-152655106D01*
X184797304Y-153032106D01*
X184538804Y-153290606D01*
X184161804Y-152983206D01*
X184087525Y-153025453D01*
X184010004Y-153061406D01*
X183794704Y-152541706D01*
X183794703Y-152541706D01*
X183946804Y-152440099D01*
X184084104Y-152108606D01*
X184061943Y-151966285D01*
X183997613Y-151837413D01*
X183897189Y-151734159D01*
X183770153Y-151666273D01*
X183628503Y-151640167D01*
X183485613Y-151658304D01*
X183354978Y-151718973D01*
X183248932Y-151816445D01*
X183177490Y-151941515D01*
X183147398Y-152082372D01*
X183161498Y-152225717D01*
X183218458Y-152358012D01*
X183312899Y-152466765D01*
X183435904Y-152541706D01*
X183220604Y-153061406D01*
G37*
G36*
X183220604Y-135241404D02*
G01*
X183068804Y-135163204D01*
X182691804Y-135470604D01*
X182433304Y-135212104D01*
X182740704Y-134835104D01*
X182610404Y-134520604D01*
X182126504Y-134471404D01*
X182126504Y-134105804D01*
X182610404Y-134056604D01*
X182740704Y-133742104D01*
X182433304Y-133365104D01*
X182691804Y-133106604D01*
X183068804Y-133414004D01*
X183220640Y-133335787D01*
X183383304Y-133283704D01*
X183432504Y-132799804D01*
X183798104Y-132799804D01*
X183847304Y-133283704D01*
X184161804Y-133414004D01*
X184538804Y-133106604D01*
X184797304Y-133365104D01*
X184489904Y-133742104D01*
X184620204Y-134056604D01*
X185104104Y-134105804D01*
X185104104Y-134471404D01*
X184620204Y-134520604D01*
X184489904Y-134835104D01*
X184797304Y-135212104D01*
X184538804Y-135470604D01*
X184161804Y-135163204D01*
X184087525Y-135205451D01*
X184010004Y-135241404D01*
X183794704Y-134721704D01*
X183794703Y-134721704D01*
X183946804Y-134620097D01*
X184084104Y-134288604D01*
X184061943Y-134146283D01*
X183997613Y-134017411D01*
X183897189Y-133914157D01*
X183770153Y-133846271D01*
X183628503Y-133820165D01*
X183485613Y-133838302D01*
X183354978Y-133898971D01*
X183248932Y-133996443D01*
X183177490Y-134121513D01*
X183147398Y-134262370D01*
X183161498Y-134405715D01*
X183218458Y-134538010D01*
X183312899Y-134646763D01*
X183435904Y-134721704D01*
X183220604Y-135241404D01*
G37*
G36*
X183220604Y-117421402D02*
G01*
X183068804Y-117343202D01*
X182691804Y-117650602D01*
X182433304Y-117392102D01*
X182740704Y-117015102D01*
X182610404Y-116700602D01*
X182126504Y-116651402D01*
X182126504Y-116285802D01*
X182610404Y-116236602D01*
X182740704Y-115922102D01*
X182433304Y-115545102D01*
X182691804Y-115286602D01*
X183068804Y-115594002D01*
X183220640Y-115515785D01*
X183383304Y-115463702D01*
X183432504Y-114979802D01*
X183798104Y-114979802D01*
X183847304Y-115463702D01*
X184161804Y-115594002D01*
X184538804Y-115286602D01*
X184797304Y-115545102D01*
X184489904Y-115922102D01*
X184620204Y-116236602D01*
X185104104Y-116285802D01*
X185104104Y-116651402D01*
X184620204Y-116700602D01*
X184489904Y-117015102D01*
X184797304Y-117392102D01*
X184538804Y-117650602D01*
X184161804Y-117343202D01*
X184087525Y-117385449D01*
X184010004Y-117421402D01*
X183794704Y-116901702D01*
X183794703Y-116901702D01*
X183946804Y-116800095D01*
X184084104Y-116468602D01*
X184061943Y-116326281D01*
X183997613Y-116197409D01*
X183897189Y-116094155D01*
X183770153Y-116026269D01*
X183628503Y-116000163D01*
X183485613Y-116018300D01*
X183354978Y-116078969D01*
X183248932Y-116176441D01*
X183177490Y-116301511D01*
X183147398Y-116442368D01*
X183161498Y-116585713D01*
X183218458Y-116718008D01*
X183312899Y-116826761D01*
X183435904Y-116901702D01*
X183220604Y-117421402D01*
G37*
G36*
X183220604Y-99601400D02*
G01*
X183068804Y-99523200D01*
X182691804Y-99830600D01*
X182433304Y-99572100D01*
X182740704Y-99195100D01*
X182610404Y-98880600D01*
X182126504Y-98831400D01*
X182126504Y-98465800D01*
X182610404Y-98416600D01*
X182740704Y-98102100D01*
X182433304Y-97725100D01*
X182691804Y-97466600D01*
X183068804Y-97774000D01*
X183220640Y-97695783D01*
X183383304Y-97643700D01*
X183432504Y-97159800D01*
X183798104Y-97159800D01*
X183847304Y-97643700D01*
X184161804Y-97774000D01*
X184538804Y-97466600D01*
X184797304Y-97725100D01*
X184489904Y-98102100D01*
X184620204Y-98416600D01*
X185104104Y-98465800D01*
X185104104Y-98831400D01*
X184620204Y-98880600D01*
X184489904Y-99195100D01*
X184797304Y-99572100D01*
X184538804Y-99830600D01*
X184161804Y-99523200D01*
X184087525Y-99565447D01*
X184010004Y-99601400D01*
X183794704Y-99081700D01*
X183794703Y-99081700D01*
X183946804Y-98980093D01*
X184084104Y-98648600D01*
X184061943Y-98506279D01*
X183997613Y-98377407D01*
X183897189Y-98274153D01*
X183770153Y-98206267D01*
X183628503Y-98180161D01*
X183485613Y-98198298D01*
X183354978Y-98258967D01*
X183248932Y-98356439D01*
X183177490Y-98481509D01*
X183147398Y-98622366D01*
X183161498Y-98765711D01*
X183218458Y-98898006D01*
X183312899Y-99006759D01*
X183435904Y-99081700D01*
X183220604Y-99601400D01*
G37*
G36*
X165720602Y-170881408D02*
G01*
X165568802Y-170803208D01*
X165191802Y-171110608D01*
X164933302Y-170852108D01*
X165240702Y-170475108D01*
X165110402Y-170160608D01*
X164626502Y-170111408D01*
X164626502Y-169745808D01*
X165110402Y-169696608D01*
X165240702Y-169382108D01*
X164933302Y-169005108D01*
X165191802Y-168746608D01*
X165568802Y-169054008D01*
X165720638Y-168975791D01*
X165883302Y-168923708D01*
X165932502Y-168439808D01*
X166298102Y-168439808D01*
X166347302Y-168923708D01*
X166661802Y-169054008D01*
X167038802Y-168746608D01*
X167297302Y-169005108D01*
X166989902Y-169382108D01*
X167120202Y-169696608D01*
X167604102Y-169745808D01*
X167604102Y-170111408D01*
X167120202Y-170160608D01*
X166989902Y-170475108D01*
X167297302Y-170852108D01*
X167038802Y-171110608D01*
X166661802Y-170803208D01*
X166587523Y-170845455D01*
X166510002Y-170881408D01*
X166294702Y-170361708D01*
X166294701Y-170361708D01*
X166446802Y-170260101D01*
X166584102Y-169928608D01*
X166561941Y-169786287D01*
X166497611Y-169657415D01*
X166397187Y-169554161D01*
X166270151Y-169486275D01*
X166128501Y-169460169D01*
X165985611Y-169478306D01*
X165854976Y-169538975D01*
X165748930Y-169636447D01*
X165677488Y-169761517D01*
X165647396Y-169902374D01*
X165661496Y-170045719D01*
X165718456Y-170178014D01*
X165812897Y-170286767D01*
X165935902Y-170361708D01*
X165720602Y-170881408D01*
G37*
G36*
X165720602Y-153061406D02*
G01*
X165568802Y-152983206D01*
X165191802Y-153290606D01*
X164933302Y-153032106D01*
X165240702Y-152655106D01*
X165110402Y-152340606D01*
X164626502Y-152291406D01*
X164626502Y-151925806D01*
X165110402Y-151876606D01*
X165240702Y-151562106D01*
X164933302Y-151185106D01*
X165191802Y-150926606D01*
X165568802Y-151234006D01*
X165720638Y-151155789D01*
X165883302Y-151103706D01*
X165932502Y-150619806D01*
X166298102Y-150619806D01*
X166347302Y-151103706D01*
X166661802Y-151234006D01*
X167038802Y-150926606D01*
X167297302Y-151185106D01*
X166989902Y-151562106D01*
X167120202Y-151876606D01*
X167604102Y-151925806D01*
X167604102Y-152291406D01*
X167120202Y-152340606D01*
X166989902Y-152655106D01*
X167297302Y-153032106D01*
X167038802Y-153290606D01*
X166661802Y-152983206D01*
X166587523Y-153025453D01*
X166510002Y-153061406D01*
X166294702Y-152541706D01*
X166294701Y-152541706D01*
X166446802Y-152440099D01*
X166584102Y-152108606D01*
X166561941Y-151966285D01*
X166497611Y-151837413D01*
X166397187Y-151734159D01*
X166270151Y-151666273D01*
X166128501Y-151640167D01*
X165985611Y-151658304D01*
X165854976Y-151718973D01*
X165748930Y-151816445D01*
X165677488Y-151941515D01*
X165647396Y-152082372D01*
X165661496Y-152225717D01*
X165718456Y-152358012D01*
X165812897Y-152466765D01*
X165935902Y-152541706D01*
X165720602Y-153061406D01*
G37*
G36*
X165720602Y-135241404D02*
G01*
X165568802Y-135163204D01*
X165191802Y-135470604D01*
X164933302Y-135212104D01*
X165240702Y-134835104D01*
X165110402Y-134520604D01*
X164626502Y-134471404D01*
X164626502Y-134105804D01*
X165110402Y-134056604D01*
X165240702Y-133742104D01*
X164933302Y-133365104D01*
X165191802Y-133106604D01*
X165568802Y-133414004D01*
X165720638Y-133335787D01*
X165883302Y-133283704D01*
X165932502Y-132799804D01*
X166298102Y-132799804D01*
X166347302Y-133283704D01*
X166661802Y-133414004D01*
X167038802Y-133106604D01*
X167297302Y-133365104D01*
X166989902Y-133742104D01*
X167120202Y-134056604D01*
X167604102Y-134105804D01*
X167604102Y-134471404D01*
X167120202Y-134520604D01*
X166989902Y-134835104D01*
X167297302Y-135212104D01*
X167038802Y-135470604D01*
X166661802Y-135163204D01*
X166587523Y-135205451D01*
X166510002Y-135241404D01*
X166294702Y-134721704D01*
X166294701Y-134721704D01*
X166446802Y-134620097D01*
X166584102Y-134288604D01*
X166561941Y-134146283D01*
X166497611Y-134017411D01*
X166397187Y-133914157D01*
X166270151Y-133846271D01*
X166128501Y-133820165D01*
X165985611Y-133838302D01*
X165854976Y-133898971D01*
X165748930Y-133996443D01*
X165677488Y-134121513D01*
X165647396Y-134262370D01*
X165661496Y-134405715D01*
X165718456Y-134538010D01*
X165812897Y-134646763D01*
X165935902Y-134721704D01*
X165720602Y-135241404D01*
G37*
G36*
X165720602Y-117421402D02*
G01*
X165568802Y-117343202D01*
X165191802Y-117650602D01*
X164933302Y-117392102D01*
X165240702Y-117015102D01*
X165110402Y-116700602D01*
X164626502Y-116651402D01*
X164626502Y-116285802D01*
X165110402Y-116236602D01*
X165240702Y-115922102D01*
X164933302Y-115545102D01*
X165191802Y-115286602D01*
X165568802Y-115594002D01*
X165720638Y-115515785D01*
X165883302Y-115463702D01*
X165932502Y-114979802D01*
X166298102Y-114979802D01*
X166347302Y-115463702D01*
X166661802Y-115594002D01*
X167038802Y-115286602D01*
X167297302Y-115545102D01*
X166989902Y-115922102D01*
X167120202Y-116236602D01*
X167604102Y-116285802D01*
X167604102Y-116651402D01*
X167120202Y-116700602D01*
X166989902Y-117015102D01*
X167297302Y-117392102D01*
X167038802Y-117650602D01*
X166661802Y-117343202D01*
X166587523Y-117385449D01*
X166510002Y-117421402D01*
X166294702Y-116901702D01*
X166294701Y-116901702D01*
X166446802Y-116800095D01*
X166584102Y-116468602D01*
X166561941Y-116326281D01*
X166497611Y-116197409D01*
X166397187Y-116094155D01*
X166270151Y-116026269D01*
X166128501Y-116000163D01*
X165985611Y-116018300D01*
X165854976Y-116078969D01*
X165748930Y-116176441D01*
X165677488Y-116301511D01*
X165647396Y-116442368D01*
X165661496Y-116585713D01*
X165718456Y-116718008D01*
X165812897Y-116826761D01*
X165935902Y-116901702D01*
X165720602Y-117421402D01*
G37*
G36*
X165720602Y-99601400D02*
G01*
X165568802Y-99523200D01*
X165191802Y-99830600D01*
X164933302Y-99572100D01*
X165240702Y-99195100D01*
X165110402Y-98880600D01*
X164626502Y-98831400D01*
X164626502Y-98465800D01*
X165110402Y-98416600D01*
X165240702Y-98102100D01*
X164933302Y-97725100D01*
X165191802Y-97466600D01*
X165568802Y-97774000D01*
X165720638Y-97695783D01*
X165883302Y-97643700D01*
X165932502Y-97159800D01*
X166298102Y-97159800D01*
X166347302Y-97643700D01*
X166661802Y-97774000D01*
X167038802Y-97466600D01*
X167297302Y-97725100D01*
X166989902Y-98102100D01*
X167120202Y-98416600D01*
X167604102Y-98465800D01*
X167604102Y-98831400D01*
X167120202Y-98880600D01*
X166989902Y-99195100D01*
X167297302Y-99572100D01*
X167038802Y-99830600D01*
X166661802Y-99523200D01*
X166587523Y-99565447D01*
X166510002Y-99601400D01*
X166294702Y-99081700D01*
X166294701Y-99081700D01*
X166446802Y-98980093D01*
X166584102Y-98648600D01*
X166561941Y-98506279D01*
X166497611Y-98377407D01*
X166397187Y-98274153D01*
X166270151Y-98206267D01*
X166128501Y-98180161D01*
X165985611Y-98198298D01*
X165854976Y-98258967D01*
X165748930Y-98356439D01*
X165677488Y-98481509D01*
X165647396Y-98622366D01*
X165661496Y-98765711D01*
X165718456Y-98898006D01*
X165812897Y-99006759D01*
X165935902Y-99081700D01*
X165720602Y-99601400D01*
G37*
G36*
X148220600Y-170881408D02*
G01*
X148068800Y-170803208D01*
X147691800Y-171110608D01*
X147433300Y-170852108D01*
X147740700Y-170475108D01*
X147610400Y-170160608D01*
X147126500Y-170111408D01*
X147126500Y-169745808D01*
X147610400Y-169696608D01*
X147740700Y-169382108D01*
X147433300Y-169005108D01*
X147691800Y-168746608D01*
X148068800Y-169054008D01*
X148220636Y-168975791D01*
X148383300Y-168923708D01*
X148432500Y-168439808D01*
X148798100Y-168439808D01*
X148847300Y-168923708D01*
X149161800Y-169054008D01*
X149538800Y-168746608D01*
X149797300Y-169005108D01*
X149489900Y-169382108D01*
X149620200Y-169696608D01*
X150104100Y-169745808D01*
X150104100Y-170111408D01*
X149620200Y-170160608D01*
X149489900Y-170475108D01*
X149797300Y-170852108D01*
X149538800Y-171110608D01*
X149161800Y-170803208D01*
X149087521Y-170845455D01*
X149010000Y-170881408D01*
X148794700Y-170361708D01*
X148794699Y-170361708D01*
X148946800Y-170260101D01*
X149084100Y-169928608D01*
X149061939Y-169786287D01*
X148997609Y-169657415D01*
X148897185Y-169554161D01*
X148770149Y-169486275D01*
X148628499Y-169460169D01*
X148485609Y-169478306D01*
X148354974Y-169538975D01*
X148248928Y-169636447D01*
X148177486Y-169761517D01*
X148147394Y-169902374D01*
X148161494Y-170045719D01*
X148218454Y-170178014D01*
X148312895Y-170286767D01*
X148435900Y-170361708D01*
X148220600Y-170881408D01*
G37*
G36*
X148220600Y-153061406D02*
G01*
X148068800Y-152983206D01*
X147691800Y-153290606D01*
X147433300Y-153032106D01*
X147740700Y-152655106D01*
X147610400Y-152340606D01*
X147126500Y-152291406D01*
X147126500Y-151925806D01*
X147610400Y-151876606D01*
X147740700Y-151562106D01*
X147433300Y-151185106D01*
X147691800Y-150926606D01*
X148068800Y-151234006D01*
X148220636Y-151155789D01*
X148383300Y-151103706D01*
X148432500Y-150619806D01*
X148798100Y-150619806D01*
X148847300Y-151103706D01*
X149161800Y-151234006D01*
X149538800Y-150926606D01*
X149797300Y-151185106D01*
X149489900Y-151562106D01*
X149620200Y-151876606D01*
X150104100Y-151925806D01*
X150104100Y-152291406D01*
X149620200Y-152340606D01*
X149489900Y-152655106D01*
X149797300Y-153032106D01*
X149538800Y-153290606D01*
X149161800Y-152983206D01*
X149087521Y-153025453D01*
X149010000Y-153061406D01*
X148794700Y-152541706D01*
X148794699Y-152541706D01*
X148946800Y-152440099D01*
X149084100Y-152108606D01*
X149061939Y-151966285D01*
X148997609Y-151837413D01*
X148897185Y-151734159D01*
X148770149Y-151666273D01*
X148628499Y-151640167D01*
X148485609Y-151658304D01*
X148354974Y-151718973D01*
X148248928Y-151816445D01*
X148177486Y-151941515D01*
X148147394Y-152082372D01*
X148161494Y-152225717D01*
X148218454Y-152358012D01*
X148312895Y-152466765D01*
X148435900Y-152541706D01*
X148220600Y-153061406D01*
G37*
G36*
X148220600Y-135241404D02*
G01*
X148068800Y-135163204D01*
X147691800Y-135470604D01*
X147433300Y-135212104D01*
X147740700Y-134835104D01*
X147610400Y-134520604D01*
X147126500Y-134471404D01*
X147126500Y-134105804D01*
X147610400Y-134056604D01*
X147740700Y-133742104D01*
X147433300Y-133365104D01*
X147691800Y-133106604D01*
X148068800Y-133414004D01*
X148220636Y-133335787D01*
X148383300Y-133283704D01*
X148432500Y-132799804D01*
X148798100Y-132799804D01*
X148847300Y-133283704D01*
X149161800Y-133414004D01*
X149538800Y-133106604D01*
X149797300Y-133365104D01*
X149489900Y-133742104D01*
X149620200Y-134056604D01*
X150104100Y-134105804D01*
X150104100Y-134471404D01*
X149620200Y-134520604D01*
X149489900Y-134835104D01*
X149797300Y-135212104D01*
X149538800Y-135470604D01*
X149161800Y-135163204D01*
X149087521Y-135205451D01*
X149010000Y-135241404D01*
X148794700Y-134721704D01*
X148794699Y-134721704D01*
X148946800Y-134620097D01*
X149084100Y-134288604D01*
X149061939Y-134146283D01*
X148997609Y-134017411D01*
X148897185Y-133914157D01*
X148770149Y-133846271D01*
X148628499Y-133820165D01*
X148485609Y-133838302D01*
X148354974Y-133898971D01*
X148248928Y-133996443D01*
X148177486Y-134121513D01*
X148147394Y-134262370D01*
X148161494Y-134405715D01*
X148218454Y-134538010D01*
X148312895Y-134646763D01*
X148435900Y-134721704D01*
X148220600Y-135241404D01*
G37*
G36*
X148220600Y-117421402D02*
G01*
X148068800Y-117343202D01*
X147691800Y-117650602D01*
X147433300Y-117392102D01*
X147740700Y-117015102D01*
X147610400Y-116700602D01*
X147126500Y-116651402D01*
X147126500Y-116285802D01*
X147610400Y-116236602D01*
X147740700Y-115922102D01*
X147433300Y-115545102D01*
X147691800Y-115286602D01*
X148068800Y-115594002D01*
X148220636Y-115515785D01*
X148383300Y-115463702D01*
X148432500Y-114979802D01*
X148798100Y-114979802D01*
X148847300Y-115463702D01*
X149161800Y-115594002D01*
X149538800Y-115286602D01*
X149797300Y-115545102D01*
X149489900Y-115922102D01*
X149620200Y-116236602D01*
X150104100Y-116285802D01*
X150104100Y-116651402D01*
X149620200Y-116700602D01*
X149489900Y-117015102D01*
X149797300Y-117392102D01*
X149538800Y-117650602D01*
X149161800Y-117343202D01*
X149087521Y-117385449D01*
X149010000Y-117421402D01*
X148794700Y-116901702D01*
X148794699Y-116901702D01*
X148946800Y-116800095D01*
X149084100Y-116468602D01*
X149061939Y-116326281D01*
X148997609Y-116197409D01*
X148897185Y-116094155D01*
X148770149Y-116026269D01*
X148628499Y-116000163D01*
X148485609Y-116018300D01*
X148354974Y-116078969D01*
X148248928Y-116176441D01*
X148177486Y-116301511D01*
X148147394Y-116442368D01*
X148161494Y-116585713D01*
X148218454Y-116718008D01*
X148312895Y-116826761D01*
X148435900Y-116901702D01*
X148220600Y-117421402D01*
G37*
G36*
X148220600Y-99601400D02*
G01*
X148068800Y-99523200D01*
X147691800Y-99830600D01*
X147433300Y-99572100D01*
X147740700Y-99195100D01*
X147610400Y-98880600D01*
X147126500Y-98831400D01*
X147126500Y-98465800D01*
X147610400Y-98416600D01*
X147740700Y-98102100D01*
X147433300Y-97725100D01*
X147691800Y-97466600D01*
X148068800Y-97774000D01*
X148220636Y-97695783D01*
X148383300Y-97643700D01*
X148432500Y-97159800D01*
X148798100Y-97159800D01*
X148847300Y-97643700D01*
X149161800Y-97774000D01*
X149538800Y-97466600D01*
X149797300Y-97725100D01*
X149489900Y-98102100D01*
X149620200Y-98416600D01*
X150104100Y-98465800D01*
X150104100Y-98831400D01*
X149620200Y-98880600D01*
X149489900Y-99195100D01*
X149797300Y-99572100D01*
X149538800Y-99830600D01*
X149161800Y-99523200D01*
X149087521Y-99565447D01*
X149010000Y-99601400D01*
X148794700Y-99081700D01*
X148794699Y-99081700D01*
X148946800Y-98980093D01*
X149084100Y-98648600D01*
X149061939Y-98506279D01*
X148997609Y-98377407D01*
X148897185Y-98274153D01*
X148770149Y-98206267D01*
X148628499Y-98180161D01*
X148485609Y-98198298D01*
X148354974Y-98258967D01*
X148248928Y-98356439D01*
X148177486Y-98481509D01*
X148147394Y-98622366D01*
X148161494Y-98765711D01*
X148218454Y-98898006D01*
X148312895Y-99006759D01*
X148435900Y-99081700D01*
X148220600Y-99601400D01*
G37*
D11*
X150342500Y-103373000D02*
G75*
G03X150342500Y-103373000I-457200J0D01*
G01*
X150948900Y-102484000D02*
X146383300Y-102484000D01*
X146383300Y-106751200D02*
X150948900Y-106751200D01*
M02*
