G04 #@! TF.GenerationSoftware,KiCad,Pcbnew,5.1.5-5.1.5*
G04 #@! TF.CreationDate,2020-06-01T10:48:51+10:00*
G04 #@! TF.ProjectId,SOIC12-TSSOP12_panelized,534f4943-3132-42d5-9453-534f5031325f,rev?*
G04 #@! TF.SameCoordinates,Original*
G04 #@! TF.FileFunction,Legend,Top*
G04 #@! TF.FilePolarity,Positive*
%FSLAX46Y46*%
G04 Gerber Fmt 4.6, Leading zero omitted, Abs format (unit mm)*
G04 Created by KiCad (PCBNEW 5.1.5-5.1.5) date 2020-06-01 10:48:51*
%MOMM*%
%LPD*%
G04 APERTURE LIST*
%ADD10C,0.100000*%
%ADD11C,0.101600*%
%ADD12C,0.203200*%
G04 APERTURE END LIST*
D10*
X137653478Y-184005514D02*
X136653478Y-184005514D01*
X137367764Y-183672181D01*
X136653478Y-183338848D01*
X137653478Y-183338848D01*
X137653478Y-182434086D02*
X137129669Y-182434086D01*
X137034431Y-182481705D01*
X136986812Y-182576943D01*
X136986812Y-182767419D01*
X137034431Y-182862657D01*
X137605859Y-182434086D02*
X137653478Y-182529324D01*
X137653478Y-182767419D01*
X137605859Y-182862657D01*
X137510621Y-182910276D01*
X137415383Y-182910276D01*
X137320145Y-182862657D01*
X137272526Y-182767419D01*
X137272526Y-182529324D01*
X137224907Y-182434086D01*
X137653478Y-181529324D02*
X136653478Y-181529324D01*
X137605859Y-181529324D02*
X137653478Y-181624562D01*
X137653478Y-181815038D01*
X137605859Y-181910276D01*
X137558240Y-181957895D01*
X137463002Y-182005514D01*
X137177288Y-182005514D01*
X137082050Y-181957895D01*
X137034431Y-181910276D01*
X136986812Y-181815038D01*
X136986812Y-181624562D01*
X137034431Y-181529324D01*
X137605859Y-180672181D02*
X137653478Y-180767419D01*
X137653478Y-180957895D01*
X137605859Y-181053133D01*
X137510621Y-181100752D01*
X137129669Y-181100752D01*
X137034431Y-181053133D01*
X136986812Y-180957895D01*
X136986812Y-180767419D01*
X137034431Y-180672181D01*
X137129669Y-180624562D01*
X137224907Y-180624562D01*
X137320145Y-181100752D01*
X136986812Y-179529324D02*
X137653478Y-179338848D01*
X137177288Y-179148371D01*
X137653478Y-178957895D01*
X136986812Y-178767419D01*
X137653478Y-178386467D02*
X136986812Y-178386467D01*
X136653478Y-178386467D02*
X136701098Y-178434086D01*
X136748717Y-178386467D01*
X136701098Y-178338848D01*
X136653478Y-178386467D01*
X136748717Y-178386467D01*
X136986812Y-178053133D02*
X136986812Y-177672181D01*
X136653478Y-177910276D02*
X137510621Y-177910276D01*
X137605859Y-177862657D01*
X137653478Y-177767419D01*
X137653478Y-177672181D01*
X137653478Y-177338848D02*
X136653478Y-177338848D01*
X137653478Y-176910276D02*
X137129669Y-176910276D01*
X137034431Y-176957895D01*
X136986812Y-177053133D01*
X136986812Y-177195990D01*
X137034431Y-177291229D01*
X137082050Y-177338848D01*
X137653478Y-175672181D02*
X136653478Y-175672181D01*
X137653478Y-175100752D02*
X137082050Y-175529324D01*
X136653478Y-175100752D02*
X137224907Y-175672181D01*
X137653478Y-174672181D02*
X136986812Y-174672181D01*
X136653478Y-174672181D02*
X136701098Y-174719800D01*
X136748717Y-174672181D01*
X136701098Y-174624562D01*
X136653478Y-174672181D01*
X136748717Y-174672181D01*
X137605859Y-173767419D02*
X137653478Y-173862657D01*
X137653478Y-174053133D01*
X137605859Y-174148371D01*
X137558240Y-174195990D01*
X137463002Y-174243610D01*
X137177288Y-174243610D01*
X137082050Y-174195990D01*
X137034431Y-174148371D01*
X136986812Y-174053133D01*
X136986812Y-173862657D01*
X137034431Y-173767419D01*
X137653478Y-172910276D02*
X137129669Y-172910276D01*
X137034431Y-172957895D01*
X136986812Y-173053133D01*
X136986812Y-173243610D01*
X137034431Y-173338848D01*
X137605859Y-172910276D02*
X137653478Y-173005514D01*
X137653478Y-173243610D01*
X137605859Y-173338848D01*
X137510621Y-173386467D01*
X137415383Y-173386467D01*
X137320145Y-173338848D01*
X137272526Y-173243610D01*
X137272526Y-173005514D01*
X137224907Y-172910276D01*
X137653478Y-172005514D02*
X136653478Y-172005514D01*
X137605859Y-172005514D02*
X137653478Y-172100752D01*
X137653478Y-172291229D01*
X137605859Y-172386467D01*
X137558240Y-172434086D01*
X137463002Y-172481705D01*
X137177288Y-172481705D01*
X137082050Y-172434086D01*
X137034431Y-172386467D01*
X136986812Y-172291229D01*
X136986812Y-172100752D01*
X137034431Y-172005514D01*
D11*
X222826386Y-170506155D02*
X222136957Y-170506155D01*
X222481671Y-170506155D02*
X222481671Y-169299655D01*
X222366767Y-169472012D01*
X222251862Y-169586917D01*
X222136957Y-169644369D01*
X223286005Y-169414560D02*
X223343457Y-169357108D01*
X223458362Y-169299655D01*
X223745624Y-169299655D01*
X223860528Y-169357108D01*
X223917981Y-169414560D01*
X223975433Y-169529465D01*
X223975433Y-169644369D01*
X223917981Y-169816727D01*
X223228552Y-170506155D01*
X223975433Y-170506155D01*
X222826386Y-152686153D02*
X222136957Y-152686153D01*
X222481671Y-152686153D02*
X222481671Y-151479653D01*
X222366767Y-151652010D01*
X222251862Y-151766915D01*
X222136957Y-151824367D01*
X223286005Y-151594558D02*
X223343457Y-151537106D01*
X223458362Y-151479653D01*
X223745624Y-151479653D01*
X223860528Y-151537106D01*
X223917981Y-151594558D01*
X223975433Y-151709463D01*
X223975433Y-151824367D01*
X223917981Y-151996725D01*
X223228552Y-152686153D01*
X223975433Y-152686153D01*
X222826386Y-134866151D02*
X222136957Y-134866151D01*
X222481671Y-134866151D02*
X222481671Y-133659651D01*
X222366767Y-133832008D01*
X222251862Y-133946913D01*
X222136957Y-134004365D01*
X223286005Y-133774556D02*
X223343457Y-133717104D01*
X223458362Y-133659651D01*
X223745624Y-133659651D01*
X223860528Y-133717104D01*
X223917981Y-133774556D01*
X223975433Y-133889461D01*
X223975433Y-134004365D01*
X223917981Y-134176723D01*
X223228552Y-134866151D01*
X223975433Y-134866151D01*
X222826386Y-117046149D02*
X222136957Y-117046149D01*
X222481671Y-117046149D02*
X222481671Y-115839649D01*
X222366767Y-116012006D01*
X222251862Y-116126911D01*
X222136957Y-116184363D01*
X223286005Y-115954554D02*
X223343457Y-115897102D01*
X223458362Y-115839649D01*
X223745624Y-115839649D01*
X223860528Y-115897102D01*
X223917981Y-115954554D01*
X223975433Y-116069459D01*
X223975433Y-116184363D01*
X223917981Y-116356721D01*
X223228552Y-117046149D01*
X223975433Y-117046149D01*
X222826386Y-99226147D02*
X222136957Y-99226147D01*
X222481671Y-99226147D02*
X222481671Y-98019647D01*
X222366767Y-98192004D01*
X222251862Y-98306909D01*
X222136957Y-98364361D01*
X223286005Y-98134552D02*
X223343457Y-98077100D01*
X223458362Y-98019647D01*
X223745624Y-98019647D01*
X223860528Y-98077100D01*
X223917981Y-98134552D01*
X223975433Y-98249457D01*
X223975433Y-98364361D01*
X223917981Y-98536719D01*
X223228552Y-99226147D01*
X223975433Y-99226147D01*
X205326384Y-170506155D02*
X204636955Y-170506155D01*
X204981669Y-170506155D02*
X204981669Y-169299655D01*
X204866765Y-169472012D01*
X204751860Y-169586917D01*
X204636955Y-169644369D01*
X205786003Y-169414560D02*
X205843455Y-169357108D01*
X205958360Y-169299655D01*
X206245622Y-169299655D01*
X206360526Y-169357108D01*
X206417979Y-169414560D01*
X206475431Y-169529465D01*
X206475431Y-169644369D01*
X206417979Y-169816727D01*
X205728550Y-170506155D01*
X206475431Y-170506155D01*
X205326384Y-152686153D02*
X204636955Y-152686153D01*
X204981669Y-152686153D02*
X204981669Y-151479653D01*
X204866765Y-151652010D01*
X204751860Y-151766915D01*
X204636955Y-151824367D01*
X205786003Y-151594558D02*
X205843455Y-151537106D01*
X205958360Y-151479653D01*
X206245622Y-151479653D01*
X206360526Y-151537106D01*
X206417979Y-151594558D01*
X206475431Y-151709463D01*
X206475431Y-151824367D01*
X206417979Y-151996725D01*
X205728550Y-152686153D01*
X206475431Y-152686153D01*
X205326384Y-134866151D02*
X204636955Y-134866151D01*
X204981669Y-134866151D02*
X204981669Y-133659651D01*
X204866765Y-133832008D01*
X204751860Y-133946913D01*
X204636955Y-134004365D01*
X205786003Y-133774556D02*
X205843455Y-133717104D01*
X205958360Y-133659651D01*
X206245622Y-133659651D01*
X206360526Y-133717104D01*
X206417979Y-133774556D01*
X206475431Y-133889461D01*
X206475431Y-134004365D01*
X206417979Y-134176723D01*
X205728550Y-134866151D01*
X206475431Y-134866151D01*
X205326384Y-117046149D02*
X204636955Y-117046149D01*
X204981669Y-117046149D02*
X204981669Y-115839649D01*
X204866765Y-116012006D01*
X204751860Y-116126911D01*
X204636955Y-116184363D01*
X205786003Y-115954554D02*
X205843455Y-115897102D01*
X205958360Y-115839649D01*
X206245622Y-115839649D01*
X206360526Y-115897102D01*
X206417979Y-115954554D01*
X206475431Y-116069459D01*
X206475431Y-116184363D01*
X206417979Y-116356721D01*
X205728550Y-117046149D01*
X206475431Y-117046149D01*
X205326384Y-99226147D02*
X204636955Y-99226147D01*
X204981669Y-99226147D02*
X204981669Y-98019647D01*
X204866765Y-98192004D01*
X204751860Y-98306909D01*
X204636955Y-98364361D01*
X205786003Y-98134552D02*
X205843455Y-98077100D01*
X205958360Y-98019647D01*
X206245622Y-98019647D01*
X206360526Y-98077100D01*
X206417979Y-98134552D01*
X206475431Y-98249457D01*
X206475431Y-98364361D01*
X206417979Y-98536719D01*
X205728550Y-99226147D01*
X206475431Y-99226147D01*
X187826382Y-170506155D02*
X187136953Y-170506155D01*
X187481667Y-170506155D02*
X187481667Y-169299655D01*
X187366763Y-169472012D01*
X187251858Y-169586917D01*
X187136953Y-169644369D01*
X188286001Y-169414560D02*
X188343453Y-169357108D01*
X188458358Y-169299655D01*
X188745620Y-169299655D01*
X188860524Y-169357108D01*
X188917977Y-169414560D01*
X188975429Y-169529465D01*
X188975429Y-169644369D01*
X188917977Y-169816727D01*
X188228548Y-170506155D01*
X188975429Y-170506155D01*
X187826382Y-152686153D02*
X187136953Y-152686153D01*
X187481667Y-152686153D02*
X187481667Y-151479653D01*
X187366763Y-151652010D01*
X187251858Y-151766915D01*
X187136953Y-151824367D01*
X188286001Y-151594558D02*
X188343453Y-151537106D01*
X188458358Y-151479653D01*
X188745620Y-151479653D01*
X188860524Y-151537106D01*
X188917977Y-151594558D01*
X188975429Y-151709463D01*
X188975429Y-151824367D01*
X188917977Y-151996725D01*
X188228548Y-152686153D01*
X188975429Y-152686153D01*
X187826382Y-134866151D02*
X187136953Y-134866151D01*
X187481667Y-134866151D02*
X187481667Y-133659651D01*
X187366763Y-133832008D01*
X187251858Y-133946913D01*
X187136953Y-134004365D01*
X188286001Y-133774556D02*
X188343453Y-133717104D01*
X188458358Y-133659651D01*
X188745620Y-133659651D01*
X188860524Y-133717104D01*
X188917977Y-133774556D01*
X188975429Y-133889461D01*
X188975429Y-134004365D01*
X188917977Y-134176723D01*
X188228548Y-134866151D01*
X188975429Y-134866151D01*
X187826382Y-117046149D02*
X187136953Y-117046149D01*
X187481667Y-117046149D02*
X187481667Y-115839649D01*
X187366763Y-116012006D01*
X187251858Y-116126911D01*
X187136953Y-116184363D01*
X188286001Y-115954554D02*
X188343453Y-115897102D01*
X188458358Y-115839649D01*
X188745620Y-115839649D01*
X188860524Y-115897102D01*
X188917977Y-115954554D01*
X188975429Y-116069459D01*
X188975429Y-116184363D01*
X188917977Y-116356721D01*
X188228548Y-117046149D01*
X188975429Y-117046149D01*
X187826382Y-99226147D02*
X187136953Y-99226147D01*
X187481667Y-99226147D02*
X187481667Y-98019647D01*
X187366763Y-98192004D01*
X187251858Y-98306909D01*
X187136953Y-98364361D01*
X188286001Y-98134552D02*
X188343453Y-98077100D01*
X188458358Y-98019647D01*
X188745620Y-98019647D01*
X188860524Y-98077100D01*
X188917977Y-98134552D01*
X188975429Y-98249457D01*
X188975429Y-98364361D01*
X188917977Y-98536719D01*
X188228548Y-99226147D01*
X188975429Y-99226147D01*
X170326380Y-170506155D02*
X169636951Y-170506155D01*
X169981665Y-170506155D02*
X169981665Y-169299655D01*
X169866761Y-169472012D01*
X169751856Y-169586917D01*
X169636951Y-169644369D01*
X170785999Y-169414560D02*
X170843451Y-169357108D01*
X170958356Y-169299655D01*
X171245618Y-169299655D01*
X171360522Y-169357108D01*
X171417975Y-169414560D01*
X171475427Y-169529465D01*
X171475427Y-169644369D01*
X171417975Y-169816727D01*
X170728546Y-170506155D01*
X171475427Y-170506155D01*
X170326380Y-152686153D02*
X169636951Y-152686153D01*
X169981665Y-152686153D02*
X169981665Y-151479653D01*
X169866761Y-151652010D01*
X169751856Y-151766915D01*
X169636951Y-151824367D01*
X170785999Y-151594558D02*
X170843451Y-151537106D01*
X170958356Y-151479653D01*
X171245618Y-151479653D01*
X171360522Y-151537106D01*
X171417975Y-151594558D01*
X171475427Y-151709463D01*
X171475427Y-151824367D01*
X171417975Y-151996725D01*
X170728546Y-152686153D01*
X171475427Y-152686153D01*
X170326380Y-134866151D02*
X169636951Y-134866151D01*
X169981665Y-134866151D02*
X169981665Y-133659651D01*
X169866761Y-133832008D01*
X169751856Y-133946913D01*
X169636951Y-134004365D01*
X170785999Y-133774556D02*
X170843451Y-133717104D01*
X170958356Y-133659651D01*
X171245618Y-133659651D01*
X171360522Y-133717104D01*
X171417975Y-133774556D01*
X171475427Y-133889461D01*
X171475427Y-134004365D01*
X171417975Y-134176723D01*
X170728546Y-134866151D01*
X171475427Y-134866151D01*
X170326380Y-117046149D02*
X169636951Y-117046149D01*
X169981665Y-117046149D02*
X169981665Y-115839649D01*
X169866761Y-116012006D01*
X169751856Y-116126911D01*
X169636951Y-116184363D01*
X170785999Y-115954554D02*
X170843451Y-115897102D01*
X170958356Y-115839649D01*
X171245618Y-115839649D01*
X171360522Y-115897102D01*
X171417975Y-115954554D01*
X171475427Y-116069459D01*
X171475427Y-116184363D01*
X171417975Y-116356721D01*
X170728546Y-117046149D01*
X171475427Y-117046149D01*
X170326380Y-99226147D02*
X169636951Y-99226147D01*
X169981665Y-99226147D02*
X169981665Y-98019647D01*
X169866761Y-98192004D01*
X169751856Y-98306909D01*
X169636951Y-98364361D01*
X170785999Y-98134552D02*
X170843451Y-98077100D01*
X170958356Y-98019647D01*
X171245618Y-98019647D01*
X171360522Y-98077100D01*
X171417975Y-98134552D01*
X171475427Y-98249457D01*
X171475427Y-98364361D01*
X171417975Y-98536719D01*
X170728546Y-99226147D01*
X171475427Y-99226147D01*
X152826378Y-170506155D02*
X152136949Y-170506155D01*
X152481663Y-170506155D02*
X152481663Y-169299655D01*
X152366759Y-169472012D01*
X152251854Y-169586917D01*
X152136949Y-169644369D01*
X153285997Y-169414560D02*
X153343449Y-169357108D01*
X153458354Y-169299655D01*
X153745616Y-169299655D01*
X153860520Y-169357108D01*
X153917973Y-169414560D01*
X153975425Y-169529465D01*
X153975425Y-169644369D01*
X153917973Y-169816727D01*
X153228544Y-170506155D01*
X153975425Y-170506155D01*
X152826378Y-152686153D02*
X152136949Y-152686153D01*
X152481663Y-152686153D02*
X152481663Y-151479653D01*
X152366759Y-151652010D01*
X152251854Y-151766915D01*
X152136949Y-151824367D01*
X153285997Y-151594558D02*
X153343449Y-151537106D01*
X153458354Y-151479653D01*
X153745616Y-151479653D01*
X153860520Y-151537106D01*
X153917973Y-151594558D01*
X153975425Y-151709463D01*
X153975425Y-151824367D01*
X153917973Y-151996725D01*
X153228544Y-152686153D01*
X153975425Y-152686153D01*
X152826378Y-134866151D02*
X152136949Y-134866151D01*
X152481663Y-134866151D02*
X152481663Y-133659651D01*
X152366759Y-133832008D01*
X152251854Y-133946913D01*
X152136949Y-134004365D01*
X153285997Y-133774556D02*
X153343449Y-133717104D01*
X153458354Y-133659651D01*
X153745616Y-133659651D01*
X153860520Y-133717104D01*
X153917973Y-133774556D01*
X153975425Y-133889461D01*
X153975425Y-134004365D01*
X153917973Y-134176723D01*
X153228544Y-134866151D01*
X153975425Y-134866151D01*
X152826378Y-117046149D02*
X152136949Y-117046149D01*
X152481663Y-117046149D02*
X152481663Y-115839649D01*
X152366759Y-116012006D01*
X152251854Y-116126911D01*
X152136949Y-116184363D01*
X153285997Y-115954554D02*
X153343449Y-115897102D01*
X153458354Y-115839649D01*
X153745616Y-115839649D01*
X153860520Y-115897102D01*
X153917973Y-115954554D01*
X153975425Y-116069459D01*
X153975425Y-116184363D01*
X153917973Y-116356721D01*
X153228544Y-117046149D01*
X153975425Y-117046149D01*
X223095505Y-182126655D02*
X223899838Y-182126655D01*
X223382767Y-183333155D01*
X223095505Y-164306653D02*
X223899838Y-164306653D01*
X223382767Y-165513153D01*
X223095505Y-146486651D02*
X223899838Y-146486651D01*
X223382767Y-147693151D01*
X223095505Y-128666649D02*
X223899838Y-128666649D01*
X223382767Y-129873149D01*
X223095505Y-110846647D02*
X223899838Y-110846647D01*
X223382767Y-112053147D01*
X205595503Y-182126655D02*
X206399836Y-182126655D01*
X205882765Y-183333155D01*
X205595503Y-164306653D02*
X206399836Y-164306653D01*
X205882765Y-165513153D01*
X205595503Y-146486651D02*
X206399836Y-146486651D01*
X205882765Y-147693151D01*
X205595503Y-128666649D02*
X206399836Y-128666649D01*
X205882765Y-129873149D01*
X205595503Y-110846647D02*
X206399836Y-110846647D01*
X205882765Y-112053147D01*
X188095501Y-182126655D02*
X188899834Y-182126655D01*
X188382763Y-183333155D01*
X188095501Y-164306653D02*
X188899834Y-164306653D01*
X188382763Y-165513153D01*
X188095501Y-146486651D02*
X188899834Y-146486651D01*
X188382763Y-147693151D01*
X188095501Y-128666649D02*
X188899834Y-128666649D01*
X188382763Y-129873149D01*
X188095501Y-110846647D02*
X188899834Y-110846647D01*
X188382763Y-112053147D01*
X170595499Y-182126655D02*
X171399832Y-182126655D01*
X170882761Y-183333155D01*
X170595499Y-164306653D02*
X171399832Y-164306653D01*
X170882761Y-165513153D01*
X170595499Y-146486651D02*
X171399832Y-146486651D01*
X170882761Y-147693151D01*
X170595499Y-128666649D02*
X171399832Y-128666649D01*
X170882761Y-129873149D01*
X170595499Y-110846647D02*
X171399832Y-110846647D01*
X170882761Y-112053147D01*
X153095497Y-182126655D02*
X153899830Y-182126655D01*
X153382759Y-183333155D01*
X153095497Y-164306653D02*
X153899830Y-164306653D01*
X153382759Y-165513153D01*
X153095497Y-146486651D02*
X153899830Y-146486651D01*
X153382759Y-147693151D01*
X153095497Y-128666649D02*
X153899830Y-128666649D01*
X153382759Y-129873149D01*
X214456481Y-182126655D02*
X214226671Y-182126655D01*
X214111767Y-182184108D01*
X214054314Y-182241560D01*
X213939409Y-182413917D01*
X213881957Y-182643727D01*
X213881957Y-183103346D01*
X213939409Y-183218250D01*
X213996862Y-183275703D01*
X214111767Y-183333155D01*
X214341576Y-183333155D01*
X214456481Y-183275703D01*
X214513933Y-183218250D01*
X214571386Y-183103346D01*
X214571386Y-182816084D01*
X214513933Y-182701179D01*
X214456481Y-182643727D01*
X214341576Y-182586274D01*
X214111767Y-182586274D01*
X213996862Y-182643727D01*
X213939409Y-182701179D01*
X213881957Y-182816084D01*
X214456481Y-164306653D02*
X214226671Y-164306653D01*
X214111767Y-164364106D01*
X214054314Y-164421558D01*
X213939409Y-164593915D01*
X213881957Y-164823725D01*
X213881957Y-165283344D01*
X213939409Y-165398248D01*
X213996862Y-165455701D01*
X214111767Y-165513153D01*
X214341576Y-165513153D01*
X214456481Y-165455701D01*
X214513933Y-165398248D01*
X214571386Y-165283344D01*
X214571386Y-164996082D01*
X214513933Y-164881177D01*
X214456481Y-164823725D01*
X214341576Y-164766272D01*
X214111767Y-164766272D01*
X213996862Y-164823725D01*
X213939409Y-164881177D01*
X213881957Y-164996082D01*
X214456481Y-146486651D02*
X214226671Y-146486651D01*
X214111767Y-146544104D01*
X214054314Y-146601556D01*
X213939409Y-146773913D01*
X213881957Y-147003723D01*
X213881957Y-147463342D01*
X213939409Y-147578246D01*
X213996862Y-147635699D01*
X214111767Y-147693151D01*
X214341576Y-147693151D01*
X214456481Y-147635699D01*
X214513933Y-147578246D01*
X214571386Y-147463342D01*
X214571386Y-147176080D01*
X214513933Y-147061175D01*
X214456481Y-147003723D01*
X214341576Y-146946270D01*
X214111767Y-146946270D01*
X213996862Y-147003723D01*
X213939409Y-147061175D01*
X213881957Y-147176080D01*
X214456481Y-128666649D02*
X214226671Y-128666649D01*
X214111767Y-128724102D01*
X214054314Y-128781554D01*
X213939409Y-128953911D01*
X213881957Y-129183721D01*
X213881957Y-129643340D01*
X213939409Y-129758244D01*
X213996862Y-129815697D01*
X214111767Y-129873149D01*
X214341576Y-129873149D01*
X214456481Y-129815697D01*
X214513933Y-129758244D01*
X214571386Y-129643340D01*
X214571386Y-129356078D01*
X214513933Y-129241173D01*
X214456481Y-129183721D01*
X214341576Y-129126268D01*
X214111767Y-129126268D01*
X213996862Y-129183721D01*
X213939409Y-129241173D01*
X213881957Y-129356078D01*
X214456481Y-110846647D02*
X214226671Y-110846647D01*
X214111767Y-110904100D01*
X214054314Y-110961552D01*
X213939409Y-111133909D01*
X213881957Y-111363719D01*
X213881957Y-111823338D01*
X213939409Y-111938242D01*
X213996862Y-111995695D01*
X214111767Y-112053147D01*
X214341576Y-112053147D01*
X214456481Y-111995695D01*
X214513933Y-111938242D01*
X214571386Y-111823338D01*
X214571386Y-111536076D01*
X214513933Y-111421171D01*
X214456481Y-111363719D01*
X214341576Y-111306266D01*
X214111767Y-111306266D01*
X213996862Y-111363719D01*
X213939409Y-111421171D01*
X213881957Y-111536076D01*
X196956479Y-182126655D02*
X196726669Y-182126655D01*
X196611765Y-182184108D01*
X196554312Y-182241560D01*
X196439407Y-182413917D01*
X196381955Y-182643727D01*
X196381955Y-183103346D01*
X196439407Y-183218250D01*
X196496860Y-183275703D01*
X196611765Y-183333155D01*
X196841574Y-183333155D01*
X196956479Y-183275703D01*
X197013931Y-183218250D01*
X197071384Y-183103346D01*
X197071384Y-182816084D01*
X197013931Y-182701179D01*
X196956479Y-182643727D01*
X196841574Y-182586274D01*
X196611765Y-182586274D01*
X196496860Y-182643727D01*
X196439407Y-182701179D01*
X196381955Y-182816084D01*
X196956479Y-164306653D02*
X196726669Y-164306653D01*
X196611765Y-164364106D01*
X196554312Y-164421558D01*
X196439407Y-164593915D01*
X196381955Y-164823725D01*
X196381955Y-165283344D01*
X196439407Y-165398248D01*
X196496860Y-165455701D01*
X196611765Y-165513153D01*
X196841574Y-165513153D01*
X196956479Y-165455701D01*
X197013931Y-165398248D01*
X197071384Y-165283344D01*
X197071384Y-164996082D01*
X197013931Y-164881177D01*
X196956479Y-164823725D01*
X196841574Y-164766272D01*
X196611765Y-164766272D01*
X196496860Y-164823725D01*
X196439407Y-164881177D01*
X196381955Y-164996082D01*
X196956479Y-146486651D02*
X196726669Y-146486651D01*
X196611765Y-146544104D01*
X196554312Y-146601556D01*
X196439407Y-146773913D01*
X196381955Y-147003723D01*
X196381955Y-147463342D01*
X196439407Y-147578246D01*
X196496860Y-147635699D01*
X196611765Y-147693151D01*
X196841574Y-147693151D01*
X196956479Y-147635699D01*
X197013931Y-147578246D01*
X197071384Y-147463342D01*
X197071384Y-147176080D01*
X197013931Y-147061175D01*
X196956479Y-147003723D01*
X196841574Y-146946270D01*
X196611765Y-146946270D01*
X196496860Y-147003723D01*
X196439407Y-147061175D01*
X196381955Y-147176080D01*
X196956479Y-128666649D02*
X196726669Y-128666649D01*
X196611765Y-128724102D01*
X196554312Y-128781554D01*
X196439407Y-128953911D01*
X196381955Y-129183721D01*
X196381955Y-129643340D01*
X196439407Y-129758244D01*
X196496860Y-129815697D01*
X196611765Y-129873149D01*
X196841574Y-129873149D01*
X196956479Y-129815697D01*
X197013931Y-129758244D01*
X197071384Y-129643340D01*
X197071384Y-129356078D01*
X197013931Y-129241173D01*
X196956479Y-129183721D01*
X196841574Y-129126268D01*
X196611765Y-129126268D01*
X196496860Y-129183721D01*
X196439407Y-129241173D01*
X196381955Y-129356078D01*
X196956479Y-110846647D02*
X196726669Y-110846647D01*
X196611765Y-110904100D01*
X196554312Y-110961552D01*
X196439407Y-111133909D01*
X196381955Y-111363719D01*
X196381955Y-111823338D01*
X196439407Y-111938242D01*
X196496860Y-111995695D01*
X196611765Y-112053147D01*
X196841574Y-112053147D01*
X196956479Y-111995695D01*
X197013931Y-111938242D01*
X197071384Y-111823338D01*
X197071384Y-111536076D01*
X197013931Y-111421171D01*
X196956479Y-111363719D01*
X196841574Y-111306266D01*
X196611765Y-111306266D01*
X196496860Y-111363719D01*
X196439407Y-111421171D01*
X196381955Y-111536076D01*
X179456477Y-182126655D02*
X179226667Y-182126655D01*
X179111763Y-182184108D01*
X179054310Y-182241560D01*
X178939405Y-182413917D01*
X178881953Y-182643727D01*
X178881953Y-183103346D01*
X178939405Y-183218250D01*
X178996858Y-183275703D01*
X179111763Y-183333155D01*
X179341572Y-183333155D01*
X179456477Y-183275703D01*
X179513929Y-183218250D01*
X179571382Y-183103346D01*
X179571382Y-182816084D01*
X179513929Y-182701179D01*
X179456477Y-182643727D01*
X179341572Y-182586274D01*
X179111763Y-182586274D01*
X178996858Y-182643727D01*
X178939405Y-182701179D01*
X178881953Y-182816084D01*
X179456477Y-164306653D02*
X179226667Y-164306653D01*
X179111763Y-164364106D01*
X179054310Y-164421558D01*
X178939405Y-164593915D01*
X178881953Y-164823725D01*
X178881953Y-165283344D01*
X178939405Y-165398248D01*
X178996858Y-165455701D01*
X179111763Y-165513153D01*
X179341572Y-165513153D01*
X179456477Y-165455701D01*
X179513929Y-165398248D01*
X179571382Y-165283344D01*
X179571382Y-164996082D01*
X179513929Y-164881177D01*
X179456477Y-164823725D01*
X179341572Y-164766272D01*
X179111763Y-164766272D01*
X178996858Y-164823725D01*
X178939405Y-164881177D01*
X178881953Y-164996082D01*
X179456477Y-146486651D02*
X179226667Y-146486651D01*
X179111763Y-146544104D01*
X179054310Y-146601556D01*
X178939405Y-146773913D01*
X178881953Y-147003723D01*
X178881953Y-147463342D01*
X178939405Y-147578246D01*
X178996858Y-147635699D01*
X179111763Y-147693151D01*
X179341572Y-147693151D01*
X179456477Y-147635699D01*
X179513929Y-147578246D01*
X179571382Y-147463342D01*
X179571382Y-147176080D01*
X179513929Y-147061175D01*
X179456477Y-147003723D01*
X179341572Y-146946270D01*
X179111763Y-146946270D01*
X178996858Y-147003723D01*
X178939405Y-147061175D01*
X178881953Y-147176080D01*
X179456477Y-128666649D02*
X179226667Y-128666649D01*
X179111763Y-128724102D01*
X179054310Y-128781554D01*
X178939405Y-128953911D01*
X178881953Y-129183721D01*
X178881953Y-129643340D01*
X178939405Y-129758244D01*
X178996858Y-129815697D01*
X179111763Y-129873149D01*
X179341572Y-129873149D01*
X179456477Y-129815697D01*
X179513929Y-129758244D01*
X179571382Y-129643340D01*
X179571382Y-129356078D01*
X179513929Y-129241173D01*
X179456477Y-129183721D01*
X179341572Y-129126268D01*
X179111763Y-129126268D01*
X178996858Y-129183721D01*
X178939405Y-129241173D01*
X178881953Y-129356078D01*
X179456477Y-110846647D02*
X179226667Y-110846647D01*
X179111763Y-110904100D01*
X179054310Y-110961552D01*
X178939405Y-111133909D01*
X178881953Y-111363719D01*
X178881953Y-111823338D01*
X178939405Y-111938242D01*
X178996858Y-111995695D01*
X179111763Y-112053147D01*
X179341572Y-112053147D01*
X179456477Y-111995695D01*
X179513929Y-111938242D01*
X179571382Y-111823338D01*
X179571382Y-111536076D01*
X179513929Y-111421171D01*
X179456477Y-111363719D01*
X179341572Y-111306266D01*
X179111763Y-111306266D01*
X178996858Y-111363719D01*
X178939405Y-111421171D01*
X178881953Y-111536076D01*
X161956475Y-182126655D02*
X161726665Y-182126655D01*
X161611761Y-182184108D01*
X161554308Y-182241560D01*
X161439403Y-182413917D01*
X161381951Y-182643727D01*
X161381951Y-183103346D01*
X161439403Y-183218250D01*
X161496856Y-183275703D01*
X161611761Y-183333155D01*
X161841570Y-183333155D01*
X161956475Y-183275703D01*
X162013927Y-183218250D01*
X162071380Y-183103346D01*
X162071380Y-182816084D01*
X162013927Y-182701179D01*
X161956475Y-182643727D01*
X161841570Y-182586274D01*
X161611761Y-182586274D01*
X161496856Y-182643727D01*
X161439403Y-182701179D01*
X161381951Y-182816084D01*
X161956475Y-164306653D02*
X161726665Y-164306653D01*
X161611761Y-164364106D01*
X161554308Y-164421558D01*
X161439403Y-164593915D01*
X161381951Y-164823725D01*
X161381951Y-165283344D01*
X161439403Y-165398248D01*
X161496856Y-165455701D01*
X161611761Y-165513153D01*
X161841570Y-165513153D01*
X161956475Y-165455701D01*
X162013927Y-165398248D01*
X162071380Y-165283344D01*
X162071380Y-164996082D01*
X162013927Y-164881177D01*
X161956475Y-164823725D01*
X161841570Y-164766272D01*
X161611761Y-164766272D01*
X161496856Y-164823725D01*
X161439403Y-164881177D01*
X161381951Y-164996082D01*
X161956475Y-146486651D02*
X161726665Y-146486651D01*
X161611761Y-146544104D01*
X161554308Y-146601556D01*
X161439403Y-146773913D01*
X161381951Y-147003723D01*
X161381951Y-147463342D01*
X161439403Y-147578246D01*
X161496856Y-147635699D01*
X161611761Y-147693151D01*
X161841570Y-147693151D01*
X161956475Y-147635699D01*
X162013927Y-147578246D01*
X162071380Y-147463342D01*
X162071380Y-147176080D01*
X162013927Y-147061175D01*
X161956475Y-147003723D01*
X161841570Y-146946270D01*
X161611761Y-146946270D01*
X161496856Y-147003723D01*
X161439403Y-147061175D01*
X161381951Y-147176080D01*
X161956475Y-128666649D02*
X161726665Y-128666649D01*
X161611761Y-128724102D01*
X161554308Y-128781554D01*
X161439403Y-128953911D01*
X161381951Y-129183721D01*
X161381951Y-129643340D01*
X161439403Y-129758244D01*
X161496856Y-129815697D01*
X161611761Y-129873149D01*
X161841570Y-129873149D01*
X161956475Y-129815697D01*
X162013927Y-129758244D01*
X162071380Y-129643340D01*
X162071380Y-129356078D01*
X162013927Y-129241173D01*
X161956475Y-129183721D01*
X161841570Y-129126268D01*
X161611761Y-129126268D01*
X161496856Y-129183721D01*
X161439403Y-129241173D01*
X161381951Y-129356078D01*
X161956475Y-110846647D02*
X161726665Y-110846647D01*
X161611761Y-110904100D01*
X161554308Y-110961552D01*
X161439403Y-111133909D01*
X161381951Y-111363719D01*
X161381951Y-111823338D01*
X161439403Y-111938242D01*
X161496856Y-111995695D01*
X161611761Y-112053147D01*
X161841570Y-112053147D01*
X161956475Y-111995695D01*
X162013927Y-111938242D01*
X162071380Y-111823338D01*
X162071380Y-111536076D01*
X162013927Y-111421171D01*
X161956475Y-111363719D01*
X161841570Y-111306266D01*
X161611761Y-111306266D01*
X161496856Y-111363719D01*
X161439403Y-111421171D01*
X161381951Y-111536076D01*
X144456473Y-182126655D02*
X144226663Y-182126655D01*
X144111759Y-182184108D01*
X144054306Y-182241560D01*
X143939401Y-182413917D01*
X143881949Y-182643727D01*
X143881949Y-183103346D01*
X143939401Y-183218250D01*
X143996854Y-183275703D01*
X144111759Y-183333155D01*
X144341568Y-183333155D01*
X144456473Y-183275703D01*
X144513925Y-183218250D01*
X144571378Y-183103346D01*
X144571378Y-182816084D01*
X144513925Y-182701179D01*
X144456473Y-182643727D01*
X144341568Y-182586274D01*
X144111759Y-182586274D01*
X143996854Y-182643727D01*
X143939401Y-182701179D01*
X143881949Y-182816084D01*
X144456473Y-164306653D02*
X144226663Y-164306653D01*
X144111759Y-164364106D01*
X144054306Y-164421558D01*
X143939401Y-164593915D01*
X143881949Y-164823725D01*
X143881949Y-165283344D01*
X143939401Y-165398248D01*
X143996854Y-165455701D01*
X144111759Y-165513153D01*
X144341568Y-165513153D01*
X144456473Y-165455701D01*
X144513925Y-165398248D01*
X144571378Y-165283344D01*
X144571378Y-164996082D01*
X144513925Y-164881177D01*
X144456473Y-164823725D01*
X144341568Y-164766272D01*
X144111759Y-164766272D01*
X143996854Y-164823725D01*
X143939401Y-164881177D01*
X143881949Y-164996082D01*
X144456473Y-146486651D02*
X144226663Y-146486651D01*
X144111759Y-146544104D01*
X144054306Y-146601556D01*
X143939401Y-146773913D01*
X143881949Y-147003723D01*
X143881949Y-147463342D01*
X143939401Y-147578246D01*
X143996854Y-147635699D01*
X144111759Y-147693151D01*
X144341568Y-147693151D01*
X144456473Y-147635699D01*
X144513925Y-147578246D01*
X144571378Y-147463342D01*
X144571378Y-147176080D01*
X144513925Y-147061175D01*
X144456473Y-147003723D01*
X144341568Y-146946270D01*
X144111759Y-146946270D01*
X143996854Y-147003723D01*
X143939401Y-147061175D01*
X143881949Y-147176080D01*
X144456473Y-128666649D02*
X144226663Y-128666649D01*
X144111759Y-128724102D01*
X144054306Y-128781554D01*
X143939401Y-128953911D01*
X143881949Y-129183721D01*
X143881949Y-129643340D01*
X143939401Y-129758244D01*
X143996854Y-129815697D01*
X144111759Y-129873149D01*
X144341568Y-129873149D01*
X144456473Y-129815697D01*
X144513925Y-129758244D01*
X144571378Y-129643340D01*
X144571378Y-129356078D01*
X144513925Y-129241173D01*
X144456473Y-129183721D01*
X144341568Y-129126268D01*
X144111759Y-129126268D01*
X143996854Y-129183721D01*
X143939401Y-129241173D01*
X143881949Y-129356078D01*
X214571386Y-170379155D02*
X213881957Y-170379155D01*
X214226671Y-170379155D02*
X214226671Y-169172655D01*
X214111767Y-169345012D01*
X213996862Y-169459917D01*
X213881957Y-169517369D01*
X214571386Y-152559153D02*
X213881957Y-152559153D01*
X214226671Y-152559153D02*
X214226671Y-151352653D01*
X214111767Y-151525010D01*
X213996862Y-151639915D01*
X213881957Y-151697367D01*
X214571386Y-134739151D02*
X213881957Y-134739151D01*
X214226671Y-134739151D02*
X214226671Y-133532651D01*
X214111767Y-133705008D01*
X213996862Y-133819913D01*
X213881957Y-133877365D01*
X214571386Y-116919149D02*
X213881957Y-116919149D01*
X214226671Y-116919149D02*
X214226671Y-115712649D01*
X214111767Y-115885006D01*
X213996862Y-115999911D01*
X213881957Y-116057363D01*
X214571386Y-99099147D02*
X213881957Y-99099147D01*
X214226671Y-99099147D02*
X214226671Y-97892647D01*
X214111767Y-98065004D01*
X213996862Y-98179909D01*
X213881957Y-98237361D01*
X197071384Y-170379155D02*
X196381955Y-170379155D01*
X196726669Y-170379155D02*
X196726669Y-169172655D01*
X196611765Y-169345012D01*
X196496860Y-169459917D01*
X196381955Y-169517369D01*
X197071384Y-152559153D02*
X196381955Y-152559153D01*
X196726669Y-152559153D02*
X196726669Y-151352653D01*
X196611765Y-151525010D01*
X196496860Y-151639915D01*
X196381955Y-151697367D01*
X197071384Y-134739151D02*
X196381955Y-134739151D01*
X196726669Y-134739151D02*
X196726669Y-133532651D01*
X196611765Y-133705008D01*
X196496860Y-133819913D01*
X196381955Y-133877365D01*
X197071384Y-116919149D02*
X196381955Y-116919149D01*
X196726669Y-116919149D02*
X196726669Y-115712649D01*
X196611765Y-115885006D01*
X196496860Y-115999911D01*
X196381955Y-116057363D01*
X197071384Y-99099147D02*
X196381955Y-99099147D01*
X196726669Y-99099147D02*
X196726669Y-97892647D01*
X196611765Y-98065004D01*
X196496860Y-98179909D01*
X196381955Y-98237361D01*
X179571382Y-170379155D02*
X178881953Y-170379155D01*
X179226667Y-170379155D02*
X179226667Y-169172655D01*
X179111763Y-169345012D01*
X178996858Y-169459917D01*
X178881953Y-169517369D01*
X179571382Y-152559153D02*
X178881953Y-152559153D01*
X179226667Y-152559153D02*
X179226667Y-151352653D01*
X179111763Y-151525010D01*
X178996858Y-151639915D01*
X178881953Y-151697367D01*
X179571382Y-134739151D02*
X178881953Y-134739151D01*
X179226667Y-134739151D02*
X179226667Y-133532651D01*
X179111763Y-133705008D01*
X178996858Y-133819913D01*
X178881953Y-133877365D01*
X179571382Y-116919149D02*
X178881953Y-116919149D01*
X179226667Y-116919149D02*
X179226667Y-115712649D01*
X179111763Y-115885006D01*
X178996858Y-115999911D01*
X178881953Y-116057363D01*
X179571382Y-99099147D02*
X178881953Y-99099147D01*
X179226667Y-99099147D02*
X179226667Y-97892647D01*
X179111763Y-98065004D01*
X178996858Y-98179909D01*
X178881953Y-98237361D01*
X162071380Y-170379155D02*
X161381951Y-170379155D01*
X161726665Y-170379155D02*
X161726665Y-169172655D01*
X161611761Y-169345012D01*
X161496856Y-169459917D01*
X161381951Y-169517369D01*
X162071380Y-152559153D02*
X161381951Y-152559153D01*
X161726665Y-152559153D02*
X161726665Y-151352653D01*
X161611761Y-151525010D01*
X161496856Y-151639915D01*
X161381951Y-151697367D01*
X162071380Y-134739151D02*
X161381951Y-134739151D01*
X161726665Y-134739151D02*
X161726665Y-133532651D01*
X161611761Y-133705008D01*
X161496856Y-133819913D01*
X161381951Y-133877365D01*
X162071380Y-116919149D02*
X161381951Y-116919149D01*
X161726665Y-116919149D02*
X161726665Y-115712649D01*
X161611761Y-115885006D01*
X161496856Y-115999911D01*
X161381951Y-116057363D01*
X162071380Y-99099147D02*
X161381951Y-99099147D01*
X161726665Y-99099147D02*
X161726665Y-97892647D01*
X161611761Y-98065004D01*
X161496856Y-98179909D01*
X161381951Y-98237361D01*
X144571378Y-170379155D02*
X143881949Y-170379155D01*
X144226663Y-170379155D02*
X144226663Y-169172655D01*
X144111759Y-169345012D01*
X143996854Y-169459917D01*
X143881949Y-169517369D01*
X144571378Y-152559153D02*
X143881949Y-152559153D01*
X144226663Y-152559153D02*
X144226663Y-151352653D01*
X144111759Y-151525010D01*
X143996854Y-151639915D01*
X143881949Y-151697367D01*
X144571378Y-134739151D02*
X143881949Y-134739151D01*
X144226663Y-134739151D02*
X144226663Y-133532651D01*
X144111759Y-133705008D01*
X143996854Y-133819913D01*
X143881949Y-133877365D01*
X144571378Y-116919149D02*
X143881949Y-116919149D01*
X144226663Y-116919149D02*
X144226663Y-115712649D01*
X144111759Y-115885006D01*
X143996854Y-115999911D01*
X143881949Y-116057363D01*
X215659957Y-182259703D02*
X215832314Y-182317155D01*
X216119576Y-182317155D01*
X216234481Y-182259703D01*
X216291933Y-182202250D01*
X216349386Y-182087346D01*
X216349386Y-181972441D01*
X216291933Y-181857536D01*
X216234481Y-181800084D01*
X216119576Y-181742631D01*
X215889767Y-181685179D01*
X215774862Y-181627727D01*
X215717409Y-181570274D01*
X215659957Y-181455369D01*
X215659957Y-181340465D01*
X215717409Y-181225560D01*
X215774862Y-181168108D01*
X215889767Y-181110655D01*
X216177028Y-181110655D01*
X216349386Y-181168108D01*
X217096267Y-181110655D02*
X217326076Y-181110655D01*
X217440981Y-181168108D01*
X217555886Y-181283012D01*
X217613338Y-181512822D01*
X217613338Y-181914988D01*
X217555886Y-182144798D01*
X217440981Y-182259703D01*
X217326076Y-182317155D01*
X217096267Y-182317155D01*
X216981362Y-182259703D01*
X216866457Y-182144798D01*
X216809005Y-181914988D01*
X216809005Y-181512822D01*
X216866457Y-181283012D01*
X216981362Y-181168108D01*
X217096267Y-181110655D01*
X218130409Y-182317155D02*
X218130409Y-181110655D01*
X219394362Y-182202250D02*
X219336909Y-182259703D01*
X219164552Y-182317155D01*
X219049648Y-182317155D01*
X218877290Y-182259703D01*
X218762386Y-182144798D01*
X218704933Y-182029893D01*
X218647481Y-181800084D01*
X218647481Y-181627727D01*
X218704933Y-181397917D01*
X218762386Y-181283012D01*
X218877290Y-181168108D01*
X219049648Y-181110655D01*
X219164552Y-181110655D01*
X219336909Y-181168108D01*
X219394362Y-181225560D01*
X219911433Y-181857536D02*
X220830671Y-181857536D01*
X222037171Y-182317155D02*
X221347743Y-182317155D01*
X221692457Y-182317155D02*
X221692457Y-181110655D01*
X221577552Y-181283012D01*
X221462648Y-181397917D01*
X221347743Y-181455369D01*
X222496790Y-181225560D02*
X222554243Y-181168108D01*
X222669148Y-181110655D01*
X222956409Y-181110655D01*
X223071314Y-181168108D01*
X223128767Y-181225560D01*
X223186219Y-181340465D01*
X223186219Y-181455369D01*
X223128767Y-181627727D01*
X222439338Y-182317155D01*
X223186219Y-182317155D01*
X215659957Y-164439701D02*
X215832314Y-164497153D01*
X216119576Y-164497153D01*
X216234481Y-164439701D01*
X216291933Y-164382248D01*
X216349386Y-164267344D01*
X216349386Y-164152439D01*
X216291933Y-164037534D01*
X216234481Y-163980082D01*
X216119576Y-163922629D01*
X215889767Y-163865177D01*
X215774862Y-163807725D01*
X215717409Y-163750272D01*
X215659957Y-163635367D01*
X215659957Y-163520463D01*
X215717409Y-163405558D01*
X215774862Y-163348106D01*
X215889767Y-163290653D01*
X216177028Y-163290653D01*
X216349386Y-163348106D01*
X217096267Y-163290653D02*
X217326076Y-163290653D01*
X217440981Y-163348106D01*
X217555886Y-163463010D01*
X217613338Y-163692820D01*
X217613338Y-164094986D01*
X217555886Y-164324796D01*
X217440981Y-164439701D01*
X217326076Y-164497153D01*
X217096267Y-164497153D01*
X216981362Y-164439701D01*
X216866457Y-164324796D01*
X216809005Y-164094986D01*
X216809005Y-163692820D01*
X216866457Y-163463010D01*
X216981362Y-163348106D01*
X217096267Y-163290653D01*
X218130409Y-164497153D02*
X218130409Y-163290653D01*
X219394362Y-164382248D02*
X219336909Y-164439701D01*
X219164552Y-164497153D01*
X219049648Y-164497153D01*
X218877290Y-164439701D01*
X218762386Y-164324796D01*
X218704933Y-164209891D01*
X218647481Y-163980082D01*
X218647481Y-163807725D01*
X218704933Y-163577915D01*
X218762386Y-163463010D01*
X218877290Y-163348106D01*
X219049648Y-163290653D01*
X219164552Y-163290653D01*
X219336909Y-163348106D01*
X219394362Y-163405558D01*
X219911433Y-164037534D02*
X220830671Y-164037534D01*
X222037171Y-164497153D02*
X221347743Y-164497153D01*
X221692457Y-164497153D02*
X221692457Y-163290653D01*
X221577552Y-163463010D01*
X221462648Y-163577915D01*
X221347743Y-163635367D01*
X222496790Y-163405558D02*
X222554243Y-163348106D01*
X222669148Y-163290653D01*
X222956409Y-163290653D01*
X223071314Y-163348106D01*
X223128767Y-163405558D01*
X223186219Y-163520463D01*
X223186219Y-163635367D01*
X223128767Y-163807725D01*
X222439338Y-164497153D01*
X223186219Y-164497153D01*
X215659957Y-146619699D02*
X215832314Y-146677151D01*
X216119576Y-146677151D01*
X216234481Y-146619699D01*
X216291933Y-146562246D01*
X216349386Y-146447342D01*
X216349386Y-146332437D01*
X216291933Y-146217532D01*
X216234481Y-146160080D01*
X216119576Y-146102627D01*
X215889767Y-146045175D01*
X215774862Y-145987723D01*
X215717409Y-145930270D01*
X215659957Y-145815365D01*
X215659957Y-145700461D01*
X215717409Y-145585556D01*
X215774862Y-145528104D01*
X215889767Y-145470651D01*
X216177028Y-145470651D01*
X216349386Y-145528104D01*
X217096267Y-145470651D02*
X217326076Y-145470651D01*
X217440981Y-145528104D01*
X217555886Y-145643008D01*
X217613338Y-145872818D01*
X217613338Y-146274984D01*
X217555886Y-146504794D01*
X217440981Y-146619699D01*
X217326076Y-146677151D01*
X217096267Y-146677151D01*
X216981362Y-146619699D01*
X216866457Y-146504794D01*
X216809005Y-146274984D01*
X216809005Y-145872818D01*
X216866457Y-145643008D01*
X216981362Y-145528104D01*
X217096267Y-145470651D01*
X218130409Y-146677151D02*
X218130409Y-145470651D01*
X219394362Y-146562246D02*
X219336909Y-146619699D01*
X219164552Y-146677151D01*
X219049648Y-146677151D01*
X218877290Y-146619699D01*
X218762386Y-146504794D01*
X218704933Y-146389889D01*
X218647481Y-146160080D01*
X218647481Y-145987723D01*
X218704933Y-145757913D01*
X218762386Y-145643008D01*
X218877290Y-145528104D01*
X219049648Y-145470651D01*
X219164552Y-145470651D01*
X219336909Y-145528104D01*
X219394362Y-145585556D01*
X219911433Y-146217532D02*
X220830671Y-146217532D01*
X222037171Y-146677151D02*
X221347743Y-146677151D01*
X221692457Y-146677151D02*
X221692457Y-145470651D01*
X221577552Y-145643008D01*
X221462648Y-145757913D01*
X221347743Y-145815365D01*
X222496790Y-145585556D02*
X222554243Y-145528104D01*
X222669148Y-145470651D01*
X222956409Y-145470651D01*
X223071314Y-145528104D01*
X223128767Y-145585556D01*
X223186219Y-145700461D01*
X223186219Y-145815365D01*
X223128767Y-145987723D01*
X222439338Y-146677151D01*
X223186219Y-146677151D01*
X215659957Y-128799697D02*
X215832314Y-128857149D01*
X216119576Y-128857149D01*
X216234481Y-128799697D01*
X216291933Y-128742244D01*
X216349386Y-128627340D01*
X216349386Y-128512435D01*
X216291933Y-128397530D01*
X216234481Y-128340078D01*
X216119576Y-128282625D01*
X215889767Y-128225173D01*
X215774862Y-128167721D01*
X215717409Y-128110268D01*
X215659957Y-127995363D01*
X215659957Y-127880459D01*
X215717409Y-127765554D01*
X215774862Y-127708102D01*
X215889767Y-127650649D01*
X216177028Y-127650649D01*
X216349386Y-127708102D01*
X217096267Y-127650649D02*
X217326076Y-127650649D01*
X217440981Y-127708102D01*
X217555886Y-127823006D01*
X217613338Y-128052816D01*
X217613338Y-128454982D01*
X217555886Y-128684792D01*
X217440981Y-128799697D01*
X217326076Y-128857149D01*
X217096267Y-128857149D01*
X216981362Y-128799697D01*
X216866457Y-128684792D01*
X216809005Y-128454982D01*
X216809005Y-128052816D01*
X216866457Y-127823006D01*
X216981362Y-127708102D01*
X217096267Y-127650649D01*
X218130409Y-128857149D02*
X218130409Y-127650649D01*
X219394362Y-128742244D02*
X219336909Y-128799697D01*
X219164552Y-128857149D01*
X219049648Y-128857149D01*
X218877290Y-128799697D01*
X218762386Y-128684792D01*
X218704933Y-128569887D01*
X218647481Y-128340078D01*
X218647481Y-128167721D01*
X218704933Y-127937911D01*
X218762386Y-127823006D01*
X218877290Y-127708102D01*
X219049648Y-127650649D01*
X219164552Y-127650649D01*
X219336909Y-127708102D01*
X219394362Y-127765554D01*
X219911433Y-128397530D02*
X220830671Y-128397530D01*
X222037171Y-128857149D02*
X221347743Y-128857149D01*
X221692457Y-128857149D02*
X221692457Y-127650649D01*
X221577552Y-127823006D01*
X221462648Y-127937911D01*
X221347743Y-127995363D01*
X222496790Y-127765554D02*
X222554243Y-127708102D01*
X222669148Y-127650649D01*
X222956409Y-127650649D01*
X223071314Y-127708102D01*
X223128767Y-127765554D01*
X223186219Y-127880459D01*
X223186219Y-127995363D01*
X223128767Y-128167721D01*
X222439338Y-128857149D01*
X223186219Y-128857149D01*
X215659957Y-110979695D02*
X215832314Y-111037147D01*
X216119576Y-111037147D01*
X216234481Y-110979695D01*
X216291933Y-110922242D01*
X216349386Y-110807338D01*
X216349386Y-110692433D01*
X216291933Y-110577528D01*
X216234481Y-110520076D01*
X216119576Y-110462623D01*
X215889767Y-110405171D01*
X215774862Y-110347719D01*
X215717409Y-110290266D01*
X215659957Y-110175361D01*
X215659957Y-110060457D01*
X215717409Y-109945552D01*
X215774862Y-109888100D01*
X215889767Y-109830647D01*
X216177028Y-109830647D01*
X216349386Y-109888100D01*
X217096267Y-109830647D02*
X217326076Y-109830647D01*
X217440981Y-109888100D01*
X217555886Y-110003004D01*
X217613338Y-110232814D01*
X217613338Y-110634980D01*
X217555886Y-110864790D01*
X217440981Y-110979695D01*
X217326076Y-111037147D01*
X217096267Y-111037147D01*
X216981362Y-110979695D01*
X216866457Y-110864790D01*
X216809005Y-110634980D01*
X216809005Y-110232814D01*
X216866457Y-110003004D01*
X216981362Y-109888100D01*
X217096267Y-109830647D01*
X218130409Y-111037147D02*
X218130409Y-109830647D01*
X219394362Y-110922242D02*
X219336909Y-110979695D01*
X219164552Y-111037147D01*
X219049648Y-111037147D01*
X218877290Y-110979695D01*
X218762386Y-110864790D01*
X218704933Y-110749885D01*
X218647481Y-110520076D01*
X218647481Y-110347719D01*
X218704933Y-110117909D01*
X218762386Y-110003004D01*
X218877290Y-109888100D01*
X219049648Y-109830647D01*
X219164552Y-109830647D01*
X219336909Y-109888100D01*
X219394362Y-109945552D01*
X219911433Y-110577528D02*
X220830671Y-110577528D01*
X222037171Y-111037147D02*
X221347743Y-111037147D01*
X221692457Y-111037147D02*
X221692457Y-109830647D01*
X221577552Y-110003004D01*
X221462648Y-110117909D01*
X221347743Y-110175361D01*
X222496790Y-109945552D02*
X222554243Y-109888100D01*
X222669148Y-109830647D01*
X222956409Y-109830647D01*
X223071314Y-109888100D01*
X223128767Y-109945552D01*
X223186219Y-110060457D01*
X223186219Y-110175361D01*
X223128767Y-110347719D01*
X222439338Y-111037147D01*
X223186219Y-111037147D01*
X198159955Y-182259703D02*
X198332312Y-182317155D01*
X198619574Y-182317155D01*
X198734479Y-182259703D01*
X198791931Y-182202250D01*
X198849384Y-182087346D01*
X198849384Y-181972441D01*
X198791931Y-181857536D01*
X198734479Y-181800084D01*
X198619574Y-181742631D01*
X198389765Y-181685179D01*
X198274860Y-181627727D01*
X198217407Y-181570274D01*
X198159955Y-181455369D01*
X198159955Y-181340465D01*
X198217407Y-181225560D01*
X198274860Y-181168108D01*
X198389765Y-181110655D01*
X198677026Y-181110655D01*
X198849384Y-181168108D01*
X199596265Y-181110655D02*
X199826074Y-181110655D01*
X199940979Y-181168108D01*
X200055884Y-181283012D01*
X200113336Y-181512822D01*
X200113336Y-181914988D01*
X200055884Y-182144798D01*
X199940979Y-182259703D01*
X199826074Y-182317155D01*
X199596265Y-182317155D01*
X199481360Y-182259703D01*
X199366455Y-182144798D01*
X199309003Y-181914988D01*
X199309003Y-181512822D01*
X199366455Y-181283012D01*
X199481360Y-181168108D01*
X199596265Y-181110655D01*
X200630407Y-182317155D02*
X200630407Y-181110655D01*
X201894360Y-182202250D02*
X201836907Y-182259703D01*
X201664550Y-182317155D01*
X201549646Y-182317155D01*
X201377288Y-182259703D01*
X201262384Y-182144798D01*
X201204931Y-182029893D01*
X201147479Y-181800084D01*
X201147479Y-181627727D01*
X201204931Y-181397917D01*
X201262384Y-181283012D01*
X201377288Y-181168108D01*
X201549646Y-181110655D01*
X201664550Y-181110655D01*
X201836907Y-181168108D01*
X201894360Y-181225560D01*
X202411431Y-181857536D02*
X203330669Y-181857536D01*
X204537169Y-182317155D02*
X203847741Y-182317155D01*
X204192455Y-182317155D02*
X204192455Y-181110655D01*
X204077550Y-181283012D01*
X203962646Y-181397917D01*
X203847741Y-181455369D01*
X204996788Y-181225560D02*
X205054241Y-181168108D01*
X205169146Y-181110655D01*
X205456407Y-181110655D01*
X205571312Y-181168108D01*
X205628765Y-181225560D01*
X205686217Y-181340465D01*
X205686217Y-181455369D01*
X205628765Y-181627727D01*
X204939336Y-182317155D01*
X205686217Y-182317155D01*
X198159955Y-164439701D02*
X198332312Y-164497153D01*
X198619574Y-164497153D01*
X198734479Y-164439701D01*
X198791931Y-164382248D01*
X198849384Y-164267344D01*
X198849384Y-164152439D01*
X198791931Y-164037534D01*
X198734479Y-163980082D01*
X198619574Y-163922629D01*
X198389765Y-163865177D01*
X198274860Y-163807725D01*
X198217407Y-163750272D01*
X198159955Y-163635367D01*
X198159955Y-163520463D01*
X198217407Y-163405558D01*
X198274860Y-163348106D01*
X198389765Y-163290653D01*
X198677026Y-163290653D01*
X198849384Y-163348106D01*
X199596265Y-163290653D02*
X199826074Y-163290653D01*
X199940979Y-163348106D01*
X200055884Y-163463010D01*
X200113336Y-163692820D01*
X200113336Y-164094986D01*
X200055884Y-164324796D01*
X199940979Y-164439701D01*
X199826074Y-164497153D01*
X199596265Y-164497153D01*
X199481360Y-164439701D01*
X199366455Y-164324796D01*
X199309003Y-164094986D01*
X199309003Y-163692820D01*
X199366455Y-163463010D01*
X199481360Y-163348106D01*
X199596265Y-163290653D01*
X200630407Y-164497153D02*
X200630407Y-163290653D01*
X201894360Y-164382248D02*
X201836907Y-164439701D01*
X201664550Y-164497153D01*
X201549646Y-164497153D01*
X201377288Y-164439701D01*
X201262384Y-164324796D01*
X201204931Y-164209891D01*
X201147479Y-163980082D01*
X201147479Y-163807725D01*
X201204931Y-163577915D01*
X201262384Y-163463010D01*
X201377288Y-163348106D01*
X201549646Y-163290653D01*
X201664550Y-163290653D01*
X201836907Y-163348106D01*
X201894360Y-163405558D01*
X202411431Y-164037534D02*
X203330669Y-164037534D01*
X204537169Y-164497153D02*
X203847741Y-164497153D01*
X204192455Y-164497153D02*
X204192455Y-163290653D01*
X204077550Y-163463010D01*
X203962646Y-163577915D01*
X203847741Y-163635367D01*
X204996788Y-163405558D02*
X205054241Y-163348106D01*
X205169146Y-163290653D01*
X205456407Y-163290653D01*
X205571312Y-163348106D01*
X205628765Y-163405558D01*
X205686217Y-163520463D01*
X205686217Y-163635367D01*
X205628765Y-163807725D01*
X204939336Y-164497153D01*
X205686217Y-164497153D01*
X198159955Y-146619699D02*
X198332312Y-146677151D01*
X198619574Y-146677151D01*
X198734479Y-146619699D01*
X198791931Y-146562246D01*
X198849384Y-146447342D01*
X198849384Y-146332437D01*
X198791931Y-146217532D01*
X198734479Y-146160080D01*
X198619574Y-146102627D01*
X198389765Y-146045175D01*
X198274860Y-145987723D01*
X198217407Y-145930270D01*
X198159955Y-145815365D01*
X198159955Y-145700461D01*
X198217407Y-145585556D01*
X198274860Y-145528104D01*
X198389765Y-145470651D01*
X198677026Y-145470651D01*
X198849384Y-145528104D01*
X199596265Y-145470651D02*
X199826074Y-145470651D01*
X199940979Y-145528104D01*
X200055884Y-145643008D01*
X200113336Y-145872818D01*
X200113336Y-146274984D01*
X200055884Y-146504794D01*
X199940979Y-146619699D01*
X199826074Y-146677151D01*
X199596265Y-146677151D01*
X199481360Y-146619699D01*
X199366455Y-146504794D01*
X199309003Y-146274984D01*
X199309003Y-145872818D01*
X199366455Y-145643008D01*
X199481360Y-145528104D01*
X199596265Y-145470651D01*
X200630407Y-146677151D02*
X200630407Y-145470651D01*
X201894360Y-146562246D02*
X201836907Y-146619699D01*
X201664550Y-146677151D01*
X201549646Y-146677151D01*
X201377288Y-146619699D01*
X201262384Y-146504794D01*
X201204931Y-146389889D01*
X201147479Y-146160080D01*
X201147479Y-145987723D01*
X201204931Y-145757913D01*
X201262384Y-145643008D01*
X201377288Y-145528104D01*
X201549646Y-145470651D01*
X201664550Y-145470651D01*
X201836907Y-145528104D01*
X201894360Y-145585556D01*
X202411431Y-146217532D02*
X203330669Y-146217532D01*
X204537169Y-146677151D02*
X203847741Y-146677151D01*
X204192455Y-146677151D02*
X204192455Y-145470651D01*
X204077550Y-145643008D01*
X203962646Y-145757913D01*
X203847741Y-145815365D01*
X204996788Y-145585556D02*
X205054241Y-145528104D01*
X205169146Y-145470651D01*
X205456407Y-145470651D01*
X205571312Y-145528104D01*
X205628765Y-145585556D01*
X205686217Y-145700461D01*
X205686217Y-145815365D01*
X205628765Y-145987723D01*
X204939336Y-146677151D01*
X205686217Y-146677151D01*
X198159955Y-128799697D02*
X198332312Y-128857149D01*
X198619574Y-128857149D01*
X198734479Y-128799697D01*
X198791931Y-128742244D01*
X198849384Y-128627340D01*
X198849384Y-128512435D01*
X198791931Y-128397530D01*
X198734479Y-128340078D01*
X198619574Y-128282625D01*
X198389765Y-128225173D01*
X198274860Y-128167721D01*
X198217407Y-128110268D01*
X198159955Y-127995363D01*
X198159955Y-127880459D01*
X198217407Y-127765554D01*
X198274860Y-127708102D01*
X198389765Y-127650649D01*
X198677026Y-127650649D01*
X198849384Y-127708102D01*
X199596265Y-127650649D02*
X199826074Y-127650649D01*
X199940979Y-127708102D01*
X200055884Y-127823006D01*
X200113336Y-128052816D01*
X200113336Y-128454982D01*
X200055884Y-128684792D01*
X199940979Y-128799697D01*
X199826074Y-128857149D01*
X199596265Y-128857149D01*
X199481360Y-128799697D01*
X199366455Y-128684792D01*
X199309003Y-128454982D01*
X199309003Y-128052816D01*
X199366455Y-127823006D01*
X199481360Y-127708102D01*
X199596265Y-127650649D01*
X200630407Y-128857149D02*
X200630407Y-127650649D01*
X201894360Y-128742244D02*
X201836907Y-128799697D01*
X201664550Y-128857149D01*
X201549646Y-128857149D01*
X201377288Y-128799697D01*
X201262384Y-128684792D01*
X201204931Y-128569887D01*
X201147479Y-128340078D01*
X201147479Y-128167721D01*
X201204931Y-127937911D01*
X201262384Y-127823006D01*
X201377288Y-127708102D01*
X201549646Y-127650649D01*
X201664550Y-127650649D01*
X201836907Y-127708102D01*
X201894360Y-127765554D01*
X202411431Y-128397530D02*
X203330669Y-128397530D01*
X204537169Y-128857149D02*
X203847741Y-128857149D01*
X204192455Y-128857149D02*
X204192455Y-127650649D01*
X204077550Y-127823006D01*
X203962646Y-127937911D01*
X203847741Y-127995363D01*
X204996788Y-127765554D02*
X205054241Y-127708102D01*
X205169146Y-127650649D01*
X205456407Y-127650649D01*
X205571312Y-127708102D01*
X205628765Y-127765554D01*
X205686217Y-127880459D01*
X205686217Y-127995363D01*
X205628765Y-128167721D01*
X204939336Y-128857149D01*
X205686217Y-128857149D01*
X198159955Y-110979695D02*
X198332312Y-111037147D01*
X198619574Y-111037147D01*
X198734479Y-110979695D01*
X198791931Y-110922242D01*
X198849384Y-110807338D01*
X198849384Y-110692433D01*
X198791931Y-110577528D01*
X198734479Y-110520076D01*
X198619574Y-110462623D01*
X198389765Y-110405171D01*
X198274860Y-110347719D01*
X198217407Y-110290266D01*
X198159955Y-110175361D01*
X198159955Y-110060457D01*
X198217407Y-109945552D01*
X198274860Y-109888100D01*
X198389765Y-109830647D01*
X198677026Y-109830647D01*
X198849384Y-109888100D01*
X199596265Y-109830647D02*
X199826074Y-109830647D01*
X199940979Y-109888100D01*
X200055884Y-110003004D01*
X200113336Y-110232814D01*
X200113336Y-110634980D01*
X200055884Y-110864790D01*
X199940979Y-110979695D01*
X199826074Y-111037147D01*
X199596265Y-111037147D01*
X199481360Y-110979695D01*
X199366455Y-110864790D01*
X199309003Y-110634980D01*
X199309003Y-110232814D01*
X199366455Y-110003004D01*
X199481360Y-109888100D01*
X199596265Y-109830647D01*
X200630407Y-111037147D02*
X200630407Y-109830647D01*
X201894360Y-110922242D02*
X201836907Y-110979695D01*
X201664550Y-111037147D01*
X201549646Y-111037147D01*
X201377288Y-110979695D01*
X201262384Y-110864790D01*
X201204931Y-110749885D01*
X201147479Y-110520076D01*
X201147479Y-110347719D01*
X201204931Y-110117909D01*
X201262384Y-110003004D01*
X201377288Y-109888100D01*
X201549646Y-109830647D01*
X201664550Y-109830647D01*
X201836907Y-109888100D01*
X201894360Y-109945552D01*
X202411431Y-110577528D02*
X203330669Y-110577528D01*
X204537169Y-111037147D02*
X203847741Y-111037147D01*
X204192455Y-111037147D02*
X204192455Y-109830647D01*
X204077550Y-110003004D01*
X203962646Y-110117909D01*
X203847741Y-110175361D01*
X204996788Y-109945552D02*
X205054241Y-109888100D01*
X205169146Y-109830647D01*
X205456407Y-109830647D01*
X205571312Y-109888100D01*
X205628765Y-109945552D01*
X205686217Y-110060457D01*
X205686217Y-110175361D01*
X205628765Y-110347719D01*
X204939336Y-111037147D01*
X205686217Y-111037147D01*
X180659953Y-182259703D02*
X180832310Y-182317155D01*
X181119572Y-182317155D01*
X181234477Y-182259703D01*
X181291929Y-182202250D01*
X181349382Y-182087346D01*
X181349382Y-181972441D01*
X181291929Y-181857536D01*
X181234477Y-181800084D01*
X181119572Y-181742631D01*
X180889763Y-181685179D01*
X180774858Y-181627727D01*
X180717405Y-181570274D01*
X180659953Y-181455369D01*
X180659953Y-181340465D01*
X180717405Y-181225560D01*
X180774858Y-181168108D01*
X180889763Y-181110655D01*
X181177024Y-181110655D01*
X181349382Y-181168108D01*
X182096263Y-181110655D02*
X182326072Y-181110655D01*
X182440977Y-181168108D01*
X182555882Y-181283012D01*
X182613334Y-181512822D01*
X182613334Y-181914988D01*
X182555882Y-182144798D01*
X182440977Y-182259703D01*
X182326072Y-182317155D01*
X182096263Y-182317155D01*
X181981358Y-182259703D01*
X181866453Y-182144798D01*
X181809001Y-181914988D01*
X181809001Y-181512822D01*
X181866453Y-181283012D01*
X181981358Y-181168108D01*
X182096263Y-181110655D01*
X183130405Y-182317155D02*
X183130405Y-181110655D01*
X184394358Y-182202250D02*
X184336905Y-182259703D01*
X184164548Y-182317155D01*
X184049644Y-182317155D01*
X183877286Y-182259703D01*
X183762382Y-182144798D01*
X183704929Y-182029893D01*
X183647477Y-181800084D01*
X183647477Y-181627727D01*
X183704929Y-181397917D01*
X183762382Y-181283012D01*
X183877286Y-181168108D01*
X184049644Y-181110655D01*
X184164548Y-181110655D01*
X184336905Y-181168108D01*
X184394358Y-181225560D01*
X184911429Y-181857536D02*
X185830667Y-181857536D01*
X187037167Y-182317155D02*
X186347739Y-182317155D01*
X186692453Y-182317155D02*
X186692453Y-181110655D01*
X186577548Y-181283012D01*
X186462644Y-181397917D01*
X186347739Y-181455369D01*
X187496786Y-181225560D02*
X187554239Y-181168108D01*
X187669144Y-181110655D01*
X187956405Y-181110655D01*
X188071310Y-181168108D01*
X188128763Y-181225560D01*
X188186215Y-181340465D01*
X188186215Y-181455369D01*
X188128763Y-181627727D01*
X187439334Y-182317155D01*
X188186215Y-182317155D01*
X180659953Y-164439701D02*
X180832310Y-164497153D01*
X181119572Y-164497153D01*
X181234477Y-164439701D01*
X181291929Y-164382248D01*
X181349382Y-164267344D01*
X181349382Y-164152439D01*
X181291929Y-164037534D01*
X181234477Y-163980082D01*
X181119572Y-163922629D01*
X180889763Y-163865177D01*
X180774858Y-163807725D01*
X180717405Y-163750272D01*
X180659953Y-163635367D01*
X180659953Y-163520463D01*
X180717405Y-163405558D01*
X180774858Y-163348106D01*
X180889763Y-163290653D01*
X181177024Y-163290653D01*
X181349382Y-163348106D01*
X182096263Y-163290653D02*
X182326072Y-163290653D01*
X182440977Y-163348106D01*
X182555882Y-163463010D01*
X182613334Y-163692820D01*
X182613334Y-164094986D01*
X182555882Y-164324796D01*
X182440977Y-164439701D01*
X182326072Y-164497153D01*
X182096263Y-164497153D01*
X181981358Y-164439701D01*
X181866453Y-164324796D01*
X181809001Y-164094986D01*
X181809001Y-163692820D01*
X181866453Y-163463010D01*
X181981358Y-163348106D01*
X182096263Y-163290653D01*
X183130405Y-164497153D02*
X183130405Y-163290653D01*
X184394358Y-164382248D02*
X184336905Y-164439701D01*
X184164548Y-164497153D01*
X184049644Y-164497153D01*
X183877286Y-164439701D01*
X183762382Y-164324796D01*
X183704929Y-164209891D01*
X183647477Y-163980082D01*
X183647477Y-163807725D01*
X183704929Y-163577915D01*
X183762382Y-163463010D01*
X183877286Y-163348106D01*
X184049644Y-163290653D01*
X184164548Y-163290653D01*
X184336905Y-163348106D01*
X184394358Y-163405558D01*
X184911429Y-164037534D02*
X185830667Y-164037534D01*
X187037167Y-164497153D02*
X186347739Y-164497153D01*
X186692453Y-164497153D02*
X186692453Y-163290653D01*
X186577548Y-163463010D01*
X186462644Y-163577915D01*
X186347739Y-163635367D01*
X187496786Y-163405558D02*
X187554239Y-163348106D01*
X187669144Y-163290653D01*
X187956405Y-163290653D01*
X188071310Y-163348106D01*
X188128763Y-163405558D01*
X188186215Y-163520463D01*
X188186215Y-163635367D01*
X188128763Y-163807725D01*
X187439334Y-164497153D01*
X188186215Y-164497153D01*
X180659953Y-146619699D02*
X180832310Y-146677151D01*
X181119572Y-146677151D01*
X181234477Y-146619699D01*
X181291929Y-146562246D01*
X181349382Y-146447342D01*
X181349382Y-146332437D01*
X181291929Y-146217532D01*
X181234477Y-146160080D01*
X181119572Y-146102627D01*
X180889763Y-146045175D01*
X180774858Y-145987723D01*
X180717405Y-145930270D01*
X180659953Y-145815365D01*
X180659953Y-145700461D01*
X180717405Y-145585556D01*
X180774858Y-145528104D01*
X180889763Y-145470651D01*
X181177024Y-145470651D01*
X181349382Y-145528104D01*
X182096263Y-145470651D02*
X182326072Y-145470651D01*
X182440977Y-145528104D01*
X182555882Y-145643008D01*
X182613334Y-145872818D01*
X182613334Y-146274984D01*
X182555882Y-146504794D01*
X182440977Y-146619699D01*
X182326072Y-146677151D01*
X182096263Y-146677151D01*
X181981358Y-146619699D01*
X181866453Y-146504794D01*
X181809001Y-146274984D01*
X181809001Y-145872818D01*
X181866453Y-145643008D01*
X181981358Y-145528104D01*
X182096263Y-145470651D01*
X183130405Y-146677151D02*
X183130405Y-145470651D01*
X184394358Y-146562246D02*
X184336905Y-146619699D01*
X184164548Y-146677151D01*
X184049644Y-146677151D01*
X183877286Y-146619699D01*
X183762382Y-146504794D01*
X183704929Y-146389889D01*
X183647477Y-146160080D01*
X183647477Y-145987723D01*
X183704929Y-145757913D01*
X183762382Y-145643008D01*
X183877286Y-145528104D01*
X184049644Y-145470651D01*
X184164548Y-145470651D01*
X184336905Y-145528104D01*
X184394358Y-145585556D01*
X184911429Y-146217532D02*
X185830667Y-146217532D01*
X187037167Y-146677151D02*
X186347739Y-146677151D01*
X186692453Y-146677151D02*
X186692453Y-145470651D01*
X186577548Y-145643008D01*
X186462644Y-145757913D01*
X186347739Y-145815365D01*
X187496786Y-145585556D02*
X187554239Y-145528104D01*
X187669144Y-145470651D01*
X187956405Y-145470651D01*
X188071310Y-145528104D01*
X188128763Y-145585556D01*
X188186215Y-145700461D01*
X188186215Y-145815365D01*
X188128763Y-145987723D01*
X187439334Y-146677151D01*
X188186215Y-146677151D01*
X180659953Y-128799697D02*
X180832310Y-128857149D01*
X181119572Y-128857149D01*
X181234477Y-128799697D01*
X181291929Y-128742244D01*
X181349382Y-128627340D01*
X181349382Y-128512435D01*
X181291929Y-128397530D01*
X181234477Y-128340078D01*
X181119572Y-128282625D01*
X180889763Y-128225173D01*
X180774858Y-128167721D01*
X180717405Y-128110268D01*
X180659953Y-127995363D01*
X180659953Y-127880459D01*
X180717405Y-127765554D01*
X180774858Y-127708102D01*
X180889763Y-127650649D01*
X181177024Y-127650649D01*
X181349382Y-127708102D01*
X182096263Y-127650649D02*
X182326072Y-127650649D01*
X182440977Y-127708102D01*
X182555882Y-127823006D01*
X182613334Y-128052816D01*
X182613334Y-128454982D01*
X182555882Y-128684792D01*
X182440977Y-128799697D01*
X182326072Y-128857149D01*
X182096263Y-128857149D01*
X181981358Y-128799697D01*
X181866453Y-128684792D01*
X181809001Y-128454982D01*
X181809001Y-128052816D01*
X181866453Y-127823006D01*
X181981358Y-127708102D01*
X182096263Y-127650649D01*
X183130405Y-128857149D02*
X183130405Y-127650649D01*
X184394358Y-128742244D02*
X184336905Y-128799697D01*
X184164548Y-128857149D01*
X184049644Y-128857149D01*
X183877286Y-128799697D01*
X183762382Y-128684792D01*
X183704929Y-128569887D01*
X183647477Y-128340078D01*
X183647477Y-128167721D01*
X183704929Y-127937911D01*
X183762382Y-127823006D01*
X183877286Y-127708102D01*
X184049644Y-127650649D01*
X184164548Y-127650649D01*
X184336905Y-127708102D01*
X184394358Y-127765554D01*
X184911429Y-128397530D02*
X185830667Y-128397530D01*
X187037167Y-128857149D02*
X186347739Y-128857149D01*
X186692453Y-128857149D02*
X186692453Y-127650649D01*
X186577548Y-127823006D01*
X186462644Y-127937911D01*
X186347739Y-127995363D01*
X187496786Y-127765554D02*
X187554239Y-127708102D01*
X187669144Y-127650649D01*
X187956405Y-127650649D01*
X188071310Y-127708102D01*
X188128763Y-127765554D01*
X188186215Y-127880459D01*
X188186215Y-127995363D01*
X188128763Y-128167721D01*
X187439334Y-128857149D01*
X188186215Y-128857149D01*
X180659953Y-110979695D02*
X180832310Y-111037147D01*
X181119572Y-111037147D01*
X181234477Y-110979695D01*
X181291929Y-110922242D01*
X181349382Y-110807338D01*
X181349382Y-110692433D01*
X181291929Y-110577528D01*
X181234477Y-110520076D01*
X181119572Y-110462623D01*
X180889763Y-110405171D01*
X180774858Y-110347719D01*
X180717405Y-110290266D01*
X180659953Y-110175361D01*
X180659953Y-110060457D01*
X180717405Y-109945552D01*
X180774858Y-109888100D01*
X180889763Y-109830647D01*
X181177024Y-109830647D01*
X181349382Y-109888100D01*
X182096263Y-109830647D02*
X182326072Y-109830647D01*
X182440977Y-109888100D01*
X182555882Y-110003004D01*
X182613334Y-110232814D01*
X182613334Y-110634980D01*
X182555882Y-110864790D01*
X182440977Y-110979695D01*
X182326072Y-111037147D01*
X182096263Y-111037147D01*
X181981358Y-110979695D01*
X181866453Y-110864790D01*
X181809001Y-110634980D01*
X181809001Y-110232814D01*
X181866453Y-110003004D01*
X181981358Y-109888100D01*
X182096263Y-109830647D01*
X183130405Y-111037147D02*
X183130405Y-109830647D01*
X184394358Y-110922242D02*
X184336905Y-110979695D01*
X184164548Y-111037147D01*
X184049644Y-111037147D01*
X183877286Y-110979695D01*
X183762382Y-110864790D01*
X183704929Y-110749885D01*
X183647477Y-110520076D01*
X183647477Y-110347719D01*
X183704929Y-110117909D01*
X183762382Y-110003004D01*
X183877286Y-109888100D01*
X184049644Y-109830647D01*
X184164548Y-109830647D01*
X184336905Y-109888100D01*
X184394358Y-109945552D01*
X184911429Y-110577528D02*
X185830667Y-110577528D01*
X187037167Y-111037147D02*
X186347739Y-111037147D01*
X186692453Y-111037147D02*
X186692453Y-109830647D01*
X186577548Y-110003004D01*
X186462644Y-110117909D01*
X186347739Y-110175361D01*
X187496786Y-109945552D02*
X187554239Y-109888100D01*
X187669144Y-109830647D01*
X187956405Y-109830647D01*
X188071310Y-109888100D01*
X188128763Y-109945552D01*
X188186215Y-110060457D01*
X188186215Y-110175361D01*
X188128763Y-110347719D01*
X187439334Y-111037147D01*
X188186215Y-111037147D01*
X163159951Y-182259703D02*
X163332308Y-182317155D01*
X163619570Y-182317155D01*
X163734475Y-182259703D01*
X163791927Y-182202250D01*
X163849380Y-182087346D01*
X163849380Y-181972441D01*
X163791927Y-181857536D01*
X163734475Y-181800084D01*
X163619570Y-181742631D01*
X163389761Y-181685179D01*
X163274856Y-181627727D01*
X163217403Y-181570274D01*
X163159951Y-181455369D01*
X163159951Y-181340465D01*
X163217403Y-181225560D01*
X163274856Y-181168108D01*
X163389761Y-181110655D01*
X163677022Y-181110655D01*
X163849380Y-181168108D01*
X164596261Y-181110655D02*
X164826070Y-181110655D01*
X164940975Y-181168108D01*
X165055880Y-181283012D01*
X165113332Y-181512822D01*
X165113332Y-181914988D01*
X165055880Y-182144798D01*
X164940975Y-182259703D01*
X164826070Y-182317155D01*
X164596261Y-182317155D01*
X164481356Y-182259703D01*
X164366451Y-182144798D01*
X164308999Y-181914988D01*
X164308999Y-181512822D01*
X164366451Y-181283012D01*
X164481356Y-181168108D01*
X164596261Y-181110655D01*
X165630403Y-182317155D02*
X165630403Y-181110655D01*
X166894356Y-182202250D02*
X166836903Y-182259703D01*
X166664546Y-182317155D01*
X166549642Y-182317155D01*
X166377284Y-182259703D01*
X166262380Y-182144798D01*
X166204927Y-182029893D01*
X166147475Y-181800084D01*
X166147475Y-181627727D01*
X166204927Y-181397917D01*
X166262380Y-181283012D01*
X166377284Y-181168108D01*
X166549642Y-181110655D01*
X166664546Y-181110655D01*
X166836903Y-181168108D01*
X166894356Y-181225560D01*
X167411427Y-181857536D02*
X168330665Y-181857536D01*
X169537165Y-182317155D02*
X168847737Y-182317155D01*
X169192451Y-182317155D02*
X169192451Y-181110655D01*
X169077546Y-181283012D01*
X168962642Y-181397917D01*
X168847737Y-181455369D01*
X169996784Y-181225560D02*
X170054237Y-181168108D01*
X170169142Y-181110655D01*
X170456403Y-181110655D01*
X170571308Y-181168108D01*
X170628761Y-181225560D01*
X170686213Y-181340465D01*
X170686213Y-181455369D01*
X170628761Y-181627727D01*
X169939332Y-182317155D01*
X170686213Y-182317155D01*
X163159951Y-164439701D02*
X163332308Y-164497153D01*
X163619570Y-164497153D01*
X163734475Y-164439701D01*
X163791927Y-164382248D01*
X163849380Y-164267344D01*
X163849380Y-164152439D01*
X163791927Y-164037534D01*
X163734475Y-163980082D01*
X163619570Y-163922629D01*
X163389761Y-163865177D01*
X163274856Y-163807725D01*
X163217403Y-163750272D01*
X163159951Y-163635367D01*
X163159951Y-163520463D01*
X163217403Y-163405558D01*
X163274856Y-163348106D01*
X163389761Y-163290653D01*
X163677022Y-163290653D01*
X163849380Y-163348106D01*
X164596261Y-163290653D02*
X164826070Y-163290653D01*
X164940975Y-163348106D01*
X165055880Y-163463010D01*
X165113332Y-163692820D01*
X165113332Y-164094986D01*
X165055880Y-164324796D01*
X164940975Y-164439701D01*
X164826070Y-164497153D01*
X164596261Y-164497153D01*
X164481356Y-164439701D01*
X164366451Y-164324796D01*
X164308999Y-164094986D01*
X164308999Y-163692820D01*
X164366451Y-163463010D01*
X164481356Y-163348106D01*
X164596261Y-163290653D01*
X165630403Y-164497153D02*
X165630403Y-163290653D01*
X166894356Y-164382248D02*
X166836903Y-164439701D01*
X166664546Y-164497153D01*
X166549642Y-164497153D01*
X166377284Y-164439701D01*
X166262380Y-164324796D01*
X166204927Y-164209891D01*
X166147475Y-163980082D01*
X166147475Y-163807725D01*
X166204927Y-163577915D01*
X166262380Y-163463010D01*
X166377284Y-163348106D01*
X166549642Y-163290653D01*
X166664546Y-163290653D01*
X166836903Y-163348106D01*
X166894356Y-163405558D01*
X167411427Y-164037534D02*
X168330665Y-164037534D01*
X169537165Y-164497153D02*
X168847737Y-164497153D01*
X169192451Y-164497153D02*
X169192451Y-163290653D01*
X169077546Y-163463010D01*
X168962642Y-163577915D01*
X168847737Y-163635367D01*
X169996784Y-163405558D02*
X170054237Y-163348106D01*
X170169142Y-163290653D01*
X170456403Y-163290653D01*
X170571308Y-163348106D01*
X170628761Y-163405558D01*
X170686213Y-163520463D01*
X170686213Y-163635367D01*
X170628761Y-163807725D01*
X169939332Y-164497153D01*
X170686213Y-164497153D01*
X163159951Y-146619699D02*
X163332308Y-146677151D01*
X163619570Y-146677151D01*
X163734475Y-146619699D01*
X163791927Y-146562246D01*
X163849380Y-146447342D01*
X163849380Y-146332437D01*
X163791927Y-146217532D01*
X163734475Y-146160080D01*
X163619570Y-146102627D01*
X163389761Y-146045175D01*
X163274856Y-145987723D01*
X163217403Y-145930270D01*
X163159951Y-145815365D01*
X163159951Y-145700461D01*
X163217403Y-145585556D01*
X163274856Y-145528104D01*
X163389761Y-145470651D01*
X163677022Y-145470651D01*
X163849380Y-145528104D01*
X164596261Y-145470651D02*
X164826070Y-145470651D01*
X164940975Y-145528104D01*
X165055880Y-145643008D01*
X165113332Y-145872818D01*
X165113332Y-146274984D01*
X165055880Y-146504794D01*
X164940975Y-146619699D01*
X164826070Y-146677151D01*
X164596261Y-146677151D01*
X164481356Y-146619699D01*
X164366451Y-146504794D01*
X164308999Y-146274984D01*
X164308999Y-145872818D01*
X164366451Y-145643008D01*
X164481356Y-145528104D01*
X164596261Y-145470651D01*
X165630403Y-146677151D02*
X165630403Y-145470651D01*
X166894356Y-146562246D02*
X166836903Y-146619699D01*
X166664546Y-146677151D01*
X166549642Y-146677151D01*
X166377284Y-146619699D01*
X166262380Y-146504794D01*
X166204927Y-146389889D01*
X166147475Y-146160080D01*
X166147475Y-145987723D01*
X166204927Y-145757913D01*
X166262380Y-145643008D01*
X166377284Y-145528104D01*
X166549642Y-145470651D01*
X166664546Y-145470651D01*
X166836903Y-145528104D01*
X166894356Y-145585556D01*
X167411427Y-146217532D02*
X168330665Y-146217532D01*
X169537165Y-146677151D02*
X168847737Y-146677151D01*
X169192451Y-146677151D02*
X169192451Y-145470651D01*
X169077546Y-145643008D01*
X168962642Y-145757913D01*
X168847737Y-145815365D01*
X169996784Y-145585556D02*
X170054237Y-145528104D01*
X170169142Y-145470651D01*
X170456403Y-145470651D01*
X170571308Y-145528104D01*
X170628761Y-145585556D01*
X170686213Y-145700461D01*
X170686213Y-145815365D01*
X170628761Y-145987723D01*
X169939332Y-146677151D01*
X170686213Y-146677151D01*
X163159951Y-128799697D02*
X163332308Y-128857149D01*
X163619570Y-128857149D01*
X163734475Y-128799697D01*
X163791927Y-128742244D01*
X163849380Y-128627340D01*
X163849380Y-128512435D01*
X163791927Y-128397530D01*
X163734475Y-128340078D01*
X163619570Y-128282625D01*
X163389761Y-128225173D01*
X163274856Y-128167721D01*
X163217403Y-128110268D01*
X163159951Y-127995363D01*
X163159951Y-127880459D01*
X163217403Y-127765554D01*
X163274856Y-127708102D01*
X163389761Y-127650649D01*
X163677022Y-127650649D01*
X163849380Y-127708102D01*
X164596261Y-127650649D02*
X164826070Y-127650649D01*
X164940975Y-127708102D01*
X165055880Y-127823006D01*
X165113332Y-128052816D01*
X165113332Y-128454982D01*
X165055880Y-128684792D01*
X164940975Y-128799697D01*
X164826070Y-128857149D01*
X164596261Y-128857149D01*
X164481356Y-128799697D01*
X164366451Y-128684792D01*
X164308999Y-128454982D01*
X164308999Y-128052816D01*
X164366451Y-127823006D01*
X164481356Y-127708102D01*
X164596261Y-127650649D01*
X165630403Y-128857149D02*
X165630403Y-127650649D01*
X166894356Y-128742244D02*
X166836903Y-128799697D01*
X166664546Y-128857149D01*
X166549642Y-128857149D01*
X166377284Y-128799697D01*
X166262380Y-128684792D01*
X166204927Y-128569887D01*
X166147475Y-128340078D01*
X166147475Y-128167721D01*
X166204927Y-127937911D01*
X166262380Y-127823006D01*
X166377284Y-127708102D01*
X166549642Y-127650649D01*
X166664546Y-127650649D01*
X166836903Y-127708102D01*
X166894356Y-127765554D01*
X167411427Y-128397530D02*
X168330665Y-128397530D01*
X169537165Y-128857149D02*
X168847737Y-128857149D01*
X169192451Y-128857149D02*
X169192451Y-127650649D01*
X169077546Y-127823006D01*
X168962642Y-127937911D01*
X168847737Y-127995363D01*
X169996784Y-127765554D02*
X170054237Y-127708102D01*
X170169142Y-127650649D01*
X170456403Y-127650649D01*
X170571308Y-127708102D01*
X170628761Y-127765554D01*
X170686213Y-127880459D01*
X170686213Y-127995363D01*
X170628761Y-128167721D01*
X169939332Y-128857149D01*
X170686213Y-128857149D01*
X163159951Y-110979695D02*
X163332308Y-111037147D01*
X163619570Y-111037147D01*
X163734475Y-110979695D01*
X163791927Y-110922242D01*
X163849380Y-110807338D01*
X163849380Y-110692433D01*
X163791927Y-110577528D01*
X163734475Y-110520076D01*
X163619570Y-110462623D01*
X163389761Y-110405171D01*
X163274856Y-110347719D01*
X163217403Y-110290266D01*
X163159951Y-110175361D01*
X163159951Y-110060457D01*
X163217403Y-109945552D01*
X163274856Y-109888100D01*
X163389761Y-109830647D01*
X163677022Y-109830647D01*
X163849380Y-109888100D01*
X164596261Y-109830647D02*
X164826070Y-109830647D01*
X164940975Y-109888100D01*
X165055880Y-110003004D01*
X165113332Y-110232814D01*
X165113332Y-110634980D01*
X165055880Y-110864790D01*
X164940975Y-110979695D01*
X164826070Y-111037147D01*
X164596261Y-111037147D01*
X164481356Y-110979695D01*
X164366451Y-110864790D01*
X164308999Y-110634980D01*
X164308999Y-110232814D01*
X164366451Y-110003004D01*
X164481356Y-109888100D01*
X164596261Y-109830647D01*
X165630403Y-111037147D02*
X165630403Y-109830647D01*
X166894356Y-110922242D02*
X166836903Y-110979695D01*
X166664546Y-111037147D01*
X166549642Y-111037147D01*
X166377284Y-110979695D01*
X166262380Y-110864790D01*
X166204927Y-110749885D01*
X166147475Y-110520076D01*
X166147475Y-110347719D01*
X166204927Y-110117909D01*
X166262380Y-110003004D01*
X166377284Y-109888100D01*
X166549642Y-109830647D01*
X166664546Y-109830647D01*
X166836903Y-109888100D01*
X166894356Y-109945552D01*
X167411427Y-110577528D02*
X168330665Y-110577528D01*
X169537165Y-111037147D02*
X168847737Y-111037147D01*
X169192451Y-111037147D02*
X169192451Y-109830647D01*
X169077546Y-110003004D01*
X168962642Y-110117909D01*
X168847737Y-110175361D01*
X169996784Y-109945552D02*
X170054237Y-109888100D01*
X170169142Y-109830647D01*
X170456403Y-109830647D01*
X170571308Y-109888100D01*
X170628761Y-109945552D01*
X170686213Y-110060457D01*
X170686213Y-110175361D01*
X170628761Y-110347719D01*
X169939332Y-111037147D01*
X170686213Y-111037147D01*
X145659949Y-182259703D02*
X145832306Y-182317155D01*
X146119568Y-182317155D01*
X146234473Y-182259703D01*
X146291925Y-182202250D01*
X146349378Y-182087346D01*
X146349378Y-181972441D01*
X146291925Y-181857536D01*
X146234473Y-181800084D01*
X146119568Y-181742631D01*
X145889759Y-181685179D01*
X145774854Y-181627727D01*
X145717401Y-181570274D01*
X145659949Y-181455369D01*
X145659949Y-181340465D01*
X145717401Y-181225560D01*
X145774854Y-181168108D01*
X145889759Y-181110655D01*
X146177020Y-181110655D01*
X146349378Y-181168108D01*
X147096259Y-181110655D02*
X147326068Y-181110655D01*
X147440973Y-181168108D01*
X147555878Y-181283012D01*
X147613330Y-181512822D01*
X147613330Y-181914988D01*
X147555878Y-182144798D01*
X147440973Y-182259703D01*
X147326068Y-182317155D01*
X147096259Y-182317155D01*
X146981354Y-182259703D01*
X146866449Y-182144798D01*
X146808997Y-181914988D01*
X146808997Y-181512822D01*
X146866449Y-181283012D01*
X146981354Y-181168108D01*
X147096259Y-181110655D01*
X148130401Y-182317155D02*
X148130401Y-181110655D01*
X149394354Y-182202250D02*
X149336901Y-182259703D01*
X149164544Y-182317155D01*
X149049640Y-182317155D01*
X148877282Y-182259703D01*
X148762378Y-182144798D01*
X148704925Y-182029893D01*
X148647473Y-181800084D01*
X148647473Y-181627727D01*
X148704925Y-181397917D01*
X148762378Y-181283012D01*
X148877282Y-181168108D01*
X149049640Y-181110655D01*
X149164544Y-181110655D01*
X149336901Y-181168108D01*
X149394354Y-181225560D01*
X149911425Y-181857536D02*
X150830663Y-181857536D01*
X152037163Y-182317155D02*
X151347735Y-182317155D01*
X151692449Y-182317155D02*
X151692449Y-181110655D01*
X151577544Y-181283012D01*
X151462640Y-181397917D01*
X151347735Y-181455369D01*
X152496782Y-181225560D02*
X152554235Y-181168108D01*
X152669140Y-181110655D01*
X152956401Y-181110655D01*
X153071306Y-181168108D01*
X153128759Y-181225560D01*
X153186211Y-181340465D01*
X153186211Y-181455369D01*
X153128759Y-181627727D01*
X152439330Y-182317155D01*
X153186211Y-182317155D01*
X145659949Y-164439701D02*
X145832306Y-164497153D01*
X146119568Y-164497153D01*
X146234473Y-164439701D01*
X146291925Y-164382248D01*
X146349378Y-164267344D01*
X146349378Y-164152439D01*
X146291925Y-164037534D01*
X146234473Y-163980082D01*
X146119568Y-163922629D01*
X145889759Y-163865177D01*
X145774854Y-163807725D01*
X145717401Y-163750272D01*
X145659949Y-163635367D01*
X145659949Y-163520463D01*
X145717401Y-163405558D01*
X145774854Y-163348106D01*
X145889759Y-163290653D01*
X146177020Y-163290653D01*
X146349378Y-163348106D01*
X147096259Y-163290653D02*
X147326068Y-163290653D01*
X147440973Y-163348106D01*
X147555878Y-163463010D01*
X147613330Y-163692820D01*
X147613330Y-164094986D01*
X147555878Y-164324796D01*
X147440973Y-164439701D01*
X147326068Y-164497153D01*
X147096259Y-164497153D01*
X146981354Y-164439701D01*
X146866449Y-164324796D01*
X146808997Y-164094986D01*
X146808997Y-163692820D01*
X146866449Y-163463010D01*
X146981354Y-163348106D01*
X147096259Y-163290653D01*
X148130401Y-164497153D02*
X148130401Y-163290653D01*
X149394354Y-164382248D02*
X149336901Y-164439701D01*
X149164544Y-164497153D01*
X149049640Y-164497153D01*
X148877282Y-164439701D01*
X148762378Y-164324796D01*
X148704925Y-164209891D01*
X148647473Y-163980082D01*
X148647473Y-163807725D01*
X148704925Y-163577915D01*
X148762378Y-163463010D01*
X148877282Y-163348106D01*
X149049640Y-163290653D01*
X149164544Y-163290653D01*
X149336901Y-163348106D01*
X149394354Y-163405558D01*
X149911425Y-164037534D02*
X150830663Y-164037534D01*
X152037163Y-164497153D02*
X151347735Y-164497153D01*
X151692449Y-164497153D02*
X151692449Y-163290653D01*
X151577544Y-163463010D01*
X151462640Y-163577915D01*
X151347735Y-163635367D01*
X152496782Y-163405558D02*
X152554235Y-163348106D01*
X152669140Y-163290653D01*
X152956401Y-163290653D01*
X153071306Y-163348106D01*
X153128759Y-163405558D01*
X153186211Y-163520463D01*
X153186211Y-163635367D01*
X153128759Y-163807725D01*
X152439330Y-164497153D01*
X153186211Y-164497153D01*
X145659949Y-146619699D02*
X145832306Y-146677151D01*
X146119568Y-146677151D01*
X146234473Y-146619699D01*
X146291925Y-146562246D01*
X146349378Y-146447342D01*
X146349378Y-146332437D01*
X146291925Y-146217532D01*
X146234473Y-146160080D01*
X146119568Y-146102627D01*
X145889759Y-146045175D01*
X145774854Y-145987723D01*
X145717401Y-145930270D01*
X145659949Y-145815365D01*
X145659949Y-145700461D01*
X145717401Y-145585556D01*
X145774854Y-145528104D01*
X145889759Y-145470651D01*
X146177020Y-145470651D01*
X146349378Y-145528104D01*
X147096259Y-145470651D02*
X147326068Y-145470651D01*
X147440973Y-145528104D01*
X147555878Y-145643008D01*
X147613330Y-145872818D01*
X147613330Y-146274984D01*
X147555878Y-146504794D01*
X147440973Y-146619699D01*
X147326068Y-146677151D01*
X147096259Y-146677151D01*
X146981354Y-146619699D01*
X146866449Y-146504794D01*
X146808997Y-146274984D01*
X146808997Y-145872818D01*
X146866449Y-145643008D01*
X146981354Y-145528104D01*
X147096259Y-145470651D01*
X148130401Y-146677151D02*
X148130401Y-145470651D01*
X149394354Y-146562246D02*
X149336901Y-146619699D01*
X149164544Y-146677151D01*
X149049640Y-146677151D01*
X148877282Y-146619699D01*
X148762378Y-146504794D01*
X148704925Y-146389889D01*
X148647473Y-146160080D01*
X148647473Y-145987723D01*
X148704925Y-145757913D01*
X148762378Y-145643008D01*
X148877282Y-145528104D01*
X149049640Y-145470651D01*
X149164544Y-145470651D01*
X149336901Y-145528104D01*
X149394354Y-145585556D01*
X149911425Y-146217532D02*
X150830663Y-146217532D01*
X152037163Y-146677151D02*
X151347735Y-146677151D01*
X151692449Y-146677151D02*
X151692449Y-145470651D01*
X151577544Y-145643008D01*
X151462640Y-145757913D01*
X151347735Y-145815365D01*
X152496782Y-145585556D02*
X152554235Y-145528104D01*
X152669140Y-145470651D01*
X152956401Y-145470651D01*
X153071306Y-145528104D01*
X153128759Y-145585556D01*
X153186211Y-145700461D01*
X153186211Y-145815365D01*
X153128759Y-145987723D01*
X152439330Y-146677151D01*
X153186211Y-146677151D01*
X145659949Y-128799697D02*
X145832306Y-128857149D01*
X146119568Y-128857149D01*
X146234473Y-128799697D01*
X146291925Y-128742244D01*
X146349378Y-128627340D01*
X146349378Y-128512435D01*
X146291925Y-128397530D01*
X146234473Y-128340078D01*
X146119568Y-128282625D01*
X145889759Y-128225173D01*
X145774854Y-128167721D01*
X145717401Y-128110268D01*
X145659949Y-127995363D01*
X145659949Y-127880459D01*
X145717401Y-127765554D01*
X145774854Y-127708102D01*
X145889759Y-127650649D01*
X146177020Y-127650649D01*
X146349378Y-127708102D01*
X147096259Y-127650649D02*
X147326068Y-127650649D01*
X147440973Y-127708102D01*
X147555878Y-127823006D01*
X147613330Y-128052816D01*
X147613330Y-128454982D01*
X147555878Y-128684792D01*
X147440973Y-128799697D01*
X147326068Y-128857149D01*
X147096259Y-128857149D01*
X146981354Y-128799697D01*
X146866449Y-128684792D01*
X146808997Y-128454982D01*
X146808997Y-128052816D01*
X146866449Y-127823006D01*
X146981354Y-127708102D01*
X147096259Y-127650649D01*
X148130401Y-128857149D02*
X148130401Y-127650649D01*
X149394354Y-128742244D02*
X149336901Y-128799697D01*
X149164544Y-128857149D01*
X149049640Y-128857149D01*
X148877282Y-128799697D01*
X148762378Y-128684792D01*
X148704925Y-128569887D01*
X148647473Y-128340078D01*
X148647473Y-128167721D01*
X148704925Y-127937911D01*
X148762378Y-127823006D01*
X148877282Y-127708102D01*
X149049640Y-127650649D01*
X149164544Y-127650649D01*
X149336901Y-127708102D01*
X149394354Y-127765554D01*
X149911425Y-128397530D02*
X150830663Y-128397530D01*
X152037163Y-128857149D02*
X151347735Y-128857149D01*
X151692449Y-128857149D02*
X151692449Y-127650649D01*
X151577544Y-127823006D01*
X151462640Y-127937911D01*
X151347735Y-127995363D01*
X152496782Y-127765554D02*
X152554235Y-127708102D01*
X152669140Y-127650649D01*
X152956401Y-127650649D01*
X153071306Y-127708102D01*
X153128759Y-127765554D01*
X153186211Y-127880459D01*
X153186211Y-127995363D01*
X153128759Y-128167721D01*
X152439330Y-128857149D01*
X153186211Y-128857149D01*
X145659949Y-110979695D02*
X145832306Y-111037147D01*
X146119568Y-111037147D01*
X146234473Y-110979695D01*
X146291925Y-110922242D01*
X146349378Y-110807338D01*
X146349378Y-110692433D01*
X146291925Y-110577528D01*
X146234473Y-110520076D01*
X146119568Y-110462623D01*
X145889759Y-110405171D01*
X145774854Y-110347719D01*
X145717401Y-110290266D01*
X145659949Y-110175361D01*
X145659949Y-110060457D01*
X145717401Y-109945552D01*
X145774854Y-109888100D01*
X145889759Y-109830647D01*
X146177020Y-109830647D01*
X146349378Y-109888100D01*
X147096259Y-109830647D02*
X147326068Y-109830647D01*
X147440973Y-109888100D01*
X147555878Y-110003004D01*
X147613330Y-110232814D01*
X147613330Y-110634980D01*
X147555878Y-110864790D01*
X147440973Y-110979695D01*
X147326068Y-111037147D01*
X147096259Y-111037147D01*
X146981354Y-110979695D01*
X146866449Y-110864790D01*
X146808997Y-110634980D01*
X146808997Y-110232814D01*
X146866449Y-110003004D01*
X146981354Y-109888100D01*
X147096259Y-109830647D01*
X148130401Y-111037147D02*
X148130401Y-109830647D01*
X149394354Y-110922242D02*
X149336901Y-110979695D01*
X149164544Y-111037147D01*
X149049640Y-111037147D01*
X148877282Y-110979695D01*
X148762378Y-110864790D01*
X148704925Y-110749885D01*
X148647473Y-110520076D01*
X148647473Y-110347719D01*
X148704925Y-110117909D01*
X148762378Y-110003004D01*
X148877282Y-109888100D01*
X149049640Y-109830647D01*
X149164544Y-109830647D01*
X149336901Y-109888100D01*
X149394354Y-109945552D01*
X149911425Y-110577528D02*
X150830663Y-110577528D01*
X152037163Y-111037147D02*
X151347735Y-111037147D01*
X151692449Y-111037147D02*
X151692449Y-109830647D01*
X151577544Y-110003004D01*
X151462640Y-110117909D01*
X151347735Y-110175361D01*
X152496782Y-109945552D02*
X152554235Y-109888100D01*
X152669140Y-109830647D01*
X152956401Y-109830647D01*
X153071306Y-109888100D01*
X153128759Y-109945552D01*
X153186211Y-110060457D01*
X153186211Y-110175361D01*
X153128759Y-110347719D01*
X152439330Y-111037147D01*
X153186211Y-111037147D01*
X144571378Y-99099147D02*
X143881949Y-99099147D01*
X144226663Y-99099147D02*
X144226663Y-97892647D01*
X144111759Y-98065004D01*
X143996854Y-98179909D01*
X143881949Y-98237361D01*
X144456473Y-110846647D02*
X144226663Y-110846647D01*
X144111759Y-110904100D01*
X144054306Y-110961552D01*
X143939401Y-111133909D01*
X143881949Y-111363719D01*
X143881949Y-111823338D01*
X143939401Y-111938242D01*
X143996854Y-111995695D01*
X144111759Y-112053147D01*
X144341568Y-112053147D01*
X144456473Y-111995695D01*
X144513925Y-111938242D01*
X144571378Y-111823338D01*
X144571378Y-111536076D01*
X144513925Y-111421171D01*
X144456473Y-111363719D01*
X144341568Y-111306266D01*
X144111759Y-111306266D01*
X143996854Y-111363719D01*
X143939401Y-111421171D01*
X143881949Y-111536076D01*
X153095497Y-110846647D02*
X153899830Y-110846647D01*
X153382759Y-112053147D01*
X152826378Y-99226147D02*
X152136949Y-99226147D01*
X152481663Y-99226147D02*
X152481663Y-98019647D01*
X152366759Y-98192004D01*
X152251854Y-98306909D01*
X152136949Y-98364361D01*
X153285997Y-98134552D02*
X153343449Y-98077100D01*
X153458354Y-98019647D01*
X153745616Y-98019647D01*
X153860520Y-98077100D01*
X153917973Y-98134552D01*
X153975425Y-98249457D01*
X153975425Y-98364361D01*
X153917973Y-98536719D01*
X153228544Y-99226147D01*
X153975425Y-99226147D01*
D12*
X220612408Y-179885408D02*
X220612408Y-172671808D01*
X217100808Y-180266408D02*
G75*
G02X216719808Y-179985408I-50000J331000D01*
G01*
X220612407Y-172671808D02*
G75*
G03X220131408Y-172290808I-430920J-49900D01*
G01*
X220231406Y-180266408D02*
G75*
G03X220612408Y-179885408I101J380901D01*
G01*
X216719807Y-172671809D02*
G75*
G02X217000808Y-172290808I330801J50148D01*
G01*
X216719808Y-172671808D02*
X216719808Y-179985408D01*
X217100808Y-180266408D02*
X220231408Y-180266408D01*
X218005708Y-172341608D02*
G75*
G03X219275708Y-172341608I635000J0D01*
G01*
X220118708Y-172290808D02*
X219275708Y-172290808D01*
X217000808Y-172290808D02*
X218005708Y-172290808D01*
X220612408Y-162065406D02*
X220612408Y-154851806D01*
X217100808Y-162446406D02*
G75*
G02X216719808Y-162165406I-50000J331000D01*
G01*
X220612407Y-154851806D02*
G75*
G03X220131408Y-154470806I-430920J-49900D01*
G01*
X220231406Y-162446406D02*
G75*
G03X220612408Y-162065406I101J380901D01*
G01*
X216719807Y-154851807D02*
G75*
G02X217000808Y-154470806I330801J50148D01*
G01*
X216719808Y-154851806D02*
X216719808Y-162165406D01*
X217100808Y-162446406D02*
X220231408Y-162446406D01*
X218005708Y-154521606D02*
G75*
G03X219275708Y-154521606I635000J0D01*
G01*
X220118708Y-154470806D02*
X219275708Y-154470806D01*
X217000808Y-154470806D02*
X218005708Y-154470806D01*
X220612408Y-144245404D02*
X220612408Y-137031804D01*
X217100808Y-144626404D02*
G75*
G02X216719808Y-144345404I-50000J331000D01*
G01*
X220612407Y-137031804D02*
G75*
G03X220131408Y-136650804I-430920J-49900D01*
G01*
X220231406Y-144626404D02*
G75*
G03X220612408Y-144245404I101J380901D01*
G01*
X216719807Y-137031805D02*
G75*
G02X217000808Y-136650804I330801J50148D01*
G01*
X216719808Y-137031804D02*
X216719808Y-144345404D01*
X217100808Y-144626404D02*
X220231408Y-144626404D01*
X218005708Y-136701604D02*
G75*
G03X219275708Y-136701604I635000J0D01*
G01*
X220118708Y-136650804D02*
X219275708Y-136650804D01*
X217000808Y-136650804D02*
X218005708Y-136650804D01*
X220612408Y-126425402D02*
X220612408Y-119211802D01*
X217100808Y-126806402D02*
G75*
G02X216719808Y-126525402I-50000J331000D01*
G01*
X220612407Y-119211802D02*
G75*
G03X220131408Y-118830802I-430920J-49900D01*
G01*
X220231406Y-126806402D02*
G75*
G03X220612408Y-126425402I101J380901D01*
G01*
X216719807Y-119211803D02*
G75*
G02X217000808Y-118830802I330801J50148D01*
G01*
X216719808Y-119211802D02*
X216719808Y-126525402D01*
X217100808Y-126806402D02*
X220231408Y-126806402D01*
X218005708Y-118881602D02*
G75*
G03X219275708Y-118881602I635000J0D01*
G01*
X220118708Y-118830802D02*
X219275708Y-118830802D01*
X217000808Y-118830802D02*
X218005708Y-118830802D01*
X220612408Y-108605400D02*
X220612408Y-101391800D01*
X217100808Y-108986400D02*
G75*
G02X216719808Y-108705400I-50000J331000D01*
G01*
X220612407Y-101391800D02*
G75*
G03X220131408Y-101010800I-430920J-49900D01*
G01*
X220231406Y-108986400D02*
G75*
G03X220612408Y-108605400I101J380901D01*
G01*
X216719807Y-101391801D02*
G75*
G02X217000808Y-101010800I330801J50148D01*
G01*
X216719808Y-101391800D02*
X216719808Y-108705400D01*
X217100808Y-108986400D02*
X220231408Y-108986400D01*
X218005708Y-101061600D02*
G75*
G03X219275708Y-101061600I635000J0D01*
G01*
X220118708Y-101010800D02*
X219275708Y-101010800D01*
X217000808Y-101010800D02*
X218005708Y-101010800D01*
X203112406Y-179885408D02*
X203112406Y-172671808D01*
X199600806Y-180266408D02*
G75*
G02X199219806Y-179985408I-50000J331000D01*
G01*
X203112405Y-172671808D02*
G75*
G03X202631406Y-172290808I-430920J-49900D01*
G01*
X202731404Y-180266408D02*
G75*
G03X203112406Y-179885408I101J380901D01*
G01*
X199219805Y-172671809D02*
G75*
G02X199500806Y-172290808I330801J50148D01*
G01*
X199219806Y-172671808D02*
X199219806Y-179985408D01*
X199600806Y-180266408D02*
X202731406Y-180266408D01*
X200505706Y-172341608D02*
G75*
G03X201775706Y-172341608I635000J0D01*
G01*
X202618706Y-172290808D02*
X201775706Y-172290808D01*
X199500806Y-172290808D02*
X200505706Y-172290808D01*
X203112406Y-162065406D02*
X203112406Y-154851806D01*
X199600806Y-162446406D02*
G75*
G02X199219806Y-162165406I-50000J331000D01*
G01*
X203112405Y-154851806D02*
G75*
G03X202631406Y-154470806I-430920J-49900D01*
G01*
X202731404Y-162446406D02*
G75*
G03X203112406Y-162065406I101J380901D01*
G01*
X199219805Y-154851807D02*
G75*
G02X199500806Y-154470806I330801J50148D01*
G01*
X199219806Y-154851806D02*
X199219806Y-162165406D01*
X199600806Y-162446406D02*
X202731406Y-162446406D01*
X200505706Y-154521606D02*
G75*
G03X201775706Y-154521606I635000J0D01*
G01*
X202618706Y-154470806D02*
X201775706Y-154470806D01*
X199500806Y-154470806D02*
X200505706Y-154470806D01*
X203112406Y-144245404D02*
X203112406Y-137031804D01*
X199600806Y-144626404D02*
G75*
G02X199219806Y-144345404I-50000J331000D01*
G01*
X203112405Y-137031804D02*
G75*
G03X202631406Y-136650804I-430920J-49900D01*
G01*
X202731404Y-144626404D02*
G75*
G03X203112406Y-144245404I101J380901D01*
G01*
X199219805Y-137031805D02*
G75*
G02X199500806Y-136650804I330801J50148D01*
G01*
X199219806Y-137031804D02*
X199219806Y-144345404D01*
X199600806Y-144626404D02*
X202731406Y-144626404D01*
X200505706Y-136701604D02*
G75*
G03X201775706Y-136701604I635000J0D01*
G01*
X202618706Y-136650804D02*
X201775706Y-136650804D01*
X199500806Y-136650804D02*
X200505706Y-136650804D01*
X203112406Y-126425402D02*
X203112406Y-119211802D01*
X199600806Y-126806402D02*
G75*
G02X199219806Y-126525402I-50000J331000D01*
G01*
X203112405Y-119211802D02*
G75*
G03X202631406Y-118830802I-430920J-49900D01*
G01*
X202731404Y-126806402D02*
G75*
G03X203112406Y-126425402I101J380901D01*
G01*
X199219805Y-119211803D02*
G75*
G02X199500806Y-118830802I330801J50148D01*
G01*
X199219806Y-119211802D02*
X199219806Y-126525402D01*
X199600806Y-126806402D02*
X202731406Y-126806402D01*
X200505706Y-118881602D02*
G75*
G03X201775706Y-118881602I635000J0D01*
G01*
X202618706Y-118830802D02*
X201775706Y-118830802D01*
X199500806Y-118830802D02*
X200505706Y-118830802D01*
X203112406Y-108605400D02*
X203112406Y-101391800D01*
X199600806Y-108986400D02*
G75*
G02X199219806Y-108705400I-50000J331000D01*
G01*
X203112405Y-101391800D02*
G75*
G03X202631406Y-101010800I-430920J-49900D01*
G01*
X202731404Y-108986400D02*
G75*
G03X203112406Y-108605400I101J380901D01*
G01*
X199219805Y-101391801D02*
G75*
G02X199500806Y-101010800I330801J50148D01*
G01*
X199219806Y-101391800D02*
X199219806Y-108705400D01*
X199600806Y-108986400D02*
X202731406Y-108986400D01*
X200505706Y-101061600D02*
G75*
G03X201775706Y-101061600I635000J0D01*
G01*
X202618706Y-101010800D02*
X201775706Y-101010800D01*
X199500806Y-101010800D02*
X200505706Y-101010800D01*
X185612404Y-179885408D02*
X185612404Y-172671808D01*
X182100804Y-180266408D02*
G75*
G02X181719804Y-179985408I-50000J331000D01*
G01*
X185612403Y-172671808D02*
G75*
G03X185131404Y-172290808I-430920J-49900D01*
G01*
X185231402Y-180266408D02*
G75*
G03X185612404Y-179885408I101J380901D01*
G01*
X181719803Y-172671809D02*
G75*
G02X182000804Y-172290808I330801J50148D01*
G01*
X181719804Y-172671808D02*
X181719804Y-179985408D01*
X182100804Y-180266408D02*
X185231404Y-180266408D01*
X183005704Y-172341608D02*
G75*
G03X184275704Y-172341608I635000J0D01*
G01*
X185118704Y-172290808D02*
X184275704Y-172290808D01*
X182000804Y-172290808D02*
X183005704Y-172290808D01*
X185612404Y-162065406D02*
X185612404Y-154851806D01*
X182100804Y-162446406D02*
G75*
G02X181719804Y-162165406I-50000J331000D01*
G01*
X185612403Y-154851806D02*
G75*
G03X185131404Y-154470806I-430920J-49900D01*
G01*
X185231402Y-162446406D02*
G75*
G03X185612404Y-162065406I101J380901D01*
G01*
X181719803Y-154851807D02*
G75*
G02X182000804Y-154470806I330801J50148D01*
G01*
X181719804Y-154851806D02*
X181719804Y-162165406D01*
X182100804Y-162446406D02*
X185231404Y-162446406D01*
X183005704Y-154521606D02*
G75*
G03X184275704Y-154521606I635000J0D01*
G01*
X185118704Y-154470806D02*
X184275704Y-154470806D01*
X182000804Y-154470806D02*
X183005704Y-154470806D01*
X185612404Y-144245404D02*
X185612404Y-137031804D01*
X182100804Y-144626404D02*
G75*
G02X181719804Y-144345404I-50000J331000D01*
G01*
X185612403Y-137031804D02*
G75*
G03X185131404Y-136650804I-430920J-49900D01*
G01*
X185231402Y-144626404D02*
G75*
G03X185612404Y-144245404I101J380901D01*
G01*
X181719803Y-137031805D02*
G75*
G02X182000804Y-136650804I330801J50148D01*
G01*
X181719804Y-137031804D02*
X181719804Y-144345404D01*
X182100804Y-144626404D02*
X185231404Y-144626404D01*
X183005704Y-136701604D02*
G75*
G03X184275704Y-136701604I635000J0D01*
G01*
X185118704Y-136650804D02*
X184275704Y-136650804D01*
X182000804Y-136650804D02*
X183005704Y-136650804D01*
X185612404Y-126425402D02*
X185612404Y-119211802D01*
X182100804Y-126806402D02*
G75*
G02X181719804Y-126525402I-50000J331000D01*
G01*
X185612403Y-119211802D02*
G75*
G03X185131404Y-118830802I-430920J-49900D01*
G01*
X185231402Y-126806402D02*
G75*
G03X185612404Y-126425402I101J380901D01*
G01*
X181719803Y-119211803D02*
G75*
G02X182000804Y-118830802I330801J50148D01*
G01*
X181719804Y-119211802D02*
X181719804Y-126525402D01*
X182100804Y-126806402D02*
X185231404Y-126806402D01*
X183005704Y-118881602D02*
G75*
G03X184275704Y-118881602I635000J0D01*
G01*
X185118704Y-118830802D02*
X184275704Y-118830802D01*
X182000804Y-118830802D02*
X183005704Y-118830802D01*
X185612404Y-108605400D02*
X185612404Y-101391800D01*
X182100804Y-108986400D02*
G75*
G02X181719804Y-108705400I-50000J331000D01*
G01*
X185612403Y-101391800D02*
G75*
G03X185131404Y-101010800I-430920J-49900D01*
G01*
X185231402Y-108986400D02*
G75*
G03X185612404Y-108605400I101J380901D01*
G01*
X181719803Y-101391801D02*
G75*
G02X182000804Y-101010800I330801J50148D01*
G01*
X181719804Y-101391800D02*
X181719804Y-108705400D01*
X182100804Y-108986400D02*
X185231404Y-108986400D01*
X183005704Y-101061600D02*
G75*
G03X184275704Y-101061600I635000J0D01*
G01*
X185118704Y-101010800D02*
X184275704Y-101010800D01*
X182000804Y-101010800D02*
X183005704Y-101010800D01*
X168112402Y-179885408D02*
X168112402Y-172671808D01*
X164600802Y-180266408D02*
G75*
G02X164219802Y-179985408I-50000J331000D01*
G01*
X168112401Y-172671808D02*
G75*
G03X167631402Y-172290808I-430920J-49900D01*
G01*
X167731400Y-180266408D02*
G75*
G03X168112402Y-179885408I101J380901D01*
G01*
X164219801Y-172671809D02*
G75*
G02X164500802Y-172290808I330801J50148D01*
G01*
X164219802Y-172671808D02*
X164219802Y-179985408D01*
X164600802Y-180266408D02*
X167731402Y-180266408D01*
X165505702Y-172341608D02*
G75*
G03X166775702Y-172341608I635000J0D01*
G01*
X167618702Y-172290808D02*
X166775702Y-172290808D01*
X164500802Y-172290808D02*
X165505702Y-172290808D01*
X168112402Y-162065406D02*
X168112402Y-154851806D01*
X164600802Y-162446406D02*
G75*
G02X164219802Y-162165406I-50000J331000D01*
G01*
X168112401Y-154851806D02*
G75*
G03X167631402Y-154470806I-430920J-49900D01*
G01*
X167731400Y-162446406D02*
G75*
G03X168112402Y-162065406I101J380901D01*
G01*
X164219801Y-154851807D02*
G75*
G02X164500802Y-154470806I330801J50148D01*
G01*
X164219802Y-154851806D02*
X164219802Y-162165406D01*
X164600802Y-162446406D02*
X167731402Y-162446406D01*
X165505702Y-154521606D02*
G75*
G03X166775702Y-154521606I635000J0D01*
G01*
X167618702Y-154470806D02*
X166775702Y-154470806D01*
X164500802Y-154470806D02*
X165505702Y-154470806D01*
X168112402Y-144245404D02*
X168112402Y-137031804D01*
X164600802Y-144626404D02*
G75*
G02X164219802Y-144345404I-50000J331000D01*
G01*
X168112401Y-137031804D02*
G75*
G03X167631402Y-136650804I-430920J-49900D01*
G01*
X167731400Y-144626404D02*
G75*
G03X168112402Y-144245404I101J380901D01*
G01*
X164219801Y-137031805D02*
G75*
G02X164500802Y-136650804I330801J50148D01*
G01*
X164219802Y-137031804D02*
X164219802Y-144345404D01*
X164600802Y-144626404D02*
X167731402Y-144626404D01*
X165505702Y-136701604D02*
G75*
G03X166775702Y-136701604I635000J0D01*
G01*
X167618702Y-136650804D02*
X166775702Y-136650804D01*
X164500802Y-136650804D02*
X165505702Y-136650804D01*
X168112402Y-126425402D02*
X168112402Y-119211802D01*
X164600802Y-126806402D02*
G75*
G02X164219802Y-126525402I-50000J331000D01*
G01*
X168112401Y-119211802D02*
G75*
G03X167631402Y-118830802I-430920J-49900D01*
G01*
X167731400Y-126806402D02*
G75*
G03X168112402Y-126425402I101J380901D01*
G01*
X164219801Y-119211803D02*
G75*
G02X164500802Y-118830802I330801J50148D01*
G01*
X164219802Y-119211802D02*
X164219802Y-126525402D01*
X164600802Y-126806402D02*
X167731402Y-126806402D01*
X165505702Y-118881602D02*
G75*
G03X166775702Y-118881602I635000J0D01*
G01*
X167618702Y-118830802D02*
X166775702Y-118830802D01*
X164500802Y-118830802D02*
X165505702Y-118830802D01*
X168112402Y-108605400D02*
X168112402Y-101391800D01*
X164600802Y-108986400D02*
G75*
G02X164219802Y-108705400I-50000J331000D01*
G01*
X168112401Y-101391800D02*
G75*
G03X167631402Y-101010800I-430920J-49900D01*
G01*
X167731400Y-108986400D02*
G75*
G03X168112402Y-108605400I101J380901D01*
G01*
X164219801Y-101391801D02*
G75*
G02X164500802Y-101010800I330801J50148D01*
G01*
X164219802Y-101391800D02*
X164219802Y-108705400D01*
X164600802Y-108986400D02*
X167731402Y-108986400D01*
X165505702Y-101061600D02*
G75*
G03X166775702Y-101061600I635000J0D01*
G01*
X167618702Y-101010800D02*
X166775702Y-101010800D01*
X164500802Y-101010800D02*
X165505702Y-101010800D01*
X150612400Y-179885408D02*
X150612400Y-172671808D01*
X147100800Y-180266408D02*
G75*
G02X146719800Y-179985408I-50000J331000D01*
G01*
X150612399Y-172671808D02*
G75*
G03X150131400Y-172290808I-430920J-49900D01*
G01*
X150231398Y-180266408D02*
G75*
G03X150612400Y-179885408I101J380901D01*
G01*
X146719799Y-172671809D02*
G75*
G02X147000800Y-172290808I330801J50148D01*
G01*
X146719800Y-172671808D02*
X146719800Y-179985408D01*
X147100800Y-180266408D02*
X150231400Y-180266408D01*
X148005700Y-172341608D02*
G75*
G03X149275700Y-172341608I635000J0D01*
G01*
X150118700Y-172290808D02*
X149275700Y-172290808D01*
X147000800Y-172290808D02*
X148005700Y-172290808D01*
X150612400Y-162065406D02*
X150612400Y-154851806D01*
X147100800Y-162446406D02*
G75*
G02X146719800Y-162165406I-50000J331000D01*
G01*
X150612399Y-154851806D02*
G75*
G03X150131400Y-154470806I-430920J-49900D01*
G01*
X150231398Y-162446406D02*
G75*
G03X150612400Y-162065406I101J380901D01*
G01*
X146719799Y-154851807D02*
G75*
G02X147000800Y-154470806I330801J50148D01*
G01*
X146719800Y-154851806D02*
X146719800Y-162165406D01*
X147100800Y-162446406D02*
X150231400Y-162446406D01*
X148005700Y-154521606D02*
G75*
G03X149275700Y-154521606I635000J0D01*
G01*
X150118700Y-154470806D02*
X149275700Y-154470806D01*
X147000800Y-154470806D02*
X148005700Y-154470806D01*
X150612400Y-144245404D02*
X150612400Y-137031804D01*
X147100800Y-144626404D02*
G75*
G02X146719800Y-144345404I-50000J331000D01*
G01*
X150612399Y-137031804D02*
G75*
G03X150131400Y-136650804I-430920J-49900D01*
G01*
X150231398Y-144626404D02*
G75*
G03X150612400Y-144245404I101J380901D01*
G01*
X146719799Y-137031805D02*
G75*
G02X147000800Y-136650804I330801J50148D01*
G01*
X146719800Y-137031804D02*
X146719800Y-144345404D01*
X147100800Y-144626404D02*
X150231400Y-144626404D01*
X148005700Y-136701604D02*
G75*
G03X149275700Y-136701604I635000J0D01*
G01*
X150118700Y-136650804D02*
X149275700Y-136650804D01*
X147000800Y-136650804D02*
X148005700Y-136650804D01*
X150612400Y-126425402D02*
X150612400Y-119211802D01*
X147100800Y-126806402D02*
G75*
G02X146719800Y-126525402I-50000J331000D01*
G01*
X150612399Y-119211802D02*
G75*
G03X150131400Y-118830802I-430920J-49900D01*
G01*
X150231398Y-126806402D02*
G75*
G03X150612400Y-126425402I101J380901D01*
G01*
X146719799Y-119211803D02*
G75*
G02X147000800Y-118830802I330801J50148D01*
G01*
X146719800Y-119211802D02*
X146719800Y-126525402D01*
X147100800Y-126806402D02*
X150231400Y-126806402D01*
X148005700Y-118881602D02*
G75*
G03X149275700Y-118881602I635000J0D01*
G01*
X150118700Y-118830802D02*
X149275700Y-118830802D01*
X147000800Y-118830802D02*
X148005700Y-118830802D01*
D10*
G36*
X219010008Y-170881408D02*
G01*
X219161808Y-170803208D01*
X219538808Y-171110608D01*
X219797308Y-170852108D01*
X219489908Y-170475108D01*
X219620208Y-170160608D01*
X220104108Y-170111408D01*
X220104108Y-169745808D01*
X219620208Y-169696608D01*
X219489908Y-169382108D01*
X219797308Y-169005108D01*
X219538808Y-168746608D01*
X219161808Y-169054008D01*
X219009972Y-168975791D01*
X218847308Y-168923708D01*
X218798108Y-168439808D01*
X218432508Y-168439808D01*
X218383308Y-168923708D01*
X218068808Y-169054008D01*
X217691808Y-168746608D01*
X217433308Y-169005108D01*
X217740708Y-169382108D01*
X217610408Y-169696608D01*
X217126508Y-169745808D01*
X217126508Y-170111408D01*
X217610408Y-170160608D01*
X217740708Y-170475108D01*
X217433308Y-170852108D01*
X217691808Y-171110608D01*
X218068808Y-170803208D01*
X218143087Y-170845455D01*
X218220608Y-170881408D01*
X218435908Y-170361708D01*
X218435909Y-170361708D01*
X218283808Y-170260101D01*
X218146508Y-169928608D01*
X218168669Y-169786287D01*
X218232999Y-169657415D01*
X218333423Y-169554161D01*
X218460459Y-169486275D01*
X218602109Y-169460169D01*
X218744999Y-169478306D01*
X218875634Y-169538975D01*
X218981680Y-169636447D01*
X219053122Y-169761517D01*
X219083214Y-169902374D01*
X219069114Y-170045719D01*
X219012154Y-170178014D01*
X218917713Y-170286767D01*
X218794708Y-170361708D01*
X219010008Y-170881408D01*
G37*
G36*
X219010008Y-153061406D02*
G01*
X219161808Y-152983206D01*
X219538808Y-153290606D01*
X219797308Y-153032106D01*
X219489908Y-152655106D01*
X219620208Y-152340606D01*
X220104108Y-152291406D01*
X220104108Y-151925806D01*
X219620208Y-151876606D01*
X219489908Y-151562106D01*
X219797308Y-151185106D01*
X219538808Y-150926606D01*
X219161808Y-151234006D01*
X219009972Y-151155789D01*
X218847308Y-151103706D01*
X218798108Y-150619806D01*
X218432508Y-150619806D01*
X218383308Y-151103706D01*
X218068808Y-151234006D01*
X217691808Y-150926606D01*
X217433308Y-151185106D01*
X217740708Y-151562106D01*
X217610408Y-151876606D01*
X217126508Y-151925806D01*
X217126508Y-152291406D01*
X217610408Y-152340606D01*
X217740708Y-152655106D01*
X217433308Y-153032106D01*
X217691808Y-153290606D01*
X218068808Y-152983206D01*
X218143087Y-153025453D01*
X218220608Y-153061406D01*
X218435908Y-152541706D01*
X218435909Y-152541706D01*
X218283808Y-152440099D01*
X218146508Y-152108606D01*
X218168669Y-151966285D01*
X218232999Y-151837413D01*
X218333423Y-151734159D01*
X218460459Y-151666273D01*
X218602109Y-151640167D01*
X218744999Y-151658304D01*
X218875634Y-151718973D01*
X218981680Y-151816445D01*
X219053122Y-151941515D01*
X219083214Y-152082372D01*
X219069114Y-152225717D01*
X219012154Y-152358012D01*
X218917713Y-152466765D01*
X218794708Y-152541706D01*
X219010008Y-153061406D01*
G37*
G36*
X219010008Y-135241404D02*
G01*
X219161808Y-135163204D01*
X219538808Y-135470604D01*
X219797308Y-135212104D01*
X219489908Y-134835104D01*
X219620208Y-134520604D01*
X220104108Y-134471404D01*
X220104108Y-134105804D01*
X219620208Y-134056604D01*
X219489908Y-133742104D01*
X219797308Y-133365104D01*
X219538808Y-133106604D01*
X219161808Y-133414004D01*
X219009972Y-133335787D01*
X218847308Y-133283704D01*
X218798108Y-132799804D01*
X218432508Y-132799804D01*
X218383308Y-133283704D01*
X218068808Y-133414004D01*
X217691808Y-133106604D01*
X217433308Y-133365104D01*
X217740708Y-133742104D01*
X217610408Y-134056604D01*
X217126508Y-134105804D01*
X217126508Y-134471404D01*
X217610408Y-134520604D01*
X217740708Y-134835104D01*
X217433308Y-135212104D01*
X217691808Y-135470604D01*
X218068808Y-135163204D01*
X218143087Y-135205451D01*
X218220608Y-135241404D01*
X218435908Y-134721704D01*
X218435909Y-134721704D01*
X218283808Y-134620097D01*
X218146508Y-134288604D01*
X218168669Y-134146283D01*
X218232999Y-134017411D01*
X218333423Y-133914157D01*
X218460459Y-133846271D01*
X218602109Y-133820165D01*
X218744999Y-133838302D01*
X218875634Y-133898971D01*
X218981680Y-133996443D01*
X219053122Y-134121513D01*
X219083214Y-134262370D01*
X219069114Y-134405715D01*
X219012154Y-134538010D01*
X218917713Y-134646763D01*
X218794708Y-134721704D01*
X219010008Y-135241404D01*
G37*
G36*
X219010008Y-117421402D02*
G01*
X219161808Y-117343202D01*
X219538808Y-117650602D01*
X219797308Y-117392102D01*
X219489908Y-117015102D01*
X219620208Y-116700602D01*
X220104108Y-116651402D01*
X220104108Y-116285802D01*
X219620208Y-116236602D01*
X219489908Y-115922102D01*
X219797308Y-115545102D01*
X219538808Y-115286602D01*
X219161808Y-115594002D01*
X219009972Y-115515785D01*
X218847308Y-115463702D01*
X218798108Y-114979802D01*
X218432508Y-114979802D01*
X218383308Y-115463702D01*
X218068808Y-115594002D01*
X217691808Y-115286602D01*
X217433308Y-115545102D01*
X217740708Y-115922102D01*
X217610408Y-116236602D01*
X217126508Y-116285802D01*
X217126508Y-116651402D01*
X217610408Y-116700602D01*
X217740708Y-117015102D01*
X217433308Y-117392102D01*
X217691808Y-117650602D01*
X218068808Y-117343202D01*
X218143087Y-117385449D01*
X218220608Y-117421402D01*
X218435908Y-116901702D01*
X218435909Y-116901702D01*
X218283808Y-116800095D01*
X218146508Y-116468602D01*
X218168669Y-116326281D01*
X218232999Y-116197409D01*
X218333423Y-116094155D01*
X218460459Y-116026269D01*
X218602109Y-116000163D01*
X218744999Y-116018300D01*
X218875634Y-116078969D01*
X218981680Y-116176441D01*
X219053122Y-116301511D01*
X219083214Y-116442368D01*
X219069114Y-116585713D01*
X219012154Y-116718008D01*
X218917713Y-116826761D01*
X218794708Y-116901702D01*
X219010008Y-117421402D01*
G37*
G36*
X219010008Y-99601400D02*
G01*
X219161808Y-99523200D01*
X219538808Y-99830600D01*
X219797308Y-99572100D01*
X219489908Y-99195100D01*
X219620208Y-98880600D01*
X220104108Y-98831400D01*
X220104108Y-98465800D01*
X219620208Y-98416600D01*
X219489908Y-98102100D01*
X219797308Y-97725100D01*
X219538808Y-97466600D01*
X219161808Y-97774000D01*
X219009972Y-97695783D01*
X218847308Y-97643700D01*
X218798108Y-97159800D01*
X218432508Y-97159800D01*
X218383308Y-97643700D01*
X218068808Y-97774000D01*
X217691808Y-97466600D01*
X217433308Y-97725100D01*
X217740708Y-98102100D01*
X217610408Y-98416600D01*
X217126508Y-98465800D01*
X217126508Y-98831400D01*
X217610408Y-98880600D01*
X217740708Y-99195100D01*
X217433308Y-99572100D01*
X217691808Y-99830600D01*
X218068808Y-99523200D01*
X218143087Y-99565447D01*
X218220608Y-99601400D01*
X218435908Y-99081700D01*
X218435909Y-99081700D01*
X218283808Y-98980093D01*
X218146508Y-98648600D01*
X218168669Y-98506279D01*
X218232999Y-98377407D01*
X218333423Y-98274153D01*
X218460459Y-98206267D01*
X218602109Y-98180161D01*
X218744999Y-98198298D01*
X218875634Y-98258967D01*
X218981680Y-98356439D01*
X219053122Y-98481509D01*
X219083214Y-98622366D01*
X219069114Y-98765711D01*
X219012154Y-98898006D01*
X218917713Y-99006759D01*
X218794708Y-99081700D01*
X219010008Y-99601400D01*
G37*
G36*
X201510006Y-170881408D02*
G01*
X201661806Y-170803208D01*
X202038806Y-171110608D01*
X202297306Y-170852108D01*
X201989906Y-170475108D01*
X202120206Y-170160608D01*
X202604106Y-170111408D01*
X202604106Y-169745808D01*
X202120206Y-169696608D01*
X201989906Y-169382108D01*
X202297306Y-169005108D01*
X202038806Y-168746608D01*
X201661806Y-169054008D01*
X201509970Y-168975791D01*
X201347306Y-168923708D01*
X201298106Y-168439808D01*
X200932506Y-168439808D01*
X200883306Y-168923708D01*
X200568806Y-169054008D01*
X200191806Y-168746608D01*
X199933306Y-169005108D01*
X200240706Y-169382108D01*
X200110406Y-169696608D01*
X199626506Y-169745808D01*
X199626506Y-170111408D01*
X200110406Y-170160608D01*
X200240706Y-170475108D01*
X199933306Y-170852108D01*
X200191806Y-171110608D01*
X200568806Y-170803208D01*
X200643085Y-170845455D01*
X200720606Y-170881408D01*
X200935906Y-170361708D01*
X200935907Y-170361708D01*
X200783806Y-170260101D01*
X200646506Y-169928608D01*
X200668667Y-169786287D01*
X200732997Y-169657415D01*
X200833421Y-169554161D01*
X200960457Y-169486275D01*
X201102107Y-169460169D01*
X201244997Y-169478306D01*
X201375632Y-169538975D01*
X201481678Y-169636447D01*
X201553120Y-169761517D01*
X201583212Y-169902374D01*
X201569112Y-170045719D01*
X201512152Y-170178014D01*
X201417711Y-170286767D01*
X201294706Y-170361708D01*
X201510006Y-170881408D01*
G37*
G36*
X201510006Y-153061406D02*
G01*
X201661806Y-152983206D01*
X202038806Y-153290606D01*
X202297306Y-153032106D01*
X201989906Y-152655106D01*
X202120206Y-152340606D01*
X202604106Y-152291406D01*
X202604106Y-151925806D01*
X202120206Y-151876606D01*
X201989906Y-151562106D01*
X202297306Y-151185106D01*
X202038806Y-150926606D01*
X201661806Y-151234006D01*
X201509970Y-151155789D01*
X201347306Y-151103706D01*
X201298106Y-150619806D01*
X200932506Y-150619806D01*
X200883306Y-151103706D01*
X200568806Y-151234006D01*
X200191806Y-150926606D01*
X199933306Y-151185106D01*
X200240706Y-151562106D01*
X200110406Y-151876606D01*
X199626506Y-151925806D01*
X199626506Y-152291406D01*
X200110406Y-152340606D01*
X200240706Y-152655106D01*
X199933306Y-153032106D01*
X200191806Y-153290606D01*
X200568806Y-152983206D01*
X200643085Y-153025453D01*
X200720606Y-153061406D01*
X200935906Y-152541706D01*
X200935907Y-152541706D01*
X200783806Y-152440099D01*
X200646506Y-152108606D01*
X200668667Y-151966285D01*
X200732997Y-151837413D01*
X200833421Y-151734159D01*
X200960457Y-151666273D01*
X201102107Y-151640167D01*
X201244997Y-151658304D01*
X201375632Y-151718973D01*
X201481678Y-151816445D01*
X201553120Y-151941515D01*
X201583212Y-152082372D01*
X201569112Y-152225717D01*
X201512152Y-152358012D01*
X201417711Y-152466765D01*
X201294706Y-152541706D01*
X201510006Y-153061406D01*
G37*
G36*
X201510006Y-135241404D02*
G01*
X201661806Y-135163204D01*
X202038806Y-135470604D01*
X202297306Y-135212104D01*
X201989906Y-134835104D01*
X202120206Y-134520604D01*
X202604106Y-134471404D01*
X202604106Y-134105804D01*
X202120206Y-134056604D01*
X201989906Y-133742104D01*
X202297306Y-133365104D01*
X202038806Y-133106604D01*
X201661806Y-133414004D01*
X201509970Y-133335787D01*
X201347306Y-133283704D01*
X201298106Y-132799804D01*
X200932506Y-132799804D01*
X200883306Y-133283704D01*
X200568806Y-133414004D01*
X200191806Y-133106604D01*
X199933306Y-133365104D01*
X200240706Y-133742104D01*
X200110406Y-134056604D01*
X199626506Y-134105804D01*
X199626506Y-134471404D01*
X200110406Y-134520604D01*
X200240706Y-134835104D01*
X199933306Y-135212104D01*
X200191806Y-135470604D01*
X200568806Y-135163204D01*
X200643085Y-135205451D01*
X200720606Y-135241404D01*
X200935906Y-134721704D01*
X200935907Y-134721704D01*
X200783806Y-134620097D01*
X200646506Y-134288604D01*
X200668667Y-134146283D01*
X200732997Y-134017411D01*
X200833421Y-133914157D01*
X200960457Y-133846271D01*
X201102107Y-133820165D01*
X201244997Y-133838302D01*
X201375632Y-133898971D01*
X201481678Y-133996443D01*
X201553120Y-134121513D01*
X201583212Y-134262370D01*
X201569112Y-134405715D01*
X201512152Y-134538010D01*
X201417711Y-134646763D01*
X201294706Y-134721704D01*
X201510006Y-135241404D01*
G37*
G36*
X201510006Y-117421402D02*
G01*
X201661806Y-117343202D01*
X202038806Y-117650602D01*
X202297306Y-117392102D01*
X201989906Y-117015102D01*
X202120206Y-116700602D01*
X202604106Y-116651402D01*
X202604106Y-116285802D01*
X202120206Y-116236602D01*
X201989906Y-115922102D01*
X202297306Y-115545102D01*
X202038806Y-115286602D01*
X201661806Y-115594002D01*
X201509970Y-115515785D01*
X201347306Y-115463702D01*
X201298106Y-114979802D01*
X200932506Y-114979802D01*
X200883306Y-115463702D01*
X200568806Y-115594002D01*
X200191806Y-115286602D01*
X199933306Y-115545102D01*
X200240706Y-115922102D01*
X200110406Y-116236602D01*
X199626506Y-116285802D01*
X199626506Y-116651402D01*
X200110406Y-116700602D01*
X200240706Y-117015102D01*
X199933306Y-117392102D01*
X200191806Y-117650602D01*
X200568806Y-117343202D01*
X200643085Y-117385449D01*
X200720606Y-117421402D01*
X200935906Y-116901702D01*
X200935907Y-116901702D01*
X200783806Y-116800095D01*
X200646506Y-116468602D01*
X200668667Y-116326281D01*
X200732997Y-116197409D01*
X200833421Y-116094155D01*
X200960457Y-116026269D01*
X201102107Y-116000163D01*
X201244997Y-116018300D01*
X201375632Y-116078969D01*
X201481678Y-116176441D01*
X201553120Y-116301511D01*
X201583212Y-116442368D01*
X201569112Y-116585713D01*
X201512152Y-116718008D01*
X201417711Y-116826761D01*
X201294706Y-116901702D01*
X201510006Y-117421402D01*
G37*
G36*
X201510006Y-99601400D02*
G01*
X201661806Y-99523200D01*
X202038806Y-99830600D01*
X202297306Y-99572100D01*
X201989906Y-99195100D01*
X202120206Y-98880600D01*
X202604106Y-98831400D01*
X202604106Y-98465800D01*
X202120206Y-98416600D01*
X201989906Y-98102100D01*
X202297306Y-97725100D01*
X202038806Y-97466600D01*
X201661806Y-97774000D01*
X201509970Y-97695783D01*
X201347306Y-97643700D01*
X201298106Y-97159800D01*
X200932506Y-97159800D01*
X200883306Y-97643700D01*
X200568806Y-97774000D01*
X200191806Y-97466600D01*
X199933306Y-97725100D01*
X200240706Y-98102100D01*
X200110406Y-98416600D01*
X199626506Y-98465800D01*
X199626506Y-98831400D01*
X200110406Y-98880600D01*
X200240706Y-99195100D01*
X199933306Y-99572100D01*
X200191806Y-99830600D01*
X200568806Y-99523200D01*
X200643085Y-99565447D01*
X200720606Y-99601400D01*
X200935906Y-99081700D01*
X200935907Y-99081700D01*
X200783806Y-98980093D01*
X200646506Y-98648600D01*
X200668667Y-98506279D01*
X200732997Y-98377407D01*
X200833421Y-98274153D01*
X200960457Y-98206267D01*
X201102107Y-98180161D01*
X201244997Y-98198298D01*
X201375632Y-98258967D01*
X201481678Y-98356439D01*
X201553120Y-98481509D01*
X201583212Y-98622366D01*
X201569112Y-98765711D01*
X201512152Y-98898006D01*
X201417711Y-99006759D01*
X201294706Y-99081700D01*
X201510006Y-99601400D01*
G37*
G36*
X184010004Y-170881408D02*
G01*
X184161804Y-170803208D01*
X184538804Y-171110608D01*
X184797304Y-170852108D01*
X184489904Y-170475108D01*
X184620204Y-170160608D01*
X185104104Y-170111408D01*
X185104104Y-169745808D01*
X184620204Y-169696608D01*
X184489904Y-169382108D01*
X184797304Y-169005108D01*
X184538804Y-168746608D01*
X184161804Y-169054008D01*
X184009968Y-168975791D01*
X183847304Y-168923708D01*
X183798104Y-168439808D01*
X183432504Y-168439808D01*
X183383304Y-168923708D01*
X183068804Y-169054008D01*
X182691804Y-168746608D01*
X182433304Y-169005108D01*
X182740704Y-169382108D01*
X182610404Y-169696608D01*
X182126504Y-169745808D01*
X182126504Y-170111408D01*
X182610404Y-170160608D01*
X182740704Y-170475108D01*
X182433304Y-170852108D01*
X182691804Y-171110608D01*
X183068804Y-170803208D01*
X183143083Y-170845455D01*
X183220604Y-170881408D01*
X183435904Y-170361708D01*
X183435905Y-170361708D01*
X183283804Y-170260101D01*
X183146504Y-169928608D01*
X183168665Y-169786287D01*
X183232995Y-169657415D01*
X183333419Y-169554161D01*
X183460455Y-169486275D01*
X183602105Y-169460169D01*
X183744995Y-169478306D01*
X183875630Y-169538975D01*
X183981676Y-169636447D01*
X184053118Y-169761517D01*
X184083210Y-169902374D01*
X184069110Y-170045719D01*
X184012150Y-170178014D01*
X183917709Y-170286767D01*
X183794704Y-170361708D01*
X184010004Y-170881408D01*
G37*
G36*
X184010004Y-153061406D02*
G01*
X184161804Y-152983206D01*
X184538804Y-153290606D01*
X184797304Y-153032106D01*
X184489904Y-152655106D01*
X184620204Y-152340606D01*
X185104104Y-152291406D01*
X185104104Y-151925806D01*
X184620204Y-151876606D01*
X184489904Y-151562106D01*
X184797304Y-151185106D01*
X184538804Y-150926606D01*
X184161804Y-151234006D01*
X184009968Y-151155789D01*
X183847304Y-151103706D01*
X183798104Y-150619806D01*
X183432504Y-150619806D01*
X183383304Y-151103706D01*
X183068804Y-151234006D01*
X182691804Y-150926606D01*
X182433304Y-151185106D01*
X182740704Y-151562106D01*
X182610404Y-151876606D01*
X182126504Y-151925806D01*
X182126504Y-152291406D01*
X182610404Y-152340606D01*
X182740704Y-152655106D01*
X182433304Y-153032106D01*
X182691804Y-153290606D01*
X183068804Y-152983206D01*
X183143083Y-153025453D01*
X183220604Y-153061406D01*
X183435904Y-152541706D01*
X183435905Y-152541706D01*
X183283804Y-152440099D01*
X183146504Y-152108606D01*
X183168665Y-151966285D01*
X183232995Y-151837413D01*
X183333419Y-151734159D01*
X183460455Y-151666273D01*
X183602105Y-151640167D01*
X183744995Y-151658304D01*
X183875630Y-151718973D01*
X183981676Y-151816445D01*
X184053118Y-151941515D01*
X184083210Y-152082372D01*
X184069110Y-152225717D01*
X184012150Y-152358012D01*
X183917709Y-152466765D01*
X183794704Y-152541706D01*
X184010004Y-153061406D01*
G37*
G36*
X184010004Y-135241404D02*
G01*
X184161804Y-135163204D01*
X184538804Y-135470604D01*
X184797304Y-135212104D01*
X184489904Y-134835104D01*
X184620204Y-134520604D01*
X185104104Y-134471404D01*
X185104104Y-134105804D01*
X184620204Y-134056604D01*
X184489904Y-133742104D01*
X184797304Y-133365104D01*
X184538804Y-133106604D01*
X184161804Y-133414004D01*
X184009968Y-133335787D01*
X183847304Y-133283704D01*
X183798104Y-132799804D01*
X183432504Y-132799804D01*
X183383304Y-133283704D01*
X183068804Y-133414004D01*
X182691804Y-133106604D01*
X182433304Y-133365104D01*
X182740704Y-133742104D01*
X182610404Y-134056604D01*
X182126504Y-134105804D01*
X182126504Y-134471404D01*
X182610404Y-134520604D01*
X182740704Y-134835104D01*
X182433304Y-135212104D01*
X182691804Y-135470604D01*
X183068804Y-135163204D01*
X183143083Y-135205451D01*
X183220604Y-135241404D01*
X183435904Y-134721704D01*
X183435905Y-134721704D01*
X183283804Y-134620097D01*
X183146504Y-134288604D01*
X183168665Y-134146283D01*
X183232995Y-134017411D01*
X183333419Y-133914157D01*
X183460455Y-133846271D01*
X183602105Y-133820165D01*
X183744995Y-133838302D01*
X183875630Y-133898971D01*
X183981676Y-133996443D01*
X184053118Y-134121513D01*
X184083210Y-134262370D01*
X184069110Y-134405715D01*
X184012150Y-134538010D01*
X183917709Y-134646763D01*
X183794704Y-134721704D01*
X184010004Y-135241404D01*
G37*
G36*
X184010004Y-117421402D02*
G01*
X184161804Y-117343202D01*
X184538804Y-117650602D01*
X184797304Y-117392102D01*
X184489904Y-117015102D01*
X184620204Y-116700602D01*
X185104104Y-116651402D01*
X185104104Y-116285802D01*
X184620204Y-116236602D01*
X184489904Y-115922102D01*
X184797304Y-115545102D01*
X184538804Y-115286602D01*
X184161804Y-115594002D01*
X184009968Y-115515785D01*
X183847304Y-115463702D01*
X183798104Y-114979802D01*
X183432504Y-114979802D01*
X183383304Y-115463702D01*
X183068804Y-115594002D01*
X182691804Y-115286602D01*
X182433304Y-115545102D01*
X182740704Y-115922102D01*
X182610404Y-116236602D01*
X182126504Y-116285802D01*
X182126504Y-116651402D01*
X182610404Y-116700602D01*
X182740704Y-117015102D01*
X182433304Y-117392102D01*
X182691804Y-117650602D01*
X183068804Y-117343202D01*
X183143083Y-117385449D01*
X183220604Y-117421402D01*
X183435904Y-116901702D01*
X183435905Y-116901702D01*
X183283804Y-116800095D01*
X183146504Y-116468602D01*
X183168665Y-116326281D01*
X183232995Y-116197409D01*
X183333419Y-116094155D01*
X183460455Y-116026269D01*
X183602105Y-116000163D01*
X183744995Y-116018300D01*
X183875630Y-116078969D01*
X183981676Y-116176441D01*
X184053118Y-116301511D01*
X184083210Y-116442368D01*
X184069110Y-116585713D01*
X184012150Y-116718008D01*
X183917709Y-116826761D01*
X183794704Y-116901702D01*
X184010004Y-117421402D01*
G37*
G36*
X184010004Y-99601400D02*
G01*
X184161804Y-99523200D01*
X184538804Y-99830600D01*
X184797304Y-99572100D01*
X184489904Y-99195100D01*
X184620204Y-98880600D01*
X185104104Y-98831400D01*
X185104104Y-98465800D01*
X184620204Y-98416600D01*
X184489904Y-98102100D01*
X184797304Y-97725100D01*
X184538804Y-97466600D01*
X184161804Y-97774000D01*
X184009968Y-97695783D01*
X183847304Y-97643700D01*
X183798104Y-97159800D01*
X183432504Y-97159800D01*
X183383304Y-97643700D01*
X183068804Y-97774000D01*
X182691804Y-97466600D01*
X182433304Y-97725100D01*
X182740704Y-98102100D01*
X182610404Y-98416600D01*
X182126504Y-98465800D01*
X182126504Y-98831400D01*
X182610404Y-98880600D01*
X182740704Y-99195100D01*
X182433304Y-99572100D01*
X182691804Y-99830600D01*
X183068804Y-99523200D01*
X183143083Y-99565447D01*
X183220604Y-99601400D01*
X183435904Y-99081700D01*
X183435905Y-99081700D01*
X183283804Y-98980093D01*
X183146504Y-98648600D01*
X183168665Y-98506279D01*
X183232995Y-98377407D01*
X183333419Y-98274153D01*
X183460455Y-98206267D01*
X183602105Y-98180161D01*
X183744995Y-98198298D01*
X183875630Y-98258967D01*
X183981676Y-98356439D01*
X184053118Y-98481509D01*
X184083210Y-98622366D01*
X184069110Y-98765711D01*
X184012150Y-98898006D01*
X183917709Y-99006759D01*
X183794704Y-99081700D01*
X184010004Y-99601400D01*
G37*
G36*
X166510002Y-170881408D02*
G01*
X166661802Y-170803208D01*
X167038802Y-171110608D01*
X167297302Y-170852108D01*
X166989902Y-170475108D01*
X167120202Y-170160608D01*
X167604102Y-170111408D01*
X167604102Y-169745808D01*
X167120202Y-169696608D01*
X166989902Y-169382108D01*
X167297302Y-169005108D01*
X167038802Y-168746608D01*
X166661802Y-169054008D01*
X166509966Y-168975791D01*
X166347302Y-168923708D01*
X166298102Y-168439808D01*
X165932502Y-168439808D01*
X165883302Y-168923708D01*
X165568802Y-169054008D01*
X165191802Y-168746608D01*
X164933302Y-169005108D01*
X165240702Y-169382108D01*
X165110402Y-169696608D01*
X164626502Y-169745808D01*
X164626502Y-170111408D01*
X165110402Y-170160608D01*
X165240702Y-170475108D01*
X164933302Y-170852108D01*
X165191802Y-171110608D01*
X165568802Y-170803208D01*
X165643081Y-170845455D01*
X165720602Y-170881408D01*
X165935902Y-170361708D01*
X165935903Y-170361708D01*
X165783802Y-170260101D01*
X165646502Y-169928608D01*
X165668663Y-169786287D01*
X165732993Y-169657415D01*
X165833417Y-169554161D01*
X165960453Y-169486275D01*
X166102103Y-169460169D01*
X166244993Y-169478306D01*
X166375628Y-169538975D01*
X166481674Y-169636447D01*
X166553116Y-169761517D01*
X166583208Y-169902374D01*
X166569108Y-170045719D01*
X166512148Y-170178014D01*
X166417707Y-170286767D01*
X166294702Y-170361708D01*
X166510002Y-170881408D01*
G37*
G36*
X166510002Y-153061406D02*
G01*
X166661802Y-152983206D01*
X167038802Y-153290606D01*
X167297302Y-153032106D01*
X166989902Y-152655106D01*
X167120202Y-152340606D01*
X167604102Y-152291406D01*
X167604102Y-151925806D01*
X167120202Y-151876606D01*
X166989902Y-151562106D01*
X167297302Y-151185106D01*
X167038802Y-150926606D01*
X166661802Y-151234006D01*
X166509966Y-151155789D01*
X166347302Y-151103706D01*
X166298102Y-150619806D01*
X165932502Y-150619806D01*
X165883302Y-151103706D01*
X165568802Y-151234006D01*
X165191802Y-150926606D01*
X164933302Y-151185106D01*
X165240702Y-151562106D01*
X165110402Y-151876606D01*
X164626502Y-151925806D01*
X164626502Y-152291406D01*
X165110402Y-152340606D01*
X165240702Y-152655106D01*
X164933302Y-153032106D01*
X165191802Y-153290606D01*
X165568802Y-152983206D01*
X165643081Y-153025453D01*
X165720602Y-153061406D01*
X165935902Y-152541706D01*
X165935903Y-152541706D01*
X165783802Y-152440099D01*
X165646502Y-152108606D01*
X165668663Y-151966285D01*
X165732993Y-151837413D01*
X165833417Y-151734159D01*
X165960453Y-151666273D01*
X166102103Y-151640167D01*
X166244993Y-151658304D01*
X166375628Y-151718973D01*
X166481674Y-151816445D01*
X166553116Y-151941515D01*
X166583208Y-152082372D01*
X166569108Y-152225717D01*
X166512148Y-152358012D01*
X166417707Y-152466765D01*
X166294702Y-152541706D01*
X166510002Y-153061406D01*
G37*
G36*
X166510002Y-135241404D02*
G01*
X166661802Y-135163204D01*
X167038802Y-135470604D01*
X167297302Y-135212104D01*
X166989902Y-134835104D01*
X167120202Y-134520604D01*
X167604102Y-134471404D01*
X167604102Y-134105804D01*
X167120202Y-134056604D01*
X166989902Y-133742104D01*
X167297302Y-133365104D01*
X167038802Y-133106604D01*
X166661802Y-133414004D01*
X166509966Y-133335787D01*
X166347302Y-133283704D01*
X166298102Y-132799804D01*
X165932502Y-132799804D01*
X165883302Y-133283704D01*
X165568802Y-133414004D01*
X165191802Y-133106604D01*
X164933302Y-133365104D01*
X165240702Y-133742104D01*
X165110402Y-134056604D01*
X164626502Y-134105804D01*
X164626502Y-134471404D01*
X165110402Y-134520604D01*
X165240702Y-134835104D01*
X164933302Y-135212104D01*
X165191802Y-135470604D01*
X165568802Y-135163204D01*
X165643081Y-135205451D01*
X165720602Y-135241404D01*
X165935902Y-134721704D01*
X165935903Y-134721704D01*
X165783802Y-134620097D01*
X165646502Y-134288604D01*
X165668663Y-134146283D01*
X165732993Y-134017411D01*
X165833417Y-133914157D01*
X165960453Y-133846271D01*
X166102103Y-133820165D01*
X166244993Y-133838302D01*
X166375628Y-133898971D01*
X166481674Y-133996443D01*
X166553116Y-134121513D01*
X166583208Y-134262370D01*
X166569108Y-134405715D01*
X166512148Y-134538010D01*
X166417707Y-134646763D01*
X166294702Y-134721704D01*
X166510002Y-135241404D01*
G37*
G36*
X166510002Y-117421402D02*
G01*
X166661802Y-117343202D01*
X167038802Y-117650602D01*
X167297302Y-117392102D01*
X166989902Y-117015102D01*
X167120202Y-116700602D01*
X167604102Y-116651402D01*
X167604102Y-116285802D01*
X167120202Y-116236602D01*
X166989902Y-115922102D01*
X167297302Y-115545102D01*
X167038802Y-115286602D01*
X166661802Y-115594002D01*
X166509966Y-115515785D01*
X166347302Y-115463702D01*
X166298102Y-114979802D01*
X165932502Y-114979802D01*
X165883302Y-115463702D01*
X165568802Y-115594002D01*
X165191802Y-115286602D01*
X164933302Y-115545102D01*
X165240702Y-115922102D01*
X165110402Y-116236602D01*
X164626502Y-116285802D01*
X164626502Y-116651402D01*
X165110402Y-116700602D01*
X165240702Y-117015102D01*
X164933302Y-117392102D01*
X165191802Y-117650602D01*
X165568802Y-117343202D01*
X165643081Y-117385449D01*
X165720602Y-117421402D01*
X165935902Y-116901702D01*
X165935903Y-116901702D01*
X165783802Y-116800095D01*
X165646502Y-116468602D01*
X165668663Y-116326281D01*
X165732993Y-116197409D01*
X165833417Y-116094155D01*
X165960453Y-116026269D01*
X166102103Y-116000163D01*
X166244993Y-116018300D01*
X166375628Y-116078969D01*
X166481674Y-116176441D01*
X166553116Y-116301511D01*
X166583208Y-116442368D01*
X166569108Y-116585713D01*
X166512148Y-116718008D01*
X166417707Y-116826761D01*
X166294702Y-116901702D01*
X166510002Y-117421402D01*
G37*
G36*
X166510002Y-99601400D02*
G01*
X166661802Y-99523200D01*
X167038802Y-99830600D01*
X167297302Y-99572100D01*
X166989902Y-99195100D01*
X167120202Y-98880600D01*
X167604102Y-98831400D01*
X167604102Y-98465800D01*
X167120202Y-98416600D01*
X166989902Y-98102100D01*
X167297302Y-97725100D01*
X167038802Y-97466600D01*
X166661802Y-97774000D01*
X166509966Y-97695783D01*
X166347302Y-97643700D01*
X166298102Y-97159800D01*
X165932502Y-97159800D01*
X165883302Y-97643700D01*
X165568802Y-97774000D01*
X165191802Y-97466600D01*
X164933302Y-97725100D01*
X165240702Y-98102100D01*
X165110402Y-98416600D01*
X164626502Y-98465800D01*
X164626502Y-98831400D01*
X165110402Y-98880600D01*
X165240702Y-99195100D01*
X164933302Y-99572100D01*
X165191802Y-99830600D01*
X165568802Y-99523200D01*
X165643081Y-99565447D01*
X165720602Y-99601400D01*
X165935902Y-99081700D01*
X165935903Y-99081700D01*
X165783802Y-98980093D01*
X165646502Y-98648600D01*
X165668663Y-98506279D01*
X165732993Y-98377407D01*
X165833417Y-98274153D01*
X165960453Y-98206267D01*
X166102103Y-98180161D01*
X166244993Y-98198298D01*
X166375628Y-98258967D01*
X166481674Y-98356439D01*
X166553116Y-98481509D01*
X166583208Y-98622366D01*
X166569108Y-98765711D01*
X166512148Y-98898006D01*
X166417707Y-99006759D01*
X166294702Y-99081700D01*
X166510002Y-99601400D01*
G37*
G36*
X149010000Y-170881408D02*
G01*
X149161800Y-170803208D01*
X149538800Y-171110608D01*
X149797300Y-170852108D01*
X149489900Y-170475108D01*
X149620200Y-170160608D01*
X150104100Y-170111408D01*
X150104100Y-169745808D01*
X149620200Y-169696608D01*
X149489900Y-169382108D01*
X149797300Y-169005108D01*
X149538800Y-168746608D01*
X149161800Y-169054008D01*
X149009964Y-168975791D01*
X148847300Y-168923708D01*
X148798100Y-168439808D01*
X148432500Y-168439808D01*
X148383300Y-168923708D01*
X148068800Y-169054008D01*
X147691800Y-168746608D01*
X147433300Y-169005108D01*
X147740700Y-169382108D01*
X147610400Y-169696608D01*
X147126500Y-169745808D01*
X147126500Y-170111408D01*
X147610400Y-170160608D01*
X147740700Y-170475108D01*
X147433300Y-170852108D01*
X147691800Y-171110608D01*
X148068800Y-170803208D01*
X148143079Y-170845455D01*
X148220600Y-170881408D01*
X148435900Y-170361708D01*
X148435901Y-170361708D01*
X148283800Y-170260101D01*
X148146500Y-169928608D01*
X148168661Y-169786287D01*
X148232991Y-169657415D01*
X148333415Y-169554161D01*
X148460451Y-169486275D01*
X148602101Y-169460169D01*
X148744991Y-169478306D01*
X148875626Y-169538975D01*
X148981672Y-169636447D01*
X149053114Y-169761517D01*
X149083206Y-169902374D01*
X149069106Y-170045719D01*
X149012146Y-170178014D01*
X148917705Y-170286767D01*
X148794700Y-170361708D01*
X149010000Y-170881408D01*
G37*
G36*
X149010000Y-153061406D02*
G01*
X149161800Y-152983206D01*
X149538800Y-153290606D01*
X149797300Y-153032106D01*
X149489900Y-152655106D01*
X149620200Y-152340606D01*
X150104100Y-152291406D01*
X150104100Y-151925806D01*
X149620200Y-151876606D01*
X149489900Y-151562106D01*
X149797300Y-151185106D01*
X149538800Y-150926606D01*
X149161800Y-151234006D01*
X149009964Y-151155789D01*
X148847300Y-151103706D01*
X148798100Y-150619806D01*
X148432500Y-150619806D01*
X148383300Y-151103706D01*
X148068800Y-151234006D01*
X147691800Y-150926606D01*
X147433300Y-151185106D01*
X147740700Y-151562106D01*
X147610400Y-151876606D01*
X147126500Y-151925806D01*
X147126500Y-152291406D01*
X147610400Y-152340606D01*
X147740700Y-152655106D01*
X147433300Y-153032106D01*
X147691800Y-153290606D01*
X148068800Y-152983206D01*
X148143079Y-153025453D01*
X148220600Y-153061406D01*
X148435900Y-152541706D01*
X148435901Y-152541706D01*
X148283800Y-152440099D01*
X148146500Y-152108606D01*
X148168661Y-151966285D01*
X148232991Y-151837413D01*
X148333415Y-151734159D01*
X148460451Y-151666273D01*
X148602101Y-151640167D01*
X148744991Y-151658304D01*
X148875626Y-151718973D01*
X148981672Y-151816445D01*
X149053114Y-151941515D01*
X149083206Y-152082372D01*
X149069106Y-152225717D01*
X149012146Y-152358012D01*
X148917705Y-152466765D01*
X148794700Y-152541706D01*
X149010000Y-153061406D01*
G37*
G36*
X149010000Y-135241404D02*
G01*
X149161800Y-135163204D01*
X149538800Y-135470604D01*
X149797300Y-135212104D01*
X149489900Y-134835104D01*
X149620200Y-134520604D01*
X150104100Y-134471404D01*
X150104100Y-134105804D01*
X149620200Y-134056604D01*
X149489900Y-133742104D01*
X149797300Y-133365104D01*
X149538800Y-133106604D01*
X149161800Y-133414004D01*
X149009964Y-133335787D01*
X148847300Y-133283704D01*
X148798100Y-132799804D01*
X148432500Y-132799804D01*
X148383300Y-133283704D01*
X148068800Y-133414004D01*
X147691800Y-133106604D01*
X147433300Y-133365104D01*
X147740700Y-133742104D01*
X147610400Y-134056604D01*
X147126500Y-134105804D01*
X147126500Y-134471404D01*
X147610400Y-134520604D01*
X147740700Y-134835104D01*
X147433300Y-135212104D01*
X147691800Y-135470604D01*
X148068800Y-135163204D01*
X148143079Y-135205451D01*
X148220600Y-135241404D01*
X148435900Y-134721704D01*
X148435901Y-134721704D01*
X148283800Y-134620097D01*
X148146500Y-134288604D01*
X148168661Y-134146283D01*
X148232991Y-134017411D01*
X148333415Y-133914157D01*
X148460451Y-133846271D01*
X148602101Y-133820165D01*
X148744991Y-133838302D01*
X148875626Y-133898971D01*
X148981672Y-133996443D01*
X149053114Y-134121513D01*
X149083206Y-134262370D01*
X149069106Y-134405715D01*
X149012146Y-134538010D01*
X148917705Y-134646763D01*
X148794700Y-134721704D01*
X149010000Y-135241404D01*
G37*
G36*
X149010000Y-117421402D02*
G01*
X149161800Y-117343202D01*
X149538800Y-117650602D01*
X149797300Y-117392102D01*
X149489900Y-117015102D01*
X149620200Y-116700602D01*
X150104100Y-116651402D01*
X150104100Y-116285802D01*
X149620200Y-116236602D01*
X149489900Y-115922102D01*
X149797300Y-115545102D01*
X149538800Y-115286602D01*
X149161800Y-115594002D01*
X149009964Y-115515785D01*
X148847300Y-115463702D01*
X148798100Y-114979802D01*
X148432500Y-114979802D01*
X148383300Y-115463702D01*
X148068800Y-115594002D01*
X147691800Y-115286602D01*
X147433300Y-115545102D01*
X147740700Y-115922102D01*
X147610400Y-116236602D01*
X147126500Y-116285802D01*
X147126500Y-116651402D01*
X147610400Y-116700602D01*
X147740700Y-117015102D01*
X147433300Y-117392102D01*
X147691800Y-117650602D01*
X148068800Y-117343202D01*
X148143079Y-117385449D01*
X148220600Y-117421402D01*
X148435900Y-116901702D01*
X148435901Y-116901702D01*
X148283800Y-116800095D01*
X148146500Y-116468602D01*
X148168661Y-116326281D01*
X148232991Y-116197409D01*
X148333415Y-116094155D01*
X148460451Y-116026269D01*
X148602101Y-116000163D01*
X148744991Y-116018300D01*
X148875626Y-116078969D01*
X148981672Y-116176441D01*
X149053114Y-116301511D01*
X149083206Y-116442368D01*
X149069106Y-116585713D01*
X149012146Y-116718008D01*
X148917705Y-116826761D01*
X148794700Y-116901702D01*
X149010000Y-117421402D01*
G37*
G36*
X149010000Y-99601400D02*
G01*
X149161800Y-99523200D01*
X149538800Y-99830600D01*
X149797300Y-99572100D01*
X149489900Y-99195100D01*
X149620200Y-98880600D01*
X150104100Y-98831400D01*
X150104100Y-98465800D01*
X149620200Y-98416600D01*
X149489900Y-98102100D01*
X149797300Y-97725100D01*
X149538800Y-97466600D01*
X149161800Y-97774000D01*
X149009964Y-97695783D01*
X148847300Y-97643700D01*
X148798100Y-97159800D01*
X148432500Y-97159800D01*
X148383300Y-97643700D01*
X148068800Y-97774000D01*
X147691800Y-97466600D01*
X147433300Y-97725100D01*
X147740700Y-98102100D01*
X147610400Y-98416600D01*
X147126500Y-98465800D01*
X147126500Y-98831400D01*
X147610400Y-98880600D01*
X147740700Y-99195100D01*
X147433300Y-99572100D01*
X147691800Y-99830600D01*
X148068800Y-99523200D01*
X148143079Y-99565447D01*
X148220600Y-99601400D01*
X148435900Y-99081700D01*
X148435901Y-99081700D01*
X148283800Y-98980093D01*
X148146500Y-98648600D01*
X148168661Y-98506279D01*
X148232991Y-98377407D01*
X148333415Y-98274153D01*
X148460451Y-98206267D01*
X148602101Y-98180161D01*
X148744991Y-98198298D01*
X148875626Y-98258967D01*
X148981672Y-98356439D01*
X149053114Y-98481509D01*
X149083206Y-98622366D01*
X149069106Y-98765711D01*
X149012146Y-98898006D01*
X148917705Y-99006759D01*
X148794700Y-99081700D01*
X149010000Y-99601400D01*
G37*
D12*
X147000800Y-101010800D02*
X148005700Y-101010800D01*
X150118700Y-101010800D02*
X149275700Y-101010800D01*
X148005700Y-101061600D02*
G75*
G03X149275700Y-101061600I635000J0D01*
G01*
X147100800Y-108986400D02*
X150231400Y-108986400D01*
X146719800Y-101391800D02*
X146719800Y-108705400D01*
X146719799Y-101391801D02*
G75*
G02X147000800Y-101010800I330801J50148D01*
G01*
X150231398Y-108986400D02*
G75*
G03X150612400Y-108605400I101J380901D01*
G01*
X150612399Y-101391800D02*
G75*
G03X150131400Y-101010800I-430920J-49900D01*
G01*
X147100800Y-108986400D02*
G75*
G02X146719800Y-108705400I-50000J331000D01*
G01*
X150612400Y-108605400D02*
X150612400Y-101391800D01*
M02*
