G04 #@! TF.GenerationSoftware,KiCad,Pcbnew,5.1.5-5.1.5*
G04 #@! TF.CreationDate,2020-06-01T10:48:51+10:00*
G04 #@! TF.ProjectId,SOIC12-TSSOP12_panelized,534f4943-3132-42d5-9453-534f5031325f,rev?*
G04 #@! TF.SameCoordinates,Original*
G04 #@! TF.FileFunction,Copper,L1,Top*
G04 #@! TF.FilePolarity,Positive*
%FSLAX46Y46*%
G04 Gerber Fmt 4.6, Leading zero omitted, Abs format (unit mm)*
G04 Created by KiCad (PCBNEW 5.1.5-5.1.5) date 2020-06-01 10:48:51*
%MOMM*%
%LPD*%
G04 APERTURE LIST*
%ADD10C,1.879600*%
%ADD11R,2.032000X0.660400*%
%ADD12C,0.254000*%
G04 APERTURE END LIST*
D10*
X225016108Y-182628608D03*
X225016108Y-180088608D03*
X225016108Y-177548608D03*
X225016108Y-175008608D03*
X225016108Y-172468608D03*
X225016108Y-169928608D03*
X225016108Y-164808606D03*
X225016108Y-162268606D03*
X225016108Y-159728606D03*
X225016108Y-157188606D03*
X225016108Y-154648606D03*
X225016108Y-152108606D03*
X225016108Y-146988604D03*
X225016108Y-144448604D03*
X225016108Y-141908604D03*
X225016108Y-139368604D03*
X225016108Y-136828604D03*
X225016108Y-134288604D03*
X225016108Y-129168602D03*
X225016108Y-126628602D03*
X225016108Y-124088602D03*
X225016108Y-121548602D03*
X225016108Y-119008602D03*
X225016108Y-116468602D03*
X225016108Y-111348600D03*
X225016108Y-108808600D03*
X225016108Y-106268600D03*
X225016108Y-103728600D03*
X225016108Y-101188600D03*
X225016108Y-98648600D03*
X207516106Y-182628608D03*
X207516106Y-180088608D03*
X207516106Y-177548608D03*
X207516106Y-175008608D03*
X207516106Y-172468608D03*
X207516106Y-169928608D03*
X207516106Y-164808606D03*
X207516106Y-162268606D03*
X207516106Y-159728606D03*
X207516106Y-157188606D03*
X207516106Y-154648606D03*
X207516106Y-152108606D03*
X207516106Y-146988604D03*
X207516106Y-144448604D03*
X207516106Y-141908604D03*
X207516106Y-139368604D03*
X207516106Y-136828604D03*
X207516106Y-134288604D03*
X207516106Y-129168602D03*
X207516106Y-126628602D03*
X207516106Y-124088602D03*
X207516106Y-121548602D03*
X207516106Y-119008602D03*
X207516106Y-116468602D03*
X207516106Y-111348600D03*
X207516106Y-108808600D03*
X207516106Y-106268600D03*
X207516106Y-103728600D03*
X207516106Y-101188600D03*
X207516106Y-98648600D03*
X190016104Y-182628608D03*
X190016104Y-180088608D03*
X190016104Y-177548608D03*
X190016104Y-175008608D03*
X190016104Y-172468608D03*
X190016104Y-169928608D03*
X190016104Y-164808606D03*
X190016104Y-162268606D03*
X190016104Y-159728606D03*
X190016104Y-157188606D03*
X190016104Y-154648606D03*
X190016104Y-152108606D03*
X190016104Y-146988604D03*
X190016104Y-144448604D03*
X190016104Y-141908604D03*
X190016104Y-139368604D03*
X190016104Y-136828604D03*
X190016104Y-134288604D03*
X190016104Y-129168602D03*
X190016104Y-126628602D03*
X190016104Y-124088602D03*
X190016104Y-121548602D03*
X190016104Y-119008602D03*
X190016104Y-116468602D03*
X190016104Y-111348600D03*
X190016104Y-108808600D03*
X190016104Y-106268600D03*
X190016104Y-103728600D03*
X190016104Y-101188600D03*
X190016104Y-98648600D03*
X172516102Y-182628608D03*
X172516102Y-180088608D03*
X172516102Y-177548608D03*
X172516102Y-175008608D03*
X172516102Y-172468608D03*
X172516102Y-169928608D03*
X172516102Y-164808606D03*
X172516102Y-162268606D03*
X172516102Y-159728606D03*
X172516102Y-157188606D03*
X172516102Y-154648606D03*
X172516102Y-152108606D03*
X172516102Y-146988604D03*
X172516102Y-144448604D03*
X172516102Y-141908604D03*
X172516102Y-139368604D03*
X172516102Y-136828604D03*
X172516102Y-134288604D03*
X172516102Y-129168602D03*
X172516102Y-126628602D03*
X172516102Y-124088602D03*
X172516102Y-121548602D03*
X172516102Y-119008602D03*
X172516102Y-116468602D03*
X172516102Y-111348600D03*
X172516102Y-108808600D03*
X172516102Y-106268600D03*
X172516102Y-103728600D03*
X172516102Y-101188600D03*
X172516102Y-98648600D03*
X155016100Y-182628608D03*
X155016100Y-180088608D03*
X155016100Y-177548608D03*
X155016100Y-175008608D03*
X155016100Y-172468608D03*
X155016100Y-169928608D03*
X155016100Y-164808606D03*
X155016100Y-162268606D03*
X155016100Y-159728606D03*
X155016100Y-157188606D03*
X155016100Y-154648606D03*
X155016100Y-152108606D03*
X155016100Y-146988604D03*
X155016100Y-144448604D03*
X155016100Y-141908604D03*
X155016100Y-139368604D03*
X155016100Y-136828604D03*
X155016100Y-134288604D03*
X155016100Y-129168602D03*
X155016100Y-126628602D03*
X155016100Y-124088602D03*
X155016100Y-121548602D03*
X155016100Y-119008602D03*
X155016100Y-116468602D03*
X212316108Y-182628608D03*
X212316108Y-180088608D03*
X212316108Y-177548608D03*
X212316108Y-175008608D03*
X212316108Y-172468608D03*
X212316108Y-169928608D03*
X212316108Y-164808606D03*
X212316108Y-162268606D03*
X212316108Y-159728606D03*
X212316108Y-157188606D03*
X212316108Y-154648606D03*
X212316108Y-152108606D03*
X212316108Y-146988604D03*
X212316108Y-144448604D03*
X212316108Y-141908604D03*
X212316108Y-139368604D03*
X212316108Y-136828604D03*
X212316108Y-134288604D03*
X212316108Y-129168602D03*
X212316108Y-126628602D03*
X212316108Y-124088602D03*
X212316108Y-121548602D03*
X212316108Y-119008602D03*
X212316108Y-116468602D03*
X212316108Y-111348600D03*
X212316108Y-108808600D03*
X212316108Y-106268600D03*
X212316108Y-103728600D03*
X212316108Y-101188600D03*
X212316108Y-98648600D03*
X194816106Y-182628608D03*
X194816106Y-180088608D03*
X194816106Y-177548608D03*
X194816106Y-175008608D03*
X194816106Y-172468608D03*
X194816106Y-169928608D03*
X194816106Y-164808606D03*
X194816106Y-162268606D03*
X194816106Y-159728606D03*
X194816106Y-157188606D03*
X194816106Y-154648606D03*
X194816106Y-152108606D03*
X194816106Y-146988604D03*
X194816106Y-144448604D03*
X194816106Y-141908604D03*
X194816106Y-139368604D03*
X194816106Y-136828604D03*
X194816106Y-134288604D03*
X194816106Y-129168602D03*
X194816106Y-126628602D03*
X194816106Y-124088602D03*
X194816106Y-121548602D03*
X194816106Y-119008602D03*
X194816106Y-116468602D03*
X194816106Y-111348600D03*
X194816106Y-108808600D03*
X194816106Y-106268600D03*
X194816106Y-103728600D03*
X194816106Y-101188600D03*
X194816106Y-98648600D03*
X177316104Y-182628608D03*
X177316104Y-180088608D03*
X177316104Y-177548608D03*
X177316104Y-175008608D03*
X177316104Y-172468608D03*
X177316104Y-169928608D03*
X177316104Y-164808606D03*
X177316104Y-162268606D03*
X177316104Y-159728606D03*
X177316104Y-157188606D03*
X177316104Y-154648606D03*
X177316104Y-152108606D03*
X177316104Y-146988604D03*
X177316104Y-144448604D03*
X177316104Y-141908604D03*
X177316104Y-139368604D03*
X177316104Y-136828604D03*
X177316104Y-134288604D03*
X177316104Y-129168602D03*
X177316104Y-126628602D03*
X177316104Y-124088602D03*
X177316104Y-121548602D03*
X177316104Y-119008602D03*
X177316104Y-116468602D03*
X177316104Y-111348600D03*
X177316104Y-108808600D03*
X177316104Y-106268600D03*
X177316104Y-103728600D03*
X177316104Y-101188600D03*
X177316104Y-98648600D03*
X159816102Y-182628608D03*
X159816102Y-180088608D03*
X159816102Y-177548608D03*
X159816102Y-175008608D03*
X159816102Y-172468608D03*
X159816102Y-169928608D03*
X159816102Y-164808606D03*
X159816102Y-162268606D03*
X159816102Y-159728606D03*
X159816102Y-157188606D03*
X159816102Y-154648606D03*
X159816102Y-152108606D03*
X159816102Y-146988604D03*
X159816102Y-144448604D03*
X159816102Y-141908604D03*
X159816102Y-139368604D03*
X159816102Y-136828604D03*
X159816102Y-134288604D03*
X159816102Y-129168602D03*
X159816102Y-126628602D03*
X159816102Y-124088602D03*
X159816102Y-121548602D03*
X159816102Y-119008602D03*
X159816102Y-116468602D03*
X159816102Y-111348600D03*
X159816102Y-108808600D03*
X159816102Y-106268600D03*
X159816102Y-103728600D03*
X159816102Y-101188600D03*
X159816102Y-98648600D03*
X142316100Y-182628608D03*
X142316100Y-180088608D03*
X142316100Y-177548608D03*
X142316100Y-175008608D03*
X142316100Y-172468608D03*
X142316100Y-169928608D03*
X142316100Y-164808606D03*
X142316100Y-162268606D03*
X142316100Y-159728606D03*
X142316100Y-157188606D03*
X142316100Y-154648606D03*
X142316100Y-152108606D03*
X142316100Y-146988604D03*
X142316100Y-144448604D03*
X142316100Y-141908604D03*
X142316100Y-139368604D03*
X142316100Y-136828604D03*
X142316100Y-134288604D03*
X142316100Y-129168602D03*
X142316100Y-126628602D03*
X142316100Y-124088602D03*
X142316100Y-121548602D03*
X142316100Y-119008602D03*
X142316100Y-116468602D03*
D11*
X215351408Y-173103608D03*
X215351408Y-174373608D03*
X215351408Y-175643608D03*
X215351408Y-176913608D03*
X215351408Y-178183608D03*
X215351408Y-179453608D03*
X221980808Y-179453608D03*
X221980808Y-178183608D03*
X221980808Y-176913608D03*
X221980808Y-175643608D03*
X221980808Y-174373608D03*
X221980808Y-173103608D03*
X215351408Y-155283606D03*
X215351408Y-156553606D03*
X215351408Y-157823606D03*
X215351408Y-159093606D03*
X215351408Y-160363606D03*
X215351408Y-161633606D03*
X221980808Y-161633606D03*
X221980808Y-160363606D03*
X221980808Y-159093606D03*
X221980808Y-157823606D03*
X221980808Y-156553606D03*
X221980808Y-155283606D03*
X215351408Y-137463604D03*
X215351408Y-138733604D03*
X215351408Y-140003604D03*
X215351408Y-141273604D03*
X215351408Y-142543604D03*
X215351408Y-143813604D03*
X221980808Y-143813604D03*
X221980808Y-142543604D03*
X221980808Y-141273604D03*
X221980808Y-140003604D03*
X221980808Y-138733604D03*
X221980808Y-137463604D03*
X215351408Y-119643602D03*
X215351408Y-120913602D03*
X215351408Y-122183602D03*
X215351408Y-123453602D03*
X215351408Y-124723602D03*
X215351408Y-125993602D03*
X221980808Y-125993602D03*
X221980808Y-124723602D03*
X221980808Y-123453602D03*
X221980808Y-122183602D03*
X221980808Y-120913602D03*
X221980808Y-119643602D03*
X215351408Y-101823600D03*
X215351408Y-103093600D03*
X215351408Y-104363600D03*
X215351408Y-105633600D03*
X215351408Y-106903600D03*
X215351408Y-108173600D03*
X221980808Y-108173600D03*
X221980808Y-106903600D03*
X221980808Y-105633600D03*
X221980808Y-104363600D03*
X221980808Y-103093600D03*
X221980808Y-101823600D03*
X197851406Y-173103608D03*
X197851406Y-174373608D03*
X197851406Y-175643608D03*
X197851406Y-176913608D03*
X197851406Y-178183608D03*
X197851406Y-179453608D03*
X204480806Y-179453608D03*
X204480806Y-178183608D03*
X204480806Y-176913608D03*
X204480806Y-175643608D03*
X204480806Y-174373608D03*
X204480806Y-173103608D03*
X197851406Y-155283606D03*
X197851406Y-156553606D03*
X197851406Y-157823606D03*
X197851406Y-159093606D03*
X197851406Y-160363606D03*
X197851406Y-161633606D03*
X204480806Y-161633606D03*
X204480806Y-160363606D03*
X204480806Y-159093606D03*
X204480806Y-157823606D03*
X204480806Y-156553606D03*
X204480806Y-155283606D03*
X197851406Y-137463604D03*
X197851406Y-138733604D03*
X197851406Y-140003604D03*
X197851406Y-141273604D03*
X197851406Y-142543604D03*
X197851406Y-143813604D03*
X204480806Y-143813604D03*
X204480806Y-142543604D03*
X204480806Y-141273604D03*
X204480806Y-140003604D03*
X204480806Y-138733604D03*
X204480806Y-137463604D03*
X197851406Y-119643602D03*
X197851406Y-120913602D03*
X197851406Y-122183602D03*
X197851406Y-123453602D03*
X197851406Y-124723602D03*
X197851406Y-125993602D03*
X204480806Y-125993602D03*
X204480806Y-124723602D03*
X204480806Y-123453602D03*
X204480806Y-122183602D03*
X204480806Y-120913602D03*
X204480806Y-119643602D03*
X197851406Y-101823600D03*
X197851406Y-103093600D03*
X197851406Y-104363600D03*
X197851406Y-105633600D03*
X197851406Y-106903600D03*
X197851406Y-108173600D03*
X204480806Y-108173600D03*
X204480806Y-106903600D03*
X204480806Y-105633600D03*
X204480806Y-104363600D03*
X204480806Y-103093600D03*
X204480806Y-101823600D03*
X180351404Y-173103608D03*
X180351404Y-174373608D03*
X180351404Y-175643608D03*
X180351404Y-176913608D03*
X180351404Y-178183608D03*
X180351404Y-179453608D03*
X186980804Y-179453608D03*
X186980804Y-178183608D03*
X186980804Y-176913608D03*
X186980804Y-175643608D03*
X186980804Y-174373608D03*
X186980804Y-173103608D03*
X180351404Y-155283606D03*
X180351404Y-156553606D03*
X180351404Y-157823606D03*
X180351404Y-159093606D03*
X180351404Y-160363606D03*
X180351404Y-161633606D03*
X186980804Y-161633606D03*
X186980804Y-160363606D03*
X186980804Y-159093606D03*
X186980804Y-157823606D03*
X186980804Y-156553606D03*
X186980804Y-155283606D03*
X180351404Y-137463604D03*
X180351404Y-138733604D03*
X180351404Y-140003604D03*
X180351404Y-141273604D03*
X180351404Y-142543604D03*
X180351404Y-143813604D03*
X186980804Y-143813604D03*
X186980804Y-142543604D03*
X186980804Y-141273604D03*
X186980804Y-140003604D03*
X186980804Y-138733604D03*
X186980804Y-137463604D03*
X180351404Y-119643602D03*
X180351404Y-120913602D03*
X180351404Y-122183602D03*
X180351404Y-123453602D03*
X180351404Y-124723602D03*
X180351404Y-125993602D03*
X186980804Y-125993602D03*
X186980804Y-124723602D03*
X186980804Y-123453602D03*
X186980804Y-122183602D03*
X186980804Y-120913602D03*
X186980804Y-119643602D03*
X180351404Y-101823600D03*
X180351404Y-103093600D03*
X180351404Y-104363600D03*
X180351404Y-105633600D03*
X180351404Y-106903600D03*
X180351404Y-108173600D03*
X186980804Y-108173600D03*
X186980804Y-106903600D03*
X186980804Y-105633600D03*
X186980804Y-104363600D03*
X186980804Y-103093600D03*
X186980804Y-101823600D03*
X162851402Y-173103608D03*
X162851402Y-174373608D03*
X162851402Y-175643608D03*
X162851402Y-176913608D03*
X162851402Y-178183608D03*
X162851402Y-179453608D03*
X169480802Y-179453608D03*
X169480802Y-178183608D03*
X169480802Y-176913608D03*
X169480802Y-175643608D03*
X169480802Y-174373608D03*
X169480802Y-173103608D03*
X162851402Y-155283606D03*
X162851402Y-156553606D03*
X162851402Y-157823606D03*
X162851402Y-159093606D03*
X162851402Y-160363606D03*
X162851402Y-161633606D03*
X169480802Y-161633606D03*
X169480802Y-160363606D03*
X169480802Y-159093606D03*
X169480802Y-157823606D03*
X169480802Y-156553606D03*
X169480802Y-155283606D03*
X162851402Y-137463604D03*
X162851402Y-138733604D03*
X162851402Y-140003604D03*
X162851402Y-141273604D03*
X162851402Y-142543604D03*
X162851402Y-143813604D03*
X169480802Y-143813604D03*
X169480802Y-142543604D03*
X169480802Y-141273604D03*
X169480802Y-140003604D03*
X169480802Y-138733604D03*
X169480802Y-137463604D03*
X162851402Y-119643602D03*
X162851402Y-120913602D03*
X162851402Y-122183602D03*
X162851402Y-123453602D03*
X162851402Y-124723602D03*
X162851402Y-125993602D03*
X169480802Y-125993602D03*
X169480802Y-124723602D03*
X169480802Y-123453602D03*
X169480802Y-122183602D03*
X169480802Y-120913602D03*
X169480802Y-119643602D03*
X162851402Y-101823600D03*
X162851402Y-103093600D03*
X162851402Y-104363600D03*
X162851402Y-105633600D03*
X162851402Y-106903600D03*
X162851402Y-108173600D03*
X169480802Y-108173600D03*
X169480802Y-106903600D03*
X169480802Y-105633600D03*
X169480802Y-104363600D03*
X169480802Y-103093600D03*
X169480802Y-101823600D03*
X145351400Y-173103608D03*
X145351400Y-174373608D03*
X145351400Y-175643608D03*
X145351400Y-176913608D03*
X145351400Y-178183608D03*
X145351400Y-179453608D03*
X151980800Y-179453608D03*
X151980800Y-178183608D03*
X151980800Y-176913608D03*
X151980800Y-175643608D03*
X151980800Y-174373608D03*
X151980800Y-173103608D03*
X145351400Y-155283606D03*
X145351400Y-156553606D03*
X145351400Y-157823606D03*
X145351400Y-159093606D03*
X145351400Y-160363606D03*
X145351400Y-161633606D03*
X151980800Y-161633606D03*
X151980800Y-160363606D03*
X151980800Y-159093606D03*
X151980800Y-157823606D03*
X151980800Y-156553606D03*
X151980800Y-155283606D03*
X145351400Y-137463604D03*
X145351400Y-138733604D03*
X145351400Y-140003604D03*
X145351400Y-141273604D03*
X145351400Y-142543604D03*
X145351400Y-143813604D03*
X151980800Y-143813604D03*
X151980800Y-142543604D03*
X151980800Y-141273604D03*
X151980800Y-140003604D03*
X151980800Y-138733604D03*
X151980800Y-137463604D03*
X145351400Y-119643602D03*
X145351400Y-120913602D03*
X145351400Y-122183602D03*
X145351400Y-123453602D03*
X145351400Y-124723602D03*
X145351400Y-125993602D03*
X151980800Y-125993602D03*
X151980800Y-124723602D03*
X151980800Y-123453602D03*
X151980800Y-122183602D03*
X151980800Y-120913602D03*
X151980800Y-119643602D03*
X151980800Y-101823600D03*
X151980800Y-103093600D03*
X151980800Y-104363600D03*
X151980800Y-105633600D03*
X151980800Y-106903600D03*
X151980800Y-108173600D03*
X145351400Y-108173600D03*
X145351400Y-106903600D03*
X145351400Y-105633600D03*
X145351400Y-104363600D03*
X145351400Y-103093600D03*
X145351400Y-101823600D03*
D10*
X142316100Y-98648600D03*
X142316100Y-101188600D03*
X142316100Y-103728600D03*
X142316100Y-106268600D03*
X142316100Y-108808600D03*
X142316100Y-111348600D03*
X155016100Y-98648600D03*
X155016100Y-101188600D03*
X155016100Y-103728600D03*
X155016100Y-106268600D03*
X155016100Y-108808600D03*
X155016100Y-111348600D03*
D12*
X151980800Y-101823600D02*
X151980800Y-101683900D01*
X151980800Y-101683900D02*
X155016100Y-98648600D01*
X151980800Y-119643602D02*
X151980800Y-119503902D01*
X151980800Y-137463604D02*
X151980800Y-137323904D01*
X151980800Y-155283606D02*
X151980800Y-155143906D01*
X151980800Y-173103608D02*
X151980800Y-172963908D01*
X169480802Y-101823600D02*
X169480802Y-101683900D01*
X169480802Y-119643602D02*
X169480802Y-119503902D01*
X169480802Y-137463604D02*
X169480802Y-137323904D01*
X169480802Y-155283606D02*
X169480802Y-155143906D01*
X169480802Y-173103608D02*
X169480802Y-172963908D01*
X186980804Y-101823600D02*
X186980804Y-101683900D01*
X186980804Y-119643602D02*
X186980804Y-119503902D01*
X186980804Y-137463604D02*
X186980804Y-137323904D01*
X186980804Y-155283606D02*
X186980804Y-155143906D01*
X186980804Y-173103608D02*
X186980804Y-172963908D01*
X204480806Y-101823600D02*
X204480806Y-101683900D01*
X204480806Y-119643602D02*
X204480806Y-119503902D01*
X204480806Y-137463604D02*
X204480806Y-137323904D01*
X204480806Y-155283606D02*
X204480806Y-155143906D01*
X204480806Y-173103608D02*
X204480806Y-172963908D01*
X221980808Y-101823600D02*
X221980808Y-101683900D01*
X221980808Y-119643602D02*
X221980808Y-119503902D01*
X221980808Y-137463604D02*
X221980808Y-137323904D01*
X221980808Y-155283606D02*
X221980808Y-155143906D01*
X221980808Y-173103608D02*
X221980808Y-172963908D01*
X151980800Y-119503902D02*
X155016100Y-116468602D01*
X151980800Y-137323904D02*
X155016100Y-134288604D01*
X151980800Y-155143906D02*
X155016100Y-152108606D01*
X151980800Y-172963908D02*
X155016100Y-169928608D01*
X169480802Y-101683900D02*
X172516102Y-98648600D01*
X169480802Y-119503902D02*
X172516102Y-116468602D01*
X169480802Y-137323904D02*
X172516102Y-134288604D01*
X169480802Y-155143906D02*
X172516102Y-152108606D01*
X169480802Y-172963908D02*
X172516102Y-169928608D01*
X186980804Y-101683900D02*
X190016104Y-98648600D01*
X186980804Y-119503902D02*
X190016104Y-116468602D01*
X186980804Y-137323904D02*
X190016104Y-134288604D01*
X186980804Y-155143906D02*
X190016104Y-152108606D01*
X186980804Y-172963908D02*
X190016104Y-169928608D01*
X204480806Y-101683900D02*
X207516106Y-98648600D01*
X204480806Y-119503902D02*
X207516106Y-116468602D01*
X204480806Y-137323904D02*
X207516106Y-134288604D01*
X204480806Y-155143906D02*
X207516106Y-152108606D01*
X204480806Y-172963908D02*
X207516106Y-169928608D01*
X221980808Y-101683900D02*
X225016108Y-98648600D01*
X221980808Y-119503902D02*
X225016108Y-116468602D01*
X221980808Y-137323904D02*
X225016108Y-134288604D01*
X221980808Y-155143906D02*
X225016108Y-152108606D01*
X221980808Y-172963908D02*
X225016108Y-169928608D01*
X151980800Y-103093600D02*
X153111100Y-103093600D01*
X153111100Y-103093600D02*
X155016100Y-101188600D01*
X151980800Y-120913602D02*
X153111100Y-120913602D01*
X151980800Y-138733604D02*
X153111100Y-138733604D01*
X151980800Y-156553606D02*
X153111100Y-156553606D01*
X151980800Y-174373608D02*
X153111100Y-174373608D01*
X169480802Y-103093600D02*
X170611102Y-103093600D01*
X169480802Y-120913602D02*
X170611102Y-120913602D01*
X169480802Y-138733604D02*
X170611102Y-138733604D01*
X169480802Y-156553606D02*
X170611102Y-156553606D01*
X169480802Y-174373608D02*
X170611102Y-174373608D01*
X186980804Y-103093600D02*
X188111104Y-103093600D01*
X186980804Y-120913602D02*
X188111104Y-120913602D01*
X186980804Y-138733604D02*
X188111104Y-138733604D01*
X186980804Y-156553606D02*
X188111104Y-156553606D01*
X186980804Y-174373608D02*
X188111104Y-174373608D01*
X204480806Y-103093600D02*
X205611106Y-103093600D01*
X204480806Y-120913602D02*
X205611106Y-120913602D01*
X204480806Y-138733604D02*
X205611106Y-138733604D01*
X204480806Y-156553606D02*
X205611106Y-156553606D01*
X204480806Y-174373608D02*
X205611106Y-174373608D01*
X221980808Y-103093600D02*
X223111108Y-103093600D01*
X221980808Y-120913602D02*
X223111108Y-120913602D01*
X221980808Y-138733604D02*
X223111108Y-138733604D01*
X221980808Y-156553606D02*
X223111108Y-156553606D01*
X221980808Y-174373608D02*
X223111108Y-174373608D01*
X153111100Y-120913602D02*
X155016100Y-119008602D01*
X153111100Y-138733604D02*
X155016100Y-136828604D01*
X153111100Y-156553606D02*
X155016100Y-154648606D01*
X153111100Y-174373608D02*
X155016100Y-172468608D01*
X170611102Y-103093600D02*
X172516102Y-101188600D01*
X170611102Y-120913602D02*
X172516102Y-119008602D01*
X170611102Y-138733604D02*
X172516102Y-136828604D01*
X170611102Y-156553606D02*
X172516102Y-154648606D01*
X170611102Y-174373608D02*
X172516102Y-172468608D01*
X188111104Y-103093600D02*
X190016104Y-101188600D01*
X188111104Y-120913602D02*
X190016104Y-119008602D01*
X188111104Y-138733604D02*
X190016104Y-136828604D01*
X188111104Y-156553606D02*
X190016104Y-154648606D01*
X188111104Y-174373608D02*
X190016104Y-172468608D01*
X205611106Y-103093600D02*
X207516106Y-101188600D01*
X205611106Y-120913602D02*
X207516106Y-119008602D01*
X205611106Y-138733604D02*
X207516106Y-136828604D01*
X205611106Y-156553606D02*
X207516106Y-154648606D01*
X205611106Y-174373608D02*
X207516106Y-172468608D01*
X223111108Y-103093600D02*
X225016108Y-101188600D01*
X223111108Y-120913602D02*
X225016108Y-119008602D01*
X223111108Y-138733604D02*
X225016108Y-136828604D01*
X223111108Y-156553606D02*
X225016108Y-154648606D01*
X223111108Y-174373608D02*
X225016108Y-172468608D01*
X151980800Y-104363600D02*
X154381100Y-104363600D01*
X154381100Y-104363600D02*
X155016100Y-103728600D01*
X151980800Y-122183602D02*
X154381100Y-122183602D01*
X151980800Y-140003604D02*
X154381100Y-140003604D01*
X151980800Y-157823606D02*
X154381100Y-157823606D01*
X151980800Y-175643608D02*
X154381100Y-175643608D01*
X169480802Y-104363600D02*
X171881102Y-104363600D01*
X169480802Y-122183602D02*
X171881102Y-122183602D01*
X169480802Y-140003604D02*
X171881102Y-140003604D01*
X169480802Y-157823606D02*
X171881102Y-157823606D01*
X169480802Y-175643608D02*
X171881102Y-175643608D01*
X186980804Y-104363600D02*
X189381104Y-104363600D01*
X186980804Y-122183602D02*
X189381104Y-122183602D01*
X186980804Y-140003604D02*
X189381104Y-140003604D01*
X186980804Y-157823606D02*
X189381104Y-157823606D01*
X186980804Y-175643608D02*
X189381104Y-175643608D01*
X204480806Y-104363600D02*
X206881106Y-104363600D01*
X204480806Y-122183602D02*
X206881106Y-122183602D01*
X204480806Y-140003604D02*
X206881106Y-140003604D01*
X204480806Y-157823606D02*
X206881106Y-157823606D01*
X204480806Y-175643608D02*
X206881106Y-175643608D01*
X221980808Y-104363600D02*
X224381108Y-104363600D01*
X221980808Y-122183602D02*
X224381108Y-122183602D01*
X221980808Y-140003604D02*
X224381108Y-140003604D01*
X221980808Y-157823606D02*
X224381108Y-157823606D01*
X221980808Y-175643608D02*
X224381108Y-175643608D01*
X154381100Y-122183602D02*
X155016100Y-121548602D01*
X154381100Y-140003604D02*
X155016100Y-139368604D01*
X154381100Y-157823606D02*
X155016100Y-157188606D01*
X154381100Y-175643608D02*
X155016100Y-175008608D01*
X171881102Y-104363600D02*
X172516102Y-103728600D01*
X171881102Y-122183602D02*
X172516102Y-121548602D01*
X171881102Y-140003604D02*
X172516102Y-139368604D01*
X171881102Y-157823606D02*
X172516102Y-157188606D01*
X171881102Y-175643608D02*
X172516102Y-175008608D01*
X189381104Y-104363600D02*
X190016104Y-103728600D01*
X189381104Y-122183602D02*
X190016104Y-121548602D01*
X189381104Y-140003604D02*
X190016104Y-139368604D01*
X189381104Y-157823606D02*
X190016104Y-157188606D01*
X189381104Y-175643608D02*
X190016104Y-175008608D01*
X206881106Y-104363600D02*
X207516106Y-103728600D01*
X206881106Y-122183602D02*
X207516106Y-121548602D01*
X206881106Y-140003604D02*
X207516106Y-139368604D01*
X206881106Y-157823606D02*
X207516106Y-157188606D01*
X206881106Y-175643608D02*
X207516106Y-175008608D01*
X224381108Y-104363600D02*
X225016108Y-103728600D01*
X224381108Y-122183602D02*
X225016108Y-121548602D01*
X224381108Y-140003604D02*
X225016108Y-139368604D01*
X224381108Y-157823606D02*
X225016108Y-157188606D01*
X224381108Y-175643608D02*
X225016108Y-175008608D01*
X151980800Y-105633600D02*
X154381100Y-105633600D01*
X154381100Y-105633600D02*
X155016100Y-106268600D01*
X151980800Y-123453602D02*
X154381100Y-123453602D01*
X151980800Y-141273604D02*
X154381100Y-141273604D01*
X151980800Y-159093606D02*
X154381100Y-159093606D01*
X151980800Y-176913608D02*
X154381100Y-176913608D01*
X169480802Y-105633600D02*
X171881102Y-105633600D01*
X169480802Y-123453602D02*
X171881102Y-123453602D01*
X169480802Y-141273604D02*
X171881102Y-141273604D01*
X169480802Y-159093606D02*
X171881102Y-159093606D01*
X169480802Y-176913608D02*
X171881102Y-176913608D01*
X186980804Y-105633600D02*
X189381104Y-105633600D01*
X186980804Y-123453602D02*
X189381104Y-123453602D01*
X186980804Y-141273604D02*
X189381104Y-141273604D01*
X186980804Y-159093606D02*
X189381104Y-159093606D01*
X186980804Y-176913608D02*
X189381104Y-176913608D01*
X204480806Y-105633600D02*
X206881106Y-105633600D01*
X204480806Y-123453602D02*
X206881106Y-123453602D01*
X204480806Y-141273604D02*
X206881106Y-141273604D01*
X204480806Y-159093606D02*
X206881106Y-159093606D01*
X204480806Y-176913608D02*
X206881106Y-176913608D01*
X221980808Y-105633600D02*
X224381108Y-105633600D01*
X221980808Y-123453602D02*
X224381108Y-123453602D01*
X221980808Y-141273604D02*
X224381108Y-141273604D01*
X221980808Y-159093606D02*
X224381108Y-159093606D01*
X221980808Y-176913608D02*
X224381108Y-176913608D01*
X154381100Y-123453602D02*
X155016100Y-124088602D01*
X154381100Y-141273604D02*
X155016100Y-141908604D01*
X154381100Y-159093606D02*
X155016100Y-159728606D01*
X154381100Y-176913608D02*
X155016100Y-177548608D01*
X171881102Y-105633600D02*
X172516102Y-106268600D01*
X171881102Y-123453602D02*
X172516102Y-124088602D01*
X171881102Y-141273604D02*
X172516102Y-141908604D01*
X171881102Y-159093606D02*
X172516102Y-159728606D01*
X171881102Y-176913608D02*
X172516102Y-177548608D01*
X189381104Y-105633600D02*
X190016104Y-106268600D01*
X189381104Y-123453602D02*
X190016104Y-124088602D01*
X189381104Y-141273604D02*
X190016104Y-141908604D01*
X189381104Y-159093606D02*
X190016104Y-159728606D01*
X189381104Y-176913608D02*
X190016104Y-177548608D01*
X206881106Y-105633600D02*
X207516106Y-106268600D01*
X206881106Y-123453602D02*
X207516106Y-124088602D01*
X206881106Y-141273604D02*
X207516106Y-141908604D01*
X206881106Y-159093606D02*
X207516106Y-159728606D01*
X206881106Y-176913608D02*
X207516106Y-177548608D01*
X224381108Y-105633600D02*
X225016108Y-106268600D01*
X224381108Y-123453602D02*
X225016108Y-124088602D01*
X224381108Y-141273604D02*
X225016108Y-141908604D01*
X224381108Y-159093606D02*
X225016108Y-159728606D01*
X224381108Y-176913608D02*
X225016108Y-177548608D01*
X151980800Y-106903600D02*
X153111100Y-106903600D01*
X153111100Y-106903600D02*
X155016100Y-108808600D01*
X151980800Y-124723602D02*
X153111100Y-124723602D01*
X151980800Y-142543604D02*
X153111100Y-142543604D01*
X151980800Y-160363606D02*
X153111100Y-160363606D01*
X151980800Y-178183608D02*
X153111100Y-178183608D01*
X169480802Y-106903600D02*
X170611102Y-106903600D01*
X169480802Y-124723602D02*
X170611102Y-124723602D01*
X169480802Y-142543604D02*
X170611102Y-142543604D01*
X169480802Y-160363606D02*
X170611102Y-160363606D01*
X169480802Y-178183608D02*
X170611102Y-178183608D01*
X186980804Y-106903600D02*
X188111104Y-106903600D01*
X186980804Y-124723602D02*
X188111104Y-124723602D01*
X186980804Y-142543604D02*
X188111104Y-142543604D01*
X186980804Y-160363606D02*
X188111104Y-160363606D01*
X186980804Y-178183608D02*
X188111104Y-178183608D01*
X204480806Y-106903600D02*
X205611106Y-106903600D01*
X204480806Y-124723602D02*
X205611106Y-124723602D01*
X204480806Y-142543604D02*
X205611106Y-142543604D01*
X204480806Y-160363606D02*
X205611106Y-160363606D01*
X204480806Y-178183608D02*
X205611106Y-178183608D01*
X221980808Y-106903600D02*
X223111108Y-106903600D01*
X221980808Y-124723602D02*
X223111108Y-124723602D01*
X221980808Y-142543604D02*
X223111108Y-142543604D01*
X221980808Y-160363606D02*
X223111108Y-160363606D01*
X221980808Y-178183608D02*
X223111108Y-178183608D01*
X153111100Y-124723602D02*
X155016100Y-126628602D01*
X153111100Y-142543604D02*
X155016100Y-144448604D01*
X153111100Y-160363606D02*
X155016100Y-162268606D01*
X153111100Y-178183608D02*
X155016100Y-180088608D01*
X170611102Y-106903600D02*
X172516102Y-108808600D01*
X170611102Y-124723602D02*
X172516102Y-126628602D01*
X170611102Y-142543604D02*
X172516102Y-144448604D01*
X170611102Y-160363606D02*
X172516102Y-162268606D01*
X170611102Y-178183608D02*
X172516102Y-180088608D01*
X188111104Y-106903600D02*
X190016104Y-108808600D01*
X188111104Y-124723602D02*
X190016104Y-126628602D01*
X188111104Y-142543604D02*
X190016104Y-144448604D01*
X188111104Y-160363606D02*
X190016104Y-162268606D01*
X188111104Y-178183608D02*
X190016104Y-180088608D01*
X205611106Y-106903600D02*
X207516106Y-108808600D01*
X205611106Y-124723602D02*
X207516106Y-126628602D01*
X205611106Y-142543604D02*
X207516106Y-144448604D01*
X205611106Y-160363606D02*
X207516106Y-162268606D01*
X205611106Y-178183608D02*
X207516106Y-180088608D01*
X223111108Y-106903600D02*
X225016108Y-108808600D01*
X223111108Y-124723602D02*
X225016108Y-126628602D01*
X223111108Y-142543604D02*
X225016108Y-144448604D01*
X223111108Y-160363606D02*
X225016108Y-162268606D01*
X223111108Y-178183608D02*
X225016108Y-180088608D01*
X151980800Y-108173600D02*
X151980800Y-108313300D01*
X151980800Y-108313300D02*
X155016100Y-111348600D01*
X151980800Y-125993602D02*
X151980800Y-126133302D01*
X151980800Y-143813604D02*
X151980800Y-143953304D01*
X151980800Y-161633606D02*
X151980800Y-161773306D01*
X151980800Y-179453608D02*
X151980800Y-179593308D01*
X169480802Y-108173600D02*
X169480802Y-108313300D01*
X169480802Y-125993602D02*
X169480802Y-126133302D01*
X169480802Y-143813604D02*
X169480802Y-143953304D01*
X169480802Y-161633606D02*
X169480802Y-161773306D01*
X169480802Y-179453608D02*
X169480802Y-179593308D01*
X186980804Y-108173600D02*
X186980804Y-108313300D01*
X186980804Y-125993602D02*
X186980804Y-126133302D01*
X186980804Y-143813604D02*
X186980804Y-143953304D01*
X186980804Y-161633606D02*
X186980804Y-161773306D01*
X186980804Y-179453608D02*
X186980804Y-179593308D01*
X204480806Y-108173600D02*
X204480806Y-108313300D01*
X204480806Y-125993602D02*
X204480806Y-126133302D01*
X204480806Y-143813604D02*
X204480806Y-143953304D01*
X204480806Y-161633606D02*
X204480806Y-161773306D01*
X204480806Y-179453608D02*
X204480806Y-179593308D01*
X221980808Y-108173600D02*
X221980808Y-108313300D01*
X221980808Y-125993602D02*
X221980808Y-126133302D01*
X221980808Y-143813604D02*
X221980808Y-143953304D01*
X221980808Y-161633606D02*
X221980808Y-161773306D01*
X221980808Y-179453608D02*
X221980808Y-179593308D01*
X151980800Y-126133302D02*
X155016100Y-129168602D01*
X151980800Y-143953304D02*
X155016100Y-146988604D01*
X151980800Y-161773306D02*
X155016100Y-164808606D01*
X151980800Y-179593308D02*
X155016100Y-182628608D01*
X169480802Y-108313300D02*
X172516102Y-111348600D01*
X169480802Y-126133302D02*
X172516102Y-129168602D01*
X169480802Y-143953304D02*
X172516102Y-146988604D01*
X169480802Y-161773306D02*
X172516102Y-164808606D01*
X169480802Y-179593308D02*
X172516102Y-182628608D01*
X186980804Y-108313300D02*
X190016104Y-111348600D01*
X186980804Y-126133302D02*
X190016104Y-129168602D01*
X186980804Y-143953304D02*
X190016104Y-146988604D01*
X186980804Y-161773306D02*
X190016104Y-164808606D01*
X186980804Y-179593308D02*
X190016104Y-182628608D01*
X204480806Y-108313300D02*
X207516106Y-111348600D01*
X204480806Y-126133302D02*
X207516106Y-129168602D01*
X204480806Y-143953304D02*
X207516106Y-146988604D01*
X204480806Y-161773306D02*
X207516106Y-164808606D01*
X204480806Y-179593308D02*
X207516106Y-182628608D01*
X221980808Y-108313300D02*
X225016108Y-111348600D01*
X221980808Y-126133302D02*
X225016108Y-129168602D01*
X221980808Y-143953304D02*
X225016108Y-146988604D01*
X221980808Y-161773306D02*
X225016108Y-164808606D01*
X221980808Y-179593308D02*
X225016108Y-182628608D01*
X145351400Y-108173600D02*
X145351400Y-108313300D01*
X145351400Y-108313300D02*
X142316100Y-111348600D01*
X145351400Y-125993602D02*
X145351400Y-126133302D01*
X145351400Y-143813604D02*
X145351400Y-143953304D01*
X145351400Y-161633606D02*
X145351400Y-161773306D01*
X145351400Y-179453608D02*
X145351400Y-179593308D01*
X162851402Y-108173600D02*
X162851402Y-108313300D01*
X162851402Y-125993602D02*
X162851402Y-126133302D01*
X162851402Y-143813604D02*
X162851402Y-143953304D01*
X162851402Y-161633606D02*
X162851402Y-161773306D01*
X162851402Y-179453608D02*
X162851402Y-179593308D01*
X180351404Y-108173600D02*
X180351404Y-108313300D01*
X180351404Y-125993602D02*
X180351404Y-126133302D01*
X180351404Y-143813604D02*
X180351404Y-143953304D01*
X180351404Y-161633606D02*
X180351404Y-161773306D01*
X180351404Y-179453608D02*
X180351404Y-179593308D01*
X197851406Y-108173600D02*
X197851406Y-108313300D01*
X197851406Y-125993602D02*
X197851406Y-126133302D01*
X197851406Y-143813604D02*
X197851406Y-143953304D01*
X197851406Y-161633606D02*
X197851406Y-161773306D01*
X197851406Y-179453608D02*
X197851406Y-179593308D01*
X215351408Y-108173600D02*
X215351408Y-108313300D01*
X215351408Y-125993602D02*
X215351408Y-126133302D01*
X215351408Y-143813604D02*
X215351408Y-143953304D01*
X215351408Y-161633606D02*
X215351408Y-161773306D01*
X215351408Y-179453608D02*
X215351408Y-179593308D01*
X145351400Y-126133302D02*
X142316100Y-129168602D01*
X145351400Y-143953304D02*
X142316100Y-146988604D01*
X145351400Y-161773306D02*
X142316100Y-164808606D01*
X145351400Y-179593308D02*
X142316100Y-182628608D01*
X162851402Y-108313300D02*
X159816102Y-111348600D01*
X162851402Y-126133302D02*
X159816102Y-129168602D01*
X162851402Y-143953304D02*
X159816102Y-146988604D01*
X162851402Y-161773306D02*
X159816102Y-164808606D01*
X162851402Y-179593308D02*
X159816102Y-182628608D01*
X180351404Y-108313300D02*
X177316104Y-111348600D01*
X180351404Y-126133302D02*
X177316104Y-129168602D01*
X180351404Y-143953304D02*
X177316104Y-146988604D01*
X180351404Y-161773306D02*
X177316104Y-164808606D01*
X180351404Y-179593308D02*
X177316104Y-182628608D01*
X197851406Y-108313300D02*
X194816106Y-111348600D01*
X197851406Y-126133302D02*
X194816106Y-129168602D01*
X197851406Y-143953304D02*
X194816106Y-146988604D01*
X197851406Y-161773306D02*
X194816106Y-164808606D01*
X197851406Y-179593308D02*
X194816106Y-182628608D01*
X215351408Y-108313300D02*
X212316108Y-111348600D01*
X215351408Y-126133302D02*
X212316108Y-129168602D01*
X215351408Y-143953304D02*
X212316108Y-146988604D01*
X215351408Y-161773306D02*
X212316108Y-164808606D01*
X215351408Y-179593308D02*
X212316108Y-182628608D01*
X145351400Y-106903600D02*
X144221100Y-106903600D01*
X144221100Y-106903600D02*
X142316100Y-108808600D01*
X145351400Y-124723602D02*
X144221100Y-124723602D01*
X145351400Y-142543604D02*
X144221100Y-142543604D01*
X145351400Y-160363606D02*
X144221100Y-160363606D01*
X145351400Y-178183608D02*
X144221100Y-178183608D01*
X162851402Y-106903600D02*
X161721102Y-106903600D01*
X162851402Y-124723602D02*
X161721102Y-124723602D01*
X162851402Y-142543604D02*
X161721102Y-142543604D01*
X162851402Y-160363606D02*
X161721102Y-160363606D01*
X162851402Y-178183608D02*
X161721102Y-178183608D01*
X180351404Y-106903600D02*
X179221104Y-106903600D01*
X180351404Y-124723602D02*
X179221104Y-124723602D01*
X180351404Y-142543604D02*
X179221104Y-142543604D01*
X180351404Y-160363606D02*
X179221104Y-160363606D01*
X180351404Y-178183608D02*
X179221104Y-178183608D01*
X197851406Y-106903600D02*
X196721106Y-106903600D01*
X197851406Y-124723602D02*
X196721106Y-124723602D01*
X197851406Y-142543604D02*
X196721106Y-142543604D01*
X197851406Y-160363606D02*
X196721106Y-160363606D01*
X197851406Y-178183608D02*
X196721106Y-178183608D01*
X215351408Y-106903600D02*
X214221108Y-106903600D01*
X215351408Y-124723602D02*
X214221108Y-124723602D01*
X215351408Y-142543604D02*
X214221108Y-142543604D01*
X215351408Y-160363606D02*
X214221108Y-160363606D01*
X215351408Y-178183608D02*
X214221108Y-178183608D01*
X144221100Y-124723602D02*
X142316100Y-126628602D01*
X144221100Y-142543604D02*
X142316100Y-144448604D01*
X144221100Y-160363606D02*
X142316100Y-162268606D01*
X144221100Y-178183608D02*
X142316100Y-180088608D01*
X161721102Y-106903600D02*
X159816102Y-108808600D01*
X161721102Y-124723602D02*
X159816102Y-126628602D01*
X161721102Y-142543604D02*
X159816102Y-144448604D01*
X161721102Y-160363606D02*
X159816102Y-162268606D01*
X161721102Y-178183608D02*
X159816102Y-180088608D01*
X179221104Y-106903600D02*
X177316104Y-108808600D01*
X179221104Y-124723602D02*
X177316104Y-126628602D01*
X179221104Y-142543604D02*
X177316104Y-144448604D01*
X179221104Y-160363606D02*
X177316104Y-162268606D01*
X179221104Y-178183608D02*
X177316104Y-180088608D01*
X196721106Y-106903600D02*
X194816106Y-108808600D01*
X196721106Y-124723602D02*
X194816106Y-126628602D01*
X196721106Y-142543604D02*
X194816106Y-144448604D01*
X196721106Y-160363606D02*
X194816106Y-162268606D01*
X196721106Y-178183608D02*
X194816106Y-180088608D01*
X214221108Y-106903600D02*
X212316108Y-108808600D01*
X214221108Y-124723602D02*
X212316108Y-126628602D01*
X214221108Y-142543604D02*
X212316108Y-144448604D01*
X214221108Y-160363606D02*
X212316108Y-162268606D01*
X214221108Y-178183608D02*
X212316108Y-180088608D01*
X145351400Y-105633600D02*
X142951100Y-105633600D01*
X142951100Y-105633600D02*
X142316100Y-106268600D01*
X145351400Y-123453602D02*
X142951100Y-123453602D01*
X145351400Y-141273604D02*
X142951100Y-141273604D01*
X145351400Y-159093606D02*
X142951100Y-159093606D01*
X145351400Y-176913608D02*
X142951100Y-176913608D01*
X162851402Y-105633600D02*
X160451102Y-105633600D01*
X162851402Y-123453602D02*
X160451102Y-123453602D01*
X162851402Y-141273604D02*
X160451102Y-141273604D01*
X162851402Y-159093606D02*
X160451102Y-159093606D01*
X162851402Y-176913608D02*
X160451102Y-176913608D01*
X180351404Y-105633600D02*
X177951104Y-105633600D01*
X180351404Y-123453602D02*
X177951104Y-123453602D01*
X180351404Y-141273604D02*
X177951104Y-141273604D01*
X180351404Y-159093606D02*
X177951104Y-159093606D01*
X180351404Y-176913608D02*
X177951104Y-176913608D01*
X197851406Y-105633600D02*
X195451106Y-105633600D01*
X197851406Y-123453602D02*
X195451106Y-123453602D01*
X197851406Y-141273604D02*
X195451106Y-141273604D01*
X197851406Y-159093606D02*
X195451106Y-159093606D01*
X197851406Y-176913608D02*
X195451106Y-176913608D01*
X215351408Y-105633600D02*
X212951108Y-105633600D01*
X215351408Y-123453602D02*
X212951108Y-123453602D01*
X215351408Y-141273604D02*
X212951108Y-141273604D01*
X215351408Y-159093606D02*
X212951108Y-159093606D01*
X215351408Y-176913608D02*
X212951108Y-176913608D01*
X142951100Y-123453602D02*
X142316100Y-124088602D01*
X142951100Y-141273604D02*
X142316100Y-141908604D01*
X142951100Y-159093606D02*
X142316100Y-159728606D01*
X142951100Y-176913608D02*
X142316100Y-177548608D01*
X160451102Y-105633600D02*
X159816102Y-106268600D01*
X160451102Y-123453602D02*
X159816102Y-124088602D01*
X160451102Y-141273604D02*
X159816102Y-141908604D01*
X160451102Y-159093606D02*
X159816102Y-159728606D01*
X160451102Y-176913608D02*
X159816102Y-177548608D01*
X177951104Y-105633600D02*
X177316104Y-106268600D01*
X177951104Y-123453602D02*
X177316104Y-124088602D01*
X177951104Y-141273604D02*
X177316104Y-141908604D01*
X177951104Y-159093606D02*
X177316104Y-159728606D01*
X177951104Y-176913608D02*
X177316104Y-177548608D01*
X195451106Y-105633600D02*
X194816106Y-106268600D01*
X195451106Y-123453602D02*
X194816106Y-124088602D01*
X195451106Y-141273604D02*
X194816106Y-141908604D01*
X195451106Y-159093606D02*
X194816106Y-159728606D01*
X195451106Y-176913608D02*
X194816106Y-177548608D01*
X212951108Y-105633600D02*
X212316108Y-106268600D01*
X212951108Y-123453602D02*
X212316108Y-124088602D01*
X212951108Y-141273604D02*
X212316108Y-141908604D01*
X212951108Y-159093606D02*
X212316108Y-159728606D01*
X212951108Y-176913608D02*
X212316108Y-177548608D01*
X145351400Y-104363600D02*
X142951100Y-104363600D01*
X142951100Y-104363600D02*
X142316100Y-103728600D01*
X145351400Y-122183602D02*
X142951100Y-122183602D01*
X145351400Y-140003604D02*
X142951100Y-140003604D01*
X145351400Y-157823606D02*
X142951100Y-157823606D01*
X145351400Y-175643608D02*
X142951100Y-175643608D01*
X162851402Y-104363600D02*
X160451102Y-104363600D01*
X162851402Y-122183602D02*
X160451102Y-122183602D01*
X162851402Y-140003604D02*
X160451102Y-140003604D01*
X162851402Y-157823606D02*
X160451102Y-157823606D01*
X162851402Y-175643608D02*
X160451102Y-175643608D01*
X180351404Y-104363600D02*
X177951104Y-104363600D01*
X180351404Y-122183602D02*
X177951104Y-122183602D01*
X180351404Y-140003604D02*
X177951104Y-140003604D01*
X180351404Y-157823606D02*
X177951104Y-157823606D01*
X180351404Y-175643608D02*
X177951104Y-175643608D01*
X197851406Y-104363600D02*
X195451106Y-104363600D01*
X197851406Y-122183602D02*
X195451106Y-122183602D01*
X197851406Y-140003604D02*
X195451106Y-140003604D01*
X197851406Y-157823606D02*
X195451106Y-157823606D01*
X197851406Y-175643608D02*
X195451106Y-175643608D01*
X215351408Y-104363600D02*
X212951108Y-104363600D01*
X215351408Y-122183602D02*
X212951108Y-122183602D01*
X215351408Y-140003604D02*
X212951108Y-140003604D01*
X215351408Y-157823606D02*
X212951108Y-157823606D01*
X215351408Y-175643608D02*
X212951108Y-175643608D01*
X142951100Y-122183602D02*
X142316100Y-121548602D01*
X142951100Y-140003604D02*
X142316100Y-139368604D01*
X142951100Y-157823606D02*
X142316100Y-157188606D01*
X142951100Y-175643608D02*
X142316100Y-175008608D01*
X160451102Y-104363600D02*
X159816102Y-103728600D01*
X160451102Y-122183602D02*
X159816102Y-121548602D01*
X160451102Y-140003604D02*
X159816102Y-139368604D01*
X160451102Y-157823606D02*
X159816102Y-157188606D01*
X160451102Y-175643608D02*
X159816102Y-175008608D01*
X177951104Y-104363600D02*
X177316104Y-103728600D01*
X177951104Y-122183602D02*
X177316104Y-121548602D01*
X177951104Y-140003604D02*
X177316104Y-139368604D01*
X177951104Y-157823606D02*
X177316104Y-157188606D01*
X177951104Y-175643608D02*
X177316104Y-175008608D01*
X195451106Y-104363600D02*
X194816106Y-103728600D01*
X195451106Y-122183602D02*
X194816106Y-121548602D01*
X195451106Y-140003604D02*
X194816106Y-139368604D01*
X195451106Y-157823606D02*
X194816106Y-157188606D01*
X195451106Y-175643608D02*
X194816106Y-175008608D01*
X212951108Y-104363600D02*
X212316108Y-103728600D01*
X212951108Y-122183602D02*
X212316108Y-121548602D01*
X212951108Y-140003604D02*
X212316108Y-139368604D01*
X212951108Y-157823606D02*
X212316108Y-157188606D01*
X212951108Y-175643608D02*
X212316108Y-175008608D01*
X145351400Y-103093600D02*
X144221100Y-103093600D01*
X144221100Y-103093600D02*
X142316100Y-101188600D01*
X145351400Y-120913602D02*
X144221100Y-120913602D01*
X145351400Y-138733604D02*
X144221100Y-138733604D01*
X145351400Y-156553606D02*
X144221100Y-156553606D01*
X145351400Y-174373608D02*
X144221100Y-174373608D01*
X162851402Y-103093600D02*
X161721102Y-103093600D01*
X162851402Y-120913602D02*
X161721102Y-120913602D01*
X162851402Y-138733604D02*
X161721102Y-138733604D01*
X162851402Y-156553606D02*
X161721102Y-156553606D01*
X162851402Y-174373608D02*
X161721102Y-174373608D01*
X180351404Y-103093600D02*
X179221104Y-103093600D01*
X180351404Y-120913602D02*
X179221104Y-120913602D01*
X180351404Y-138733604D02*
X179221104Y-138733604D01*
X180351404Y-156553606D02*
X179221104Y-156553606D01*
X180351404Y-174373608D02*
X179221104Y-174373608D01*
X197851406Y-103093600D02*
X196721106Y-103093600D01*
X197851406Y-120913602D02*
X196721106Y-120913602D01*
X197851406Y-138733604D02*
X196721106Y-138733604D01*
X197851406Y-156553606D02*
X196721106Y-156553606D01*
X197851406Y-174373608D02*
X196721106Y-174373608D01*
X215351408Y-103093600D02*
X214221108Y-103093600D01*
X215351408Y-120913602D02*
X214221108Y-120913602D01*
X215351408Y-138733604D02*
X214221108Y-138733604D01*
X215351408Y-156553606D02*
X214221108Y-156553606D01*
X215351408Y-174373608D02*
X214221108Y-174373608D01*
X144221100Y-120913602D02*
X142316100Y-119008602D01*
X144221100Y-138733604D02*
X142316100Y-136828604D01*
X144221100Y-156553606D02*
X142316100Y-154648606D01*
X144221100Y-174373608D02*
X142316100Y-172468608D01*
X161721102Y-103093600D02*
X159816102Y-101188600D01*
X161721102Y-120913602D02*
X159816102Y-119008602D01*
X161721102Y-138733604D02*
X159816102Y-136828604D01*
X161721102Y-156553606D02*
X159816102Y-154648606D01*
X161721102Y-174373608D02*
X159816102Y-172468608D01*
X179221104Y-103093600D02*
X177316104Y-101188600D01*
X179221104Y-120913602D02*
X177316104Y-119008602D01*
X179221104Y-138733604D02*
X177316104Y-136828604D01*
X179221104Y-156553606D02*
X177316104Y-154648606D01*
X179221104Y-174373608D02*
X177316104Y-172468608D01*
X196721106Y-103093600D02*
X194816106Y-101188600D01*
X196721106Y-120913602D02*
X194816106Y-119008602D01*
X196721106Y-138733604D02*
X194816106Y-136828604D01*
X196721106Y-156553606D02*
X194816106Y-154648606D01*
X196721106Y-174373608D02*
X194816106Y-172468608D01*
X214221108Y-103093600D02*
X212316108Y-101188600D01*
X214221108Y-120913602D02*
X212316108Y-119008602D01*
X214221108Y-138733604D02*
X212316108Y-136828604D01*
X214221108Y-156553606D02*
X212316108Y-154648606D01*
X214221108Y-174373608D02*
X212316108Y-172468608D01*
X145351400Y-101823600D02*
X145351400Y-101683900D01*
X145351400Y-101683900D02*
X142316100Y-98648600D01*
X145351400Y-119643602D02*
X145351400Y-119503902D01*
X145351400Y-137463604D02*
X145351400Y-137323904D01*
X145351400Y-155283606D02*
X145351400Y-155143906D01*
X145351400Y-173103608D02*
X145351400Y-172963908D01*
X162851402Y-101823600D02*
X162851402Y-101683900D01*
X162851402Y-119643602D02*
X162851402Y-119503902D01*
X162851402Y-137463604D02*
X162851402Y-137323904D01*
X162851402Y-155283606D02*
X162851402Y-155143906D01*
X162851402Y-173103608D02*
X162851402Y-172963908D01*
X180351404Y-101823600D02*
X180351404Y-101683900D01*
X180351404Y-119643602D02*
X180351404Y-119503902D01*
X180351404Y-137463604D02*
X180351404Y-137323904D01*
X180351404Y-155283606D02*
X180351404Y-155143906D01*
X180351404Y-173103608D02*
X180351404Y-172963908D01*
X197851406Y-101823600D02*
X197851406Y-101683900D01*
X197851406Y-119643602D02*
X197851406Y-119503902D01*
X197851406Y-137463604D02*
X197851406Y-137323904D01*
X197851406Y-155283606D02*
X197851406Y-155143906D01*
X197851406Y-173103608D02*
X197851406Y-172963908D01*
X215351408Y-101823600D02*
X215351408Y-101683900D01*
X215351408Y-119643602D02*
X215351408Y-119503902D01*
X215351408Y-137463604D02*
X215351408Y-137323904D01*
X215351408Y-155283606D02*
X215351408Y-155143906D01*
X215351408Y-173103608D02*
X215351408Y-172963908D01*
X145351400Y-119503902D02*
X142316100Y-116468602D01*
X145351400Y-137323904D02*
X142316100Y-134288604D01*
X145351400Y-155143906D02*
X142316100Y-152108606D01*
X145351400Y-172963908D02*
X142316100Y-169928608D01*
X162851402Y-101683900D02*
X159816102Y-98648600D01*
X162851402Y-119503902D02*
X159816102Y-116468602D01*
X162851402Y-137323904D02*
X159816102Y-134288604D01*
X162851402Y-155143906D02*
X159816102Y-152108606D01*
X162851402Y-172963908D02*
X159816102Y-169928608D01*
X180351404Y-101683900D02*
X177316104Y-98648600D01*
X180351404Y-119503902D02*
X177316104Y-116468602D01*
X180351404Y-137323904D02*
X177316104Y-134288604D01*
X180351404Y-155143906D02*
X177316104Y-152108606D01*
X180351404Y-172963908D02*
X177316104Y-169928608D01*
X197851406Y-101683900D02*
X194816106Y-98648600D01*
X197851406Y-119503902D02*
X194816106Y-116468602D01*
X197851406Y-137323904D02*
X194816106Y-134288604D01*
X197851406Y-155143906D02*
X194816106Y-152108606D01*
X197851406Y-172963908D02*
X194816106Y-169928608D01*
X215351408Y-101683900D02*
X212316108Y-98648600D01*
X215351408Y-119503902D02*
X212316108Y-116468602D01*
X215351408Y-137323904D02*
X212316108Y-134288604D01*
X215351408Y-155143906D02*
X212316108Y-152108606D01*
X215351408Y-172963908D02*
X212316108Y-169928608D01*
M02*
