M48
; DRILL file {KiCad 5.1.5-5.1.5} date Mon 01 Jun 2020 10:48:54 AEST
; FORMAT={3:3/ absolute / metric / suppress trailing zeros}
; #@! TF.CreationDate,2020-06-01T10:48:54+10:00
; #@! TF.GenerationSoftware,Kicad,Pcbnew,5.1.5-5.1.5
; #@! TF.FileFunction,Plated,1,2,PTH
FMAT,2
METRIC,LZ
T1C1.016
%
G90
G05
T1
X142316Y-134289
X142316Y-136829
X142316Y-139369
X142316Y-141909
X142316Y-144449
X142316Y-146989
X225016Y-134289
X225016Y-136829
X225016Y-139369
X225016Y-141909
X225016Y-144449
X225016Y-146989
X212316Y-116469
X212316Y-119009
X212316Y-121549
X212316Y-124089
X212316Y-126629
X212316Y-129169
X194816Y-116469
X194816Y-119009
X194816Y-121549
X194816Y-124089
X194816Y-126629
X194816Y-129169
X177316Y-134289
X177316Y-136829
X177316Y-139369
X177316Y-141909
X177316Y-144449
X177316Y-146989
X177316Y-098649
X177316Y-101189
X177316Y-103729
X177316Y-106269
X177316Y-108809
X177316Y-111349
X155016Y-152109
X155016Y-154649
X155016Y-157189
X155016Y-159729
X155016Y-162269
X155016Y-164809
X207516Y-098649
X207516Y-101189
X207516Y-103729
X207516Y-106269
X207516Y-108809
X207516Y-111349
X225016Y-098649
X225016Y-101189
X225016Y-103729
X225016Y-106269
X225016Y-108809
X225016Y-111349
X190016Y-169929
X190016Y-172469
X190016Y-175009
X190016Y-177549
X190016Y-180089
X190016Y-182629
X172516Y-098649
X172516Y-101189
X172516Y-103729
X172516Y-106269
X172516Y-108809
X172516Y-111349
X172516Y-152109
X172516Y-154649
X172516Y-157189
X172516Y-159729
X172516Y-162269
X172516Y-164809
X212316Y-134289
X212316Y-136829
X212316Y-139369
X212316Y-141909
X212316Y-144449
X212316Y-146989
X190016Y-134289
X190016Y-136829
X190016Y-139369
X190016Y-141909
X190016Y-144449
X190016Y-146989
X207516Y-169929
X207516Y-172469
X207516Y-175009
X207516Y-177549
X207516Y-180089
X207516Y-182629
X207516Y-116469
X207516Y-119009
X207516Y-121549
X207516Y-124089
X207516Y-126629
X207516Y-129169
X212316Y-152109
X212316Y-154649
X212316Y-157189
X212316Y-159729
X212316Y-162269
X212316Y-164809
X225016Y-152109
X225016Y-154649
X225016Y-157189
X225016Y-159729
X225016Y-162269
X225016Y-164809
X159816Y-098649
X159816Y-101189
X159816Y-103729
X159816Y-106269
X159816Y-108809
X159816Y-111349
X142316Y-152109
X142316Y-154649
X142316Y-157189
X142316Y-159729
X142316Y-162269
X142316Y-164809
X190016Y-098649
X190016Y-101189
X190016Y-103729
X190016Y-106269
X190016Y-108809
X190016Y-111349
X155016Y-134289
X155016Y-136829
X155016Y-139369
X155016Y-141909
X155016Y-144449
X155016Y-146989
X225016Y-169929
X225016Y-172469
X225016Y-175009
X225016Y-177549
X225016Y-180089
X225016Y-182629
X155016Y-098649
X155016Y-101189
X155016Y-103729
X155016Y-106269
X155016Y-108809
X155016Y-111349
X190016Y-116469
X190016Y-119009
X190016Y-121549
X190016Y-124089
X190016Y-126629
X190016Y-129169
X155016Y-169929
X155016Y-172469
X155016Y-175009
X155016Y-177549
X155016Y-180089
X155016Y-182629
X207516Y-152109
X207516Y-154649
X207516Y-157189
X207516Y-159729
X207516Y-162269
X207516Y-164809
X177316Y-152109
X177316Y-154649
X177316Y-157189
X177316Y-159729
X177316Y-162269
X177316Y-164809
X159816Y-116469
X159816Y-119009
X159816Y-121549
X159816Y-124089
X159816Y-126629
X159816Y-129169
X212316Y-098649
X212316Y-101189
X212316Y-103729
X212316Y-106269
X212316Y-108809
X212316Y-111349
X177316Y-169929
X177316Y-172469
X177316Y-175009
X177316Y-177549
X177316Y-180089
X177316Y-182629
X190016Y-152109
X190016Y-154649
X190016Y-157189
X190016Y-159729
X190016Y-162269
X190016Y-164809
X194816Y-134289
X194816Y-136829
X194816Y-139369
X194816Y-141909
X194816Y-144449
X194816Y-146989
X172516Y-169929
X172516Y-172469
X172516Y-175009
X172516Y-177549
X172516Y-180089
X172516Y-182629
X142316Y-169929
X142316Y-172469
X142316Y-175009
X142316Y-177549
X142316Y-180089
X142316Y-182629
X212316Y-169929
X212316Y-172469
X212316Y-175009
X212316Y-177549
X212316Y-180089
X212316Y-182629
X194816Y-152109
X194816Y-154649
X194816Y-157189
X194816Y-159729
X194816Y-162269
X194816Y-164809
X155016Y-116469
X155016Y-119009
X155016Y-121549
X155016Y-124089
X155016Y-126629
X155016Y-129169
X159816Y-134289
X159816Y-136829
X159816Y-139369
X159816Y-141909
X159816Y-144449
X159816Y-146989
X142316Y-098649
X142316Y-101189
X142316Y-103729
X142316Y-106269
X142316Y-108809
X142316Y-111349
X177316Y-116469
X177316Y-119009
X177316Y-121549
X177316Y-124089
X177316Y-126629
X177316Y-129169
X194816Y-169929
X194816Y-172469
X194816Y-175009
X194816Y-177549
X194816Y-180089
X194816Y-182629
X172516Y-116469
X172516Y-119009
X172516Y-121549
X172516Y-124089
X172516Y-126629
X172516Y-129169
X172516Y-134289
X172516Y-136829
X172516Y-139369
X172516Y-141909
X172516Y-144449
X172516Y-146989
X194816Y-098649
X194816Y-101189
X194816Y-103729
X194816Y-106269
X194816Y-108809
X194816Y-111349
X142316Y-116469
X142316Y-119009
X142316Y-121549
X142316Y-124089
X142316Y-126629
X142316Y-129169
X207516Y-134289
X207516Y-136829
X207516Y-139369
X207516Y-141909
X207516Y-144449
X207516Y-146989
X159816Y-169929
X159816Y-172469
X159816Y-175009
X159816Y-177549
X159816Y-180089
X159816Y-182629
X225016Y-116469
X225016Y-119009
X225016Y-121549
X225016Y-124089
X225016Y-126629
X225016Y-129169
X159816Y-152109
X159816Y-154649
X159816Y-157189
X159816Y-159729
X159816Y-162269
X159816Y-164809
T0
M30
