M48
; DRILL file {KiCad 5.1.5-5.1.5} date Mon 01 Jun 2020 10:45:10 AEST
; FORMAT={3:3/ absolute / metric / suppress trailing zeros}
; #@! TF.CreationDate,2020-06-01T10:45:10+10:00
; #@! TF.GenerationSoftware,Kicad,Pcbnew,5.1.5-5.1.5
; #@! TF.FileFunction,Plated,1,2,PTH
FMAT,2
METRIC,LZ
T1C0.508
T2C1.016
%
G90
G05
T1
X147396Y-103983
X147396Y-131963
X147396Y-159943
X149301Y-104872
X149301Y-132852
X149301Y-160832
X167436Y-103983
X167436Y-131963
X167436Y-159943
X169341Y-104872
X169341Y-132852
X169341Y-160832
X187476Y-103983
X187476Y-131963
X187476Y-159943
X189381Y-104872
X189381Y-132852
X189381Y-160832
X207516Y-103983
X207516Y-131963
X207516Y-159943
X209421Y-104872
X209421Y-132852
X209421Y-160832
T2
X216406Y-093569
X216406Y-096109
X216406Y-098649
X216406Y-101189
X216406Y-103729
X216406Y-106269
X216406Y-108809
X216406Y-111349
X216406Y-113889
X216406Y-116429
X176326Y-149529
X176326Y-152069
X176326Y-154609
X176326Y-157149
X176326Y-159689
X176326Y-162229
X176326Y-164769
X176326Y-167309
X176326Y-169849
X176326Y-172389
X216406Y-121549
X216406Y-124089
X216406Y-126629
X216406Y-129169
X216406Y-131709
X216406Y-134249
X216406Y-136789
X216406Y-139329
X216406Y-141869
X216406Y-144409
X201166Y-121549
X201166Y-124089
X201166Y-126629
X201166Y-129169
X201166Y-131709
X201166Y-134249
X201166Y-136789
X201166Y-139329
X201166Y-141869
X201166Y-144409
X201166Y-093569
X201166Y-096109
X201166Y-098649
X201166Y-101189
X201166Y-103729
X201166Y-106269
X201166Y-108809
X201166Y-111349
X201166Y-113889
X201166Y-116429
X216406Y-149529
X216406Y-152069
X216406Y-154609
X216406Y-157149
X216406Y-159689
X216406Y-162229
X216406Y-164769
X216406Y-167309
X216406Y-169849
X216406Y-172389
X176326Y-093569
X176326Y-096109
X176326Y-098649
X176326Y-101189
X176326Y-103729
X176326Y-106269
X176326Y-108809
X176326Y-111349
X176326Y-113889
X176326Y-116429
X181126Y-121549
X181126Y-124089
X181126Y-126629
X181126Y-129169
X181126Y-131709
X181126Y-134249
X181126Y-136789
X181126Y-139329
X181126Y-141869
X181126Y-144409
X181126Y-149529
X181126Y-152069
X181126Y-154609
X181126Y-157149
X181126Y-159689
X181126Y-162229
X181126Y-164769
X181126Y-167309
X181126Y-169849
X181126Y-172389
X161086Y-149529
X161086Y-152069
X161086Y-154609
X161086Y-157149
X161086Y-159689
X161086Y-162229
X161086Y-164769
X161086Y-167309
X161086Y-169849
X161086Y-172389
X156286Y-093569
X156286Y-096109
X156286Y-098649
X156286Y-101189
X156286Y-103729
X156286Y-106269
X156286Y-108809
X156286Y-111349
X156286Y-113889
X156286Y-116429
X181126Y-093569
X181126Y-096109
X181126Y-098649
X181126Y-101189
X181126Y-103729
X181126Y-106269
X181126Y-108809
X181126Y-111349
X181126Y-113889
X181126Y-116429
X161086Y-121549
X161086Y-124089
X161086Y-126629
X161086Y-129169
X161086Y-131709
X161086Y-134249
X161086Y-136789
X161086Y-139329
X161086Y-141869
X161086Y-144409
X161086Y-093569
X161086Y-096109
X161086Y-098649
X161086Y-101189
X161086Y-103729
X161086Y-106269
X161086Y-108809
X161086Y-111349
X161086Y-113889
X161086Y-116429
X201166Y-149529
X201166Y-152069
X201166Y-154609
X201166Y-157149
X201166Y-159689
X201166Y-162229
X201166Y-164769
X201166Y-167309
X201166Y-169849
X201166Y-172389
X141046Y-121549
X141046Y-124089
X141046Y-126629
X141046Y-129169
X141046Y-131709
X141046Y-134249
X141046Y-136789
X141046Y-139329
X141046Y-141869
X141046Y-144409
X141046Y-093569
X141046Y-096109
X141046Y-098649
X141046Y-101189
X141046Y-103729
X141046Y-106269
X141046Y-108809
X141046Y-111349
X141046Y-113889
X141046Y-116429
X196366Y-149529
X196366Y-152069
X196366Y-154609
X196366Y-157149
X196366Y-159689
X196366Y-162229
X196366Y-164769
X196366Y-167309
X196366Y-169849
X196366Y-172389
X141046Y-149529
X141046Y-152069
X141046Y-154609
X141046Y-157149
X141046Y-159689
X141046Y-162229
X141046Y-164769
X141046Y-167309
X141046Y-169849
X141046Y-172389
X156286Y-149529
X156286Y-152069
X156286Y-154609
X156286Y-157149
X156286Y-159689
X156286Y-162229
X156286Y-164769
X156286Y-167309
X156286Y-169849
X156286Y-172389
X196366Y-121549
X196366Y-124089
X196366Y-126629
X196366Y-129169
X196366Y-131709
X196366Y-134249
X196366Y-136789
X196366Y-139329
X196366Y-141869
X196366Y-144409
X156286Y-121549
X156286Y-124089
X156286Y-126629
X156286Y-129169
X156286Y-131709
X156286Y-134249
X156286Y-136789
X156286Y-139329
X156286Y-141869
X156286Y-144409
X196366Y-093569
X196366Y-096109
X196366Y-098649
X196366Y-101189
X196366Y-103729
X196366Y-106269
X196366Y-108809
X196366Y-111349
X196366Y-113889
X196366Y-116429
X176326Y-121549
X176326Y-124089
X176326Y-126629
X176326Y-129169
X176326Y-131709
X176326Y-134249
X176326Y-136789
X176326Y-139329
X176326Y-141869
X176326Y-144409
T0
M30
