G04 #@! TF.GenerationSoftware,KiCad,Pcbnew,5.1.5-5.1.5*
G04 #@! TF.CreationDate,2020-06-01T10:45:08+10:00*
G04 #@! TF.ProjectId,SOIC20-TSSOP20_panelized,534f4943-3230-42d5-9453-534f5032305f,rev?*
G04 #@! TF.SameCoordinates,Original*
G04 #@! TF.FileFunction,Legend,Top*
G04 #@! TF.FilePolarity,Positive*
%FSLAX46Y46*%
G04 Gerber Fmt 4.6, Leading zero omitted, Abs format (unit mm)*
G04 Created by KiCad (PCBNEW 5.1.5-5.1.5) date 2020-06-01 10:45:08*
%MOMM*%
%LPD*%
G04 APERTURE LIST*
%ADD10C,0.100000*%
%ADD11C,0.101600*%
%ADD12C,0.152400*%
%ADD13C,0.203200*%
G04 APERTURE END LIST*
D10*
X136383478Y-173765510D02*
X135383478Y-173765510D01*
X136097764Y-173432177D01*
X135383478Y-173098844D01*
X136383478Y-173098844D01*
X136383478Y-172194082D02*
X135859669Y-172194082D01*
X135764431Y-172241701D01*
X135716812Y-172336939D01*
X135716812Y-172527415D01*
X135764431Y-172622653D01*
X136335859Y-172194082D02*
X136383478Y-172289320D01*
X136383478Y-172527415D01*
X136335859Y-172622653D01*
X136240621Y-172670272D01*
X136145383Y-172670272D01*
X136050145Y-172622653D01*
X136002526Y-172527415D01*
X136002526Y-172289320D01*
X135954907Y-172194082D01*
X136383478Y-171289320D02*
X135383478Y-171289320D01*
X136335859Y-171289320D02*
X136383478Y-171384558D01*
X136383478Y-171575034D01*
X136335859Y-171670272D01*
X136288240Y-171717891D01*
X136193002Y-171765510D01*
X135907288Y-171765510D01*
X135812050Y-171717891D01*
X135764431Y-171670272D01*
X135716812Y-171575034D01*
X135716812Y-171384558D01*
X135764431Y-171289320D01*
X136335859Y-170432177D02*
X136383478Y-170527415D01*
X136383478Y-170717891D01*
X136335859Y-170813129D01*
X136240621Y-170860748D01*
X135859669Y-170860748D01*
X135764431Y-170813129D01*
X135716812Y-170717891D01*
X135716812Y-170527415D01*
X135764431Y-170432177D01*
X135859669Y-170384558D01*
X135954907Y-170384558D01*
X136050145Y-170860748D01*
X135716812Y-169289320D02*
X136383478Y-169098844D01*
X135907288Y-168908367D01*
X136383478Y-168717891D01*
X135716812Y-168527415D01*
X136383478Y-168146463D02*
X135716812Y-168146463D01*
X135383478Y-168146463D02*
X135431098Y-168194082D01*
X135478717Y-168146463D01*
X135431098Y-168098844D01*
X135383478Y-168146463D01*
X135478717Y-168146463D01*
X135716812Y-167813129D02*
X135716812Y-167432177D01*
X135383478Y-167670272D02*
X136240621Y-167670272D01*
X136335859Y-167622653D01*
X136383478Y-167527415D01*
X136383478Y-167432177D01*
X136383478Y-167098844D02*
X135383478Y-167098844D01*
X136383478Y-166670272D02*
X135859669Y-166670272D01*
X135764431Y-166717891D01*
X135716812Y-166813129D01*
X135716812Y-166955986D01*
X135764431Y-167051225D01*
X135812050Y-167098844D01*
X136383478Y-165432177D02*
X135383478Y-165432177D01*
X136383478Y-164860748D02*
X135812050Y-165289320D01*
X135383478Y-164860748D02*
X135954907Y-165432177D01*
X136383478Y-164432177D02*
X135716812Y-164432177D01*
X135383478Y-164432177D02*
X135431098Y-164479796D01*
X135478717Y-164432177D01*
X135431098Y-164384558D01*
X135383478Y-164432177D01*
X135478717Y-164432177D01*
X136335859Y-163527415D02*
X136383478Y-163622653D01*
X136383478Y-163813129D01*
X136335859Y-163908367D01*
X136288240Y-163955986D01*
X136193002Y-164003606D01*
X135907288Y-164003606D01*
X135812050Y-163955986D01*
X135764431Y-163908367D01*
X135716812Y-163813129D01*
X135716812Y-163622653D01*
X135764431Y-163527415D01*
X136383478Y-162670272D02*
X135859669Y-162670272D01*
X135764431Y-162717891D01*
X135716812Y-162813129D01*
X135716812Y-163003606D01*
X135764431Y-163098844D01*
X136335859Y-162670272D02*
X136383478Y-162765510D01*
X136383478Y-163003606D01*
X136335859Y-163098844D01*
X136240621Y-163146463D01*
X136145383Y-163146463D01*
X136050145Y-163098844D01*
X136002526Y-163003606D01*
X136002526Y-162765510D01*
X135954907Y-162670272D01*
X136383478Y-161765510D02*
X135383478Y-161765510D01*
X136335859Y-161765510D02*
X136383478Y-161860748D01*
X136383478Y-162051225D01*
X136335859Y-162146463D01*
X136288240Y-162194082D01*
X136193002Y-162241701D01*
X135907288Y-162241701D01*
X135812050Y-162194082D01*
X135764431Y-162146463D01*
X135716812Y-162051225D01*
X135716812Y-161860748D01*
X135764431Y-161765510D01*
D11*
X213018955Y-149014556D02*
X213076407Y-148957104D01*
X213191312Y-148899651D01*
X213478574Y-148899651D01*
X213593479Y-148957104D01*
X213650931Y-149014556D01*
X213708384Y-149129461D01*
X213708384Y-149244365D01*
X213650931Y-149416723D01*
X212961503Y-150106151D01*
X213708384Y-150106151D01*
X214455265Y-148899651D02*
X214570169Y-148899651D01*
X214685074Y-148957104D01*
X214742526Y-149014556D01*
X214799979Y-149129461D01*
X214857431Y-149359270D01*
X214857431Y-149646532D01*
X214799979Y-149876342D01*
X214742526Y-149991246D01*
X214685074Y-150048699D01*
X214570169Y-150106151D01*
X214455265Y-150106151D01*
X214340360Y-150048699D01*
X214282907Y-149991246D01*
X214225455Y-149876342D01*
X214168003Y-149646532D01*
X214168003Y-149359270D01*
X214225455Y-149129461D01*
X214282907Y-149014556D01*
X214340360Y-148957104D01*
X214455265Y-148899651D01*
X213018955Y-121034554D02*
X213076407Y-120977102D01*
X213191312Y-120919649D01*
X213478574Y-120919649D01*
X213593479Y-120977102D01*
X213650931Y-121034554D01*
X213708384Y-121149459D01*
X213708384Y-121264363D01*
X213650931Y-121436721D01*
X212961503Y-122126149D01*
X213708384Y-122126149D01*
X214455265Y-120919649D02*
X214570169Y-120919649D01*
X214685074Y-120977102D01*
X214742526Y-121034554D01*
X214799979Y-121149459D01*
X214857431Y-121379268D01*
X214857431Y-121666530D01*
X214799979Y-121896340D01*
X214742526Y-122011244D01*
X214685074Y-122068697D01*
X214570169Y-122126149D01*
X214455265Y-122126149D01*
X214340360Y-122068697D01*
X214282907Y-122011244D01*
X214225455Y-121896340D01*
X214168003Y-121666530D01*
X214168003Y-121379268D01*
X214225455Y-121149459D01*
X214282907Y-121034554D01*
X214340360Y-120977102D01*
X214455265Y-120919649D01*
X213018955Y-93054552D02*
X213076407Y-92997100D01*
X213191312Y-92939647D01*
X213478574Y-92939647D01*
X213593479Y-92997100D01*
X213650931Y-93054552D01*
X213708384Y-93169457D01*
X213708384Y-93284361D01*
X213650931Y-93456719D01*
X212961503Y-94146147D01*
X213708384Y-94146147D01*
X214455265Y-92939647D02*
X214570169Y-92939647D01*
X214685074Y-92997100D01*
X214742526Y-93054552D01*
X214799979Y-93169457D01*
X214857431Y-93399266D01*
X214857431Y-93686528D01*
X214799979Y-93916338D01*
X214742526Y-94031242D01*
X214685074Y-94088695D01*
X214570169Y-94146147D01*
X214455265Y-94146147D01*
X214340360Y-94088695D01*
X214282907Y-94031242D01*
X214225455Y-93916338D01*
X214168003Y-93686528D01*
X214168003Y-93399266D01*
X214225455Y-93169457D01*
X214282907Y-93054552D01*
X214340360Y-92997100D01*
X214455265Y-92939647D01*
X192978953Y-149014556D02*
X193036405Y-148957104D01*
X193151310Y-148899651D01*
X193438572Y-148899651D01*
X193553477Y-148957104D01*
X193610929Y-149014556D01*
X193668382Y-149129461D01*
X193668382Y-149244365D01*
X193610929Y-149416723D01*
X192921501Y-150106151D01*
X193668382Y-150106151D01*
X194415263Y-148899651D02*
X194530167Y-148899651D01*
X194645072Y-148957104D01*
X194702524Y-149014556D01*
X194759977Y-149129461D01*
X194817429Y-149359270D01*
X194817429Y-149646532D01*
X194759977Y-149876342D01*
X194702524Y-149991246D01*
X194645072Y-150048699D01*
X194530167Y-150106151D01*
X194415263Y-150106151D01*
X194300358Y-150048699D01*
X194242905Y-149991246D01*
X194185453Y-149876342D01*
X194128001Y-149646532D01*
X194128001Y-149359270D01*
X194185453Y-149129461D01*
X194242905Y-149014556D01*
X194300358Y-148957104D01*
X194415263Y-148899651D01*
X192978953Y-121034554D02*
X193036405Y-120977102D01*
X193151310Y-120919649D01*
X193438572Y-120919649D01*
X193553477Y-120977102D01*
X193610929Y-121034554D01*
X193668382Y-121149459D01*
X193668382Y-121264363D01*
X193610929Y-121436721D01*
X192921501Y-122126149D01*
X193668382Y-122126149D01*
X194415263Y-120919649D02*
X194530167Y-120919649D01*
X194645072Y-120977102D01*
X194702524Y-121034554D01*
X194759977Y-121149459D01*
X194817429Y-121379268D01*
X194817429Y-121666530D01*
X194759977Y-121896340D01*
X194702524Y-122011244D01*
X194645072Y-122068697D01*
X194530167Y-122126149D01*
X194415263Y-122126149D01*
X194300358Y-122068697D01*
X194242905Y-122011244D01*
X194185453Y-121896340D01*
X194128001Y-121666530D01*
X194128001Y-121379268D01*
X194185453Y-121149459D01*
X194242905Y-121034554D01*
X194300358Y-120977102D01*
X194415263Y-120919649D01*
X192978953Y-93054552D02*
X193036405Y-92997100D01*
X193151310Y-92939647D01*
X193438572Y-92939647D01*
X193553477Y-92997100D01*
X193610929Y-93054552D01*
X193668382Y-93169457D01*
X193668382Y-93284361D01*
X193610929Y-93456719D01*
X192921501Y-94146147D01*
X193668382Y-94146147D01*
X194415263Y-92939647D02*
X194530167Y-92939647D01*
X194645072Y-92997100D01*
X194702524Y-93054552D01*
X194759977Y-93169457D01*
X194817429Y-93399266D01*
X194817429Y-93686528D01*
X194759977Y-93916338D01*
X194702524Y-94031242D01*
X194645072Y-94088695D01*
X194530167Y-94146147D01*
X194415263Y-94146147D01*
X194300358Y-94088695D01*
X194242905Y-94031242D01*
X194185453Y-93916338D01*
X194128001Y-93686528D01*
X194128001Y-93399266D01*
X194185453Y-93169457D01*
X194242905Y-93054552D01*
X194300358Y-92997100D01*
X194415263Y-92939647D01*
X172938951Y-149014556D02*
X172996403Y-148957104D01*
X173111308Y-148899651D01*
X173398570Y-148899651D01*
X173513475Y-148957104D01*
X173570927Y-149014556D01*
X173628380Y-149129461D01*
X173628380Y-149244365D01*
X173570927Y-149416723D01*
X172881499Y-150106151D01*
X173628380Y-150106151D01*
X174375261Y-148899651D02*
X174490165Y-148899651D01*
X174605070Y-148957104D01*
X174662522Y-149014556D01*
X174719975Y-149129461D01*
X174777427Y-149359270D01*
X174777427Y-149646532D01*
X174719975Y-149876342D01*
X174662522Y-149991246D01*
X174605070Y-150048699D01*
X174490165Y-150106151D01*
X174375261Y-150106151D01*
X174260356Y-150048699D01*
X174202903Y-149991246D01*
X174145451Y-149876342D01*
X174087999Y-149646532D01*
X174087999Y-149359270D01*
X174145451Y-149129461D01*
X174202903Y-149014556D01*
X174260356Y-148957104D01*
X174375261Y-148899651D01*
X172938951Y-121034554D02*
X172996403Y-120977102D01*
X173111308Y-120919649D01*
X173398570Y-120919649D01*
X173513475Y-120977102D01*
X173570927Y-121034554D01*
X173628380Y-121149459D01*
X173628380Y-121264363D01*
X173570927Y-121436721D01*
X172881499Y-122126149D01*
X173628380Y-122126149D01*
X174375261Y-120919649D02*
X174490165Y-120919649D01*
X174605070Y-120977102D01*
X174662522Y-121034554D01*
X174719975Y-121149459D01*
X174777427Y-121379268D01*
X174777427Y-121666530D01*
X174719975Y-121896340D01*
X174662522Y-122011244D01*
X174605070Y-122068697D01*
X174490165Y-122126149D01*
X174375261Y-122126149D01*
X174260356Y-122068697D01*
X174202903Y-122011244D01*
X174145451Y-121896340D01*
X174087999Y-121666530D01*
X174087999Y-121379268D01*
X174145451Y-121149459D01*
X174202903Y-121034554D01*
X174260356Y-120977102D01*
X174375261Y-120919649D01*
X172938951Y-93054552D02*
X172996403Y-92997100D01*
X173111308Y-92939647D01*
X173398570Y-92939647D01*
X173513475Y-92997100D01*
X173570927Y-93054552D01*
X173628380Y-93169457D01*
X173628380Y-93284361D01*
X173570927Y-93456719D01*
X172881499Y-94146147D01*
X173628380Y-94146147D01*
X174375261Y-92939647D02*
X174490165Y-92939647D01*
X174605070Y-92997100D01*
X174662522Y-93054552D01*
X174719975Y-93169457D01*
X174777427Y-93399266D01*
X174777427Y-93686528D01*
X174719975Y-93916338D01*
X174662522Y-94031242D01*
X174605070Y-94088695D01*
X174490165Y-94146147D01*
X174375261Y-94146147D01*
X174260356Y-94088695D01*
X174202903Y-94031242D01*
X174145451Y-93916338D01*
X174087999Y-93686528D01*
X174087999Y-93399266D01*
X174145451Y-93169457D01*
X174202903Y-93054552D01*
X174260356Y-92997100D01*
X174375261Y-92939647D01*
X152898949Y-149014556D02*
X152956401Y-148957104D01*
X153071306Y-148899651D01*
X153358568Y-148899651D01*
X153473473Y-148957104D01*
X153530925Y-149014556D01*
X153588378Y-149129461D01*
X153588378Y-149244365D01*
X153530925Y-149416723D01*
X152841497Y-150106151D01*
X153588378Y-150106151D01*
X154335259Y-148899651D02*
X154450163Y-148899651D01*
X154565068Y-148957104D01*
X154622520Y-149014556D01*
X154679973Y-149129461D01*
X154737425Y-149359270D01*
X154737425Y-149646532D01*
X154679973Y-149876342D01*
X154622520Y-149991246D01*
X154565068Y-150048699D01*
X154450163Y-150106151D01*
X154335259Y-150106151D01*
X154220354Y-150048699D01*
X154162901Y-149991246D01*
X154105449Y-149876342D01*
X154047997Y-149646532D01*
X154047997Y-149359270D01*
X154105449Y-149129461D01*
X154162901Y-149014556D01*
X154220354Y-148957104D01*
X154335259Y-148899651D01*
X152898949Y-121034554D02*
X152956401Y-120977102D01*
X153071306Y-120919649D01*
X153358568Y-120919649D01*
X153473473Y-120977102D01*
X153530925Y-121034554D01*
X153588378Y-121149459D01*
X153588378Y-121264363D01*
X153530925Y-121436721D01*
X152841497Y-122126149D01*
X153588378Y-122126149D01*
X154335259Y-120919649D02*
X154450163Y-120919649D01*
X154565068Y-120977102D01*
X154622520Y-121034554D01*
X154679973Y-121149459D01*
X154737425Y-121379268D01*
X154737425Y-121666530D01*
X154679973Y-121896340D01*
X154622520Y-122011244D01*
X154565068Y-122068697D01*
X154450163Y-122126149D01*
X154335259Y-122126149D01*
X154220354Y-122068697D01*
X154162901Y-122011244D01*
X154105449Y-121896340D01*
X154047997Y-121666530D01*
X154047997Y-121379268D01*
X154105449Y-121149459D01*
X154162901Y-121034554D01*
X154220354Y-120977102D01*
X154335259Y-120919649D01*
X213962384Y-172966151D02*
X213272955Y-172966151D01*
X213617669Y-172966151D02*
X213617669Y-171759651D01*
X213502765Y-171932008D01*
X213387860Y-172046913D01*
X213272955Y-172104365D01*
X215111431Y-172966151D02*
X214422003Y-172966151D01*
X214766717Y-172966151D02*
X214766717Y-171759651D01*
X214651812Y-171932008D01*
X214536907Y-172046913D01*
X214422003Y-172104365D01*
X213962384Y-144986149D02*
X213272955Y-144986149D01*
X213617669Y-144986149D02*
X213617669Y-143779649D01*
X213502765Y-143952006D01*
X213387860Y-144066911D01*
X213272955Y-144124363D01*
X215111431Y-144986149D02*
X214422003Y-144986149D01*
X214766717Y-144986149D02*
X214766717Y-143779649D01*
X214651812Y-143952006D01*
X214536907Y-144066911D01*
X214422003Y-144124363D01*
X213962384Y-117006147D02*
X213272955Y-117006147D01*
X213617669Y-117006147D02*
X213617669Y-115799647D01*
X213502765Y-115972004D01*
X213387860Y-116086909D01*
X213272955Y-116144361D01*
X215111431Y-117006147D02*
X214422003Y-117006147D01*
X214766717Y-117006147D02*
X214766717Y-115799647D01*
X214651812Y-115972004D01*
X214536907Y-116086909D01*
X214422003Y-116144361D01*
X193922382Y-172966151D02*
X193232953Y-172966151D01*
X193577667Y-172966151D02*
X193577667Y-171759651D01*
X193462763Y-171932008D01*
X193347858Y-172046913D01*
X193232953Y-172104365D01*
X195071429Y-172966151D02*
X194382001Y-172966151D01*
X194726715Y-172966151D02*
X194726715Y-171759651D01*
X194611810Y-171932008D01*
X194496905Y-172046913D01*
X194382001Y-172104365D01*
X193922382Y-144986149D02*
X193232953Y-144986149D01*
X193577667Y-144986149D02*
X193577667Y-143779649D01*
X193462763Y-143952006D01*
X193347858Y-144066911D01*
X193232953Y-144124363D01*
X195071429Y-144986149D02*
X194382001Y-144986149D01*
X194726715Y-144986149D02*
X194726715Y-143779649D01*
X194611810Y-143952006D01*
X194496905Y-144066911D01*
X194382001Y-144124363D01*
X193922382Y-117006147D02*
X193232953Y-117006147D01*
X193577667Y-117006147D02*
X193577667Y-115799647D01*
X193462763Y-115972004D01*
X193347858Y-116086909D01*
X193232953Y-116144361D01*
X195071429Y-117006147D02*
X194382001Y-117006147D01*
X194726715Y-117006147D02*
X194726715Y-115799647D01*
X194611810Y-115972004D01*
X194496905Y-116086909D01*
X194382001Y-116144361D01*
X173882380Y-172966151D02*
X173192951Y-172966151D01*
X173537665Y-172966151D02*
X173537665Y-171759651D01*
X173422761Y-171932008D01*
X173307856Y-172046913D01*
X173192951Y-172104365D01*
X175031427Y-172966151D02*
X174341999Y-172966151D01*
X174686713Y-172966151D02*
X174686713Y-171759651D01*
X174571808Y-171932008D01*
X174456903Y-172046913D01*
X174341999Y-172104365D01*
X173882380Y-144986149D02*
X173192951Y-144986149D01*
X173537665Y-144986149D02*
X173537665Y-143779649D01*
X173422761Y-143952006D01*
X173307856Y-144066911D01*
X173192951Y-144124363D01*
X175031427Y-144986149D02*
X174341999Y-144986149D01*
X174686713Y-144986149D02*
X174686713Y-143779649D01*
X174571808Y-143952006D01*
X174456903Y-144066911D01*
X174341999Y-144124363D01*
X173882380Y-117006147D02*
X173192951Y-117006147D01*
X173537665Y-117006147D02*
X173537665Y-115799647D01*
X173422761Y-115972004D01*
X173307856Y-116086909D01*
X173192951Y-116144361D01*
X175031427Y-117006147D02*
X174341999Y-117006147D01*
X174686713Y-117006147D02*
X174686713Y-115799647D01*
X174571808Y-115972004D01*
X174456903Y-116086909D01*
X174341999Y-116144361D01*
X153842378Y-172966151D02*
X153152949Y-172966151D01*
X153497663Y-172966151D02*
X153497663Y-171759651D01*
X153382759Y-171932008D01*
X153267854Y-172046913D01*
X153152949Y-172104365D01*
X154991425Y-172966151D02*
X154301997Y-172966151D01*
X154646711Y-172966151D02*
X154646711Y-171759651D01*
X154531806Y-171932008D01*
X154416901Y-172046913D01*
X154301997Y-172104365D01*
X153842378Y-144986149D02*
X153152949Y-144986149D01*
X153497663Y-144986149D02*
X153497663Y-143779649D01*
X153382759Y-143952006D01*
X153267854Y-144066911D01*
X153152949Y-144124363D01*
X154991425Y-144986149D02*
X154301997Y-144986149D01*
X154646711Y-144986149D02*
X154646711Y-143779649D01*
X154531806Y-143952006D01*
X154416901Y-144066911D01*
X154301997Y-144124363D01*
X203802384Y-172966151D02*
X203112955Y-172966151D01*
X203457669Y-172966151D02*
X203457669Y-171759651D01*
X203342765Y-171932008D01*
X203227860Y-172046913D01*
X203112955Y-172104365D01*
X204549265Y-171759651D02*
X204664169Y-171759651D01*
X204779074Y-171817104D01*
X204836526Y-171874556D01*
X204893979Y-171989461D01*
X204951431Y-172219270D01*
X204951431Y-172506532D01*
X204893979Y-172736342D01*
X204836526Y-172851246D01*
X204779074Y-172908699D01*
X204664169Y-172966151D01*
X204549265Y-172966151D01*
X204434360Y-172908699D01*
X204376907Y-172851246D01*
X204319455Y-172736342D01*
X204262003Y-172506532D01*
X204262003Y-172219270D01*
X204319455Y-171989461D01*
X204376907Y-171874556D01*
X204434360Y-171817104D01*
X204549265Y-171759651D01*
X203802384Y-144986149D02*
X203112955Y-144986149D01*
X203457669Y-144986149D02*
X203457669Y-143779649D01*
X203342765Y-143952006D01*
X203227860Y-144066911D01*
X203112955Y-144124363D01*
X204549265Y-143779649D02*
X204664169Y-143779649D01*
X204779074Y-143837102D01*
X204836526Y-143894554D01*
X204893979Y-144009459D01*
X204951431Y-144239268D01*
X204951431Y-144526530D01*
X204893979Y-144756340D01*
X204836526Y-144871244D01*
X204779074Y-144928697D01*
X204664169Y-144986149D01*
X204549265Y-144986149D01*
X204434360Y-144928697D01*
X204376907Y-144871244D01*
X204319455Y-144756340D01*
X204262003Y-144526530D01*
X204262003Y-144239268D01*
X204319455Y-144009459D01*
X204376907Y-143894554D01*
X204434360Y-143837102D01*
X204549265Y-143779649D01*
X203802384Y-117006147D02*
X203112955Y-117006147D01*
X203457669Y-117006147D02*
X203457669Y-115799647D01*
X203342765Y-115972004D01*
X203227860Y-116086909D01*
X203112955Y-116144361D01*
X204549265Y-115799647D02*
X204664169Y-115799647D01*
X204779074Y-115857100D01*
X204836526Y-115914552D01*
X204893979Y-116029457D01*
X204951431Y-116259266D01*
X204951431Y-116546528D01*
X204893979Y-116776338D01*
X204836526Y-116891242D01*
X204779074Y-116948695D01*
X204664169Y-117006147D01*
X204549265Y-117006147D01*
X204434360Y-116948695D01*
X204376907Y-116891242D01*
X204319455Y-116776338D01*
X204262003Y-116546528D01*
X204262003Y-116259266D01*
X204319455Y-116029457D01*
X204376907Y-115914552D01*
X204434360Y-115857100D01*
X204549265Y-115799647D01*
X183762382Y-172966151D02*
X183072953Y-172966151D01*
X183417667Y-172966151D02*
X183417667Y-171759651D01*
X183302763Y-171932008D01*
X183187858Y-172046913D01*
X183072953Y-172104365D01*
X184509263Y-171759651D02*
X184624167Y-171759651D01*
X184739072Y-171817104D01*
X184796524Y-171874556D01*
X184853977Y-171989461D01*
X184911429Y-172219270D01*
X184911429Y-172506532D01*
X184853977Y-172736342D01*
X184796524Y-172851246D01*
X184739072Y-172908699D01*
X184624167Y-172966151D01*
X184509263Y-172966151D01*
X184394358Y-172908699D01*
X184336905Y-172851246D01*
X184279453Y-172736342D01*
X184222001Y-172506532D01*
X184222001Y-172219270D01*
X184279453Y-171989461D01*
X184336905Y-171874556D01*
X184394358Y-171817104D01*
X184509263Y-171759651D01*
X183762382Y-144986149D02*
X183072953Y-144986149D01*
X183417667Y-144986149D02*
X183417667Y-143779649D01*
X183302763Y-143952006D01*
X183187858Y-144066911D01*
X183072953Y-144124363D01*
X184509263Y-143779649D02*
X184624167Y-143779649D01*
X184739072Y-143837102D01*
X184796524Y-143894554D01*
X184853977Y-144009459D01*
X184911429Y-144239268D01*
X184911429Y-144526530D01*
X184853977Y-144756340D01*
X184796524Y-144871244D01*
X184739072Y-144928697D01*
X184624167Y-144986149D01*
X184509263Y-144986149D01*
X184394358Y-144928697D01*
X184336905Y-144871244D01*
X184279453Y-144756340D01*
X184222001Y-144526530D01*
X184222001Y-144239268D01*
X184279453Y-144009459D01*
X184336905Y-143894554D01*
X184394358Y-143837102D01*
X184509263Y-143779649D01*
X183762382Y-117006147D02*
X183072953Y-117006147D01*
X183417667Y-117006147D02*
X183417667Y-115799647D01*
X183302763Y-115972004D01*
X183187858Y-116086909D01*
X183072953Y-116144361D01*
X184509263Y-115799647D02*
X184624167Y-115799647D01*
X184739072Y-115857100D01*
X184796524Y-115914552D01*
X184853977Y-116029457D01*
X184911429Y-116259266D01*
X184911429Y-116546528D01*
X184853977Y-116776338D01*
X184796524Y-116891242D01*
X184739072Y-116948695D01*
X184624167Y-117006147D01*
X184509263Y-117006147D01*
X184394358Y-116948695D01*
X184336905Y-116891242D01*
X184279453Y-116776338D01*
X184222001Y-116546528D01*
X184222001Y-116259266D01*
X184279453Y-116029457D01*
X184336905Y-115914552D01*
X184394358Y-115857100D01*
X184509263Y-115799647D01*
X163722380Y-172966151D02*
X163032951Y-172966151D01*
X163377665Y-172966151D02*
X163377665Y-171759651D01*
X163262761Y-171932008D01*
X163147856Y-172046913D01*
X163032951Y-172104365D01*
X164469261Y-171759651D02*
X164584165Y-171759651D01*
X164699070Y-171817104D01*
X164756522Y-171874556D01*
X164813975Y-171989461D01*
X164871427Y-172219270D01*
X164871427Y-172506532D01*
X164813975Y-172736342D01*
X164756522Y-172851246D01*
X164699070Y-172908699D01*
X164584165Y-172966151D01*
X164469261Y-172966151D01*
X164354356Y-172908699D01*
X164296903Y-172851246D01*
X164239451Y-172736342D01*
X164181999Y-172506532D01*
X164181999Y-172219270D01*
X164239451Y-171989461D01*
X164296903Y-171874556D01*
X164354356Y-171817104D01*
X164469261Y-171759651D01*
X163722380Y-144986149D02*
X163032951Y-144986149D01*
X163377665Y-144986149D02*
X163377665Y-143779649D01*
X163262761Y-143952006D01*
X163147856Y-144066911D01*
X163032951Y-144124363D01*
X164469261Y-143779649D02*
X164584165Y-143779649D01*
X164699070Y-143837102D01*
X164756522Y-143894554D01*
X164813975Y-144009459D01*
X164871427Y-144239268D01*
X164871427Y-144526530D01*
X164813975Y-144756340D01*
X164756522Y-144871244D01*
X164699070Y-144928697D01*
X164584165Y-144986149D01*
X164469261Y-144986149D01*
X164354356Y-144928697D01*
X164296903Y-144871244D01*
X164239451Y-144756340D01*
X164181999Y-144526530D01*
X164181999Y-144239268D01*
X164239451Y-144009459D01*
X164296903Y-143894554D01*
X164354356Y-143837102D01*
X164469261Y-143779649D01*
X163722380Y-117006147D02*
X163032951Y-117006147D01*
X163377665Y-117006147D02*
X163377665Y-115799647D01*
X163262761Y-115972004D01*
X163147856Y-116086909D01*
X163032951Y-116144361D01*
X164469261Y-115799647D02*
X164584165Y-115799647D01*
X164699070Y-115857100D01*
X164756522Y-115914552D01*
X164813975Y-116029457D01*
X164871427Y-116259266D01*
X164871427Y-116546528D01*
X164813975Y-116776338D01*
X164756522Y-116891242D01*
X164699070Y-116948695D01*
X164584165Y-117006147D01*
X164469261Y-117006147D01*
X164354356Y-116948695D01*
X164296903Y-116891242D01*
X164239451Y-116776338D01*
X164181999Y-116546528D01*
X164181999Y-116259266D01*
X164239451Y-116029457D01*
X164296903Y-115914552D01*
X164354356Y-115857100D01*
X164469261Y-115799647D01*
X143682378Y-172966151D02*
X142992949Y-172966151D01*
X143337663Y-172966151D02*
X143337663Y-171759651D01*
X143222759Y-171932008D01*
X143107854Y-172046913D01*
X142992949Y-172104365D01*
X144429259Y-171759651D02*
X144544163Y-171759651D01*
X144659068Y-171817104D01*
X144716520Y-171874556D01*
X144773973Y-171989461D01*
X144831425Y-172219270D01*
X144831425Y-172506532D01*
X144773973Y-172736342D01*
X144716520Y-172851246D01*
X144659068Y-172908699D01*
X144544163Y-172966151D01*
X144429259Y-172966151D01*
X144314354Y-172908699D01*
X144256901Y-172851246D01*
X144199449Y-172736342D01*
X144141997Y-172506532D01*
X144141997Y-172219270D01*
X144199449Y-171989461D01*
X144256901Y-171874556D01*
X144314354Y-171817104D01*
X144429259Y-171759651D01*
X143682378Y-144986149D02*
X142992949Y-144986149D01*
X143337663Y-144986149D02*
X143337663Y-143779649D01*
X143222759Y-143952006D01*
X143107854Y-144066911D01*
X142992949Y-144124363D01*
X144429259Y-143779649D02*
X144544163Y-143779649D01*
X144659068Y-143837102D01*
X144716520Y-143894554D01*
X144773973Y-144009459D01*
X144831425Y-144239268D01*
X144831425Y-144526530D01*
X144773973Y-144756340D01*
X144716520Y-144871244D01*
X144659068Y-144928697D01*
X144544163Y-144986149D01*
X144429259Y-144986149D01*
X144314354Y-144928697D01*
X144256901Y-144871244D01*
X144199449Y-144756340D01*
X144141997Y-144526530D01*
X144141997Y-144239268D01*
X144199449Y-144009459D01*
X144256901Y-143894554D01*
X144314354Y-143837102D01*
X144429259Y-143779649D01*
X204310384Y-149979151D02*
X203620955Y-149979151D01*
X203965669Y-149979151D02*
X203965669Y-148772651D01*
X203850765Y-148945008D01*
X203735860Y-149059913D01*
X203620955Y-149117365D01*
X204310384Y-121999149D02*
X203620955Y-121999149D01*
X203965669Y-121999149D02*
X203965669Y-120792649D01*
X203850765Y-120965006D01*
X203735860Y-121079911D01*
X203620955Y-121137363D01*
X204310384Y-94019147D02*
X203620955Y-94019147D01*
X203965669Y-94019147D02*
X203965669Y-92812647D01*
X203850765Y-92985004D01*
X203735860Y-93099909D01*
X203620955Y-93157361D01*
X184270382Y-149979151D02*
X183580953Y-149979151D01*
X183925667Y-149979151D02*
X183925667Y-148772651D01*
X183810763Y-148945008D01*
X183695858Y-149059913D01*
X183580953Y-149117365D01*
X184270382Y-121999149D02*
X183580953Y-121999149D01*
X183925667Y-121999149D02*
X183925667Y-120792649D01*
X183810763Y-120965006D01*
X183695858Y-121079911D01*
X183580953Y-121137363D01*
X184270382Y-94019147D02*
X183580953Y-94019147D01*
X183925667Y-94019147D02*
X183925667Y-92812647D01*
X183810763Y-92985004D01*
X183695858Y-93099909D01*
X183580953Y-93157361D01*
X164230380Y-149979151D02*
X163540951Y-149979151D01*
X163885665Y-149979151D02*
X163885665Y-148772651D01*
X163770761Y-148945008D01*
X163655856Y-149059913D01*
X163540951Y-149117365D01*
X164230380Y-121999149D02*
X163540951Y-121999149D01*
X163885665Y-121999149D02*
X163885665Y-120792649D01*
X163770761Y-120965006D01*
X163655856Y-121079911D01*
X163540951Y-121137363D01*
X164230380Y-94019147D02*
X163540951Y-94019147D01*
X163885665Y-94019147D02*
X163885665Y-92812647D01*
X163770761Y-92985004D01*
X163655856Y-93099909D01*
X163540951Y-93157361D01*
X144190378Y-149979151D02*
X143500949Y-149979151D01*
X143845663Y-149979151D02*
X143845663Y-148772651D01*
X143730759Y-148945008D01*
X143615854Y-149059913D01*
X143500949Y-149117365D01*
X144190378Y-121999149D02*
X143500949Y-121999149D01*
X143845663Y-121999149D02*
X143845663Y-120792649D01*
X143730759Y-120965006D01*
X143615854Y-121079911D01*
X143500949Y-121137363D01*
X205779955Y-170749699D02*
X205952312Y-170807151D01*
X206239574Y-170807151D01*
X206354479Y-170749699D01*
X206411931Y-170692246D01*
X206469384Y-170577342D01*
X206469384Y-170462437D01*
X206411931Y-170347532D01*
X206354479Y-170290080D01*
X206239574Y-170232627D01*
X206009765Y-170175175D01*
X205894860Y-170117723D01*
X205837407Y-170060270D01*
X205779955Y-169945365D01*
X205779955Y-169830461D01*
X205837407Y-169715556D01*
X205894860Y-169658104D01*
X206009765Y-169600651D01*
X206297026Y-169600651D01*
X206469384Y-169658104D01*
X207216265Y-169600651D02*
X207446074Y-169600651D01*
X207560979Y-169658104D01*
X207675884Y-169773008D01*
X207733336Y-170002818D01*
X207733336Y-170404984D01*
X207675884Y-170634794D01*
X207560979Y-170749699D01*
X207446074Y-170807151D01*
X207216265Y-170807151D01*
X207101360Y-170749699D01*
X206986455Y-170634794D01*
X206929003Y-170404984D01*
X206929003Y-170002818D01*
X206986455Y-169773008D01*
X207101360Y-169658104D01*
X207216265Y-169600651D01*
X208250407Y-170807151D02*
X208250407Y-169600651D01*
X209514360Y-170692246D02*
X209456907Y-170749699D01*
X209284550Y-170807151D01*
X209169646Y-170807151D01*
X208997288Y-170749699D01*
X208882384Y-170634794D01*
X208824931Y-170519889D01*
X208767479Y-170290080D01*
X208767479Y-170117723D01*
X208824931Y-169887913D01*
X208882384Y-169773008D01*
X208997288Y-169658104D01*
X209169646Y-169600651D01*
X209284550Y-169600651D01*
X209456907Y-169658104D01*
X209514360Y-169715556D01*
X210031431Y-170347532D02*
X210950669Y-170347532D01*
X211467741Y-169715556D02*
X211525193Y-169658104D01*
X211640098Y-169600651D01*
X211927360Y-169600651D01*
X212042265Y-169658104D01*
X212099717Y-169715556D01*
X212157169Y-169830461D01*
X212157169Y-169945365D01*
X212099717Y-170117723D01*
X211410288Y-170807151D01*
X212157169Y-170807151D01*
X212904050Y-169600651D02*
X213018955Y-169600651D01*
X213133860Y-169658104D01*
X213191312Y-169715556D01*
X213248765Y-169830461D01*
X213306217Y-170060270D01*
X213306217Y-170347532D01*
X213248765Y-170577342D01*
X213191312Y-170692246D01*
X213133860Y-170749699D01*
X213018955Y-170807151D01*
X212904050Y-170807151D01*
X212789146Y-170749699D01*
X212731693Y-170692246D01*
X212674241Y-170577342D01*
X212616788Y-170347532D01*
X212616788Y-170060270D01*
X212674241Y-169830461D01*
X212731693Y-169715556D01*
X212789146Y-169658104D01*
X212904050Y-169600651D01*
X205779955Y-142769697D02*
X205952312Y-142827149D01*
X206239574Y-142827149D01*
X206354479Y-142769697D01*
X206411931Y-142712244D01*
X206469384Y-142597340D01*
X206469384Y-142482435D01*
X206411931Y-142367530D01*
X206354479Y-142310078D01*
X206239574Y-142252625D01*
X206009765Y-142195173D01*
X205894860Y-142137721D01*
X205837407Y-142080268D01*
X205779955Y-141965363D01*
X205779955Y-141850459D01*
X205837407Y-141735554D01*
X205894860Y-141678102D01*
X206009765Y-141620649D01*
X206297026Y-141620649D01*
X206469384Y-141678102D01*
X207216265Y-141620649D02*
X207446074Y-141620649D01*
X207560979Y-141678102D01*
X207675884Y-141793006D01*
X207733336Y-142022816D01*
X207733336Y-142424982D01*
X207675884Y-142654792D01*
X207560979Y-142769697D01*
X207446074Y-142827149D01*
X207216265Y-142827149D01*
X207101360Y-142769697D01*
X206986455Y-142654792D01*
X206929003Y-142424982D01*
X206929003Y-142022816D01*
X206986455Y-141793006D01*
X207101360Y-141678102D01*
X207216265Y-141620649D01*
X208250407Y-142827149D02*
X208250407Y-141620649D01*
X209514360Y-142712244D02*
X209456907Y-142769697D01*
X209284550Y-142827149D01*
X209169646Y-142827149D01*
X208997288Y-142769697D01*
X208882384Y-142654792D01*
X208824931Y-142539887D01*
X208767479Y-142310078D01*
X208767479Y-142137721D01*
X208824931Y-141907911D01*
X208882384Y-141793006D01*
X208997288Y-141678102D01*
X209169646Y-141620649D01*
X209284550Y-141620649D01*
X209456907Y-141678102D01*
X209514360Y-141735554D01*
X210031431Y-142367530D02*
X210950669Y-142367530D01*
X211467741Y-141735554D02*
X211525193Y-141678102D01*
X211640098Y-141620649D01*
X211927360Y-141620649D01*
X212042265Y-141678102D01*
X212099717Y-141735554D01*
X212157169Y-141850459D01*
X212157169Y-141965363D01*
X212099717Y-142137721D01*
X211410288Y-142827149D01*
X212157169Y-142827149D01*
X212904050Y-141620649D02*
X213018955Y-141620649D01*
X213133860Y-141678102D01*
X213191312Y-141735554D01*
X213248765Y-141850459D01*
X213306217Y-142080268D01*
X213306217Y-142367530D01*
X213248765Y-142597340D01*
X213191312Y-142712244D01*
X213133860Y-142769697D01*
X213018955Y-142827149D01*
X212904050Y-142827149D01*
X212789146Y-142769697D01*
X212731693Y-142712244D01*
X212674241Y-142597340D01*
X212616788Y-142367530D01*
X212616788Y-142080268D01*
X212674241Y-141850459D01*
X212731693Y-141735554D01*
X212789146Y-141678102D01*
X212904050Y-141620649D01*
X205779955Y-114789695D02*
X205952312Y-114847147D01*
X206239574Y-114847147D01*
X206354479Y-114789695D01*
X206411931Y-114732242D01*
X206469384Y-114617338D01*
X206469384Y-114502433D01*
X206411931Y-114387528D01*
X206354479Y-114330076D01*
X206239574Y-114272623D01*
X206009765Y-114215171D01*
X205894860Y-114157719D01*
X205837407Y-114100266D01*
X205779955Y-113985361D01*
X205779955Y-113870457D01*
X205837407Y-113755552D01*
X205894860Y-113698100D01*
X206009765Y-113640647D01*
X206297026Y-113640647D01*
X206469384Y-113698100D01*
X207216265Y-113640647D02*
X207446074Y-113640647D01*
X207560979Y-113698100D01*
X207675884Y-113813004D01*
X207733336Y-114042814D01*
X207733336Y-114444980D01*
X207675884Y-114674790D01*
X207560979Y-114789695D01*
X207446074Y-114847147D01*
X207216265Y-114847147D01*
X207101360Y-114789695D01*
X206986455Y-114674790D01*
X206929003Y-114444980D01*
X206929003Y-114042814D01*
X206986455Y-113813004D01*
X207101360Y-113698100D01*
X207216265Y-113640647D01*
X208250407Y-114847147D02*
X208250407Y-113640647D01*
X209514360Y-114732242D02*
X209456907Y-114789695D01*
X209284550Y-114847147D01*
X209169646Y-114847147D01*
X208997288Y-114789695D01*
X208882384Y-114674790D01*
X208824931Y-114559885D01*
X208767479Y-114330076D01*
X208767479Y-114157719D01*
X208824931Y-113927909D01*
X208882384Y-113813004D01*
X208997288Y-113698100D01*
X209169646Y-113640647D01*
X209284550Y-113640647D01*
X209456907Y-113698100D01*
X209514360Y-113755552D01*
X210031431Y-114387528D02*
X210950669Y-114387528D01*
X211467741Y-113755552D02*
X211525193Y-113698100D01*
X211640098Y-113640647D01*
X211927360Y-113640647D01*
X212042265Y-113698100D01*
X212099717Y-113755552D01*
X212157169Y-113870457D01*
X212157169Y-113985361D01*
X212099717Y-114157719D01*
X211410288Y-114847147D01*
X212157169Y-114847147D01*
X212904050Y-113640647D02*
X213018955Y-113640647D01*
X213133860Y-113698100D01*
X213191312Y-113755552D01*
X213248765Y-113870457D01*
X213306217Y-114100266D01*
X213306217Y-114387528D01*
X213248765Y-114617338D01*
X213191312Y-114732242D01*
X213133860Y-114789695D01*
X213018955Y-114847147D01*
X212904050Y-114847147D01*
X212789146Y-114789695D01*
X212731693Y-114732242D01*
X212674241Y-114617338D01*
X212616788Y-114387528D01*
X212616788Y-114100266D01*
X212674241Y-113870457D01*
X212731693Y-113755552D01*
X212789146Y-113698100D01*
X212904050Y-113640647D01*
X185739953Y-170749699D02*
X185912310Y-170807151D01*
X186199572Y-170807151D01*
X186314477Y-170749699D01*
X186371929Y-170692246D01*
X186429382Y-170577342D01*
X186429382Y-170462437D01*
X186371929Y-170347532D01*
X186314477Y-170290080D01*
X186199572Y-170232627D01*
X185969763Y-170175175D01*
X185854858Y-170117723D01*
X185797405Y-170060270D01*
X185739953Y-169945365D01*
X185739953Y-169830461D01*
X185797405Y-169715556D01*
X185854858Y-169658104D01*
X185969763Y-169600651D01*
X186257024Y-169600651D01*
X186429382Y-169658104D01*
X187176263Y-169600651D02*
X187406072Y-169600651D01*
X187520977Y-169658104D01*
X187635882Y-169773008D01*
X187693334Y-170002818D01*
X187693334Y-170404984D01*
X187635882Y-170634794D01*
X187520977Y-170749699D01*
X187406072Y-170807151D01*
X187176263Y-170807151D01*
X187061358Y-170749699D01*
X186946453Y-170634794D01*
X186889001Y-170404984D01*
X186889001Y-170002818D01*
X186946453Y-169773008D01*
X187061358Y-169658104D01*
X187176263Y-169600651D01*
X188210405Y-170807151D02*
X188210405Y-169600651D01*
X189474358Y-170692246D02*
X189416905Y-170749699D01*
X189244548Y-170807151D01*
X189129644Y-170807151D01*
X188957286Y-170749699D01*
X188842382Y-170634794D01*
X188784929Y-170519889D01*
X188727477Y-170290080D01*
X188727477Y-170117723D01*
X188784929Y-169887913D01*
X188842382Y-169773008D01*
X188957286Y-169658104D01*
X189129644Y-169600651D01*
X189244548Y-169600651D01*
X189416905Y-169658104D01*
X189474358Y-169715556D01*
X189991429Y-170347532D02*
X190910667Y-170347532D01*
X191427739Y-169715556D02*
X191485191Y-169658104D01*
X191600096Y-169600651D01*
X191887358Y-169600651D01*
X192002263Y-169658104D01*
X192059715Y-169715556D01*
X192117167Y-169830461D01*
X192117167Y-169945365D01*
X192059715Y-170117723D01*
X191370286Y-170807151D01*
X192117167Y-170807151D01*
X192864048Y-169600651D02*
X192978953Y-169600651D01*
X193093858Y-169658104D01*
X193151310Y-169715556D01*
X193208763Y-169830461D01*
X193266215Y-170060270D01*
X193266215Y-170347532D01*
X193208763Y-170577342D01*
X193151310Y-170692246D01*
X193093858Y-170749699D01*
X192978953Y-170807151D01*
X192864048Y-170807151D01*
X192749144Y-170749699D01*
X192691691Y-170692246D01*
X192634239Y-170577342D01*
X192576786Y-170347532D01*
X192576786Y-170060270D01*
X192634239Y-169830461D01*
X192691691Y-169715556D01*
X192749144Y-169658104D01*
X192864048Y-169600651D01*
X185739953Y-142769697D02*
X185912310Y-142827149D01*
X186199572Y-142827149D01*
X186314477Y-142769697D01*
X186371929Y-142712244D01*
X186429382Y-142597340D01*
X186429382Y-142482435D01*
X186371929Y-142367530D01*
X186314477Y-142310078D01*
X186199572Y-142252625D01*
X185969763Y-142195173D01*
X185854858Y-142137721D01*
X185797405Y-142080268D01*
X185739953Y-141965363D01*
X185739953Y-141850459D01*
X185797405Y-141735554D01*
X185854858Y-141678102D01*
X185969763Y-141620649D01*
X186257024Y-141620649D01*
X186429382Y-141678102D01*
X187176263Y-141620649D02*
X187406072Y-141620649D01*
X187520977Y-141678102D01*
X187635882Y-141793006D01*
X187693334Y-142022816D01*
X187693334Y-142424982D01*
X187635882Y-142654792D01*
X187520977Y-142769697D01*
X187406072Y-142827149D01*
X187176263Y-142827149D01*
X187061358Y-142769697D01*
X186946453Y-142654792D01*
X186889001Y-142424982D01*
X186889001Y-142022816D01*
X186946453Y-141793006D01*
X187061358Y-141678102D01*
X187176263Y-141620649D01*
X188210405Y-142827149D02*
X188210405Y-141620649D01*
X189474358Y-142712244D02*
X189416905Y-142769697D01*
X189244548Y-142827149D01*
X189129644Y-142827149D01*
X188957286Y-142769697D01*
X188842382Y-142654792D01*
X188784929Y-142539887D01*
X188727477Y-142310078D01*
X188727477Y-142137721D01*
X188784929Y-141907911D01*
X188842382Y-141793006D01*
X188957286Y-141678102D01*
X189129644Y-141620649D01*
X189244548Y-141620649D01*
X189416905Y-141678102D01*
X189474358Y-141735554D01*
X189991429Y-142367530D02*
X190910667Y-142367530D01*
X191427739Y-141735554D02*
X191485191Y-141678102D01*
X191600096Y-141620649D01*
X191887358Y-141620649D01*
X192002263Y-141678102D01*
X192059715Y-141735554D01*
X192117167Y-141850459D01*
X192117167Y-141965363D01*
X192059715Y-142137721D01*
X191370286Y-142827149D01*
X192117167Y-142827149D01*
X192864048Y-141620649D02*
X192978953Y-141620649D01*
X193093858Y-141678102D01*
X193151310Y-141735554D01*
X193208763Y-141850459D01*
X193266215Y-142080268D01*
X193266215Y-142367530D01*
X193208763Y-142597340D01*
X193151310Y-142712244D01*
X193093858Y-142769697D01*
X192978953Y-142827149D01*
X192864048Y-142827149D01*
X192749144Y-142769697D01*
X192691691Y-142712244D01*
X192634239Y-142597340D01*
X192576786Y-142367530D01*
X192576786Y-142080268D01*
X192634239Y-141850459D01*
X192691691Y-141735554D01*
X192749144Y-141678102D01*
X192864048Y-141620649D01*
X185739953Y-114789695D02*
X185912310Y-114847147D01*
X186199572Y-114847147D01*
X186314477Y-114789695D01*
X186371929Y-114732242D01*
X186429382Y-114617338D01*
X186429382Y-114502433D01*
X186371929Y-114387528D01*
X186314477Y-114330076D01*
X186199572Y-114272623D01*
X185969763Y-114215171D01*
X185854858Y-114157719D01*
X185797405Y-114100266D01*
X185739953Y-113985361D01*
X185739953Y-113870457D01*
X185797405Y-113755552D01*
X185854858Y-113698100D01*
X185969763Y-113640647D01*
X186257024Y-113640647D01*
X186429382Y-113698100D01*
X187176263Y-113640647D02*
X187406072Y-113640647D01*
X187520977Y-113698100D01*
X187635882Y-113813004D01*
X187693334Y-114042814D01*
X187693334Y-114444980D01*
X187635882Y-114674790D01*
X187520977Y-114789695D01*
X187406072Y-114847147D01*
X187176263Y-114847147D01*
X187061358Y-114789695D01*
X186946453Y-114674790D01*
X186889001Y-114444980D01*
X186889001Y-114042814D01*
X186946453Y-113813004D01*
X187061358Y-113698100D01*
X187176263Y-113640647D01*
X188210405Y-114847147D02*
X188210405Y-113640647D01*
X189474358Y-114732242D02*
X189416905Y-114789695D01*
X189244548Y-114847147D01*
X189129644Y-114847147D01*
X188957286Y-114789695D01*
X188842382Y-114674790D01*
X188784929Y-114559885D01*
X188727477Y-114330076D01*
X188727477Y-114157719D01*
X188784929Y-113927909D01*
X188842382Y-113813004D01*
X188957286Y-113698100D01*
X189129644Y-113640647D01*
X189244548Y-113640647D01*
X189416905Y-113698100D01*
X189474358Y-113755552D01*
X189991429Y-114387528D02*
X190910667Y-114387528D01*
X191427739Y-113755552D02*
X191485191Y-113698100D01*
X191600096Y-113640647D01*
X191887358Y-113640647D01*
X192002263Y-113698100D01*
X192059715Y-113755552D01*
X192117167Y-113870457D01*
X192117167Y-113985361D01*
X192059715Y-114157719D01*
X191370286Y-114847147D01*
X192117167Y-114847147D01*
X192864048Y-113640647D02*
X192978953Y-113640647D01*
X193093858Y-113698100D01*
X193151310Y-113755552D01*
X193208763Y-113870457D01*
X193266215Y-114100266D01*
X193266215Y-114387528D01*
X193208763Y-114617338D01*
X193151310Y-114732242D01*
X193093858Y-114789695D01*
X192978953Y-114847147D01*
X192864048Y-114847147D01*
X192749144Y-114789695D01*
X192691691Y-114732242D01*
X192634239Y-114617338D01*
X192576786Y-114387528D01*
X192576786Y-114100266D01*
X192634239Y-113870457D01*
X192691691Y-113755552D01*
X192749144Y-113698100D01*
X192864048Y-113640647D01*
X165699951Y-170749699D02*
X165872308Y-170807151D01*
X166159570Y-170807151D01*
X166274475Y-170749699D01*
X166331927Y-170692246D01*
X166389380Y-170577342D01*
X166389380Y-170462437D01*
X166331927Y-170347532D01*
X166274475Y-170290080D01*
X166159570Y-170232627D01*
X165929761Y-170175175D01*
X165814856Y-170117723D01*
X165757403Y-170060270D01*
X165699951Y-169945365D01*
X165699951Y-169830461D01*
X165757403Y-169715556D01*
X165814856Y-169658104D01*
X165929761Y-169600651D01*
X166217022Y-169600651D01*
X166389380Y-169658104D01*
X167136261Y-169600651D02*
X167366070Y-169600651D01*
X167480975Y-169658104D01*
X167595880Y-169773008D01*
X167653332Y-170002818D01*
X167653332Y-170404984D01*
X167595880Y-170634794D01*
X167480975Y-170749699D01*
X167366070Y-170807151D01*
X167136261Y-170807151D01*
X167021356Y-170749699D01*
X166906451Y-170634794D01*
X166848999Y-170404984D01*
X166848999Y-170002818D01*
X166906451Y-169773008D01*
X167021356Y-169658104D01*
X167136261Y-169600651D01*
X168170403Y-170807151D02*
X168170403Y-169600651D01*
X169434356Y-170692246D02*
X169376903Y-170749699D01*
X169204546Y-170807151D01*
X169089642Y-170807151D01*
X168917284Y-170749699D01*
X168802380Y-170634794D01*
X168744927Y-170519889D01*
X168687475Y-170290080D01*
X168687475Y-170117723D01*
X168744927Y-169887913D01*
X168802380Y-169773008D01*
X168917284Y-169658104D01*
X169089642Y-169600651D01*
X169204546Y-169600651D01*
X169376903Y-169658104D01*
X169434356Y-169715556D01*
X169951427Y-170347532D02*
X170870665Y-170347532D01*
X171387737Y-169715556D02*
X171445189Y-169658104D01*
X171560094Y-169600651D01*
X171847356Y-169600651D01*
X171962261Y-169658104D01*
X172019713Y-169715556D01*
X172077165Y-169830461D01*
X172077165Y-169945365D01*
X172019713Y-170117723D01*
X171330284Y-170807151D01*
X172077165Y-170807151D01*
X172824046Y-169600651D02*
X172938951Y-169600651D01*
X173053856Y-169658104D01*
X173111308Y-169715556D01*
X173168761Y-169830461D01*
X173226213Y-170060270D01*
X173226213Y-170347532D01*
X173168761Y-170577342D01*
X173111308Y-170692246D01*
X173053856Y-170749699D01*
X172938951Y-170807151D01*
X172824046Y-170807151D01*
X172709142Y-170749699D01*
X172651689Y-170692246D01*
X172594237Y-170577342D01*
X172536784Y-170347532D01*
X172536784Y-170060270D01*
X172594237Y-169830461D01*
X172651689Y-169715556D01*
X172709142Y-169658104D01*
X172824046Y-169600651D01*
X165699951Y-142769697D02*
X165872308Y-142827149D01*
X166159570Y-142827149D01*
X166274475Y-142769697D01*
X166331927Y-142712244D01*
X166389380Y-142597340D01*
X166389380Y-142482435D01*
X166331927Y-142367530D01*
X166274475Y-142310078D01*
X166159570Y-142252625D01*
X165929761Y-142195173D01*
X165814856Y-142137721D01*
X165757403Y-142080268D01*
X165699951Y-141965363D01*
X165699951Y-141850459D01*
X165757403Y-141735554D01*
X165814856Y-141678102D01*
X165929761Y-141620649D01*
X166217022Y-141620649D01*
X166389380Y-141678102D01*
X167136261Y-141620649D02*
X167366070Y-141620649D01*
X167480975Y-141678102D01*
X167595880Y-141793006D01*
X167653332Y-142022816D01*
X167653332Y-142424982D01*
X167595880Y-142654792D01*
X167480975Y-142769697D01*
X167366070Y-142827149D01*
X167136261Y-142827149D01*
X167021356Y-142769697D01*
X166906451Y-142654792D01*
X166848999Y-142424982D01*
X166848999Y-142022816D01*
X166906451Y-141793006D01*
X167021356Y-141678102D01*
X167136261Y-141620649D01*
X168170403Y-142827149D02*
X168170403Y-141620649D01*
X169434356Y-142712244D02*
X169376903Y-142769697D01*
X169204546Y-142827149D01*
X169089642Y-142827149D01*
X168917284Y-142769697D01*
X168802380Y-142654792D01*
X168744927Y-142539887D01*
X168687475Y-142310078D01*
X168687475Y-142137721D01*
X168744927Y-141907911D01*
X168802380Y-141793006D01*
X168917284Y-141678102D01*
X169089642Y-141620649D01*
X169204546Y-141620649D01*
X169376903Y-141678102D01*
X169434356Y-141735554D01*
X169951427Y-142367530D02*
X170870665Y-142367530D01*
X171387737Y-141735554D02*
X171445189Y-141678102D01*
X171560094Y-141620649D01*
X171847356Y-141620649D01*
X171962261Y-141678102D01*
X172019713Y-141735554D01*
X172077165Y-141850459D01*
X172077165Y-141965363D01*
X172019713Y-142137721D01*
X171330284Y-142827149D01*
X172077165Y-142827149D01*
X172824046Y-141620649D02*
X172938951Y-141620649D01*
X173053856Y-141678102D01*
X173111308Y-141735554D01*
X173168761Y-141850459D01*
X173226213Y-142080268D01*
X173226213Y-142367530D01*
X173168761Y-142597340D01*
X173111308Y-142712244D01*
X173053856Y-142769697D01*
X172938951Y-142827149D01*
X172824046Y-142827149D01*
X172709142Y-142769697D01*
X172651689Y-142712244D01*
X172594237Y-142597340D01*
X172536784Y-142367530D01*
X172536784Y-142080268D01*
X172594237Y-141850459D01*
X172651689Y-141735554D01*
X172709142Y-141678102D01*
X172824046Y-141620649D01*
X165699951Y-114789695D02*
X165872308Y-114847147D01*
X166159570Y-114847147D01*
X166274475Y-114789695D01*
X166331927Y-114732242D01*
X166389380Y-114617338D01*
X166389380Y-114502433D01*
X166331927Y-114387528D01*
X166274475Y-114330076D01*
X166159570Y-114272623D01*
X165929761Y-114215171D01*
X165814856Y-114157719D01*
X165757403Y-114100266D01*
X165699951Y-113985361D01*
X165699951Y-113870457D01*
X165757403Y-113755552D01*
X165814856Y-113698100D01*
X165929761Y-113640647D01*
X166217022Y-113640647D01*
X166389380Y-113698100D01*
X167136261Y-113640647D02*
X167366070Y-113640647D01*
X167480975Y-113698100D01*
X167595880Y-113813004D01*
X167653332Y-114042814D01*
X167653332Y-114444980D01*
X167595880Y-114674790D01*
X167480975Y-114789695D01*
X167366070Y-114847147D01*
X167136261Y-114847147D01*
X167021356Y-114789695D01*
X166906451Y-114674790D01*
X166848999Y-114444980D01*
X166848999Y-114042814D01*
X166906451Y-113813004D01*
X167021356Y-113698100D01*
X167136261Y-113640647D01*
X168170403Y-114847147D02*
X168170403Y-113640647D01*
X169434356Y-114732242D02*
X169376903Y-114789695D01*
X169204546Y-114847147D01*
X169089642Y-114847147D01*
X168917284Y-114789695D01*
X168802380Y-114674790D01*
X168744927Y-114559885D01*
X168687475Y-114330076D01*
X168687475Y-114157719D01*
X168744927Y-113927909D01*
X168802380Y-113813004D01*
X168917284Y-113698100D01*
X169089642Y-113640647D01*
X169204546Y-113640647D01*
X169376903Y-113698100D01*
X169434356Y-113755552D01*
X169951427Y-114387528D02*
X170870665Y-114387528D01*
X171387737Y-113755552D02*
X171445189Y-113698100D01*
X171560094Y-113640647D01*
X171847356Y-113640647D01*
X171962261Y-113698100D01*
X172019713Y-113755552D01*
X172077165Y-113870457D01*
X172077165Y-113985361D01*
X172019713Y-114157719D01*
X171330284Y-114847147D01*
X172077165Y-114847147D01*
X172824046Y-113640647D02*
X172938951Y-113640647D01*
X173053856Y-113698100D01*
X173111308Y-113755552D01*
X173168761Y-113870457D01*
X173226213Y-114100266D01*
X173226213Y-114387528D01*
X173168761Y-114617338D01*
X173111308Y-114732242D01*
X173053856Y-114789695D01*
X172938951Y-114847147D01*
X172824046Y-114847147D01*
X172709142Y-114789695D01*
X172651689Y-114732242D01*
X172594237Y-114617338D01*
X172536784Y-114387528D01*
X172536784Y-114100266D01*
X172594237Y-113870457D01*
X172651689Y-113755552D01*
X172709142Y-113698100D01*
X172824046Y-113640647D01*
X145659949Y-170749699D02*
X145832306Y-170807151D01*
X146119568Y-170807151D01*
X146234473Y-170749699D01*
X146291925Y-170692246D01*
X146349378Y-170577342D01*
X146349378Y-170462437D01*
X146291925Y-170347532D01*
X146234473Y-170290080D01*
X146119568Y-170232627D01*
X145889759Y-170175175D01*
X145774854Y-170117723D01*
X145717401Y-170060270D01*
X145659949Y-169945365D01*
X145659949Y-169830461D01*
X145717401Y-169715556D01*
X145774854Y-169658104D01*
X145889759Y-169600651D01*
X146177020Y-169600651D01*
X146349378Y-169658104D01*
X147096259Y-169600651D02*
X147326068Y-169600651D01*
X147440973Y-169658104D01*
X147555878Y-169773008D01*
X147613330Y-170002818D01*
X147613330Y-170404984D01*
X147555878Y-170634794D01*
X147440973Y-170749699D01*
X147326068Y-170807151D01*
X147096259Y-170807151D01*
X146981354Y-170749699D01*
X146866449Y-170634794D01*
X146808997Y-170404984D01*
X146808997Y-170002818D01*
X146866449Y-169773008D01*
X146981354Y-169658104D01*
X147096259Y-169600651D01*
X148130401Y-170807151D02*
X148130401Y-169600651D01*
X149394354Y-170692246D02*
X149336901Y-170749699D01*
X149164544Y-170807151D01*
X149049640Y-170807151D01*
X148877282Y-170749699D01*
X148762378Y-170634794D01*
X148704925Y-170519889D01*
X148647473Y-170290080D01*
X148647473Y-170117723D01*
X148704925Y-169887913D01*
X148762378Y-169773008D01*
X148877282Y-169658104D01*
X149049640Y-169600651D01*
X149164544Y-169600651D01*
X149336901Y-169658104D01*
X149394354Y-169715556D01*
X149911425Y-170347532D02*
X150830663Y-170347532D01*
X151347735Y-169715556D02*
X151405187Y-169658104D01*
X151520092Y-169600651D01*
X151807354Y-169600651D01*
X151922259Y-169658104D01*
X151979711Y-169715556D01*
X152037163Y-169830461D01*
X152037163Y-169945365D01*
X151979711Y-170117723D01*
X151290282Y-170807151D01*
X152037163Y-170807151D01*
X152784044Y-169600651D02*
X152898949Y-169600651D01*
X153013854Y-169658104D01*
X153071306Y-169715556D01*
X153128759Y-169830461D01*
X153186211Y-170060270D01*
X153186211Y-170347532D01*
X153128759Y-170577342D01*
X153071306Y-170692246D01*
X153013854Y-170749699D01*
X152898949Y-170807151D01*
X152784044Y-170807151D01*
X152669140Y-170749699D01*
X152611687Y-170692246D01*
X152554235Y-170577342D01*
X152496782Y-170347532D01*
X152496782Y-170060270D01*
X152554235Y-169830461D01*
X152611687Y-169715556D01*
X152669140Y-169658104D01*
X152784044Y-169600651D01*
X145659949Y-142769697D02*
X145832306Y-142827149D01*
X146119568Y-142827149D01*
X146234473Y-142769697D01*
X146291925Y-142712244D01*
X146349378Y-142597340D01*
X146349378Y-142482435D01*
X146291925Y-142367530D01*
X146234473Y-142310078D01*
X146119568Y-142252625D01*
X145889759Y-142195173D01*
X145774854Y-142137721D01*
X145717401Y-142080268D01*
X145659949Y-141965363D01*
X145659949Y-141850459D01*
X145717401Y-141735554D01*
X145774854Y-141678102D01*
X145889759Y-141620649D01*
X146177020Y-141620649D01*
X146349378Y-141678102D01*
X147096259Y-141620649D02*
X147326068Y-141620649D01*
X147440973Y-141678102D01*
X147555878Y-141793006D01*
X147613330Y-142022816D01*
X147613330Y-142424982D01*
X147555878Y-142654792D01*
X147440973Y-142769697D01*
X147326068Y-142827149D01*
X147096259Y-142827149D01*
X146981354Y-142769697D01*
X146866449Y-142654792D01*
X146808997Y-142424982D01*
X146808997Y-142022816D01*
X146866449Y-141793006D01*
X146981354Y-141678102D01*
X147096259Y-141620649D01*
X148130401Y-142827149D02*
X148130401Y-141620649D01*
X149394354Y-142712244D02*
X149336901Y-142769697D01*
X149164544Y-142827149D01*
X149049640Y-142827149D01*
X148877282Y-142769697D01*
X148762378Y-142654792D01*
X148704925Y-142539887D01*
X148647473Y-142310078D01*
X148647473Y-142137721D01*
X148704925Y-141907911D01*
X148762378Y-141793006D01*
X148877282Y-141678102D01*
X149049640Y-141620649D01*
X149164544Y-141620649D01*
X149336901Y-141678102D01*
X149394354Y-141735554D01*
X149911425Y-142367530D02*
X150830663Y-142367530D01*
X151347735Y-141735554D02*
X151405187Y-141678102D01*
X151520092Y-141620649D01*
X151807354Y-141620649D01*
X151922259Y-141678102D01*
X151979711Y-141735554D01*
X152037163Y-141850459D01*
X152037163Y-141965363D01*
X151979711Y-142137721D01*
X151290282Y-142827149D01*
X152037163Y-142827149D01*
X152784044Y-141620649D02*
X152898949Y-141620649D01*
X153013854Y-141678102D01*
X153071306Y-141735554D01*
X153128759Y-141850459D01*
X153186211Y-142080268D01*
X153186211Y-142367530D01*
X153128759Y-142597340D01*
X153071306Y-142712244D01*
X153013854Y-142769697D01*
X152898949Y-142827149D01*
X152784044Y-142827149D01*
X152669140Y-142769697D01*
X152611687Y-142712244D01*
X152554235Y-142597340D01*
X152496782Y-142367530D01*
X152496782Y-142080268D01*
X152554235Y-141850459D01*
X152611687Y-141735554D01*
X152669140Y-141678102D01*
X152784044Y-141620649D01*
X145659949Y-114789695D02*
X145832306Y-114847147D01*
X146119568Y-114847147D01*
X146234473Y-114789695D01*
X146291925Y-114732242D01*
X146349378Y-114617338D01*
X146349378Y-114502433D01*
X146291925Y-114387528D01*
X146234473Y-114330076D01*
X146119568Y-114272623D01*
X145889759Y-114215171D01*
X145774854Y-114157719D01*
X145717401Y-114100266D01*
X145659949Y-113985361D01*
X145659949Y-113870457D01*
X145717401Y-113755552D01*
X145774854Y-113698100D01*
X145889759Y-113640647D01*
X146177020Y-113640647D01*
X146349378Y-113698100D01*
X147096259Y-113640647D02*
X147326068Y-113640647D01*
X147440973Y-113698100D01*
X147555878Y-113813004D01*
X147613330Y-114042814D01*
X147613330Y-114444980D01*
X147555878Y-114674790D01*
X147440973Y-114789695D01*
X147326068Y-114847147D01*
X147096259Y-114847147D01*
X146981354Y-114789695D01*
X146866449Y-114674790D01*
X146808997Y-114444980D01*
X146808997Y-114042814D01*
X146866449Y-113813004D01*
X146981354Y-113698100D01*
X147096259Y-113640647D01*
X148130401Y-114847147D02*
X148130401Y-113640647D01*
X149394354Y-114732242D02*
X149336901Y-114789695D01*
X149164544Y-114847147D01*
X149049640Y-114847147D01*
X148877282Y-114789695D01*
X148762378Y-114674790D01*
X148704925Y-114559885D01*
X148647473Y-114330076D01*
X148647473Y-114157719D01*
X148704925Y-113927909D01*
X148762378Y-113813004D01*
X148877282Y-113698100D01*
X149049640Y-113640647D01*
X149164544Y-113640647D01*
X149336901Y-113698100D01*
X149394354Y-113755552D01*
X149911425Y-114387528D02*
X150830663Y-114387528D01*
X151347735Y-113755552D02*
X151405187Y-113698100D01*
X151520092Y-113640647D01*
X151807354Y-113640647D01*
X151922259Y-113698100D01*
X151979711Y-113755552D01*
X152037163Y-113870457D01*
X152037163Y-113985361D01*
X151979711Y-114157719D01*
X151290282Y-114847147D01*
X152037163Y-114847147D01*
X152784044Y-113640647D02*
X152898949Y-113640647D01*
X153013854Y-113698100D01*
X153071306Y-113755552D01*
X153128759Y-113870457D01*
X153186211Y-114100266D01*
X153186211Y-114387528D01*
X153128759Y-114617338D01*
X153071306Y-114732242D01*
X153013854Y-114789695D01*
X152898949Y-114847147D01*
X152784044Y-114847147D01*
X152669140Y-114789695D01*
X152611687Y-114732242D01*
X152554235Y-114617338D01*
X152496782Y-114387528D01*
X152496782Y-114100266D01*
X152554235Y-113870457D01*
X152611687Y-113755552D01*
X152669140Y-113698100D01*
X152784044Y-113640647D01*
X144190378Y-94019147D02*
X143500949Y-94019147D01*
X143845663Y-94019147D02*
X143845663Y-92812647D01*
X143730759Y-92985004D01*
X143615854Y-93099909D01*
X143500949Y-93157361D01*
X143682378Y-117006147D02*
X142992949Y-117006147D01*
X143337663Y-117006147D02*
X143337663Y-115799647D01*
X143222759Y-115972004D01*
X143107854Y-116086909D01*
X142992949Y-116144361D01*
X144429259Y-115799647D02*
X144544163Y-115799647D01*
X144659068Y-115857100D01*
X144716520Y-115914552D01*
X144773973Y-116029457D01*
X144831425Y-116259266D01*
X144831425Y-116546528D01*
X144773973Y-116776338D01*
X144716520Y-116891242D01*
X144659068Y-116948695D01*
X144544163Y-117006147D01*
X144429259Y-117006147D01*
X144314354Y-116948695D01*
X144256901Y-116891242D01*
X144199449Y-116776338D01*
X144141997Y-116546528D01*
X144141997Y-116259266D01*
X144199449Y-116029457D01*
X144256901Y-115914552D01*
X144314354Y-115857100D01*
X144429259Y-115799647D01*
X153842378Y-117006147D02*
X153152949Y-117006147D01*
X153497663Y-117006147D02*
X153497663Y-115799647D01*
X153382759Y-115972004D01*
X153267854Y-116086909D01*
X153152949Y-116144361D01*
X154991425Y-117006147D02*
X154301997Y-117006147D01*
X154646711Y-117006147D02*
X154646711Y-115799647D01*
X154531806Y-115972004D01*
X154416901Y-116086909D01*
X154301997Y-116144361D01*
X152898949Y-93054552D02*
X152956401Y-92997100D01*
X153071306Y-92939647D01*
X153358568Y-92939647D01*
X153473473Y-92997100D01*
X153530925Y-93054552D01*
X153588378Y-93169457D01*
X153588378Y-93284361D01*
X153530925Y-93456719D01*
X152841497Y-94146147D01*
X153588378Y-94146147D01*
X154335259Y-92939647D02*
X154450163Y-92939647D01*
X154565068Y-92997100D01*
X154622520Y-93054552D01*
X154679973Y-93169457D01*
X154737425Y-93399266D01*
X154737425Y-93686528D01*
X154679973Y-93916338D01*
X154622520Y-94031242D01*
X154565068Y-94088695D01*
X154450163Y-94146147D01*
X154335259Y-94146147D01*
X154220354Y-94088695D01*
X154162901Y-94031242D01*
X154105449Y-93916338D01*
X154047997Y-93686528D01*
X154047997Y-93399266D01*
X154105449Y-93169457D01*
X154162901Y-93054552D01*
X154220354Y-92997100D01*
X154335259Y-92939647D01*
D10*
G36*
X209130006Y-150481404D02*
G01*
X209281806Y-150403204D01*
X209658806Y-150710604D01*
X209917306Y-150452104D01*
X209609906Y-150075104D01*
X209740206Y-149760604D01*
X210224106Y-149711404D01*
X210224106Y-149345804D01*
X209740206Y-149296604D01*
X209609906Y-148982104D01*
X209917306Y-148605104D01*
X209658806Y-148346604D01*
X209281806Y-148654004D01*
X209129970Y-148575787D01*
X208967306Y-148523704D01*
X208918106Y-148039804D01*
X208552506Y-148039804D01*
X208503306Y-148523704D01*
X208188806Y-148654004D01*
X207811806Y-148346604D01*
X207553306Y-148605104D01*
X207860706Y-148982104D01*
X207730406Y-149296604D01*
X207246506Y-149345804D01*
X207246506Y-149711404D01*
X207730406Y-149760604D01*
X207860706Y-150075104D01*
X207553306Y-150452104D01*
X207811806Y-150710604D01*
X208188806Y-150403204D01*
X208263085Y-150445451D01*
X208340606Y-150481404D01*
X208555906Y-149961704D01*
X208555907Y-149961704D01*
X208403806Y-149860097D01*
X208266506Y-149528604D01*
X208288667Y-149386283D01*
X208352997Y-149257411D01*
X208453421Y-149154157D01*
X208580457Y-149086271D01*
X208722107Y-149060165D01*
X208864997Y-149078302D01*
X208995632Y-149138971D01*
X209101678Y-149236443D01*
X209173120Y-149361513D01*
X209203212Y-149502370D01*
X209189112Y-149645715D01*
X209132152Y-149778010D01*
X209037711Y-149886763D01*
X208914706Y-149961704D01*
X209130006Y-150481404D01*
G37*
G36*
X209130006Y-122501402D02*
G01*
X209281806Y-122423202D01*
X209658806Y-122730602D01*
X209917306Y-122472102D01*
X209609906Y-122095102D01*
X209740206Y-121780602D01*
X210224106Y-121731402D01*
X210224106Y-121365802D01*
X209740206Y-121316602D01*
X209609906Y-121002102D01*
X209917306Y-120625102D01*
X209658806Y-120366602D01*
X209281806Y-120674002D01*
X209129970Y-120595785D01*
X208967306Y-120543702D01*
X208918106Y-120059802D01*
X208552506Y-120059802D01*
X208503306Y-120543702D01*
X208188806Y-120674002D01*
X207811806Y-120366602D01*
X207553306Y-120625102D01*
X207860706Y-121002102D01*
X207730406Y-121316602D01*
X207246506Y-121365802D01*
X207246506Y-121731402D01*
X207730406Y-121780602D01*
X207860706Y-122095102D01*
X207553306Y-122472102D01*
X207811806Y-122730602D01*
X208188806Y-122423202D01*
X208263085Y-122465449D01*
X208340606Y-122501402D01*
X208555906Y-121981702D01*
X208555907Y-121981702D01*
X208403806Y-121880095D01*
X208266506Y-121548602D01*
X208288667Y-121406281D01*
X208352997Y-121277409D01*
X208453421Y-121174155D01*
X208580457Y-121106269D01*
X208722107Y-121080163D01*
X208864997Y-121098300D01*
X208995632Y-121158969D01*
X209101678Y-121256441D01*
X209173120Y-121381511D01*
X209203212Y-121522368D01*
X209189112Y-121665713D01*
X209132152Y-121798008D01*
X209037711Y-121906761D01*
X208914706Y-121981702D01*
X209130006Y-122501402D01*
G37*
G36*
X209130006Y-94521400D02*
G01*
X209281806Y-94443200D01*
X209658806Y-94750600D01*
X209917306Y-94492100D01*
X209609906Y-94115100D01*
X209740206Y-93800600D01*
X210224106Y-93751400D01*
X210224106Y-93385800D01*
X209740206Y-93336600D01*
X209609906Y-93022100D01*
X209917306Y-92645100D01*
X209658806Y-92386600D01*
X209281806Y-92694000D01*
X209129970Y-92615783D01*
X208967306Y-92563700D01*
X208918106Y-92079800D01*
X208552506Y-92079800D01*
X208503306Y-92563700D01*
X208188806Y-92694000D01*
X207811806Y-92386600D01*
X207553306Y-92645100D01*
X207860706Y-93022100D01*
X207730406Y-93336600D01*
X207246506Y-93385800D01*
X207246506Y-93751400D01*
X207730406Y-93800600D01*
X207860706Y-94115100D01*
X207553306Y-94492100D01*
X207811806Y-94750600D01*
X208188806Y-94443200D01*
X208263085Y-94485447D01*
X208340606Y-94521400D01*
X208555906Y-94001700D01*
X208555907Y-94001700D01*
X208403806Y-93900093D01*
X208266506Y-93568600D01*
X208288667Y-93426279D01*
X208352997Y-93297407D01*
X208453421Y-93194153D01*
X208580457Y-93126267D01*
X208722107Y-93100161D01*
X208864997Y-93118298D01*
X208995632Y-93178967D01*
X209101678Y-93276439D01*
X209173120Y-93401509D01*
X209203212Y-93542366D01*
X209189112Y-93685711D01*
X209132152Y-93818006D01*
X209037711Y-93926759D01*
X208914706Y-94001700D01*
X209130006Y-94521400D01*
G37*
G36*
X189090004Y-150481404D02*
G01*
X189241804Y-150403204D01*
X189618804Y-150710604D01*
X189877304Y-150452104D01*
X189569904Y-150075104D01*
X189700204Y-149760604D01*
X190184104Y-149711404D01*
X190184104Y-149345804D01*
X189700204Y-149296604D01*
X189569904Y-148982104D01*
X189877304Y-148605104D01*
X189618804Y-148346604D01*
X189241804Y-148654004D01*
X189089968Y-148575787D01*
X188927304Y-148523704D01*
X188878104Y-148039804D01*
X188512504Y-148039804D01*
X188463304Y-148523704D01*
X188148804Y-148654004D01*
X187771804Y-148346604D01*
X187513304Y-148605104D01*
X187820704Y-148982104D01*
X187690404Y-149296604D01*
X187206504Y-149345804D01*
X187206504Y-149711404D01*
X187690404Y-149760604D01*
X187820704Y-150075104D01*
X187513304Y-150452104D01*
X187771804Y-150710604D01*
X188148804Y-150403204D01*
X188223083Y-150445451D01*
X188300604Y-150481404D01*
X188515904Y-149961704D01*
X188515905Y-149961704D01*
X188363804Y-149860097D01*
X188226504Y-149528604D01*
X188248665Y-149386283D01*
X188312995Y-149257411D01*
X188413419Y-149154157D01*
X188540455Y-149086271D01*
X188682105Y-149060165D01*
X188824995Y-149078302D01*
X188955630Y-149138971D01*
X189061676Y-149236443D01*
X189133118Y-149361513D01*
X189163210Y-149502370D01*
X189149110Y-149645715D01*
X189092150Y-149778010D01*
X188997709Y-149886763D01*
X188874704Y-149961704D01*
X189090004Y-150481404D01*
G37*
G36*
X189090004Y-122501402D02*
G01*
X189241804Y-122423202D01*
X189618804Y-122730602D01*
X189877304Y-122472102D01*
X189569904Y-122095102D01*
X189700204Y-121780602D01*
X190184104Y-121731402D01*
X190184104Y-121365802D01*
X189700204Y-121316602D01*
X189569904Y-121002102D01*
X189877304Y-120625102D01*
X189618804Y-120366602D01*
X189241804Y-120674002D01*
X189089968Y-120595785D01*
X188927304Y-120543702D01*
X188878104Y-120059802D01*
X188512504Y-120059802D01*
X188463304Y-120543702D01*
X188148804Y-120674002D01*
X187771804Y-120366602D01*
X187513304Y-120625102D01*
X187820704Y-121002102D01*
X187690404Y-121316602D01*
X187206504Y-121365802D01*
X187206504Y-121731402D01*
X187690404Y-121780602D01*
X187820704Y-122095102D01*
X187513304Y-122472102D01*
X187771804Y-122730602D01*
X188148804Y-122423202D01*
X188223083Y-122465449D01*
X188300604Y-122501402D01*
X188515904Y-121981702D01*
X188515905Y-121981702D01*
X188363804Y-121880095D01*
X188226504Y-121548602D01*
X188248665Y-121406281D01*
X188312995Y-121277409D01*
X188413419Y-121174155D01*
X188540455Y-121106269D01*
X188682105Y-121080163D01*
X188824995Y-121098300D01*
X188955630Y-121158969D01*
X189061676Y-121256441D01*
X189133118Y-121381511D01*
X189163210Y-121522368D01*
X189149110Y-121665713D01*
X189092150Y-121798008D01*
X188997709Y-121906761D01*
X188874704Y-121981702D01*
X189090004Y-122501402D01*
G37*
G36*
X189090004Y-94521400D02*
G01*
X189241804Y-94443200D01*
X189618804Y-94750600D01*
X189877304Y-94492100D01*
X189569904Y-94115100D01*
X189700204Y-93800600D01*
X190184104Y-93751400D01*
X190184104Y-93385800D01*
X189700204Y-93336600D01*
X189569904Y-93022100D01*
X189877304Y-92645100D01*
X189618804Y-92386600D01*
X189241804Y-92694000D01*
X189089968Y-92615783D01*
X188927304Y-92563700D01*
X188878104Y-92079800D01*
X188512504Y-92079800D01*
X188463304Y-92563700D01*
X188148804Y-92694000D01*
X187771804Y-92386600D01*
X187513304Y-92645100D01*
X187820704Y-93022100D01*
X187690404Y-93336600D01*
X187206504Y-93385800D01*
X187206504Y-93751400D01*
X187690404Y-93800600D01*
X187820704Y-94115100D01*
X187513304Y-94492100D01*
X187771804Y-94750600D01*
X188148804Y-94443200D01*
X188223083Y-94485447D01*
X188300604Y-94521400D01*
X188515904Y-94001700D01*
X188515905Y-94001700D01*
X188363804Y-93900093D01*
X188226504Y-93568600D01*
X188248665Y-93426279D01*
X188312995Y-93297407D01*
X188413419Y-93194153D01*
X188540455Y-93126267D01*
X188682105Y-93100161D01*
X188824995Y-93118298D01*
X188955630Y-93178967D01*
X189061676Y-93276439D01*
X189133118Y-93401509D01*
X189163210Y-93542366D01*
X189149110Y-93685711D01*
X189092150Y-93818006D01*
X188997709Y-93926759D01*
X188874704Y-94001700D01*
X189090004Y-94521400D01*
G37*
G36*
X169050002Y-150481404D02*
G01*
X169201802Y-150403204D01*
X169578802Y-150710604D01*
X169837302Y-150452104D01*
X169529902Y-150075104D01*
X169660202Y-149760604D01*
X170144102Y-149711404D01*
X170144102Y-149345804D01*
X169660202Y-149296604D01*
X169529902Y-148982104D01*
X169837302Y-148605104D01*
X169578802Y-148346604D01*
X169201802Y-148654004D01*
X169049966Y-148575787D01*
X168887302Y-148523704D01*
X168838102Y-148039804D01*
X168472502Y-148039804D01*
X168423302Y-148523704D01*
X168108802Y-148654004D01*
X167731802Y-148346604D01*
X167473302Y-148605104D01*
X167780702Y-148982104D01*
X167650402Y-149296604D01*
X167166502Y-149345804D01*
X167166502Y-149711404D01*
X167650402Y-149760604D01*
X167780702Y-150075104D01*
X167473302Y-150452104D01*
X167731802Y-150710604D01*
X168108802Y-150403204D01*
X168183081Y-150445451D01*
X168260602Y-150481404D01*
X168475902Y-149961704D01*
X168475903Y-149961704D01*
X168323802Y-149860097D01*
X168186502Y-149528604D01*
X168208663Y-149386283D01*
X168272993Y-149257411D01*
X168373417Y-149154157D01*
X168500453Y-149086271D01*
X168642103Y-149060165D01*
X168784993Y-149078302D01*
X168915628Y-149138971D01*
X169021674Y-149236443D01*
X169093116Y-149361513D01*
X169123208Y-149502370D01*
X169109108Y-149645715D01*
X169052148Y-149778010D01*
X168957707Y-149886763D01*
X168834702Y-149961704D01*
X169050002Y-150481404D01*
G37*
G36*
X169050002Y-122501402D02*
G01*
X169201802Y-122423202D01*
X169578802Y-122730602D01*
X169837302Y-122472102D01*
X169529902Y-122095102D01*
X169660202Y-121780602D01*
X170144102Y-121731402D01*
X170144102Y-121365802D01*
X169660202Y-121316602D01*
X169529902Y-121002102D01*
X169837302Y-120625102D01*
X169578802Y-120366602D01*
X169201802Y-120674002D01*
X169049966Y-120595785D01*
X168887302Y-120543702D01*
X168838102Y-120059802D01*
X168472502Y-120059802D01*
X168423302Y-120543702D01*
X168108802Y-120674002D01*
X167731802Y-120366602D01*
X167473302Y-120625102D01*
X167780702Y-121002102D01*
X167650402Y-121316602D01*
X167166502Y-121365802D01*
X167166502Y-121731402D01*
X167650402Y-121780602D01*
X167780702Y-122095102D01*
X167473302Y-122472102D01*
X167731802Y-122730602D01*
X168108802Y-122423202D01*
X168183081Y-122465449D01*
X168260602Y-122501402D01*
X168475902Y-121981702D01*
X168475903Y-121981702D01*
X168323802Y-121880095D01*
X168186502Y-121548602D01*
X168208663Y-121406281D01*
X168272993Y-121277409D01*
X168373417Y-121174155D01*
X168500453Y-121106269D01*
X168642103Y-121080163D01*
X168784993Y-121098300D01*
X168915628Y-121158969D01*
X169021674Y-121256441D01*
X169093116Y-121381511D01*
X169123208Y-121522368D01*
X169109108Y-121665713D01*
X169052148Y-121798008D01*
X168957707Y-121906761D01*
X168834702Y-121981702D01*
X169050002Y-122501402D01*
G37*
G36*
X169050002Y-94521400D02*
G01*
X169201802Y-94443200D01*
X169578802Y-94750600D01*
X169837302Y-94492100D01*
X169529902Y-94115100D01*
X169660202Y-93800600D01*
X170144102Y-93751400D01*
X170144102Y-93385800D01*
X169660202Y-93336600D01*
X169529902Y-93022100D01*
X169837302Y-92645100D01*
X169578802Y-92386600D01*
X169201802Y-92694000D01*
X169049966Y-92615783D01*
X168887302Y-92563700D01*
X168838102Y-92079800D01*
X168472502Y-92079800D01*
X168423302Y-92563700D01*
X168108802Y-92694000D01*
X167731802Y-92386600D01*
X167473302Y-92645100D01*
X167780702Y-93022100D01*
X167650402Y-93336600D01*
X167166502Y-93385800D01*
X167166502Y-93751400D01*
X167650402Y-93800600D01*
X167780702Y-94115100D01*
X167473302Y-94492100D01*
X167731802Y-94750600D01*
X168108802Y-94443200D01*
X168183081Y-94485447D01*
X168260602Y-94521400D01*
X168475902Y-94001700D01*
X168475903Y-94001700D01*
X168323802Y-93900093D01*
X168186502Y-93568600D01*
X168208663Y-93426279D01*
X168272993Y-93297407D01*
X168373417Y-93194153D01*
X168500453Y-93126267D01*
X168642103Y-93100161D01*
X168784993Y-93118298D01*
X168915628Y-93178967D01*
X169021674Y-93276439D01*
X169093116Y-93401509D01*
X169123208Y-93542366D01*
X169109108Y-93685711D01*
X169052148Y-93818006D01*
X168957707Y-93926759D01*
X168834702Y-94001700D01*
X169050002Y-94521400D01*
G37*
G36*
X149010000Y-150481404D02*
G01*
X149161800Y-150403204D01*
X149538800Y-150710604D01*
X149797300Y-150452104D01*
X149489900Y-150075104D01*
X149620200Y-149760604D01*
X150104100Y-149711404D01*
X150104100Y-149345804D01*
X149620200Y-149296604D01*
X149489900Y-148982104D01*
X149797300Y-148605104D01*
X149538800Y-148346604D01*
X149161800Y-148654004D01*
X149009964Y-148575787D01*
X148847300Y-148523704D01*
X148798100Y-148039804D01*
X148432500Y-148039804D01*
X148383300Y-148523704D01*
X148068800Y-148654004D01*
X147691800Y-148346604D01*
X147433300Y-148605104D01*
X147740700Y-148982104D01*
X147610400Y-149296604D01*
X147126500Y-149345804D01*
X147126500Y-149711404D01*
X147610400Y-149760604D01*
X147740700Y-150075104D01*
X147433300Y-150452104D01*
X147691800Y-150710604D01*
X148068800Y-150403204D01*
X148143079Y-150445451D01*
X148220600Y-150481404D01*
X148435900Y-149961704D01*
X148435901Y-149961704D01*
X148283800Y-149860097D01*
X148146500Y-149528604D01*
X148168661Y-149386283D01*
X148232991Y-149257411D01*
X148333415Y-149154157D01*
X148460451Y-149086271D01*
X148602101Y-149060165D01*
X148744991Y-149078302D01*
X148875626Y-149138971D01*
X148981672Y-149236443D01*
X149053114Y-149361513D01*
X149083206Y-149502370D01*
X149069106Y-149645715D01*
X149012146Y-149778010D01*
X148917705Y-149886763D01*
X148794700Y-149961704D01*
X149010000Y-150481404D01*
G37*
G36*
X149010000Y-122501402D02*
G01*
X149161800Y-122423202D01*
X149538800Y-122730602D01*
X149797300Y-122472102D01*
X149489900Y-122095102D01*
X149620200Y-121780602D01*
X150104100Y-121731402D01*
X150104100Y-121365802D01*
X149620200Y-121316602D01*
X149489900Y-121002102D01*
X149797300Y-120625102D01*
X149538800Y-120366602D01*
X149161800Y-120674002D01*
X149009964Y-120595785D01*
X148847300Y-120543702D01*
X148798100Y-120059802D01*
X148432500Y-120059802D01*
X148383300Y-120543702D01*
X148068800Y-120674002D01*
X147691800Y-120366602D01*
X147433300Y-120625102D01*
X147740700Y-121002102D01*
X147610400Y-121316602D01*
X147126500Y-121365802D01*
X147126500Y-121731402D01*
X147610400Y-121780602D01*
X147740700Y-122095102D01*
X147433300Y-122472102D01*
X147691800Y-122730602D01*
X148068800Y-122423202D01*
X148143079Y-122465449D01*
X148220600Y-122501402D01*
X148435900Y-121981702D01*
X148435901Y-121981702D01*
X148283800Y-121880095D01*
X148146500Y-121548602D01*
X148168661Y-121406281D01*
X148232991Y-121277409D01*
X148333415Y-121174155D01*
X148460451Y-121106269D01*
X148602101Y-121080163D01*
X148744991Y-121098300D01*
X148875626Y-121158969D01*
X148981672Y-121256441D01*
X149053114Y-121381511D01*
X149083206Y-121522368D01*
X149069106Y-121665713D01*
X149012146Y-121798008D01*
X148917705Y-121906761D01*
X148794700Y-121981702D01*
X149010000Y-122501402D01*
G37*
D12*
X212536106Y-155798604D02*
X205036106Y-155798604D01*
X212536106Y-168658604D02*
X205036106Y-168658604D01*
X207351706Y-157098604D02*
G75*
G03X207351706Y-157098604I-565600J0D01*
G01*
X212536106Y-127818602D02*
X205036106Y-127818602D01*
X212536106Y-140678602D02*
X205036106Y-140678602D01*
X207351706Y-129118602D02*
G75*
G03X207351706Y-129118602I-565600J0D01*
G01*
X212536106Y-99838600D02*
X205036106Y-99838600D01*
X212536106Y-112698600D02*
X205036106Y-112698600D01*
X207351706Y-101138600D02*
G75*
G03X207351706Y-101138600I-565600J0D01*
G01*
X192496104Y-155798604D02*
X184996104Y-155798604D01*
X192496104Y-168658604D02*
X184996104Y-168658604D01*
X187311704Y-157098604D02*
G75*
G03X187311704Y-157098604I-565600J0D01*
G01*
X192496104Y-127818602D02*
X184996104Y-127818602D01*
X192496104Y-140678602D02*
X184996104Y-140678602D01*
X187311704Y-129118602D02*
G75*
G03X187311704Y-129118602I-565600J0D01*
G01*
X192496104Y-99838600D02*
X184996104Y-99838600D01*
X192496104Y-112698600D02*
X184996104Y-112698600D01*
X187311704Y-101138600D02*
G75*
G03X187311704Y-101138600I-565600J0D01*
G01*
X172456102Y-155798604D02*
X164956102Y-155798604D01*
X172456102Y-168658604D02*
X164956102Y-168658604D01*
X167271702Y-157098604D02*
G75*
G03X167271702Y-157098604I-565600J0D01*
G01*
X172456102Y-127818602D02*
X164956102Y-127818602D01*
X172456102Y-140678602D02*
X164956102Y-140678602D01*
X167271702Y-129118602D02*
G75*
G03X167271702Y-129118602I-565600J0D01*
G01*
X172456102Y-99838600D02*
X164956102Y-99838600D01*
X172456102Y-112698600D02*
X164956102Y-112698600D01*
X167271702Y-101138600D02*
G75*
G03X167271702Y-101138600I-565600J0D01*
G01*
X152416100Y-155798604D02*
X144916100Y-155798604D01*
X152416100Y-168658604D02*
X144916100Y-168658604D01*
X147231700Y-157098604D02*
G75*
G03X147231700Y-157098604I-565600J0D01*
G01*
X152416100Y-127818602D02*
X144916100Y-127818602D01*
X152416100Y-140678602D02*
X144916100Y-140678602D01*
X147231700Y-129118602D02*
G75*
G03X147231700Y-129118602I-565600J0D01*
G01*
D13*
X215136106Y-157783604D02*
X215136106Y-156513604D01*
X215136106Y-156513604D02*
X215771106Y-155878604D01*
X217041106Y-155878604D02*
X217676106Y-156513604D01*
X215771106Y-160958604D02*
X215136106Y-160323604D01*
X215136106Y-160323604D02*
X215136106Y-159053604D01*
X215136106Y-159053604D02*
X215771106Y-158418604D01*
X217041106Y-158418604D02*
X217676106Y-159053604D01*
X217676106Y-159053604D02*
X217676106Y-160323604D01*
X217676106Y-160323604D02*
X217041106Y-160958604D01*
X215136106Y-157783604D02*
X215771106Y-158418604D01*
X217041106Y-158418604D02*
X217676106Y-157783604D01*
X217676106Y-156513604D02*
X217676106Y-157783604D01*
X215136106Y-165403604D02*
X215136106Y-164133604D01*
X215136106Y-164133604D02*
X215771106Y-163498604D01*
X217041106Y-163498604D02*
X217676106Y-164133604D01*
X215771106Y-163498604D02*
X215136106Y-162863604D01*
X215136106Y-162863604D02*
X215136106Y-161593604D01*
X215136106Y-161593604D02*
X215771106Y-160958604D01*
X217041106Y-160958604D02*
X217676106Y-161593604D01*
X217676106Y-161593604D02*
X217676106Y-162863604D01*
X217676106Y-162863604D02*
X217041106Y-163498604D01*
X215771106Y-168578604D02*
X215136106Y-167943604D01*
X215136106Y-167943604D02*
X215136106Y-166673604D01*
X215136106Y-166673604D02*
X215771106Y-166038604D01*
X217041106Y-166038604D02*
X217676106Y-166673604D01*
X217676106Y-166673604D02*
X217676106Y-167943604D01*
X217676106Y-167943604D02*
X217041106Y-168578604D01*
X215136106Y-165403604D02*
X215771106Y-166038604D01*
X217041106Y-166038604D02*
X217676106Y-165403604D01*
X217676106Y-164133604D02*
X217676106Y-165403604D01*
X215136106Y-173023604D02*
X215136106Y-171753604D01*
X215136106Y-171753604D02*
X215771106Y-171118604D01*
X217041106Y-171118604D02*
X217676106Y-171753604D01*
X215771106Y-171118604D02*
X215136106Y-170483604D01*
X215136106Y-170483604D02*
X215136106Y-169213604D01*
X215136106Y-169213604D02*
X215771106Y-168578604D01*
X217041106Y-168578604D02*
X217676106Y-169213604D01*
X217676106Y-169213604D02*
X217676106Y-170483604D01*
X217676106Y-170483604D02*
X217041106Y-171118604D01*
X215771106Y-173658604D02*
X217041106Y-173658604D01*
X215136106Y-173023604D02*
X215771106Y-173658604D01*
X217041106Y-173658604D02*
X217676106Y-173023604D01*
X217676106Y-171753604D02*
X217676106Y-173023604D01*
X215136106Y-155243604D02*
X215136106Y-153973604D01*
X215136106Y-153973604D02*
X215771106Y-153338604D01*
X217041106Y-153338604D02*
X217676106Y-153973604D01*
X215136106Y-155243604D02*
X215771106Y-155878604D01*
X217041106Y-155878604D02*
X217676106Y-155243604D01*
X217676106Y-153973604D02*
X217676106Y-155243604D01*
X215136106Y-152703604D02*
X215136106Y-151433604D01*
X215136106Y-151433604D02*
X215771106Y-150798604D01*
X217041106Y-150798604D02*
X217676106Y-151433604D01*
X215136106Y-152703604D02*
X215771106Y-153338604D01*
X217041106Y-153338604D02*
X217676106Y-152703604D01*
X217676106Y-151433604D02*
X217676106Y-152703604D01*
X215136106Y-150163604D02*
X215136106Y-148893604D01*
X215136106Y-148893604D02*
X215771106Y-148258604D01*
X215771106Y-148258604D02*
X217041106Y-148258604D01*
X217041106Y-148258604D02*
X217676106Y-148893604D01*
X215136106Y-150163604D02*
X215771106Y-150798604D01*
X217041106Y-150798604D02*
X217676106Y-150163604D01*
X217676106Y-148893604D02*
X217676106Y-150163604D01*
X215136106Y-129803602D02*
X215136106Y-128533602D01*
X215136106Y-128533602D02*
X215771106Y-127898602D01*
X217041106Y-127898602D02*
X217676106Y-128533602D01*
X215771106Y-132978602D02*
X215136106Y-132343602D01*
X215136106Y-132343602D02*
X215136106Y-131073602D01*
X215136106Y-131073602D02*
X215771106Y-130438602D01*
X217041106Y-130438602D02*
X217676106Y-131073602D01*
X217676106Y-131073602D02*
X217676106Y-132343602D01*
X217676106Y-132343602D02*
X217041106Y-132978602D01*
X215136106Y-129803602D02*
X215771106Y-130438602D01*
X217041106Y-130438602D02*
X217676106Y-129803602D01*
X217676106Y-128533602D02*
X217676106Y-129803602D01*
X215136106Y-137423602D02*
X215136106Y-136153602D01*
X215136106Y-136153602D02*
X215771106Y-135518602D01*
X217041106Y-135518602D02*
X217676106Y-136153602D01*
X215771106Y-135518602D02*
X215136106Y-134883602D01*
X215136106Y-134883602D02*
X215136106Y-133613602D01*
X215136106Y-133613602D02*
X215771106Y-132978602D01*
X217041106Y-132978602D02*
X217676106Y-133613602D01*
X217676106Y-133613602D02*
X217676106Y-134883602D01*
X217676106Y-134883602D02*
X217041106Y-135518602D01*
X215771106Y-140598602D02*
X215136106Y-139963602D01*
X215136106Y-139963602D02*
X215136106Y-138693602D01*
X215136106Y-138693602D02*
X215771106Y-138058602D01*
X217041106Y-138058602D02*
X217676106Y-138693602D01*
X217676106Y-138693602D02*
X217676106Y-139963602D01*
X217676106Y-139963602D02*
X217041106Y-140598602D01*
X215136106Y-137423602D02*
X215771106Y-138058602D01*
X217041106Y-138058602D02*
X217676106Y-137423602D01*
X217676106Y-136153602D02*
X217676106Y-137423602D01*
X215136106Y-145043602D02*
X215136106Y-143773602D01*
X215136106Y-143773602D02*
X215771106Y-143138602D01*
X217041106Y-143138602D02*
X217676106Y-143773602D01*
X215771106Y-143138602D02*
X215136106Y-142503602D01*
X215136106Y-142503602D02*
X215136106Y-141233602D01*
X215136106Y-141233602D02*
X215771106Y-140598602D01*
X217041106Y-140598602D02*
X217676106Y-141233602D01*
X217676106Y-141233602D02*
X217676106Y-142503602D01*
X217676106Y-142503602D02*
X217041106Y-143138602D01*
X215771106Y-145678602D02*
X217041106Y-145678602D01*
X215136106Y-145043602D02*
X215771106Y-145678602D01*
X217041106Y-145678602D02*
X217676106Y-145043602D01*
X217676106Y-143773602D02*
X217676106Y-145043602D01*
X215136106Y-127263602D02*
X215136106Y-125993602D01*
X215136106Y-125993602D02*
X215771106Y-125358602D01*
X217041106Y-125358602D02*
X217676106Y-125993602D01*
X215136106Y-127263602D02*
X215771106Y-127898602D01*
X217041106Y-127898602D02*
X217676106Y-127263602D01*
X217676106Y-125993602D02*
X217676106Y-127263602D01*
X215136106Y-124723602D02*
X215136106Y-123453602D01*
X215136106Y-123453602D02*
X215771106Y-122818602D01*
X217041106Y-122818602D02*
X217676106Y-123453602D01*
X215136106Y-124723602D02*
X215771106Y-125358602D01*
X217041106Y-125358602D02*
X217676106Y-124723602D01*
X217676106Y-123453602D02*
X217676106Y-124723602D01*
X215136106Y-122183602D02*
X215136106Y-120913602D01*
X215136106Y-120913602D02*
X215771106Y-120278602D01*
X215771106Y-120278602D02*
X217041106Y-120278602D01*
X217041106Y-120278602D02*
X217676106Y-120913602D01*
X215136106Y-122183602D02*
X215771106Y-122818602D01*
X217041106Y-122818602D02*
X217676106Y-122183602D01*
X217676106Y-120913602D02*
X217676106Y-122183602D01*
X215136106Y-101823600D02*
X215136106Y-100553600D01*
X215136106Y-100553600D02*
X215771106Y-99918600D01*
X217041106Y-99918600D02*
X217676106Y-100553600D01*
X215771106Y-104998600D02*
X215136106Y-104363600D01*
X215136106Y-104363600D02*
X215136106Y-103093600D01*
X215136106Y-103093600D02*
X215771106Y-102458600D01*
X217041106Y-102458600D02*
X217676106Y-103093600D01*
X217676106Y-103093600D02*
X217676106Y-104363600D01*
X217676106Y-104363600D02*
X217041106Y-104998600D01*
X215136106Y-101823600D02*
X215771106Y-102458600D01*
X217041106Y-102458600D02*
X217676106Y-101823600D01*
X217676106Y-100553600D02*
X217676106Y-101823600D01*
X215136106Y-109443600D02*
X215136106Y-108173600D01*
X215136106Y-108173600D02*
X215771106Y-107538600D01*
X217041106Y-107538600D02*
X217676106Y-108173600D01*
X215771106Y-107538600D02*
X215136106Y-106903600D01*
X215136106Y-106903600D02*
X215136106Y-105633600D01*
X215136106Y-105633600D02*
X215771106Y-104998600D01*
X217041106Y-104998600D02*
X217676106Y-105633600D01*
X217676106Y-105633600D02*
X217676106Y-106903600D01*
X217676106Y-106903600D02*
X217041106Y-107538600D01*
X215771106Y-112618600D02*
X215136106Y-111983600D01*
X215136106Y-111983600D02*
X215136106Y-110713600D01*
X215136106Y-110713600D02*
X215771106Y-110078600D01*
X217041106Y-110078600D02*
X217676106Y-110713600D01*
X217676106Y-110713600D02*
X217676106Y-111983600D01*
X217676106Y-111983600D02*
X217041106Y-112618600D01*
X215136106Y-109443600D02*
X215771106Y-110078600D01*
X217041106Y-110078600D02*
X217676106Y-109443600D01*
X217676106Y-108173600D02*
X217676106Y-109443600D01*
X215136106Y-117063600D02*
X215136106Y-115793600D01*
X215136106Y-115793600D02*
X215771106Y-115158600D01*
X217041106Y-115158600D02*
X217676106Y-115793600D01*
X215771106Y-115158600D02*
X215136106Y-114523600D01*
X215136106Y-114523600D02*
X215136106Y-113253600D01*
X215136106Y-113253600D02*
X215771106Y-112618600D01*
X217041106Y-112618600D02*
X217676106Y-113253600D01*
X217676106Y-113253600D02*
X217676106Y-114523600D01*
X217676106Y-114523600D02*
X217041106Y-115158600D01*
X215771106Y-117698600D02*
X217041106Y-117698600D01*
X215136106Y-117063600D02*
X215771106Y-117698600D01*
X217041106Y-117698600D02*
X217676106Y-117063600D01*
X217676106Y-115793600D02*
X217676106Y-117063600D01*
X215136106Y-99283600D02*
X215136106Y-98013600D01*
X215136106Y-98013600D02*
X215771106Y-97378600D01*
X217041106Y-97378600D02*
X217676106Y-98013600D01*
X215136106Y-99283600D02*
X215771106Y-99918600D01*
X217041106Y-99918600D02*
X217676106Y-99283600D01*
X217676106Y-98013600D02*
X217676106Y-99283600D01*
X215136106Y-96743600D02*
X215136106Y-95473600D01*
X215136106Y-95473600D02*
X215771106Y-94838600D01*
X217041106Y-94838600D02*
X217676106Y-95473600D01*
X215136106Y-96743600D02*
X215771106Y-97378600D01*
X217041106Y-97378600D02*
X217676106Y-96743600D01*
X217676106Y-95473600D02*
X217676106Y-96743600D01*
X215136106Y-94203600D02*
X215136106Y-92933600D01*
X215136106Y-92933600D02*
X215771106Y-92298600D01*
X215771106Y-92298600D02*
X217041106Y-92298600D01*
X217041106Y-92298600D02*
X217676106Y-92933600D01*
X215136106Y-94203600D02*
X215771106Y-94838600D01*
X217041106Y-94838600D02*
X217676106Y-94203600D01*
X217676106Y-92933600D02*
X217676106Y-94203600D01*
X195096104Y-157783604D02*
X195096104Y-156513604D01*
X195096104Y-156513604D02*
X195731104Y-155878604D01*
X197001104Y-155878604D02*
X197636104Y-156513604D01*
X195731104Y-160958604D02*
X195096104Y-160323604D01*
X195096104Y-160323604D02*
X195096104Y-159053604D01*
X195096104Y-159053604D02*
X195731104Y-158418604D01*
X197001104Y-158418604D02*
X197636104Y-159053604D01*
X197636104Y-159053604D02*
X197636104Y-160323604D01*
X197636104Y-160323604D02*
X197001104Y-160958604D01*
X195096104Y-157783604D02*
X195731104Y-158418604D01*
X197001104Y-158418604D02*
X197636104Y-157783604D01*
X197636104Y-156513604D02*
X197636104Y-157783604D01*
X195096104Y-165403604D02*
X195096104Y-164133604D01*
X195096104Y-164133604D02*
X195731104Y-163498604D01*
X197001104Y-163498604D02*
X197636104Y-164133604D01*
X195731104Y-163498604D02*
X195096104Y-162863604D01*
X195096104Y-162863604D02*
X195096104Y-161593604D01*
X195096104Y-161593604D02*
X195731104Y-160958604D01*
X197001104Y-160958604D02*
X197636104Y-161593604D01*
X197636104Y-161593604D02*
X197636104Y-162863604D01*
X197636104Y-162863604D02*
X197001104Y-163498604D01*
X195731104Y-168578604D02*
X195096104Y-167943604D01*
X195096104Y-167943604D02*
X195096104Y-166673604D01*
X195096104Y-166673604D02*
X195731104Y-166038604D01*
X197001104Y-166038604D02*
X197636104Y-166673604D01*
X197636104Y-166673604D02*
X197636104Y-167943604D01*
X197636104Y-167943604D02*
X197001104Y-168578604D01*
X195096104Y-165403604D02*
X195731104Y-166038604D01*
X197001104Y-166038604D02*
X197636104Y-165403604D01*
X197636104Y-164133604D02*
X197636104Y-165403604D01*
X195096104Y-173023604D02*
X195096104Y-171753604D01*
X195096104Y-171753604D02*
X195731104Y-171118604D01*
X197001104Y-171118604D02*
X197636104Y-171753604D01*
X195731104Y-171118604D02*
X195096104Y-170483604D01*
X195096104Y-170483604D02*
X195096104Y-169213604D01*
X195096104Y-169213604D02*
X195731104Y-168578604D01*
X197001104Y-168578604D02*
X197636104Y-169213604D01*
X197636104Y-169213604D02*
X197636104Y-170483604D01*
X197636104Y-170483604D02*
X197001104Y-171118604D01*
X195731104Y-173658604D02*
X197001104Y-173658604D01*
X195096104Y-173023604D02*
X195731104Y-173658604D01*
X197001104Y-173658604D02*
X197636104Y-173023604D01*
X197636104Y-171753604D02*
X197636104Y-173023604D01*
X195096104Y-155243604D02*
X195096104Y-153973604D01*
X195096104Y-153973604D02*
X195731104Y-153338604D01*
X197001104Y-153338604D02*
X197636104Y-153973604D01*
X195096104Y-155243604D02*
X195731104Y-155878604D01*
X197001104Y-155878604D02*
X197636104Y-155243604D01*
X197636104Y-153973604D02*
X197636104Y-155243604D01*
X195096104Y-152703604D02*
X195096104Y-151433604D01*
X195096104Y-151433604D02*
X195731104Y-150798604D01*
X197001104Y-150798604D02*
X197636104Y-151433604D01*
X195096104Y-152703604D02*
X195731104Y-153338604D01*
X197001104Y-153338604D02*
X197636104Y-152703604D01*
X197636104Y-151433604D02*
X197636104Y-152703604D01*
X195096104Y-150163604D02*
X195096104Y-148893604D01*
X195096104Y-148893604D02*
X195731104Y-148258604D01*
X195731104Y-148258604D02*
X197001104Y-148258604D01*
X197001104Y-148258604D02*
X197636104Y-148893604D01*
X195096104Y-150163604D02*
X195731104Y-150798604D01*
X197001104Y-150798604D02*
X197636104Y-150163604D01*
X197636104Y-148893604D02*
X197636104Y-150163604D01*
X195096104Y-129803602D02*
X195096104Y-128533602D01*
X195096104Y-128533602D02*
X195731104Y-127898602D01*
X197001104Y-127898602D02*
X197636104Y-128533602D01*
X195731104Y-132978602D02*
X195096104Y-132343602D01*
X195096104Y-132343602D02*
X195096104Y-131073602D01*
X195096104Y-131073602D02*
X195731104Y-130438602D01*
X197001104Y-130438602D02*
X197636104Y-131073602D01*
X197636104Y-131073602D02*
X197636104Y-132343602D01*
X197636104Y-132343602D02*
X197001104Y-132978602D01*
X195096104Y-129803602D02*
X195731104Y-130438602D01*
X197001104Y-130438602D02*
X197636104Y-129803602D01*
X197636104Y-128533602D02*
X197636104Y-129803602D01*
X195096104Y-137423602D02*
X195096104Y-136153602D01*
X195096104Y-136153602D02*
X195731104Y-135518602D01*
X197001104Y-135518602D02*
X197636104Y-136153602D01*
X195731104Y-135518602D02*
X195096104Y-134883602D01*
X195096104Y-134883602D02*
X195096104Y-133613602D01*
X195096104Y-133613602D02*
X195731104Y-132978602D01*
X197001104Y-132978602D02*
X197636104Y-133613602D01*
X197636104Y-133613602D02*
X197636104Y-134883602D01*
X197636104Y-134883602D02*
X197001104Y-135518602D01*
X195731104Y-140598602D02*
X195096104Y-139963602D01*
X195096104Y-139963602D02*
X195096104Y-138693602D01*
X195096104Y-138693602D02*
X195731104Y-138058602D01*
X197001104Y-138058602D02*
X197636104Y-138693602D01*
X197636104Y-138693602D02*
X197636104Y-139963602D01*
X197636104Y-139963602D02*
X197001104Y-140598602D01*
X195096104Y-137423602D02*
X195731104Y-138058602D01*
X197001104Y-138058602D02*
X197636104Y-137423602D01*
X197636104Y-136153602D02*
X197636104Y-137423602D01*
X195096104Y-145043602D02*
X195096104Y-143773602D01*
X195096104Y-143773602D02*
X195731104Y-143138602D01*
X197001104Y-143138602D02*
X197636104Y-143773602D01*
X195731104Y-143138602D02*
X195096104Y-142503602D01*
X195096104Y-142503602D02*
X195096104Y-141233602D01*
X195096104Y-141233602D02*
X195731104Y-140598602D01*
X197001104Y-140598602D02*
X197636104Y-141233602D01*
X197636104Y-141233602D02*
X197636104Y-142503602D01*
X197636104Y-142503602D02*
X197001104Y-143138602D01*
X195731104Y-145678602D02*
X197001104Y-145678602D01*
X195096104Y-145043602D02*
X195731104Y-145678602D01*
X197001104Y-145678602D02*
X197636104Y-145043602D01*
X197636104Y-143773602D02*
X197636104Y-145043602D01*
X195096104Y-127263602D02*
X195096104Y-125993602D01*
X195096104Y-125993602D02*
X195731104Y-125358602D01*
X197001104Y-125358602D02*
X197636104Y-125993602D01*
X195096104Y-127263602D02*
X195731104Y-127898602D01*
X197001104Y-127898602D02*
X197636104Y-127263602D01*
X197636104Y-125993602D02*
X197636104Y-127263602D01*
X195096104Y-124723602D02*
X195096104Y-123453602D01*
X195096104Y-123453602D02*
X195731104Y-122818602D01*
X197001104Y-122818602D02*
X197636104Y-123453602D01*
X195096104Y-124723602D02*
X195731104Y-125358602D01*
X197001104Y-125358602D02*
X197636104Y-124723602D01*
X197636104Y-123453602D02*
X197636104Y-124723602D01*
X195096104Y-122183602D02*
X195096104Y-120913602D01*
X195096104Y-120913602D02*
X195731104Y-120278602D01*
X195731104Y-120278602D02*
X197001104Y-120278602D01*
X197001104Y-120278602D02*
X197636104Y-120913602D01*
X195096104Y-122183602D02*
X195731104Y-122818602D01*
X197001104Y-122818602D02*
X197636104Y-122183602D01*
X197636104Y-120913602D02*
X197636104Y-122183602D01*
X195096104Y-101823600D02*
X195096104Y-100553600D01*
X195096104Y-100553600D02*
X195731104Y-99918600D01*
X197001104Y-99918600D02*
X197636104Y-100553600D01*
X195731104Y-104998600D02*
X195096104Y-104363600D01*
X195096104Y-104363600D02*
X195096104Y-103093600D01*
X195096104Y-103093600D02*
X195731104Y-102458600D01*
X197001104Y-102458600D02*
X197636104Y-103093600D01*
X197636104Y-103093600D02*
X197636104Y-104363600D01*
X197636104Y-104363600D02*
X197001104Y-104998600D01*
X195096104Y-101823600D02*
X195731104Y-102458600D01*
X197001104Y-102458600D02*
X197636104Y-101823600D01*
X197636104Y-100553600D02*
X197636104Y-101823600D01*
X195096104Y-109443600D02*
X195096104Y-108173600D01*
X195096104Y-108173600D02*
X195731104Y-107538600D01*
X197001104Y-107538600D02*
X197636104Y-108173600D01*
X195731104Y-107538600D02*
X195096104Y-106903600D01*
X195096104Y-106903600D02*
X195096104Y-105633600D01*
X195096104Y-105633600D02*
X195731104Y-104998600D01*
X197001104Y-104998600D02*
X197636104Y-105633600D01*
X197636104Y-105633600D02*
X197636104Y-106903600D01*
X197636104Y-106903600D02*
X197001104Y-107538600D01*
X195731104Y-112618600D02*
X195096104Y-111983600D01*
X195096104Y-111983600D02*
X195096104Y-110713600D01*
X195096104Y-110713600D02*
X195731104Y-110078600D01*
X197001104Y-110078600D02*
X197636104Y-110713600D01*
X197636104Y-110713600D02*
X197636104Y-111983600D01*
X197636104Y-111983600D02*
X197001104Y-112618600D01*
X195096104Y-109443600D02*
X195731104Y-110078600D01*
X197001104Y-110078600D02*
X197636104Y-109443600D01*
X197636104Y-108173600D02*
X197636104Y-109443600D01*
X195096104Y-117063600D02*
X195096104Y-115793600D01*
X195096104Y-115793600D02*
X195731104Y-115158600D01*
X197001104Y-115158600D02*
X197636104Y-115793600D01*
X195731104Y-115158600D02*
X195096104Y-114523600D01*
X195096104Y-114523600D02*
X195096104Y-113253600D01*
X195096104Y-113253600D02*
X195731104Y-112618600D01*
X197001104Y-112618600D02*
X197636104Y-113253600D01*
X197636104Y-113253600D02*
X197636104Y-114523600D01*
X197636104Y-114523600D02*
X197001104Y-115158600D01*
X195731104Y-117698600D02*
X197001104Y-117698600D01*
X195096104Y-117063600D02*
X195731104Y-117698600D01*
X197001104Y-117698600D02*
X197636104Y-117063600D01*
X197636104Y-115793600D02*
X197636104Y-117063600D01*
X195096104Y-99283600D02*
X195096104Y-98013600D01*
X195096104Y-98013600D02*
X195731104Y-97378600D01*
X197001104Y-97378600D02*
X197636104Y-98013600D01*
X195096104Y-99283600D02*
X195731104Y-99918600D01*
X197001104Y-99918600D02*
X197636104Y-99283600D01*
X197636104Y-98013600D02*
X197636104Y-99283600D01*
X195096104Y-96743600D02*
X195096104Y-95473600D01*
X195096104Y-95473600D02*
X195731104Y-94838600D01*
X197001104Y-94838600D02*
X197636104Y-95473600D01*
X195096104Y-96743600D02*
X195731104Y-97378600D01*
X197001104Y-97378600D02*
X197636104Y-96743600D01*
X197636104Y-95473600D02*
X197636104Y-96743600D01*
X195096104Y-94203600D02*
X195096104Y-92933600D01*
X195096104Y-92933600D02*
X195731104Y-92298600D01*
X195731104Y-92298600D02*
X197001104Y-92298600D01*
X197001104Y-92298600D02*
X197636104Y-92933600D01*
X195096104Y-94203600D02*
X195731104Y-94838600D01*
X197001104Y-94838600D02*
X197636104Y-94203600D01*
X197636104Y-92933600D02*
X197636104Y-94203600D01*
X175056102Y-157783604D02*
X175056102Y-156513604D01*
X175056102Y-156513604D02*
X175691102Y-155878604D01*
X176961102Y-155878604D02*
X177596102Y-156513604D01*
X175691102Y-160958604D02*
X175056102Y-160323604D01*
X175056102Y-160323604D02*
X175056102Y-159053604D01*
X175056102Y-159053604D02*
X175691102Y-158418604D01*
X176961102Y-158418604D02*
X177596102Y-159053604D01*
X177596102Y-159053604D02*
X177596102Y-160323604D01*
X177596102Y-160323604D02*
X176961102Y-160958604D01*
X175056102Y-157783604D02*
X175691102Y-158418604D01*
X176961102Y-158418604D02*
X177596102Y-157783604D01*
X177596102Y-156513604D02*
X177596102Y-157783604D01*
X175056102Y-165403604D02*
X175056102Y-164133604D01*
X175056102Y-164133604D02*
X175691102Y-163498604D01*
X176961102Y-163498604D02*
X177596102Y-164133604D01*
X175691102Y-163498604D02*
X175056102Y-162863604D01*
X175056102Y-162863604D02*
X175056102Y-161593604D01*
X175056102Y-161593604D02*
X175691102Y-160958604D01*
X176961102Y-160958604D02*
X177596102Y-161593604D01*
X177596102Y-161593604D02*
X177596102Y-162863604D01*
X177596102Y-162863604D02*
X176961102Y-163498604D01*
X175691102Y-168578604D02*
X175056102Y-167943604D01*
X175056102Y-167943604D02*
X175056102Y-166673604D01*
X175056102Y-166673604D02*
X175691102Y-166038604D01*
X176961102Y-166038604D02*
X177596102Y-166673604D01*
X177596102Y-166673604D02*
X177596102Y-167943604D01*
X177596102Y-167943604D02*
X176961102Y-168578604D01*
X175056102Y-165403604D02*
X175691102Y-166038604D01*
X176961102Y-166038604D02*
X177596102Y-165403604D01*
X177596102Y-164133604D02*
X177596102Y-165403604D01*
X175056102Y-173023604D02*
X175056102Y-171753604D01*
X175056102Y-171753604D02*
X175691102Y-171118604D01*
X176961102Y-171118604D02*
X177596102Y-171753604D01*
X175691102Y-171118604D02*
X175056102Y-170483604D01*
X175056102Y-170483604D02*
X175056102Y-169213604D01*
X175056102Y-169213604D02*
X175691102Y-168578604D01*
X176961102Y-168578604D02*
X177596102Y-169213604D01*
X177596102Y-169213604D02*
X177596102Y-170483604D01*
X177596102Y-170483604D02*
X176961102Y-171118604D01*
X175691102Y-173658604D02*
X176961102Y-173658604D01*
X175056102Y-173023604D02*
X175691102Y-173658604D01*
X176961102Y-173658604D02*
X177596102Y-173023604D01*
X177596102Y-171753604D02*
X177596102Y-173023604D01*
X175056102Y-155243604D02*
X175056102Y-153973604D01*
X175056102Y-153973604D02*
X175691102Y-153338604D01*
X176961102Y-153338604D02*
X177596102Y-153973604D01*
X175056102Y-155243604D02*
X175691102Y-155878604D01*
X176961102Y-155878604D02*
X177596102Y-155243604D01*
X177596102Y-153973604D02*
X177596102Y-155243604D01*
X175056102Y-152703604D02*
X175056102Y-151433604D01*
X175056102Y-151433604D02*
X175691102Y-150798604D01*
X176961102Y-150798604D02*
X177596102Y-151433604D01*
X175056102Y-152703604D02*
X175691102Y-153338604D01*
X176961102Y-153338604D02*
X177596102Y-152703604D01*
X177596102Y-151433604D02*
X177596102Y-152703604D01*
X175056102Y-150163604D02*
X175056102Y-148893604D01*
X175056102Y-148893604D02*
X175691102Y-148258604D01*
X175691102Y-148258604D02*
X176961102Y-148258604D01*
X176961102Y-148258604D02*
X177596102Y-148893604D01*
X175056102Y-150163604D02*
X175691102Y-150798604D01*
X176961102Y-150798604D02*
X177596102Y-150163604D01*
X177596102Y-148893604D02*
X177596102Y-150163604D01*
X175056102Y-129803602D02*
X175056102Y-128533602D01*
X175056102Y-128533602D02*
X175691102Y-127898602D01*
X176961102Y-127898602D02*
X177596102Y-128533602D01*
X175691102Y-132978602D02*
X175056102Y-132343602D01*
X175056102Y-132343602D02*
X175056102Y-131073602D01*
X175056102Y-131073602D02*
X175691102Y-130438602D01*
X176961102Y-130438602D02*
X177596102Y-131073602D01*
X177596102Y-131073602D02*
X177596102Y-132343602D01*
X177596102Y-132343602D02*
X176961102Y-132978602D01*
X175056102Y-129803602D02*
X175691102Y-130438602D01*
X176961102Y-130438602D02*
X177596102Y-129803602D01*
X177596102Y-128533602D02*
X177596102Y-129803602D01*
X175056102Y-137423602D02*
X175056102Y-136153602D01*
X175056102Y-136153602D02*
X175691102Y-135518602D01*
X176961102Y-135518602D02*
X177596102Y-136153602D01*
X175691102Y-135518602D02*
X175056102Y-134883602D01*
X175056102Y-134883602D02*
X175056102Y-133613602D01*
X175056102Y-133613602D02*
X175691102Y-132978602D01*
X176961102Y-132978602D02*
X177596102Y-133613602D01*
X177596102Y-133613602D02*
X177596102Y-134883602D01*
X177596102Y-134883602D02*
X176961102Y-135518602D01*
X175691102Y-140598602D02*
X175056102Y-139963602D01*
X175056102Y-139963602D02*
X175056102Y-138693602D01*
X175056102Y-138693602D02*
X175691102Y-138058602D01*
X176961102Y-138058602D02*
X177596102Y-138693602D01*
X177596102Y-138693602D02*
X177596102Y-139963602D01*
X177596102Y-139963602D02*
X176961102Y-140598602D01*
X175056102Y-137423602D02*
X175691102Y-138058602D01*
X176961102Y-138058602D02*
X177596102Y-137423602D01*
X177596102Y-136153602D02*
X177596102Y-137423602D01*
X175056102Y-145043602D02*
X175056102Y-143773602D01*
X175056102Y-143773602D02*
X175691102Y-143138602D01*
X176961102Y-143138602D02*
X177596102Y-143773602D01*
X175691102Y-143138602D02*
X175056102Y-142503602D01*
X175056102Y-142503602D02*
X175056102Y-141233602D01*
X175056102Y-141233602D02*
X175691102Y-140598602D01*
X176961102Y-140598602D02*
X177596102Y-141233602D01*
X177596102Y-141233602D02*
X177596102Y-142503602D01*
X177596102Y-142503602D02*
X176961102Y-143138602D01*
X175691102Y-145678602D02*
X176961102Y-145678602D01*
X175056102Y-145043602D02*
X175691102Y-145678602D01*
X176961102Y-145678602D02*
X177596102Y-145043602D01*
X177596102Y-143773602D02*
X177596102Y-145043602D01*
X175056102Y-127263602D02*
X175056102Y-125993602D01*
X175056102Y-125993602D02*
X175691102Y-125358602D01*
X176961102Y-125358602D02*
X177596102Y-125993602D01*
X175056102Y-127263602D02*
X175691102Y-127898602D01*
X176961102Y-127898602D02*
X177596102Y-127263602D01*
X177596102Y-125993602D02*
X177596102Y-127263602D01*
X175056102Y-124723602D02*
X175056102Y-123453602D01*
X175056102Y-123453602D02*
X175691102Y-122818602D01*
X176961102Y-122818602D02*
X177596102Y-123453602D01*
X175056102Y-124723602D02*
X175691102Y-125358602D01*
X176961102Y-125358602D02*
X177596102Y-124723602D01*
X177596102Y-123453602D02*
X177596102Y-124723602D01*
X175056102Y-122183602D02*
X175056102Y-120913602D01*
X175056102Y-120913602D02*
X175691102Y-120278602D01*
X175691102Y-120278602D02*
X176961102Y-120278602D01*
X176961102Y-120278602D02*
X177596102Y-120913602D01*
X175056102Y-122183602D02*
X175691102Y-122818602D01*
X176961102Y-122818602D02*
X177596102Y-122183602D01*
X177596102Y-120913602D02*
X177596102Y-122183602D01*
X175056102Y-101823600D02*
X175056102Y-100553600D01*
X175056102Y-100553600D02*
X175691102Y-99918600D01*
X176961102Y-99918600D02*
X177596102Y-100553600D01*
X175691102Y-104998600D02*
X175056102Y-104363600D01*
X175056102Y-104363600D02*
X175056102Y-103093600D01*
X175056102Y-103093600D02*
X175691102Y-102458600D01*
X176961102Y-102458600D02*
X177596102Y-103093600D01*
X177596102Y-103093600D02*
X177596102Y-104363600D01*
X177596102Y-104363600D02*
X176961102Y-104998600D01*
X175056102Y-101823600D02*
X175691102Y-102458600D01*
X176961102Y-102458600D02*
X177596102Y-101823600D01*
X177596102Y-100553600D02*
X177596102Y-101823600D01*
X175056102Y-109443600D02*
X175056102Y-108173600D01*
X175056102Y-108173600D02*
X175691102Y-107538600D01*
X176961102Y-107538600D02*
X177596102Y-108173600D01*
X175691102Y-107538600D02*
X175056102Y-106903600D01*
X175056102Y-106903600D02*
X175056102Y-105633600D01*
X175056102Y-105633600D02*
X175691102Y-104998600D01*
X176961102Y-104998600D02*
X177596102Y-105633600D01*
X177596102Y-105633600D02*
X177596102Y-106903600D01*
X177596102Y-106903600D02*
X176961102Y-107538600D01*
X175691102Y-112618600D02*
X175056102Y-111983600D01*
X175056102Y-111983600D02*
X175056102Y-110713600D01*
X175056102Y-110713600D02*
X175691102Y-110078600D01*
X176961102Y-110078600D02*
X177596102Y-110713600D01*
X177596102Y-110713600D02*
X177596102Y-111983600D01*
X177596102Y-111983600D02*
X176961102Y-112618600D01*
X175056102Y-109443600D02*
X175691102Y-110078600D01*
X176961102Y-110078600D02*
X177596102Y-109443600D01*
X177596102Y-108173600D02*
X177596102Y-109443600D01*
X175056102Y-117063600D02*
X175056102Y-115793600D01*
X175056102Y-115793600D02*
X175691102Y-115158600D01*
X176961102Y-115158600D02*
X177596102Y-115793600D01*
X175691102Y-115158600D02*
X175056102Y-114523600D01*
X175056102Y-114523600D02*
X175056102Y-113253600D01*
X175056102Y-113253600D02*
X175691102Y-112618600D01*
X176961102Y-112618600D02*
X177596102Y-113253600D01*
X177596102Y-113253600D02*
X177596102Y-114523600D01*
X177596102Y-114523600D02*
X176961102Y-115158600D01*
X175691102Y-117698600D02*
X176961102Y-117698600D01*
X175056102Y-117063600D02*
X175691102Y-117698600D01*
X176961102Y-117698600D02*
X177596102Y-117063600D01*
X177596102Y-115793600D02*
X177596102Y-117063600D01*
X175056102Y-99283600D02*
X175056102Y-98013600D01*
X175056102Y-98013600D02*
X175691102Y-97378600D01*
X176961102Y-97378600D02*
X177596102Y-98013600D01*
X175056102Y-99283600D02*
X175691102Y-99918600D01*
X176961102Y-99918600D02*
X177596102Y-99283600D01*
X177596102Y-98013600D02*
X177596102Y-99283600D01*
X175056102Y-96743600D02*
X175056102Y-95473600D01*
X175056102Y-95473600D02*
X175691102Y-94838600D01*
X176961102Y-94838600D02*
X177596102Y-95473600D01*
X175056102Y-96743600D02*
X175691102Y-97378600D01*
X176961102Y-97378600D02*
X177596102Y-96743600D01*
X177596102Y-95473600D02*
X177596102Y-96743600D01*
X175056102Y-94203600D02*
X175056102Y-92933600D01*
X175056102Y-92933600D02*
X175691102Y-92298600D01*
X175691102Y-92298600D02*
X176961102Y-92298600D01*
X176961102Y-92298600D02*
X177596102Y-92933600D01*
X175056102Y-94203600D02*
X175691102Y-94838600D01*
X176961102Y-94838600D02*
X177596102Y-94203600D01*
X177596102Y-92933600D02*
X177596102Y-94203600D01*
X155016100Y-157783604D02*
X155016100Y-156513604D01*
X155016100Y-156513604D02*
X155651100Y-155878604D01*
X156921100Y-155878604D02*
X157556100Y-156513604D01*
X155651100Y-160958604D02*
X155016100Y-160323604D01*
X155016100Y-160323604D02*
X155016100Y-159053604D01*
X155016100Y-159053604D02*
X155651100Y-158418604D01*
X156921100Y-158418604D02*
X157556100Y-159053604D01*
X157556100Y-159053604D02*
X157556100Y-160323604D01*
X157556100Y-160323604D02*
X156921100Y-160958604D01*
X155016100Y-157783604D02*
X155651100Y-158418604D01*
X156921100Y-158418604D02*
X157556100Y-157783604D01*
X157556100Y-156513604D02*
X157556100Y-157783604D01*
X155016100Y-165403604D02*
X155016100Y-164133604D01*
X155016100Y-164133604D02*
X155651100Y-163498604D01*
X156921100Y-163498604D02*
X157556100Y-164133604D01*
X155651100Y-163498604D02*
X155016100Y-162863604D01*
X155016100Y-162863604D02*
X155016100Y-161593604D01*
X155016100Y-161593604D02*
X155651100Y-160958604D01*
X156921100Y-160958604D02*
X157556100Y-161593604D01*
X157556100Y-161593604D02*
X157556100Y-162863604D01*
X157556100Y-162863604D02*
X156921100Y-163498604D01*
X155651100Y-168578604D02*
X155016100Y-167943604D01*
X155016100Y-167943604D02*
X155016100Y-166673604D01*
X155016100Y-166673604D02*
X155651100Y-166038604D01*
X156921100Y-166038604D02*
X157556100Y-166673604D01*
X157556100Y-166673604D02*
X157556100Y-167943604D01*
X157556100Y-167943604D02*
X156921100Y-168578604D01*
X155016100Y-165403604D02*
X155651100Y-166038604D01*
X156921100Y-166038604D02*
X157556100Y-165403604D01*
X157556100Y-164133604D02*
X157556100Y-165403604D01*
X155016100Y-173023604D02*
X155016100Y-171753604D01*
X155016100Y-171753604D02*
X155651100Y-171118604D01*
X156921100Y-171118604D02*
X157556100Y-171753604D01*
X155651100Y-171118604D02*
X155016100Y-170483604D01*
X155016100Y-170483604D02*
X155016100Y-169213604D01*
X155016100Y-169213604D02*
X155651100Y-168578604D01*
X156921100Y-168578604D02*
X157556100Y-169213604D01*
X157556100Y-169213604D02*
X157556100Y-170483604D01*
X157556100Y-170483604D02*
X156921100Y-171118604D01*
X155651100Y-173658604D02*
X156921100Y-173658604D01*
X155016100Y-173023604D02*
X155651100Y-173658604D01*
X156921100Y-173658604D02*
X157556100Y-173023604D01*
X157556100Y-171753604D02*
X157556100Y-173023604D01*
X155016100Y-155243604D02*
X155016100Y-153973604D01*
X155016100Y-153973604D02*
X155651100Y-153338604D01*
X156921100Y-153338604D02*
X157556100Y-153973604D01*
X155016100Y-155243604D02*
X155651100Y-155878604D01*
X156921100Y-155878604D02*
X157556100Y-155243604D01*
X157556100Y-153973604D02*
X157556100Y-155243604D01*
X155016100Y-152703604D02*
X155016100Y-151433604D01*
X155016100Y-151433604D02*
X155651100Y-150798604D01*
X156921100Y-150798604D02*
X157556100Y-151433604D01*
X155016100Y-152703604D02*
X155651100Y-153338604D01*
X156921100Y-153338604D02*
X157556100Y-152703604D01*
X157556100Y-151433604D02*
X157556100Y-152703604D01*
X155016100Y-150163604D02*
X155016100Y-148893604D01*
X155016100Y-148893604D02*
X155651100Y-148258604D01*
X155651100Y-148258604D02*
X156921100Y-148258604D01*
X156921100Y-148258604D02*
X157556100Y-148893604D01*
X155016100Y-150163604D02*
X155651100Y-150798604D01*
X156921100Y-150798604D02*
X157556100Y-150163604D01*
X157556100Y-148893604D02*
X157556100Y-150163604D01*
X155016100Y-129803602D02*
X155016100Y-128533602D01*
X155016100Y-128533602D02*
X155651100Y-127898602D01*
X156921100Y-127898602D02*
X157556100Y-128533602D01*
X155651100Y-132978602D02*
X155016100Y-132343602D01*
X155016100Y-132343602D02*
X155016100Y-131073602D01*
X155016100Y-131073602D02*
X155651100Y-130438602D01*
X156921100Y-130438602D02*
X157556100Y-131073602D01*
X157556100Y-131073602D02*
X157556100Y-132343602D01*
X157556100Y-132343602D02*
X156921100Y-132978602D01*
X155016100Y-129803602D02*
X155651100Y-130438602D01*
X156921100Y-130438602D02*
X157556100Y-129803602D01*
X157556100Y-128533602D02*
X157556100Y-129803602D01*
X155016100Y-137423602D02*
X155016100Y-136153602D01*
X155016100Y-136153602D02*
X155651100Y-135518602D01*
X156921100Y-135518602D02*
X157556100Y-136153602D01*
X155651100Y-135518602D02*
X155016100Y-134883602D01*
X155016100Y-134883602D02*
X155016100Y-133613602D01*
X155016100Y-133613602D02*
X155651100Y-132978602D01*
X156921100Y-132978602D02*
X157556100Y-133613602D01*
X157556100Y-133613602D02*
X157556100Y-134883602D01*
X157556100Y-134883602D02*
X156921100Y-135518602D01*
X155651100Y-140598602D02*
X155016100Y-139963602D01*
X155016100Y-139963602D02*
X155016100Y-138693602D01*
X155016100Y-138693602D02*
X155651100Y-138058602D01*
X156921100Y-138058602D02*
X157556100Y-138693602D01*
X157556100Y-138693602D02*
X157556100Y-139963602D01*
X157556100Y-139963602D02*
X156921100Y-140598602D01*
X155016100Y-137423602D02*
X155651100Y-138058602D01*
X156921100Y-138058602D02*
X157556100Y-137423602D01*
X157556100Y-136153602D02*
X157556100Y-137423602D01*
X155016100Y-145043602D02*
X155016100Y-143773602D01*
X155016100Y-143773602D02*
X155651100Y-143138602D01*
X156921100Y-143138602D02*
X157556100Y-143773602D01*
X155651100Y-143138602D02*
X155016100Y-142503602D01*
X155016100Y-142503602D02*
X155016100Y-141233602D01*
X155016100Y-141233602D02*
X155651100Y-140598602D01*
X156921100Y-140598602D02*
X157556100Y-141233602D01*
X157556100Y-141233602D02*
X157556100Y-142503602D01*
X157556100Y-142503602D02*
X156921100Y-143138602D01*
X155651100Y-145678602D02*
X156921100Y-145678602D01*
X155016100Y-145043602D02*
X155651100Y-145678602D01*
X156921100Y-145678602D02*
X157556100Y-145043602D01*
X157556100Y-143773602D02*
X157556100Y-145043602D01*
X155016100Y-127263602D02*
X155016100Y-125993602D01*
X155016100Y-125993602D02*
X155651100Y-125358602D01*
X156921100Y-125358602D02*
X157556100Y-125993602D01*
X155016100Y-127263602D02*
X155651100Y-127898602D01*
X156921100Y-127898602D02*
X157556100Y-127263602D01*
X157556100Y-125993602D02*
X157556100Y-127263602D01*
X155016100Y-124723602D02*
X155016100Y-123453602D01*
X155016100Y-123453602D02*
X155651100Y-122818602D01*
X156921100Y-122818602D02*
X157556100Y-123453602D01*
X155016100Y-124723602D02*
X155651100Y-125358602D01*
X156921100Y-125358602D02*
X157556100Y-124723602D01*
X157556100Y-123453602D02*
X157556100Y-124723602D01*
X155016100Y-122183602D02*
X155016100Y-120913602D01*
X155016100Y-120913602D02*
X155651100Y-120278602D01*
X155651100Y-120278602D02*
X156921100Y-120278602D01*
X156921100Y-120278602D02*
X157556100Y-120913602D01*
X155016100Y-122183602D02*
X155651100Y-122818602D01*
X156921100Y-122818602D02*
X157556100Y-122183602D01*
X157556100Y-120913602D02*
X157556100Y-122183602D01*
X199896106Y-157783604D02*
X199896106Y-156513604D01*
X199896106Y-156513604D02*
X200531106Y-155878604D01*
X201801106Y-155878604D02*
X202436106Y-156513604D01*
X200531106Y-160958604D02*
X199896106Y-160323604D01*
X199896106Y-160323604D02*
X199896106Y-159053604D01*
X199896106Y-159053604D02*
X200531106Y-158418604D01*
X201801106Y-158418604D02*
X202436106Y-159053604D01*
X202436106Y-159053604D02*
X202436106Y-160323604D01*
X202436106Y-160323604D02*
X201801106Y-160958604D01*
X199896106Y-157783604D02*
X200531106Y-158418604D01*
X201801106Y-158418604D02*
X202436106Y-157783604D01*
X202436106Y-156513604D02*
X202436106Y-157783604D01*
X199896106Y-165403604D02*
X199896106Y-164133604D01*
X199896106Y-164133604D02*
X200531106Y-163498604D01*
X201801106Y-163498604D02*
X202436106Y-164133604D01*
X200531106Y-163498604D02*
X199896106Y-162863604D01*
X199896106Y-162863604D02*
X199896106Y-161593604D01*
X199896106Y-161593604D02*
X200531106Y-160958604D01*
X201801106Y-160958604D02*
X202436106Y-161593604D01*
X202436106Y-161593604D02*
X202436106Y-162863604D01*
X202436106Y-162863604D02*
X201801106Y-163498604D01*
X200531106Y-168578604D02*
X199896106Y-167943604D01*
X199896106Y-167943604D02*
X199896106Y-166673604D01*
X199896106Y-166673604D02*
X200531106Y-166038604D01*
X201801106Y-166038604D02*
X202436106Y-166673604D01*
X202436106Y-166673604D02*
X202436106Y-167943604D01*
X202436106Y-167943604D02*
X201801106Y-168578604D01*
X199896106Y-165403604D02*
X200531106Y-166038604D01*
X201801106Y-166038604D02*
X202436106Y-165403604D01*
X202436106Y-164133604D02*
X202436106Y-165403604D01*
X199896106Y-173023604D02*
X199896106Y-171753604D01*
X199896106Y-171753604D02*
X200531106Y-171118604D01*
X201801106Y-171118604D02*
X202436106Y-171753604D01*
X200531106Y-171118604D02*
X199896106Y-170483604D01*
X199896106Y-170483604D02*
X199896106Y-169213604D01*
X199896106Y-169213604D02*
X200531106Y-168578604D01*
X201801106Y-168578604D02*
X202436106Y-169213604D01*
X202436106Y-169213604D02*
X202436106Y-170483604D01*
X202436106Y-170483604D02*
X201801106Y-171118604D01*
X200531106Y-173658604D02*
X201801106Y-173658604D01*
X199896106Y-173023604D02*
X200531106Y-173658604D01*
X201801106Y-173658604D02*
X202436106Y-173023604D01*
X202436106Y-171753604D02*
X202436106Y-173023604D01*
X199896106Y-155243604D02*
X199896106Y-153973604D01*
X199896106Y-153973604D02*
X200531106Y-153338604D01*
X201801106Y-153338604D02*
X202436106Y-153973604D01*
X199896106Y-155243604D02*
X200531106Y-155878604D01*
X201801106Y-155878604D02*
X202436106Y-155243604D01*
X202436106Y-153973604D02*
X202436106Y-155243604D01*
X199896106Y-152703604D02*
X199896106Y-151433604D01*
X199896106Y-151433604D02*
X200531106Y-150798604D01*
X201801106Y-150798604D02*
X202436106Y-151433604D01*
X199896106Y-152703604D02*
X200531106Y-153338604D01*
X201801106Y-153338604D02*
X202436106Y-152703604D01*
X202436106Y-151433604D02*
X202436106Y-152703604D01*
X199896106Y-150163604D02*
X199896106Y-148893604D01*
X199896106Y-148893604D02*
X200531106Y-148258604D01*
X200531106Y-148258604D02*
X201801106Y-148258604D01*
X201801106Y-148258604D02*
X202436106Y-148893604D01*
X199896106Y-150163604D02*
X200531106Y-150798604D01*
X201801106Y-150798604D02*
X202436106Y-150163604D01*
X202436106Y-148893604D02*
X202436106Y-150163604D01*
X199896106Y-129803602D02*
X199896106Y-128533602D01*
X199896106Y-128533602D02*
X200531106Y-127898602D01*
X201801106Y-127898602D02*
X202436106Y-128533602D01*
X200531106Y-132978602D02*
X199896106Y-132343602D01*
X199896106Y-132343602D02*
X199896106Y-131073602D01*
X199896106Y-131073602D02*
X200531106Y-130438602D01*
X201801106Y-130438602D02*
X202436106Y-131073602D01*
X202436106Y-131073602D02*
X202436106Y-132343602D01*
X202436106Y-132343602D02*
X201801106Y-132978602D01*
X199896106Y-129803602D02*
X200531106Y-130438602D01*
X201801106Y-130438602D02*
X202436106Y-129803602D01*
X202436106Y-128533602D02*
X202436106Y-129803602D01*
X199896106Y-137423602D02*
X199896106Y-136153602D01*
X199896106Y-136153602D02*
X200531106Y-135518602D01*
X201801106Y-135518602D02*
X202436106Y-136153602D01*
X200531106Y-135518602D02*
X199896106Y-134883602D01*
X199896106Y-134883602D02*
X199896106Y-133613602D01*
X199896106Y-133613602D02*
X200531106Y-132978602D01*
X201801106Y-132978602D02*
X202436106Y-133613602D01*
X202436106Y-133613602D02*
X202436106Y-134883602D01*
X202436106Y-134883602D02*
X201801106Y-135518602D01*
X200531106Y-140598602D02*
X199896106Y-139963602D01*
X199896106Y-139963602D02*
X199896106Y-138693602D01*
X199896106Y-138693602D02*
X200531106Y-138058602D01*
X201801106Y-138058602D02*
X202436106Y-138693602D01*
X202436106Y-138693602D02*
X202436106Y-139963602D01*
X202436106Y-139963602D02*
X201801106Y-140598602D01*
X199896106Y-137423602D02*
X200531106Y-138058602D01*
X201801106Y-138058602D02*
X202436106Y-137423602D01*
X202436106Y-136153602D02*
X202436106Y-137423602D01*
X199896106Y-145043602D02*
X199896106Y-143773602D01*
X199896106Y-143773602D02*
X200531106Y-143138602D01*
X201801106Y-143138602D02*
X202436106Y-143773602D01*
X200531106Y-143138602D02*
X199896106Y-142503602D01*
X199896106Y-142503602D02*
X199896106Y-141233602D01*
X199896106Y-141233602D02*
X200531106Y-140598602D01*
X201801106Y-140598602D02*
X202436106Y-141233602D01*
X202436106Y-141233602D02*
X202436106Y-142503602D01*
X202436106Y-142503602D02*
X201801106Y-143138602D01*
X200531106Y-145678602D02*
X201801106Y-145678602D01*
X199896106Y-145043602D02*
X200531106Y-145678602D01*
X201801106Y-145678602D02*
X202436106Y-145043602D01*
X202436106Y-143773602D02*
X202436106Y-145043602D01*
X199896106Y-127263602D02*
X199896106Y-125993602D01*
X199896106Y-125993602D02*
X200531106Y-125358602D01*
X201801106Y-125358602D02*
X202436106Y-125993602D01*
X199896106Y-127263602D02*
X200531106Y-127898602D01*
X201801106Y-127898602D02*
X202436106Y-127263602D01*
X202436106Y-125993602D02*
X202436106Y-127263602D01*
X199896106Y-124723602D02*
X199896106Y-123453602D01*
X199896106Y-123453602D02*
X200531106Y-122818602D01*
X201801106Y-122818602D02*
X202436106Y-123453602D01*
X199896106Y-124723602D02*
X200531106Y-125358602D01*
X201801106Y-125358602D02*
X202436106Y-124723602D01*
X202436106Y-123453602D02*
X202436106Y-124723602D01*
X199896106Y-122183602D02*
X199896106Y-120913602D01*
X199896106Y-120913602D02*
X200531106Y-120278602D01*
X200531106Y-120278602D02*
X201801106Y-120278602D01*
X201801106Y-120278602D02*
X202436106Y-120913602D01*
X199896106Y-122183602D02*
X200531106Y-122818602D01*
X201801106Y-122818602D02*
X202436106Y-122183602D01*
X202436106Y-120913602D02*
X202436106Y-122183602D01*
X199896106Y-101823600D02*
X199896106Y-100553600D01*
X199896106Y-100553600D02*
X200531106Y-99918600D01*
X201801106Y-99918600D02*
X202436106Y-100553600D01*
X200531106Y-104998600D02*
X199896106Y-104363600D01*
X199896106Y-104363600D02*
X199896106Y-103093600D01*
X199896106Y-103093600D02*
X200531106Y-102458600D01*
X201801106Y-102458600D02*
X202436106Y-103093600D01*
X202436106Y-103093600D02*
X202436106Y-104363600D01*
X202436106Y-104363600D02*
X201801106Y-104998600D01*
X199896106Y-101823600D02*
X200531106Y-102458600D01*
X201801106Y-102458600D02*
X202436106Y-101823600D01*
X202436106Y-100553600D02*
X202436106Y-101823600D01*
X199896106Y-109443600D02*
X199896106Y-108173600D01*
X199896106Y-108173600D02*
X200531106Y-107538600D01*
X201801106Y-107538600D02*
X202436106Y-108173600D01*
X200531106Y-107538600D02*
X199896106Y-106903600D01*
X199896106Y-106903600D02*
X199896106Y-105633600D01*
X199896106Y-105633600D02*
X200531106Y-104998600D01*
X201801106Y-104998600D02*
X202436106Y-105633600D01*
X202436106Y-105633600D02*
X202436106Y-106903600D01*
X202436106Y-106903600D02*
X201801106Y-107538600D01*
X200531106Y-112618600D02*
X199896106Y-111983600D01*
X199896106Y-111983600D02*
X199896106Y-110713600D01*
X199896106Y-110713600D02*
X200531106Y-110078600D01*
X201801106Y-110078600D02*
X202436106Y-110713600D01*
X202436106Y-110713600D02*
X202436106Y-111983600D01*
X202436106Y-111983600D02*
X201801106Y-112618600D01*
X199896106Y-109443600D02*
X200531106Y-110078600D01*
X201801106Y-110078600D02*
X202436106Y-109443600D01*
X202436106Y-108173600D02*
X202436106Y-109443600D01*
X199896106Y-117063600D02*
X199896106Y-115793600D01*
X199896106Y-115793600D02*
X200531106Y-115158600D01*
X201801106Y-115158600D02*
X202436106Y-115793600D01*
X200531106Y-115158600D02*
X199896106Y-114523600D01*
X199896106Y-114523600D02*
X199896106Y-113253600D01*
X199896106Y-113253600D02*
X200531106Y-112618600D01*
X201801106Y-112618600D02*
X202436106Y-113253600D01*
X202436106Y-113253600D02*
X202436106Y-114523600D01*
X202436106Y-114523600D02*
X201801106Y-115158600D01*
X200531106Y-117698600D02*
X201801106Y-117698600D01*
X199896106Y-117063600D02*
X200531106Y-117698600D01*
X201801106Y-117698600D02*
X202436106Y-117063600D01*
X202436106Y-115793600D02*
X202436106Y-117063600D01*
X199896106Y-99283600D02*
X199896106Y-98013600D01*
X199896106Y-98013600D02*
X200531106Y-97378600D01*
X201801106Y-97378600D02*
X202436106Y-98013600D01*
X199896106Y-99283600D02*
X200531106Y-99918600D01*
X201801106Y-99918600D02*
X202436106Y-99283600D01*
X202436106Y-98013600D02*
X202436106Y-99283600D01*
X199896106Y-96743600D02*
X199896106Y-95473600D01*
X199896106Y-95473600D02*
X200531106Y-94838600D01*
X201801106Y-94838600D02*
X202436106Y-95473600D01*
X199896106Y-96743600D02*
X200531106Y-97378600D01*
X201801106Y-97378600D02*
X202436106Y-96743600D01*
X202436106Y-95473600D02*
X202436106Y-96743600D01*
X199896106Y-94203600D02*
X199896106Y-92933600D01*
X199896106Y-92933600D02*
X200531106Y-92298600D01*
X200531106Y-92298600D02*
X201801106Y-92298600D01*
X201801106Y-92298600D02*
X202436106Y-92933600D01*
X199896106Y-94203600D02*
X200531106Y-94838600D01*
X201801106Y-94838600D02*
X202436106Y-94203600D01*
X202436106Y-92933600D02*
X202436106Y-94203600D01*
X179856104Y-157783604D02*
X179856104Y-156513604D01*
X179856104Y-156513604D02*
X180491104Y-155878604D01*
X181761104Y-155878604D02*
X182396104Y-156513604D01*
X180491104Y-160958604D02*
X179856104Y-160323604D01*
X179856104Y-160323604D02*
X179856104Y-159053604D01*
X179856104Y-159053604D02*
X180491104Y-158418604D01*
X181761104Y-158418604D02*
X182396104Y-159053604D01*
X182396104Y-159053604D02*
X182396104Y-160323604D01*
X182396104Y-160323604D02*
X181761104Y-160958604D01*
X179856104Y-157783604D02*
X180491104Y-158418604D01*
X181761104Y-158418604D02*
X182396104Y-157783604D01*
X182396104Y-156513604D02*
X182396104Y-157783604D01*
X179856104Y-165403604D02*
X179856104Y-164133604D01*
X179856104Y-164133604D02*
X180491104Y-163498604D01*
X181761104Y-163498604D02*
X182396104Y-164133604D01*
X180491104Y-163498604D02*
X179856104Y-162863604D01*
X179856104Y-162863604D02*
X179856104Y-161593604D01*
X179856104Y-161593604D02*
X180491104Y-160958604D01*
X181761104Y-160958604D02*
X182396104Y-161593604D01*
X182396104Y-161593604D02*
X182396104Y-162863604D01*
X182396104Y-162863604D02*
X181761104Y-163498604D01*
X180491104Y-168578604D02*
X179856104Y-167943604D01*
X179856104Y-167943604D02*
X179856104Y-166673604D01*
X179856104Y-166673604D02*
X180491104Y-166038604D01*
X181761104Y-166038604D02*
X182396104Y-166673604D01*
X182396104Y-166673604D02*
X182396104Y-167943604D01*
X182396104Y-167943604D02*
X181761104Y-168578604D01*
X179856104Y-165403604D02*
X180491104Y-166038604D01*
X181761104Y-166038604D02*
X182396104Y-165403604D01*
X182396104Y-164133604D02*
X182396104Y-165403604D01*
X179856104Y-173023604D02*
X179856104Y-171753604D01*
X179856104Y-171753604D02*
X180491104Y-171118604D01*
X181761104Y-171118604D02*
X182396104Y-171753604D01*
X180491104Y-171118604D02*
X179856104Y-170483604D01*
X179856104Y-170483604D02*
X179856104Y-169213604D01*
X179856104Y-169213604D02*
X180491104Y-168578604D01*
X181761104Y-168578604D02*
X182396104Y-169213604D01*
X182396104Y-169213604D02*
X182396104Y-170483604D01*
X182396104Y-170483604D02*
X181761104Y-171118604D01*
X180491104Y-173658604D02*
X181761104Y-173658604D01*
X179856104Y-173023604D02*
X180491104Y-173658604D01*
X181761104Y-173658604D02*
X182396104Y-173023604D01*
X182396104Y-171753604D02*
X182396104Y-173023604D01*
X179856104Y-155243604D02*
X179856104Y-153973604D01*
X179856104Y-153973604D02*
X180491104Y-153338604D01*
X181761104Y-153338604D02*
X182396104Y-153973604D01*
X179856104Y-155243604D02*
X180491104Y-155878604D01*
X181761104Y-155878604D02*
X182396104Y-155243604D01*
X182396104Y-153973604D02*
X182396104Y-155243604D01*
X179856104Y-152703604D02*
X179856104Y-151433604D01*
X179856104Y-151433604D02*
X180491104Y-150798604D01*
X181761104Y-150798604D02*
X182396104Y-151433604D01*
X179856104Y-152703604D02*
X180491104Y-153338604D01*
X181761104Y-153338604D02*
X182396104Y-152703604D01*
X182396104Y-151433604D02*
X182396104Y-152703604D01*
X179856104Y-150163604D02*
X179856104Y-148893604D01*
X179856104Y-148893604D02*
X180491104Y-148258604D01*
X180491104Y-148258604D02*
X181761104Y-148258604D01*
X181761104Y-148258604D02*
X182396104Y-148893604D01*
X179856104Y-150163604D02*
X180491104Y-150798604D01*
X181761104Y-150798604D02*
X182396104Y-150163604D01*
X182396104Y-148893604D02*
X182396104Y-150163604D01*
X179856104Y-129803602D02*
X179856104Y-128533602D01*
X179856104Y-128533602D02*
X180491104Y-127898602D01*
X181761104Y-127898602D02*
X182396104Y-128533602D01*
X180491104Y-132978602D02*
X179856104Y-132343602D01*
X179856104Y-132343602D02*
X179856104Y-131073602D01*
X179856104Y-131073602D02*
X180491104Y-130438602D01*
X181761104Y-130438602D02*
X182396104Y-131073602D01*
X182396104Y-131073602D02*
X182396104Y-132343602D01*
X182396104Y-132343602D02*
X181761104Y-132978602D01*
X179856104Y-129803602D02*
X180491104Y-130438602D01*
X181761104Y-130438602D02*
X182396104Y-129803602D01*
X182396104Y-128533602D02*
X182396104Y-129803602D01*
X179856104Y-137423602D02*
X179856104Y-136153602D01*
X179856104Y-136153602D02*
X180491104Y-135518602D01*
X181761104Y-135518602D02*
X182396104Y-136153602D01*
X180491104Y-135518602D02*
X179856104Y-134883602D01*
X179856104Y-134883602D02*
X179856104Y-133613602D01*
X179856104Y-133613602D02*
X180491104Y-132978602D01*
X181761104Y-132978602D02*
X182396104Y-133613602D01*
X182396104Y-133613602D02*
X182396104Y-134883602D01*
X182396104Y-134883602D02*
X181761104Y-135518602D01*
X180491104Y-140598602D02*
X179856104Y-139963602D01*
X179856104Y-139963602D02*
X179856104Y-138693602D01*
X179856104Y-138693602D02*
X180491104Y-138058602D01*
X181761104Y-138058602D02*
X182396104Y-138693602D01*
X182396104Y-138693602D02*
X182396104Y-139963602D01*
X182396104Y-139963602D02*
X181761104Y-140598602D01*
X179856104Y-137423602D02*
X180491104Y-138058602D01*
X181761104Y-138058602D02*
X182396104Y-137423602D01*
X182396104Y-136153602D02*
X182396104Y-137423602D01*
X179856104Y-145043602D02*
X179856104Y-143773602D01*
X179856104Y-143773602D02*
X180491104Y-143138602D01*
X181761104Y-143138602D02*
X182396104Y-143773602D01*
X180491104Y-143138602D02*
X179856104Y-142503602D01*
X179856104Y-142503602D02*
X179856104Y-141233602D01*
X179856104Y-141233602D02*
X180491104Y-140598602D01*
X181761104Y-140598602D02*
X182396104Y-141233602D01*
X182396104Y-141233602D02*
X182396104Y-142503602D01*
X182396104Y-142503602D02*
X181761104Y-143138602D01*
X180491104Y-145678602D02*
X181761104Y-145678602D01*
X179856104Y-145043602D02*
X180491104Y-145678602D01*
X181761104Y-145678602D02*
X182396104Y-145043602D01*
X182396104Y-143773602D02*
X182396104Y-145043602D01*
X179856104Y-127263602D02*
X179856104Y-125993602D01*
X179856104Y-125993602D02*
X180491104Y-125358602D01*
X181761104Y-125358602D02*
X182396104Y-125993602D01*
X179856104Y-127263602D02*
X180491104Y-127898602D01*
X181761104Y-127898602D02*
X182396104Y-127263602D01*
X182396104Y-125993602D02*
X182396104Y-127263602D01*
X179856104Y-124723602D02*
X179856104Y-123453602D01*
X179856104Y-123453602D02*
X180491104Y-122818602D01*
X181761104Y-122818602D02*
X182396104Y-123453602D01*
X179856104Y-124723602D02*
X180491104Y-125358602D01*
X181761104Y-125358602D02*
X182396104Y-124723602D01*
X182396104Y-123453602D02*
X182396104Y-124723602D01*
X179856104Y-122183602D02*
X179856104Y-120913602D01*
X179856104Y-120913602D02*
X180491104Y-120278602D01*
X180491104Y-120278602D02*
X181761104Y-120278602D01*
X181761104Y-120278602D02*
X182396104Y-120913602D01*
X179856104Y-122183602D02*
X180491104Y-122818602D01*
X181761104Y-122818602D02*
X182396104Y-122183602D01*
X182396104Y-120913602D02*
X182396104Y-122183602D01*
X179856104Y-101823600D02*
X179856104Y-100553600D01*
X179856104Y-100553600D02*
X180491104Y-99918600D01*
X181761104Y-99918600D02*
X182396104Y-100553600D01*
X180491104Y-104998600D02*
X179856104Y-104363600D01*
X179856104Y-104363600D02*
X179856104Y-103093600D01*
X179856104Y-103093600D02*
X180491104Y-102458600D01*
X181761104Y-102458600D02*
X182396104Y-103093600D01*
X182396104Y-103093600D02*
X182396104Y-104363600D01*
X182396104Y-104363600D02*
X181761104Y-104998600D01*
X179856104Y-101823600D02*
X180491104Y-102458600D01*
X181761104Y-102458600D02*
X182396104Y-101823600D01*
X182396104Y-100553600D02*
X182396104Y-101823600D01*
X179856104Y-109443600D02*
X179856104Y-108173600D01*
X179856104Y-108173600D02*
X180491104Y-107538600D01*
X181761104Y-107538600D02*
X182396104Y-108173600D01*
X180491104Y-107538600D02*
X179856104Y-106903600D01*
X179856104Y-106903600D02*
X179856104Y-105633600D01*
X179856104Y-105633600D02*
X180491104Y-104998600D01*
X181761104Y-104998600D02*
X182396104Y-105633600D01*
X182396104Y-105633600D02*
X182396104Y-106903600D01*
X182396104Y-106903600D02*
X181761104Y-107538600D01*
X180491104Y-112618600D02*
X179856104Y-111983600D01*
X179856104Y-111983600D02*
X179856104Y-110713600D01*
X179856104Y-110713600D02*
X180491104Y-110078600D01*
X181761104Y-110078600D02*
X182396104Y-110713600D01*
X182396104Y-110713600D02*
X182396104Y-111983600D01*
X182396104Y-111983600D02*
X181761104Y-112618600D01*
X179856104Y-109443600D02*
X180491104Y-110078600D01*
X181761104Y-110078600D02*
X182396104Y-109443600D01*
X182396104Y-108173600D02*
X182396104Y-109443600D01*
X179856104Y-117063600D02*
X179856104Y-115793600D01*
X179856104Y-115793600D02*
X180491104Y-115158600D01*
X181761104Y-115158600D02*
X182396104Y-115793600D01*
X180491104Y-115158600D02*
X179856104Y-114523600D01*
X179856104Y-114523600D02*
X179856104Y-113253600D01*
X179856104Y-113253600D02*
X180491104Y-112618600D01*
X181761104Y-112618600D02*
X182396104Y-113253600D01*
X182396104Y-113253600D02*
X182396104Y-114523600D01*
X182396104Y-114523600D02*
X181761104Y-115158600D01*
X180491104Y-117698600D02*
X181761104Y-117698600D01*
X179856104Y-117063600D02*
X180491104Y-117698600D01*
X181761104Y-117698600D02*
X182396104Y-117063600D01*
X182396104Y-115793600D02*
X182396104Y-117063600D01*
X179856104Y-99283600D02*
X179856104Y-98013600D01*
X179856104Y-98013600D02*
X180491104Y-97378600D01*
X181761104Y-97378600D02*
X182396104Y-98013600D01*
X179856104Y-99283600D02*
X180491104Y-99918600D01*
X181761104Y-99918600D02*
X182396104Y-99283600D01*
X182396104Y-98013600D02*
X182396104Y-99283600D01*
X179856104Y-96743600D02*
X179856104Y-95473600D01*
X179856104Y-95473600D02*
X180491104Y-94838600D01*
X181761104Y-94838600D02*
X182396104Y-95473600D01*
X179856104Y-96743600D02*
X180491104Y-97378600D01*
X181761104Y-97378600D02*
X182396104Y-96743600D01*
X182396104Y-95473600D02*
X182396104Y-96743600D01*
X179856104Y-94203600D02*
X179856104Y-92933600D01*
X179856104Y-92933600D02*
X180491104Y-92298600D01*
X180491104Y-92298600D02*
X181761104Y-92298600D01*
X181761104Y-92298600D02*
X182396104Y-92933600D01*
X179856104Y-94203600D02*
X180491104Y-94838600D01*
X181761104Y-94838600D02*
X182396104Y-94203600D01*
X182396104Y-92933600D02*
X182396104Y-94203600D01*
X159816102Y-157783604D02*
X159816102Y-156513604D01*
X159816102Y-156513604D02*
X160451102Y-155878604D01*
X161721102Y-155878604D02*
X162356102Y-156513604D01*
X160451102Y-160958604D02*
X159816102Y-160323604D01*
X159816102Y-160323604D02*
X159816102Y-159053604D01*
X159816102Y-159053604D02*
X160451102Y-158418604D01*
X161721102Y-158418604D02*
X162356102Y-159053604D01*
X162356102Y-159053604D02*
X162356102Y-160323604D01*
X162356102Y-160323604D02*
X161721102Y-160958604D01*
X159816102Y-157783604D02*
X160451102Y-158418604D01*
X161721102Y-158418604D02*
X162356102Y-157783604D01*
X162356102Y-156513604D02*
X162356102Y-157783604D01*
X159816102Y-165403604D02*
X159816102Y-164133604D01*
X159816102Y-164133604D02*
X160451102Y-163498604D01*
X161721102Y-163498604D02*
X162356102Y-164133604D01*
X160451102Y-163498604D02*
X159816102Y-162863604D01*
X159816102Y-162863604D02*
X159816102Y-161593604D01*
X159816102Y-161593604D02*
X160451102Y-160958604D01*
X161721102Y-160958604D02*
X162356102Y-161593604D01*
X162356102Y-161593604D02*
X162356102Y-162863604D01*
X162356102Y-162863604D02*
X161721102Y-163498604D01*
X160451102Y-168578604D02*
X159816102Y-167943604D01*
X159816102Y-167943604D02*
X159816102Y-166673604D01*
X159816102Y-166673604D02*
X160451102Y-166038604D01*
X161721102Y-166038604D02*
X162356102Y-166673604D01*
X162356102Y-166673604D02*
X162356102Y-167943604D01*
X162356102Y-167943604D02*
X161721102Y-168578604D01*
X159816102Y-165403604D02*
X160451102Y-166038604D01*
X161721102Y-166038604D02*
X162356102Y-165403604D01*
X162356102Y-164133604D02*
X162356102Y-165403604D01*
X159816102Y-173023604D02*
X159816102Y-171753604D01*
X159816102Y-171753604D02*
X160451102Y-171118604D01*
X161721102Y-171118604D02*
X162356102Y-171753604D01*
X160451102Y-171118604D02*
X159816102Y-170483604D01*
X159816102Y-170483604D02*
X159816102Y-169213604D01*
X159816102Y-169213604D02*
X160451102Y-168578604D01*
X161721102Y-168578604D02*
X162356102Y-169213604D01*
X162356102Y-169213604D02*
X162356102Y-170483604D01*
X162356102Y-170483604D02*
X161721102Y-171118604D01*
X160451102Y-173658604D02*
X161721102Y-173658604D01*
X159816102Y-173023604D02*
X160451102Y-173658604D01*
X161721102Y-173658604D02*
X162356102Y-173023604D01*
X162356102Y-171753604D02*
X162356102Y-173023604D01*
X159816102Y-155243604D02*
X159816102Y-153973604D01*
X159816102Y-153973604D02*
X160451102Y-153338604D01*
X161721102Y-153338604D02*
X162356102Y-153973604D01*
X159816102Y-155243604D02*
X160451102Y-155878604D01*
X161721102Y-155878604D02*
X162356102Y-155243604D01*
X162356102Y-153973604D02*
X162356102Y-155243604D01*
X159816102Y-152703604D02*
X159816102Y-151433604D01*
X159816102Y-151433604D02*
X160451102Y-150798604D01*
X161721102Y-150798604D02*
X162356102Y-151433604D01*
X159816102Y-152703604D02*
X160451102Y-153338604D01*
X161721102Y-153338604D02*
X162356102Y-152703604D01*
X162356102Y-151433604D02*
X162356102Y-152703604D01*
X159816102Y-150163604D02*
X159816102Y-148893604D01*
X159816102Y-148893604D02*
X160451102Y-148258604D01*
X160451102Y-148258604D02*
X161721102Y-148258604D01*
X161721102Y-148258604D02*
X162356102Y-148893604D01*
X159816102Y-150163604D02*
X160451102Y-150798604D01*
X161721102Y-150798604D02*
X162356102Y-150163604D01*
X162356102Y-148893604D02*
X162356102Y-150163604D01*
X159816102Y-129803602D02*
X159816102Y-128533602D01*
X159816102Y-128533602D02*
X160451102Y-127898602D01*
X161721102Y-127898602D02*
X162356102Y-128533602D01*
X160451102Y-132978602D02*
X159816102Y-132343602D01*
X159816102Y-132343602D02*
X159816102Y-131073602D01*
X159816102Y-131073602D02*
X160451102Y-130438602D01*
X161721102Y-130438602D02*
X162356102Y-131073602D01*
X162356102Y-131073602D02*
X162356102Y-132343602D01*
X162356102Y-132343602D02*
X161721102Y-132978602D01*
X159816102Y-129803602D02*
X160451102Y-130438602D01*
X161721102Y-130438602D02*
X162356102Y-129803602D01*
X162356102Y-128533602D02*
X162356102Y-129803602D01*
X159816102Y-137423602D02*
X159816102Y-136153602D01*
X159816102Y-136153602D02*
X160451102Y-135518602D01*
X161721102Y-135518602D02*
X162356102Y-136153602D01*
X160451102Y-135518602D02*
X159816102Y-134883602D01*
X159816102Y-134883602D02*
X159816102Y-133613602D01*
X159816102Y-133613602D02*
X160451102Y-132978602D01*
X161721102Y-132978602D02*
X162356102Y-133613602D01*
X162356102Y-133613602D02*
X162356102Y-134883602D01*
X162356102Y-134883602D02*
X161721102Y-135518602D01*
X160451102Y-140598602D02*
X159816102Y-139963602D01*
X159816102Y-139963602D02*
X159816102Y-138693602D01*
X159816102Y-138693602D02*
X160451102Y-138058602D01*
X161721102Y-138058602D02*
X162356102Y-138693602D01*
X162356102Y-138693602D02*
X162356102Y-139963602D01*
X162356102Y-139963602D02*
X161721102Y-140598602D01*
X159816102Y-137423602D02*
X160451102Y-138058602D01*
X161721102Y-138058602D02*
X162356102Y-137423602D01*
X162356102Y-136153602D02*
X162356102Y-137423602D01*
X159816102Y-145043602D02*
X159816102Y-143773602D01*
X159816102Y-143773602D02*
X160451102Y-143138602D01*
X161721102Y-143138602D02*
X162356102Y-143773602D01*
X160451102Y-143138602D02*
X159816102Y-142503602D01*
X159816102Y-142503602D02*
X159816102Y-141233602D01*
X159816102Y-141233602D02*
X160451102Y-140598602D01*
X161721102Y-140598602D02*
X162356102Y-141233602D01*
X162356102Y-141233602D02*
X162356102Y-142503602D01*
X162356102Y-142503602D02*
X161721102Y-143138602D01*
X160451102Y-145678602D02*
X161721102Y-145678602D01*
X159816102Y-145043602D02*
X160451102Y-145678602D01*
X161721102Y-145678602D02*
X162356102Y-145043602D01*
X162356102Y-143773602D02*
X162356102Y-145043602D01*
X159816102Y-127263602D02*
X159816102Y-125993602D01*
X159816102Y-125993602D02*
X160451102Y-125358602D01*
X161721102Y-125358602D02*
X162356102Y-125993602D01*
X159816102Y-127263602D02*
X160451102Y-127898602D01*
X161721102Y-127898602D02*
X162356102Y-127263602D01*
X162356102Y-125993602D02*
X162356102Y-127263602D01*
X159816102Y-124723602D02*
X159816102Y-123453602D01*
X159816102Y-123453602D02*
X160451102Y-122818602D01*
X161721102Y-122818602D02*
X162356102Y-123453602D01*
X159816102Y-124723602D02*
X160451102Y-125358602D01*
X161721102Y-125358602D02*
X162356102Y-124723602D01*
X162356102Y-123453602D02*
X162356102Y-124723602D01*
X159816102Y-122183602D02*
X159816102Y-120913602D01*
X159816102Y-120913602D02*
X160451102Y-120278602D01*
X160451102Y-120278602D02*
X161721102Y-120278602D01*
X161721102Y-120278602D02*
X162356102Y-120913602D01*
X159816102Y-122183602D02*
X160451102Y-122818602D01*
X161721102Y-122818602D02*
X162356102Y-122183602D01*
X162356102Y-120913602D02*
X162356102Y-122183602D01*
X159816102Y-101823600D02*
X159816102Y-100553600D01*
X159816102Y-100553600D02*
X160451102Y-99918600D01*
X161721102Y-99918600D02*
X162356102Y-100553600D01*
X160451102Y-104998600D02*
X159816102Y-104363600D01*
X159816102Y-104363600D02*
X159816102Y-103093600D01*
X159816102Y-103093600D02*
X160451102Y-102458600D01*
X161721102Y-102458600D02*
X162356102Y-103093600D01*
X162356102Y-103093600D02*
X162356102Y-104363600D01*
X162356102Y-104363600D02*
X161721102Y-104998600D01*
X159816102Y-101823600D02*
X160451102Y-102458600D01*
X161721102Y-102458600D02*
X162356102Y-101823600D01*
X162356102Y-100553600D02*
X162356102Y-101823600D01*
X159816102Y-109443600D02*
X159816102Y-108173600D01*
X159816102Y-108173600D02*
X160451102Y-107538600D01*
X161721102Y-107538600D02*
X162356102Y-108173600D01*
X160451102Y-107538600D02*
X159816102Y-106903600D01*
X159816102Y-106903600D02*
X159816102Y-105633600D01*
X159816102Y-105633600D02*
X160451102Y-104998600D01*
X161721102Y-104998600D02*
X162356102Y-105633600D01*
X162356102Y-105633600D02*
X162356102Y-106903600D01*
X162356102Y-106903600D02*
X161721102Y-107538600D01*
X160451102Y-112618600D02*
X159816102Y-111983600D01*
X159816102Y-111983600D02*
X159816102Y-110713600D01*
X159816102Y-110713600D02*
X160451102Y-110078600D01*
X161721102Y-110078600D02*
X162356102Y-110713600D01*
X162356102Y-110713600D02*
X162356102Y-111983600D01*
X162356102Y-111983600D02*
X161721102Y-112618600D01*
X159816102Y-109443600D02*
X160451102Y-110078600D01*
X161721102Y-110078600D02*
X162356102Y-109443600D01*
X162356102Y-108173600D02*
X162356102Y-109443600D01*
X159816102Y-117063600D02*
X159816102Y-115793600D01*
X159816102Y-115793600D02*
X160451102Y-115158600D01*
X161721102Y-115158600D02*
X162356102Y-115793600D01*
X160451102Y-115158600D02*
X159816102Y-114523600D01*
X159816102Y-114523600D02*
X159816102Y-113253600D01*
X159816102Y-113253600D02*
X160451102Y-112618600D01*
X161721102Y-112618600D02*
X162356102Y-113253600D01*
X162356102Y-113253600D02*
X162356102Y-114523600D01*
X162356102Y-114523600D02*
X161721102Y-115158600D01*
X160451102Y-117698600D02*
X161721102Y-117698600D01*
X159816102Y-117063600D02*
X160451102Y-117698600D01*
X161721102Y-117698600D02*
X162356102Y-117063600D01*
X162356102Y-115793600D02*
X162356102Y-117063600D01*
X159816102Y-99283600D02*
X159816102Y-98013600D01*
X159816102Y-98013600D02*
X160451102Y-97378600D01*
X161721102Y-97378600D02*
X162356102Y-98013600D01*
X159816102Y-99283600D02*
X160451102Y-99918600D01*
X161721102Y-99918600D02*
X162356102Y-99283600D01*
X162356102Y-98013600D02*
X162356102Y-99283600D01*
X159816102Y-96743600D02*
X159816102Y-95473600D01*
X159816102Y-95473600D02*
X160451102Y-94838600D01*
X161721102Y-94838600D02*
X162356102Y-95473600D01*
X159816102Y-96743600D02*
X160451102Y-97378600D01*
X161721102Y-97378600D02*
X162356102Y-96743600D01*
X162356102Y-95473600D02*
X162356102Y-96743600D01*
X159816102Y-94203600D02*
X159816102Y-92933600D01*
X159816102Y-92933600D02*
X160451102Y-92298600D01*
X160451102Y-92298600D02*
X161721102Y-92298600D01*
X161721102Y-92298600D02*
X162356102Y-92933600D01*
X159816102Y-94203600D02*
X160451102Y-94838600D01*
X161721102Y-94838600D02*
X162356102Y-94203600D01*
X162356102Y-92933600D02*
X162356102Y-94203600D01*
X139776100Y-157783604D02*
X139776100Y-156513604D01*
X139776100Y-156513604D02*
X140411100Y-155878604D01*
X141681100Y-155878604D02*
X142316100Y-156513604D01*
X140411100Y-160958604D02*
X139776100Y-160323604D01*
X139776100Y-160323604D02*
X139776100Y-159053604D01*
X139776100Y-159053604D02*
X140411100Y-158418604D01*
X141681100Y-158418604D02*
X142316100Y-159053604D01*
X142316100Y-159053604D02*
X142316100Y-160323604D01*
X142316100Y-160323604D02*
X141681100Y-160958604D01*
X139776100Y-157783604D02*
X140411100Y-158418604D01*
X141681100Y-158418604D02*
X142316100Y-157783604D01*
X142316100Y-156513604D02*
X142316100Y-157783604D01*
X139776100Y-165403604D02*
X139776100Y-164133604D01*
X139776100Y-164133604D02*
X140411100Y-163498604D01*
X141681100Y-163498604D02*
X142316100Y-164133604D01*
X140411100Y-163498604D02*
X139776100Y-162863604D01*
X139776100Y-162863604D02*
X139776100Y-161593604D01*
X139776100Y-161593604D02*
X140411100Y-160958604D01*
X141681100Y-160958604D02*
X142316100Y-161593604D01*
X142316100Y-161593604D02*
X142316100Y-162863604D01*
X142316100Y-162863604D02*
X141681100Y-163498604D01*
X140411100Y-168578604D02*
X139776100Y-167943604D01*
X139776100Y-167943604D02*
X139776100Y-166673604D01*
X139776100Y-166673604D02*
X140411100Y-166038604D01*
X141681100Y-166038604D02*
X142316100Y-166673604D01*
X142316100Y-166673604D02*
X142316100Y-167943604D01*
X142316100Y-167943604D02*
X141681100Y-168578604D01*
X139776100Y-165403604D02*
X140411100Y-166038604D01*
X141681100Y-166038604D02*
X142316100Y-165403604D01*
X142316100Y-164133604D02*
X142316100Y-165403604D01*
X139776100Y-173023604D02*
X139776100Y-171753604D01*
X139776100Y-171753604D02*
X140411100Y-171118604D01*
X141681100Y-171118604D02*
X142316100Y-171753604D01*
X140411100Y-171118604D02*
X139776100Y-170483604D01*
X139776100Y-170483604D02*
X139776100Y-169213604D01*
X139776100Y-169213604D02*
X140411100Y-168578604D01*
X141681100Y-168578604D02*
X142316100Y-169213604D01*
X142316100Y-169213604D02*
X142316100Y-170483604D01*
X142316100Y-170483604D02*
X141681100Y-171118604D01*
X140411100Y-173658604D02*
X141681100Y-173658604D01*
X139776100Y-173023604D02*
X140411100Y-173658604D01*
X141681100Y-173658604D02*
X142316100Y-173023604D01*
X142316100Y-171753604D02*
X142316100Y-173023604D01*
X139776100Y-155243604D02*
X139776100Y-153973604D01*
X139776100Y-153973604D02*
X140411100Y-153338604D01*
X141681100Y-153338604D02*
X142316100Y-153973604D01*
X139776100Y-155243604D02*
X140411100Y-155878604D01*
X141681100Y-155878604D02*
X142316100Y-155243604D01*
X142316100Y-153973604D02*
X142316100Y-155243604D01*
X139776100Y-152703604D02*
X139776100Y-151433604D01*
X139776100Y-151433604D02*
X140411100Y-150798604D01*
X141681100Y-150798604D02*
X142316100Y-151433604D01*
X139776100Y-152703604D02*
X140411100Y-153338604D01*
X141681100Y-153338604D02*
X142316100Y-152703604D01*
X142316100Y-151433604D02*
X142316100Y-152703604D01*
X139776100Y-150163604D02*
X139776100Y-148893604D01*
X139776100Y-148893604D02*
X140411100Y-148258604D01*
X140411100Y-148258604D02*
X141681100Y-148258604D01*
X141681100Y-148258604D02*
X142316100Y-148893604D01*
X139776100Y-150163604D02*
X140411100Y-150798604D01*
X141681100Y-150798604D02*
X142316100Y-150163604D01*
X142316100Y-148893604D02*
X142316100Y-150163604D01*
X139776100Y-129803602D02*
X139776100Y-128533602D01*
X139776100Y-128533602D02*
X140411100Y-127898602D01*
X141681100Y-127898602D02*
X142316100Y-128533602D01*
X140411100Y-132978602D02*
X139776100Y-132343602D01*
X139776100Y-132343602D02*
X139776100Y-131073602D01*
X139776100Y-131073602D02*
X140411100Y-130438602D01*
X141681100Y-130438602D02*
X142316100Y-131073602D01*
X142316100Y-131073602D02*
X142316100Y-132343602D01*
X142316100Y-132343602D02*
X141681100Y-132978602D01*
X139776100Y-129803602D02*
X140411100Y-130438602D01*
X141681100Y-130438602D02*
X142316100Y-129803602D01*
X142316100Y-128533602D02*
X142316100Y-129803602D01*
X139776100Y-137423602D02*
X139776100Y-136153602D01*
X139776100Y-136153602D02*
X140411100Y-135518602D01*
X141681100Y-135518602D02*
X142316100Y-136153602D01*
X140411100Y-135518602D02*
X139776100Y-134883602D01*
X139776100Y-134883602D02*
X139776100Y-133613602D01*
X139776100Y-133613602D02*
X140411100Y-132978602D01*
X141681100Y-132978602D02*
X142316100Y-133613602D01*
X142316100Y-133613602D02*
X142316100Y-134883602D01*
X142316100Y-134883602D02*
X141681100Y-135518602D01*
X140411100Y-140598602D02*
X139776100Y-139963602D01*
X139776100Y-139963602D02*
X139776100Y-138693602D01*
X139776100Y-138693602D02*
X140411100Y-138058602D01*
X141681100Y-138058602D02*
X142316100Y-138693602D01*
X142316100Y-138693602D02*
X142316100Y-139963602D01*
X142316100Y-139963602D02*
X141681100Y-140598602D01*
X139776100Y-137423602D02*
X140411100Y-138058602D01*
X141681100Y-138058602D02*
X142316100Y-137423602D01*
X142316100Y-136153602D02*
X142316100Y-137423602D01*
X139776100Y-145043602D02*
X139776100Y-143773602D01*
X139776100Y-143773602D02*
X140411100Y-143138602D01*
X141681100Y-143138602D02*
X142316100Y-143773602D01*
X140411100Y-143138602D02*
X139776100Y-142503602D01*
X139776100Y-142503602D02*
X139776100Y-141233602D01*
X139776100Y-141233602D02*
X140411100Y-140598602D01*
X141681100Y-140598602D02*
X142316100Y-141233602D01*
X142316100Y-141233602D02*
X142316100Y-142503602D01*
X142316100Y-142503602D02*
X141681100Y-143138602D01*
X140411100Y-145678602D02*
X141681100Y-145678602D01*
X139776100Y-145043602D02*
X140411100Y-145678602D01*
X141681100Y-145678602D02*
X142316100Y-145043602D01*
X142316100Y-143773602D02*
X142316100Y-145043602D01*
X139776100Y-127263602D02*
X139776100Y-125993602D01*
X139776100Y-125993602D02*
X140411100Y-125358602D01*
X141681100Y-125358602D02*
X142316100Y-125993602D01*
X139776100Y-127263602D02*
X140411100Y-127898602D01*
X141681100Y-127898602D02*
X142316100Y-127263602D01*
X142316100Y-125993602D02*
X142316100Y-127263602D01*
X139776100Y-124723602D02*
X139776100Y-123453602D01*
X139776100Y-123453602D02*
X140411100Y-122818602D01*
X141681100Y-122818602D02*
X142316100Y-123453602D01*
X139776100Y-124723602D02*
X140411100Y-125358602D01*
X141681100Y-125358602D02*
X142316100Y-124723602D01*
X142316100Y-123453602D02*
X142316100Y-124723602D01*
X139776100Y-122183602D02*
X139776100Y-120913602D01*
X139776100Y-120913602D02*
X140411100Y-120278602D01*
X140411100Y-120278602D02*
X141681100Y-120278602D01*
X141681100Y-120278602D02*
X142316100Y-120913602D01*
X139776100Y-122183602D02*
X140411100Y-122818602D01*
X141681100Y-122818602D02*
X142316100Y-122183602D01*
X142316100Y-120913602D02*
X142316100Y-122183602D01*
X142316100Y-92933600D02*
X142316100Y-94203600D01*
X141681100Y-94838600D02*
X142316100Y-94203600D01*
X139776100Y-94203600D02*
X140411100Y-94838600D01*
X141681100Y-92298600D02*
X142316100Y-92933600D01*
X140411100Y-92298600D02*
X141681100Y-92298600D01*
X139776100Y-92933600D02*
X140411100Y-92298600D01*
X139776100Y-94203600D02*
X139776100Y-92933600D01*
X142316100Y-95473600D02*
X142316100Y-96743600D01*
X141681100Y-97378600D02*
X142316100Y-96743600D01*
X139776100Y-96743600D02*
X140411100Y-97378600D01*
X141681100Y-94838600D02*
X142316100Y-95473600D01*
X139776100Y-95473600D02*
X140411100Y-94838600D01*
X139776100Y-96743600D02*
X139776100Y-95473600D01*
X142316100Y-98013600D02*
X142316100Y-99283600D01*
X141681100Y-99918600D02*
X142316100Y-99283600D01*
X139776100Y-99283600D02*
X140411100Y-99918600D01*
X141681100Y-97378600D02*
X142316100Y-98013600D01*
X139776100Y-98013600D02*
X140411100Y-97378600D01*
X139776100Y-99283600D02*
X139776100Y-98013600D01*
X142316100Y-115793600D02*
X142316100Y-117063600D01*
X141681100Y-117698600D02*
X142316100Y-117063600D01*
X139776100Y-117063600D02*
X140411100Y-117698600D01*
X140411100Y-117698600D02*
X141681100Y-117698600D01*
X142316100Y-114523600D02*
X141681100Y-115158600D01*
X142316100Y-113253600D02*
X142316100Y-114523600D01*
X141681100Y-112618600D02*
X142316100Y-113253600D01*
X139776100Y-113253600D02*
X140411100Y-112618600D01*
X139776100Y-114523600D02*
X139776100Y-113253600D01*
X140411100Y-115158600D02*
X139776100Y-114523600D01*
X141681100Y-115158600D02*
X142316100Y-115793600D01*
X139776100Y-115793600D02*
X140411100Y-115158600D01*
X139776100Y-117063600D02*
X139776100Y-115793600D01*
X142316100Y-108173600D02*
X142316100Y-109443600D01*
X141681100Y-110078600D02*
X142316100Y-109443600D01*
X139776100Y-109443600D02*
X140411100Y-110078600D01*
X142316100Y-111983600D02*
X141681100Y-112618600D01*
X142316100Y-110713600D02*
X142316100Y-111983600D01*
X141681100Y-110078600D02*
X142316100Y-110713600D01*
X139776100Y-110713600D02*
X140411100Y-110078600D01*
X139776100Y-111983600D02*
X139776100Y-110713600D01*
X140411100Y-112618600D02*
X139776100Y-111983600D01*
X142316100Y-106903600D02*
X141681100Y-107538600D01*
X142316100Y-105633600D02*
X142316100Y-106903600D01*
X141681100Y-104998600D02*
X142316100Y-105633600D01*
X139776100Y-105633600D02*
X140411100Y-104998600D01*
X139776100Y-106903600D02*
X139776100Y-105633600D01*
X140411100Y-107538600D02*
X139776100Y-106903600D01*
X141681100Y-107538600D02*
X142316100Y-108173600D01*
X139776100Y-108173600D02*
X140411100Y-107538600D01*
X139776100Y-109443600D02*
X139776100Y-108173600D01*
X142316100Y-100553600D02*
X142316100Y-101823600D01*
X141681100Y-102458600D02*
X142316100Y-101823600D01*
X139776100Y-101823600D02*
X140411100Y-102458600D01*
X142316100Y-104363600D02*
X141681100Y-104998600D01*
X142316100Y-103093600D02*
X142316100Y-104363600D01*
X141681100Y-102458600D02*
X142316100Y-103093600D01*
X139776100Y-103093600D02*
X140411100Y-102458600D01*
X139776100Y-104363600D02*
X139776100Y-103093600D01*
X140411100Y-104998600D02*
X139776100Y-104363600D01*
X141681100Y-99918600D02*
X142316100Y-100553600D01*
X139776100Y-100553600D02*
X140411100Y-99918600D01*
X139776100Y-101823600D02*
X139776100Y-100553600D01*
X157556100Y-92933600D02*
X157556100Y-94203600D01*
X156921100Y-94838600D02*
X157556100Y-94203600D01*
X155016100Y-94203600D02*
X155651100Y-94838600D01*
X156921100Y-92298600D02*
X157556100Y-92933600D01*
X155651100Y-92298600D02*
X156921100Y-92298600D01*
X155016100Y-92933600D02*
X155651100Y-92298600D01*
X155016100Y-94203600D02*
X155016100Y-92933600D01*
X157556100Y-95473600D02*
X157556100Y-96743600D01*
X156921100Y-97378600D02*
X157556100Y-96743600D01*
X155016100Y-96743600D02*
X155651100Y-97378600D01*
X156921100Y-94838600D02*
X157556100Y-95473600D01*
X155016100Y-95473600D02*
X155651100Y-94838600D01*
X155016100Y-96743600D02*
X155016100Y-95473600D01*
X157556100Y-98013600D02*
X157556100Y-99283600D01*
X156921100Y-99918600D02*
X157556100Y-99283600D01*
X155016100Y-99283600D02*
X155651100Y-99918600D01*
X156921100Y-97378600D02*
X157556100Y-98013600D01*
X155016100Y-98013600D02*
X155651100Y-97378600D01*
X155016100Y-99283600D02*
X155016100Y-98013600D01*
X157556100Y-115793600D02*
X157556100Y-117063600D01*
X156921100Y-117698600D02*
X157556100Y-117063600D01*
X155016100Y-117063600D02*
X155651100Y-117698600D01*
X155651100Y-117698600D02*
X156921100Y-117698600D01*
X157556100Y-114523600D02*
X156921100Y-115158600D01*
X157556100Y-113253600D02*
X157556100Y-114523600D01*
X156921100Y-112618600D02*
X157556100Y-113253600D01*
X155016100Y-113253600D02*
X155651100Y-112618600D01*
X155016100Y-114523600D02*
X155016100Y-113253600D01*
X155651100Y-115158600D02*
X155016100Y-114523600D01*
X156921100Y-115158600D02*
X157556100Y-115793600D01*
X155016100Y-115793600D02*
X155651100Y-115158600D01*
X155016100Y-117063600D02*
X155016100Y-115793600D01*
X157556100Y-108173600D02*
X157556100Y-109443600D01*
X156921100Y-110078600D02*
X157556100Y-109443600D01*
X155016100Y-109443600D02*
X155651100Y-110078600D01*
X157556100Y-111983600D02*
X156921100Y-112618600D01*
X157556100Y-110713600D02*
X157556100Y-111983600D01*
X156921100Y-110078600D02*
X157556100Y-110713600D01*
X155016100Y-110713600D02*
X155651100Y-110078600D01*
X155016100Y-111983600D02*
X155016100Y-110713600D01*
X155651100Y-112618600D02*
X155016100Y-111983600D01*
X157556100Y-106903600D02*
X156921100Y-107538600D01*
X157556100Y-105633600D02*
X157556100Y-106903600D01*
X156921100Y-104998600D02*
X157556100Y-105633600D01*
X155016100Y-105633600D02*
X155651100Y-104998600D01*
X155016100Y-106903600D02*
X155016100Y-105633600D01*
X155651100Y-107538600D02*
X155016100Y-106903600D01*
X156921100Y-107538600D02*
X157556100Y-108173600D01*
X155016100Y-108173600D02*
X155651100Y-107538600D01*
X155016100Y-109443600D02*
X155016100Y-108173600D01*
X157556100Y-100553600D02*
X157556100Y-101823600D01*
X156921100Y-102458600D02*
X157556100Y-101823600D01*
X155016100Y-101823600D02*
X155651100Y-102458600D01*
X157556100Y-104363600D02*
X156921100Y-104998600D01*
X157556100Y-103093600D02*
X157556100Y-104363600D01*
X156921100Y-102458600D02*
X157556100Y-103093600D01*
X155016100Y-103093600D02*
X155651100Y-102458600D01*
X155016100Y-104363600D02*
X155016100Y-103093600D01*
X155651100Y-104998600D02*
X155016100Y-104363600D01*
X156921100Y-99918600D02*
X157556100Y-100553600D01*
X155016100Y-100553600D02*
X155651100Y-99918600D01*
X155016100Y-101823600D02*
X155016100Y-100553600D01*
D12*
X147231700Y-101138600D02*
G75*
G03X147231700Y-101138600I-565600J0D01*
G01*
X152416100Y-112698600D02*
X144916100Y-112698600D01*
X152416100Y-99838600D02*
X144916100Y-99838600D01*
D10*
G36*
X149010000Y-94521400D02*
G01*
X149161800Y-94443200D01*
X149538800Y-94750600D01*
X149797300Y-94492100D01*
X149489900Y-94115100D01*
X149620200Y-93800600D01*
X150104100Y-93751400D01*
X150104100Y-93385800D01*
X149620200Y-93336600D01*
X149489900Y-93022100D01*
X149797300Y-92645100D01*
X149538800Y-92386600D01*
X149161800Y-92694000D01*
X149009964Y-92615783D01*
X148847300Y-92563700D01*
X148798100Y-92079800D01*
X148432500Y-92079800D01*
X148383300Y-92563700D01*
X148068800Y-92694000D01*
X147691800Y-92386600D01*
X147433300Y-92645100D01*
X147740700Y-93022100D01*
X147610400Y-93336600D01*
X147126500Y-93385800D01*
X147126500Y-93751400D01*
X147610400Y-93800600D01*
X147740700Y-94115100D01*
X147433300Y-94492100D01*
X147691800Y-94750600D01*
X148068800Y-94443200D01*
X148143079Y-94485447D01*
X148220600Y-94521400D01*
X148435900Y-94001700D01*
X148435901Y-94001700D01*
X148283800Y-93900093D01*
X148146500Y-93568600D01*
X148168661Y-93426279D01*
X148232991Y-93297407D01*
X148333415Y-93194153D01*
X148460451Y-93126267D01*
X148602101Y-93100161D01*
X148744991Y-93118298D01*
X148875626Y-93178967D01*
X148981672Y-93276439D01*
X149053114Y-93401509D01*
X149083206Y-93542366D01*
X149069106Y-93685711D01*
X149012146Y-93818006D01*
X148917705Y-93926759D01*
X148794700Y-94001700D01*
X149010000Y-94521400D01*
G37*
M02*
